<svg width="16" height="16" viewBox="0 0 16 16" fill="none" xmlns="http://www.w3.org/2000/svg">
<g clip-path="url(#clip0_177_3193)">
<path d="M6.66661 12.6666V9.33331H9.33328V12.6666C9.33328 13.0333 9.63328 13.3333 9.99994 13.3333H11.9999C12.3666 13.3333 12.6666 13.0333 12.6666 12.6666V7.99998H13.7999C14.1066 7.99998 14.2533 7.61998 14.0199 7.41998L8.44661 2.39998C8.19328 2.17331 7.80661 2.17331 7.55328 2.39998L1.97994 7.41998C1.75328 7.61998 1.89328 7.99998 2.19994 7.99998H3.33328V12.6666C3.33328 13.0333 3.63328 13.3333 3.99994 13.3333H5.99994C6.36661 13.3333 6.66661 13.0333 6.66661 12.6666Z" fill="black"/>
</g>
<defs>
<clipPath id="clip0_177_3193">
<rect width="16" height="16" fill="white"/>
</clipPath>
</defs>
</svg>
