<svg width="262" height="46" viewBox="0 0 262 46" fill="none" xmlns="http://www.w3.org/2000/svg">
<rect x="1.5" y="1.5" width="128" height="43" rx="6.5" stroke="#D96E00" stroke-width="3"/>
<path d="M6.848 32V16.352H10.376V29.024H16.568V32H6.848ZM19.4819 32V20.096H23.0099V32H19.4819ZM21.2339 18.344C20.6419 18.344 20.1619 18.176 19.7939 17.84C19.4259 17.504 19.2419 17.056 19.2419 16.496C19.2419 15.936 19.4259 15.488 19.7939 15.152C20.1619 14.816 20.6419 14.648 21.2339 14.648C21.8259 14.648 22.3059 14.816 22.6739 15.152C23.0419 15.488 23.2259 15.936 23.2259 16.496C23.2259 17.056 23.0419 17.504 22.6739 17.84C22.3059 18.176 21.8259 18.344 21.2339 18.344ZM26.6147 32V20.096H29.4947L29.7347 21.608H29.8307C30.3427 21.128 30.9027 20.712 31.5107 20.36C32.1347 19.992 32.8467 19.808 33.6467 19.808C34.9427 19.808 35.8787 20.24 36.4547 21.104C37.0467 21.952 37.3427 23.12 37.3427 24.608V32H33.8147V25.064C33.8147 24.2 33.6947 23.608 33.4547 23.288C33.2307 22.968 32.8627 22.808 32.3507 22.808C31.9027 22.808 31.5187 22.912 31.1987 23.12C30.8787 23.312 30.5267 23.592 30.1427 23.96V32H26.6147ZM40.8491 32V15.176H44.2811V24.824H44.3771L48.1451 20.096H51.9851L47.8091 24.992L52.2971 32H48.4811L45.7931 27.368L44.2811 29.072V32H40.8491ZM60.0902 32V16.352H63.6182V29.024H69.8102V32H60.0902ZM84.2688 32.288C83.7408 32.288 83.2048 32.16 82.6608 31.904C82.1328 31.632 81.6368 31.24 81.1728 30.728H81.0768L80.7888 32H78.0288V15.176H81.5568V19.304L81.4608 21.128C81.9248 20.712 82.4288 20.392 82.9728 20.168C83.5168 19.928 84.0608 19.808 84.6048 19.808C85.5648 19.808 86.3968 20.056 87.1008 20.552C87.8048 21.048 88.3408 21.752 88.7088 22.664C89.0928 23.56 89.2848 24.616 89.2848 25.832C89.2848 27.192 89.0448 28.36 88.5648 29.336C88.0848 30.296 87.4608 31.032 86.6928 31.544C85.9408 32.04 85.1328 32.288 84.2688 32.288ZM83.4528 29.408C84.0608 29.408 84.5808 29.128 85.0128 28.568C85.4448 28.008 85.6608 27.12 85.6608 25.904C85.6608 23.76 84.9728 22.688 83.5968 22.688C82.8928 22.688 82.2128 23.048 81.5568 23.768V28.64C81.8768 28.928 82.1968 29.128 82.5168 29.24C82.8368 29.352 83.1488 29.408 83.4528 29.408ZM97.3986 32.288C96.3906 32.288 95.4386 32.048 94.5426 31.568C93.6626 31.072 92.9506 30.36 92.4066 29.432C91.8626 28.488 91.5906 27.36 91.5906 26.048C91.5906 24.72 91.8626 23.592 92.4066 22.664C92.9506 21.736 93.6626 21.032 94.5426 20.552C95.4386 20.056 96.3906 19.808 97.3986 19.808C98.4066 19.808 99.3506 20.056 100.231 20.552C101.111 21.032 101.823 21.736 102.367 22.664C102.911 23.592 103.183 24.72 103.183 26.048C103.183 27.36 102.911 28.488 102.367 29.432C101.823 30.36 101.111 31.072 100.231 31.568C99.3506 32.048 98.4066 32.288 97.3986 32.288ZM97.3986 29.432C98.1186 29.432 98.6626 29.128 99.0306 28.52C99.3986 27.896 99.5826 27.072 99.5826 26.048C99.5826 25.008 99.3986 24.184 99.0306 23.576C98.6626 22.968 98.1186 22.664 97.3986 22.664C96.6626 22.664 96.1106 22.968 95.7426 23.576C95.3906 24.184 95.2146 25.008 95.2146 26.048C95.2146 27.072 95.3906 27.896 95.7426 28.52C96.1106 29.128 96.6626 29.432 97.3986 29.432ZM109.339 32.288C108.123 32.288 107.275 31.928 106.795 31.208C106.331 30.472 106.099 29.504 106.099 28.304V15.176H109.627V28.448C109.627 28.816 109.691 29.072 109.819 29.216C109.963 29.36 110.107 29.432 110.251 29.432C110.331 29.432 110.395 29.432 110.443 29.432C110.507 29.416 110.587 29.4 110.683 29.384L111.115 32C110.923 32.08 110.675 32.144 110.371 32.192C110.083 32.256 109.739 32.288 109.339 32.288ZM117.714 32.288C116.242 32.288 115.058 31.736 114.162 30.632C113.282 29.512 112.842 27.984 112.842 26.048C112.842 24.752 113.074 23.64 113.538 22.712C114.018 21.768 114.634 21.048 115.386 20.552C116.154 20.056 116.954 19.808 117.786 19.808C118.442 19.808 118.994 19.92 119.442 20.144C119.89 20.368 120.314 20.672 120.714 21.056L120.57 19.232V15.176H124.098V32H121.218L120.978 30.824H120.882C120.466 31.24 119.978 31.592 119.418 31.88C118.858 32.152 118.29 32.288 117.714 32.288ZM118.626 29.408C119.01 29.408 119.354 29.328 119.658 29.168C119.978 29.008 120.282 28.728 120.57 28.328V23.456C120.266 23.168 119.938 22.968 119.586 22.856C119.25 22.744 118.922 22.688 118.602 22.688C118.042 22.688 117.546 22.96 117.114 23.504C116.682 24.032 116.466 24.864 116.466 26C116.466 27.168 116.65 28.032 117.018 28.592C117.402 29.136 117.938 29.408 118.626 29.408Z" fill="#126DFF"/>
<path d="M5 33.8H125.658V35H5V33.8Z" fill="#126DFF"/>
<rect x="156.5" y="5.5" width="104" height="35" rx="6.5" stroke="#D96E00" stroke-width="3"/>
<path d="M163.8 30.228C162.837 30.228 162.166 29.943 161.786 29.373C161.419 28.7903 161.235 28.024 161.235 27.074V16.681H164.028V27.188C164.028 27.4793 164.079 27.682 164.18 27.796C164.294 27.91 164.408 27.967 164.522 27.967C164.585 27.967 164.636 27.967 164.674 27.967C164.725 27.9543 164.788 27.9417 164.864 27.929L165.206 30C165.054 30.0633 164.858 30.114 164.617 30.152C164.389 30.2027 164.117 30.228 163.8 30.228ZM167.172 30V20.576H169.965V30H167.172ZM168.559 19.189C168.09 19.189 167.71 19.056 167.419 18.79C167.127 18.524 166.982 18.1693 166.982 17.726C166.982 17.2827 167.127 16.928 167.419 16.662C167.71 16.396 168.09 16.263 168.559 16.263C169.027 16.263 169.407 16.396 169.699 16.662C169.99 16.928 170.136 17.2827 170.136 17.726C170.136 18.1693 169.99 18.524 169.699 18.79C169.407 19.056 169.027 19.189 168.559 19.189ZM172.923 30V20.576H175.203L175.393 21.773H175.469C175.874 21.393 176.317 21.0637 176.799 20.785C177.293 20.4937 177.856 20.348 178.49 20.348C179.516 20.348 180.257 20.69 180.713 21.374C181.181 22.0453 181.416 22.97 181.416 24.148V30H178.623V24.509C178.623 23.825 178.528 23.3563 178.338 23.103C178.16 22.8497 177.869 22.723 177.464 22.723C177.109 22.723 176.805 22.8053 176.552 22.97C176.298 23.122 176.02 23.3437 175.716 23.635V30H172.923ZM184.296 30V16.681H187.013V24.319H187.089L190.072 20.576H193.112L189.806 24.452L193.359 30H190.338L188.21 26.333L187.013 27.682V30H184.296ZM199.736 30V17.612H202.795L204.79 23.122C204.917 23.4767 205.037 23.8503 205.151 24.243C205.265 24.6357 205.386 25.022 205.512 25.402H205.588C205.715 25.022 205.829 24.6357 205.93 24.243C206.044 23.8503 206.165 23.4767 206.291 23.122L208.248 17.612H211.288V30H208.742V25.459C208.742 25.0537 208.761 24.604 208.799 24.11C208.85 23.6033 208.901 23.0967 208.951 22.59C209.015 22.0833 209.065 21.6337 209.103 21.241H209.027L208.02 24.186L206.253 28.917H204.714L202.947 24.186L201.959 21.241H201.883C201.934 21.6337 201.985 22.0833 202.035 22.59C202.086 23.0967 202.13 23.6033 202.168 24.11C202.219 24.604 202.244 25.0537 202.244 25.459V30H199.736ZM223.725 30.228C223.307 30.228 222.882 30.1267 222.452 29.924C222.034 29.7087 221.641 29.3983 221.274 28.993H221.198L220.97 30H218.785V16.681H221.578V19.949L221.502 21.393C221.869 21.0637 222.268 20.8103 222.699 20.633C223.129 20.443 223.56 20.348 223.991 20.348C224.751 20.348 225.409 20.5443 225.967 20.937C226.524 21.3297 226.948 21.887 227.24 22.609C227.544 23.3183 227.696 24.1543 227.696 25.117C227.696 26.1937 227.506 27.1183 227.126 27.891C226.746 28.651 226.252 29.2337 225.644 29.639C225.048 30.0317 224.409 30.228 223.725 30.228ZM223.079 27.948C223.56 27.948 223.972 27.7263 224.314 27.283C224.656 26.8397 224.827 26.1367 224.827 25.174C224.827 23.4767 224.282 22.628 223.193 22.628C222.635 22.628 222.097 22.913 221.578 23.483V27.34C221.831 27.568 222.084 27.7263 222.338 27.815C222.591 27.9037 222.838 27.948 223.079 27.948ZM234.223 30.228C233.425 30.228 232.672 30.038 231.962 29.658C231.266 29.2653 230.702 28.7017 230.271 27.967C229.841 27.2197 229.625 26.3267 229.625 25.288C229.625 24.2367 229.841 23.3437 230.271 22.609C230.702 21.8743 231.266 21.317 231.962 20.937C232.672 20.5443 233.425 20.348 234.223 20.348C235.021 20.348 235.769 20.5443 236.465 20.937C237.162 21.317 237.726 21.8743 238.156 22.609C238.587 23.3437 238.802 24.2367 238.802 25.288C238.802 26.3267 238.587 27.2197 238.156 27.967C237.726 28.7017 237.162 29.2653 236.465 29.658C235.769 30.038 235.021 30.228 234.223 30.228ZM234.223 27.967C234.793 27.967 235.224 27.7263 235.515 27.245C235.807 26.751 235.952 26.0987 235.952 25.288C235.952 24.4647 235.807 23.8123 235.515 23.331C235.224 22.8497 234.793 22.609 234.223 22.609C233.641 22.609 233.204 22.8497 232.912 23.331C232.634 23.8123 232.494 24.4647 232.494 25.288C232.494 26.0987 232.634 26.751 232.912 27.245C233.204 27.7263 233.641 27.967 234.223 27.967ZM243.78 30.228C242.818 30.228 242.146 29.943 241.766 29.373C241.399 28.7903 241.215 28.024 241.215 27.074V16.681H244.008V27.188C244.008 27.4793 244.059 27.682 244.16 27.796C244.274 27.91 244.388 27.967 244.502 27.967C244.566 27.967 244.616 27.967 244.654 27.967C244.705 27.9543 244.768 27.9417 244.844 27.929L245.186 30C245.034 30.0633 244.838 30.114 244.597 30.152C244.369 30.2027 244.097 30.228 243.78 30.228ZM250.515 30.228C249.35 30.228 248.412 29.791 247.703 28.917C247.006 28.0303 246.658 26.8207 246.658 25.288C246.658 24.262 246.842 23.3817 247.209 22.647C247.589 21.8997 248.077 21.3297 248.672 20.937C249.28 20.5443 249.913 20.348 250.572 20.348C251.091 20.348 251.528 20.4367 251.883 20.614C252.238 20.7913 252.573 21.032 252.89 21.336L252.776 19.892V16.681H255.569V30H253.289L253.099 29.069H253.023C252.694 29.3983 252.307 29.677 251.864 29.905C251.421 30.1203 250.971 30.228 250.515 30.228ZM251.237 27.948C251.541 27.948 251.813 27.8847 252.054 27.758C252.307 27.6313 252.548 27.4097 252.776 27.093V23.236C252.535 23.008 252.276 22.8497 251.997 22.761C251.731 22.6723 251.471 22.628 251.218 22.628C250.775 22.628 250.382 22.8433 250.04 23.274C249.698 23.692 249.527 24.3507 249.527 25.25C249.527 26.1747 249.673 26.8587 249.964 27.302C250.268 27.7327 250.692 27.948 251.237 27.948Z" fill="#126DFF"/>
<path d="M160 31.425H256.804V32.375H160V31.425Z" fill="#126DFF"/>
</svg>
