<svg width="509" height="38" viewBox="0 0 509 38" fill="none" xmlns="http://www.w3.org/2000/svg">
<g clip-path="url(#clip0_2393_19716)" filter="url(#filter0_i_2393_19716)">
<path d="M1.44 25V14.504H4.064C5.68533 14.504 6.91733 14.9573 7.76 15.864C8.60267 16.76 9.024 18.04 9.024 19.704C9.024 21.3787 8.60267 22.68 7.76 23.608C6.928 24.536 5.71733 25 4.128 25H1.44ZM2.768 23.912H3.968C5.19467 23.912 6.112 23.544 6.72 22.808C7.33867 22.0613 7.648 21.0267 7.648 19.704C7.648 18.3813 7.33867 17.368 6.72 16.664C6.112 15.9493 5.19467 15.592 3.968 15.592H2.768V23.912ZM14.6798 25.192C14.0504 25.192 13.4584 25.032 12.9038 24.712C12.3598 24.392 11.9171 23.928 11.5758 23.32C11.2451 22.712 11.0798 21.9813 11.0798 21.128C11.0798 20.2533 11.2451 19.512 11.5758 18.904C11.9171 18.296 12.3598 17.832 12.9038 17.512C13.4584 17.192 14.0504 17.032 14.6798 17.032C15.3198 17.032 15.9118 17.192 16.4558 17.512C16.9998 17.832 17.4371 18.296 17.7678 18.904C18.1091 19.512 18.2798 20.2533 18.2798 21.128C18.2798 21.9813 18.1091 22.712 17.7678 23.32C17.4371 23.928 16.9998 24.392 16.4558 24.712C15.9118 25.032 15.3198 25.192 14.6798 25.192ZM14.6798 24.104C15.3518 24.104 15.8904 23.832 16.2958 23.288C16.7118 22.7333 16.9198 22.0133 16.9198 21.128C16.9198 20.232 16.7118 19.5067 16.2958 18.952C15.8904 18.3973 15.3518 18.12 14.6798 18.12C14.0184 18.12 13.4798 18.3973 13.0638 18.952C12.6478 19.5067 12.4398 20.232 12.4398 21.128C12.4398 22.0133 12.6478 22.7333 13.0638 23.288C13.4798 23.832 14.0184 24.104 14.6798 24.104ZM20.8276 25V17.224H21.9156L22.0276 18.344H22.0756C22.417 17.9707 22.7903 17.6613 23.1956 17.416C23.601 17.16 24.033 17.032 24.4916 17.032C25.089 17.032 25.553 17.1653 25.8836 17.432C26.225 17.688 26.4756 18.0507 26.6356 18.52C27.041 18.0827 27.4516 17.7253 27.8676 17.448C28.2836 17.1707 28.7263 17.032 29.1956 17.032C29.9956 17.032 30.5876 17.2933 30.9716 17.816C31.3663 18.328 31.5636 19.08 31.5636 20.072V25H30.2516V20.248C30.2516 19.5227 30.1343 18.9947 29.8996 18.664C29.665 18.3333 29.3023 18.168 28.8116 18.168C28.2356 18.168 27.585 18.568 26.8596 19.368V25H25.5476V20.248C25.5476 19.5227 25.4303 18.9947 25.1956 18.664C24.961 18.3333 24.593 18.168 24.0916 18.168C23.5156 18.168 22.865 18.568 22.1396 19.368V25H20.8276ZM37.6173 25.192C36.9879 25.192 36.3959 25.032 35.8413 24.712C35.2973 24.392 34.8546 23.928 34.5133 23.32C34.1826 22.712 34.0173 21.9813 34.0173 21.128C34.0173 20.2533 34.1826 19.512 34.5133 18.904C34.8546 18.296 35.2973 17.832 35.8413 17.512C36.3959 17.192 36.9879 17.032 37.6173 17.032C38.2573 17.032 38.8493 17.192 39.3933 17.512C39.9373 17.832 40.3746 18.296 40.7053 18.904C41.0466 19.512 41.2173 20.2533 41.2173 21.128C41.2173 21.9813 41.0466 22.712 40.7053 23.32C40.3746 23.928 39.9373 24.392 39.3933 24.712C38.8493 25.032 38.2573 25.192 37.6173 25.192ZM37.6173 24.104C38.2893 24.104 38.8279 23.832 39.2333 23.288C39.6493 22.7333 39.8573 22.0133 39.8573 21.128C39.8573 20.232 39.6493 19.5067 39.2333 18.952C38.8279 18.3973 38.2893 18.12 37.6173 18.12C36.9559 18.12 36.4173 18.3973 36.0013 18.952C35.5853 19.5067 35.3773 20.232 35.3773 21.128C35.3773 22.0133 35.5853 22.7333 36.0013 23.288C36.4173 23.832 36.9559 24.104 37.6173 24.104ZM45.3826 25L42.5826 17.224H43.9426L45.4146 21.64C45.532 22.024 45.6493 22.408 45.7666 22.792C45.8946 23.176 46.0173 23.5547 46.1346 23.928H46.1986C46.316 23.5547 46.4333 23.176 46.5506 22.792C46.6786 22.408 46.796 22.024 46.9026 21.64L48.3746 17.224H49.6706L46.9186 25H45.3826Z" fill="black"/>
<path d="M0 26.2H19.5158V27H0V26.2ZM19.5156 26.2H42.4533V27H19.5156V26.2ZM42.3906 26.2H49.8626V27H42.3906V26.2Z" fill="black"/>
</g>
<g clip-path="url(#clip1_2393_19716)">
<path d="M64.9197 25.0067C65.2463 25.3334 65.773 25.3334 66.0997 25.0067L71.6397 19.4667C71.8997 19.2067 71.8997 18.7867 71.6397 18.5267L66.0997 12.9867C65.773 12.66 65.2463 12.66 64.9197 12.9867C64.593 13.3134 64.593 13.84 64.9197 14.1667L69.7463 19L64.913 23.8334C64.593 24.1534 64.593 24.6867 64.9197 25.0067Z" fill="black"/>
</g>
<rect x="84.5" y="1.5" width="62" height="35" rx="6.5" stroke="#D96E00" stroke-width="3"/>
<g clip-path="url(#clip2_2393_19716)" filter="url(#filter1_i_2393_19716)">
<path d="M92.352 25.192C91.616 25.192 90.9333 25.0533 90.304 24.776C89.6747 24.488 89.1307 24.1093 88.672 23.64L89.472 22.712C89.8453 23.1067 90.2827 23.4267 90.784 23.672C91.296 23.9067 91.824 24.024 92.368 24.024C93.0613 24.024 93.6 23.8693 93.984 23.56C94.368 23.24 94.56 22.824 94.56 22.312C94.56 21.9493 94.48 21.6613 94.32 21.448C94.1707 21.2347 93.9627 21.0533 93.696 20.904C93.44 20.7547 93.1467 20.6053 92.816 20.456L91.312 19.8C90.9813 19.6613 90.6507 19.48 90.32 19.256C90 19.032 89.728 18.744 89.504 18.392C89.2907 18.04 89.184 17.608 89.184 17.096C89.184 16.5627 89.3227 16.088 89.6 15.672C89.888 15.2453 90.2827 14.9147 90.784 14.68C91.2853 14.4347 91.8507 14.312 92.48 14.312C93.1093 14.312 93.6907 14.4347 94.224 14.68C94.7573 14.9147 95.2107 15.224 95.584 15.608L94.864 16.472C94.544 16.1627 94.1867 15.9227 93.792 15.752C93.408 15.5707 92.9707 15.48 92.48 15.48C91.8933 15.48 91.4187 15.6187 91.056 15.896C90.704 16.1733 90.528 16.5467 90.528 17.016C90.528 17.3467 90.6133 17.624 90.784 17.848C90.9653 18.0613 91.1893 18.2373 91.456 18.376C91.7227 18.5147 91.9947 18.6427 92.272 18.76L93.76 19.4C94.1653 19.5707 94.528 19.7787 94.848 20.024C95.1787 20.2587 95.44 20.552 95.632 20.904C95.824 21.2453 95.92 21.6773 95.92 22.2C95.92 22.7547 95.776 23.2613 95.488 23.72C95.2 24.168 94.7893 24.5253 94.256 24.792C93.7227 25.0587 93.088 25.192 92.352 25.192ZM101.511 25.192C100.818 25.192 100.188 25.032 99.6229 24.712C99.0575 24.3813 98.6095 23.912 98.2789 23.304C97.9482 22.696 97.7829 21.9707 97.7829 21.128C97.7829 20.2747 97.9482 19.544 98.2789 18.936C98.6202 18.328 99.0575 17.8587 99.5909 17.528C100.124 17.1973 100.684 17.032 101.271 17.032C102.263 17.032 103.026 17.3627 103.559 18.024C104.103 18.6853 104.375 19.5707 104.375 20.68C104.375 20.8187 104.37 20.9573 104.359 21.096C104.359 21.224 104.348 21.336 104.327 21.432H99.0789C99.1322 22.2533 99.3882 22.9093 99.8469 23.4C100.316 23.8907 100.924 24.136 101.671 24.136C102.044 24.136 102.386 24.0827 102.695 23.976C103.015 23.8587 103.319 23.7093 103.607 23.528L104.071 24.392C103.74 24.6053 103.362 24.792 102.935 24.952C102.519 25.112 102.044 25.192 101.511 25.192ZM99.0629 20.488H103.223C103.223 19.6987 103.052 19.1013 102.711 18.696C102.38 18.28 101.911 18.072 101.303 18.072C100.759 18.072 100.268 18.2853 99.8309 18.712C99.4042 19.128 99.1482 19.72 99.0629 20.488ZM106.796 25V13.608H108.092V21.32H108.14L111.452 17.224H112.908L110.3 20.344L113.26 25H111.82L109.548 21.256L108.092 22.952V25H106.796ZM118.009 25.192C117.326 25.192 116.708 25.032 116.153 24.712C115.598 24.392 115.161 23.928 114.841 23.32C114.521 22.712 114.361 21.9813 114.361 21.128C114.361 20.2533 114.532 19.512 114.873 18.904C115.225 18.296 115.684 17.832 116.249 17.512C116.825 17.192 117.444 17.032 118.105 17.032C118.617 17.032 119.054 17.1227 119.417 17.304C119.79 17.4853 120.11 17.6987 120.377 17.944L119.705 18.808C119.481 18.6053 119.241 18.44 118.985 18.312C118.74 18.184 118.462 18.12 118.153 18.12C117.684 18.12 117.262 18.248 116.889 18.504C116.526 18.7493 116.238 19.1013 116.025 19.56C115.822 20.008 115.721 20.5307 115.721 21.128C115.721 22.0133 115.94 22.7333 116.377 23.288C116.825 23.832 117.406 24.104 118.121 24.104C118.484 24.104 118.82 24.0293 119.129 23.88C119.438 23.72 119.71 23.5333 119.945 23.32L120.521 24.2C120.169 24.5093 119.78 24.7547 119.353 24.936C118.926 25.1067 118.478 25.192 118.009 25.192ZM122.734 25V17.224H124.046V25H122.734ZM123.406 15.624C123.15 15.624 122.937 15.5493 122.766 15.4C122.606 15.24 122.526 15.0267 122.526 14.76C122.526 14.504 122.606 14.296 122.766 14.136C122.937 13.976 123.15 13.896 123.406 13.896C123.662 13.896 123.87 13.976 124.03 14.136C124.201 14.296 124.286 14.504 124.286 14.76C124.286 15.0267 124.201 15.24 124.03 15.4C123.87 15.5493 123.662 15.624 123.406 15.624ZM128.963 25.192C128.313 25.192 127.769 25 127.331 24.616C126.905 24.2213 126.691 23.6773 126.691 22.984C126.691 22.1307 127.07 21.48 127.827 21.032C128.595 20.5733 129.806 20.2533 131.459 20.072C131.459 19.7413 131.411 19.4267 131.315 19.128C131.23 18.8293 131.07 18.5893 130.835 18.408C130.611 18.216 130.286 18.12 129.859 18.12C129.411 18.12 128.99 18.2053 128.595 18.376C128.201 18.5467 127.849 18.7387 127.539 18.952L127.027 18.04C127.39 17.8053 127.833 17.5813 128.355 17.368C128.889 17.144 129.465 17.032 130.083 17.032C131.033 17.032 131.721 17.3253 132.147 17.912C132.574 18.488 132.787 19.2613 132.787 20.232V25H131.699L131.587 24.072H131.539C131.177 24.3707 130.777 24.632 130.339 24.856C129.913 25.08 129.454 25.192 128.963 25.192ZM129.347 24.136C129.721 24.136 130.073 24.0453 130.403 23.864C130.734 23.6827 131.086 23.4267 131.459 23.096V20.936C130.169 21.096 129.262 21.336 128.739 21.656C128.227 21.976 127.971 22.3867 127.971 22.888C127.971 23.3253 128.105 23.6453 128.371 23.848C128.638 24.04 128.963 24.136 129.347 24.136ZM135.686 25V23.912H138.022V16.392H136.166V15.544C136.635 15.4587 137.041 15.3573 137.382 15.24C137.734 15.112 138.049 14.9627 138.326 14.792H139.334V23.912H141.446V25H135.686Z" fill="black"/>
<path d="M88 26.2H113.904V27H88V26.2ZM113.625 26.2H134.423V27H113.625V26.2ZM134.422 26.2H142.374V27H134.422V26.2Z" fill="black"/>
</g>
<g clip-path="url(#clip3_2393_19716)">
<path d="M159.92 25.0067C160.246 25.3334 160.773 25.3334 161.1 25.0067L166.64 19.4667C166.9 19.2067 166.9 18.7867 166.64 18.5267L161.1 12.9867C160.773 12.66 160.246 12.66 159.92 12.9867C159.593 13.3134 159.593 13.84 159.92 14.1667L164.746 19L159.913 23.8334C159.593 24.1534 159.593 24.6867 159.92 25.0067Z" fill="black"/>
</g>
<g clip-path="url(#clip4_2393_19716)" filter="url(#filter2_i_2393_19716)">
<path d="M185.352 25.192C184.616 25.192 183.933 25.0533 183.304 24.776C182.675 24.488 182.131 24.1093 181.672 23.64L182.472 22.712C182.845 23.1067 183.283 23.4267 183.784 23.672C184.296 23.9067 184.824 24.024 185.368 24.024C186.061 24.024 186.6 23.8693 186.984 23.56C187.368 23.24 187.56 22.824 187.56 22.312C187.56 21.9493 187.48 21.6613 187.32 21.448C187.171 21.2347 186.963 21.0533 186.696 20.904C186.44 20.7547 186.147 20.6053 185.816 20.456L184.312 19.8C183.981 19.6613 183.651 19.48 183.32 19.256C183 19.032 182.728 18.744 182.504 18.392C182.291 18.04 182.184 17.608 182.184 17.096C182.184 16.5627 182.323 16.088 182.6 15.672C182.888 15.2453 183.283 14.9147 183.784 14.68C184.285 14.4347 184.851 14.312 185.48 14.312C186.109 14.312 186.691 14.4347 187.224 14.68C187.757 14.9147 188.211 15.224 188.584 15.608L187.864 16.472C187.544 16.1627 187.187 15.9227 186.792 15.752C186.408 15.5707 185.971 15.48 185.48 15.48C184.893 15.48 184.419 15.6187 184.056 15.896C183.704 16.1733 183.528 16.5467 183.528 17.016C183.528 17.3467 183.613 17.624 183.784 17.848C183.965 18.0613 184.189 18.2373 184.456 18.376C184.723 18.5147 184.995 18.6427 185.272 18.76L186.76 19.4C187.165 19.5707 187.528 19.7787 187.848 20.024C188.179 20.2587 188.44 20.552 188.632 20.904C188.824 21.2453 188.92 21.6773 188.92 22.2C188.92 22.7547 188.776 23.2613 188.488 23.72C188.2 24.168 187.789 24.5253 187.256 24.792C186.723 25.0587 186.088 25.192 185.352 25.192ZM194.511 25.192C193.818 25.192 193.188 25.032 192.623 24.712C192.058 24.3813 191.61 23.912 191.279 23.304C190.948 22.696 190.783 21.9707 190.783 21.128C190.783 20.2747 190.948 19.544 191.279 18.936C191.62 18.328 192.058 17.8587 192.591 17.528C193.124 17.1973 193.684 17.032 194.271 17.032C195.263 17.032 196.026 17.3627 196.559 18.024C197.103 18.6853 197.375 19.5707 197.375 20.68C197.375 20.8187 197.37 20.9573 197.359 21.096C197.359 21.224 197.348 21.336 197.327 21.432H192.079C192.132 22.2533 192.388 22.9093 192.847 23.4C193.316 23.8907 193.924 24.136 194.671 24.136C195.044 24.136 195.386 24.0827 195.695 23.976C196.015 23.8587 196.319 23.7093 196.607 23.528L197.071 24.392C196.74 24.6053 196.362 24.792 195.935 24.952C195.519 25.112 195.044 25.192 194.511 25.192ZM192.063 20.488H196.223C196.223 19.6987 196.052 19.1013 195.711 18.696C195.38 18.28 194.911 18.072 194.303 18.072C193.759 18.072 193.268 18.2853 192.831 18.712C192.404 19.128 192.148 19.72 192.063 20.488ZM199.796 25V13.608H201.092V21.32H201.14L204.452 17.224H205.908L203.3 20.344L206.26 25H204.82L202.548 21.256L201.092 22.952V25H199.796ZM211.009 25.192C210.326 25.192 209.708 25.032 209.153 24.712C208.598 24.392 208.161 23.928 207.841 23.32C207.521 22.712 207.361 21.9813 207.361 21.128C207.361 20.2533 207.532 19.512 207.873 18.904C208.225 18.296 208.684 17.832 209.249 17.512C209.825 17.192 210.444 17.032 211.105 17.032C211.617 17.032 212.054 17.1227 212.417 17.304C212.79 17.4853 213.11 17.6987 213.377 17.944L212.705 18.808C212.481 18.6053 212.241 18.44 211.985 18.312C211.74 18.184 211.462 18.12 211.153 18.12C210.684 18.12 210.262 18.248 209.889 18.504C209.526 18.7493 209.238 19.1013 209.025 19.56C208.822 20.008 208.721 20.5307 208.721 21.128C208.721 22.0133 208.94 22.7333 209.377 23.288C209.825 23.832 210.406 24.104 211.121 24.104C211.484 24.104 211.82 24.0293 212.129 23.88C212.438 23.72 212.71 23.5333 212.945 23.32L213.521 24.2C213.169 24.5093 212.78 24.7547 212.353 24.936C211.926 25.1067 211.478 25.192 211.009 25.192ZM215.734 25V17.224H217.046V25H215.734ZM216.406 15.624C216.15 15.624 215.937 15.5493 215.766 15.4C215.606 15.24 215.526 15.0267 215.526 14.76C215.526 14.504 215.606 14.296 215.766 14.136C215.937 13.976 216.15 13.896 216.406 13.896C216.662 13.896 216.87 13.976 217.03 14.136C217.201 14.296 217.286 14.504 217.286 14.76C217.286 15.0267 217.201 15.24 217.03 15.4C216.87 15.5493 216.662 15.624 216.406 15.624ZM221.963 25.192C221.313 25.192 220.769 25 220.331 24.616C219.905 24.2213 219.691 23.6773 219.691 22.984C219.691 22.1307 220.07 21.48 220.827 21.032C221.595 20.5733 222.806 20.2533 224.459 20.072C224.459 19.7413 224.411 19.4267 224.315 19.128C224.23 18.8293 224.07 18.5893 223.835 18.408C223.611 18.216 223.286 18.12 222.859 18.12C222.411 18.12 221.99 18.2053 221.595 18.376C221.201 18.5467 220.849 18.7387 220.539 18.952L220.027 18.04C220.39 17.8053 220.833 17.5813 221.355 17.368C221.889 17.144 222.465 17.032 223.083 17.032C224.033 17.032 224.721 17.3253 225.147 17.912C225.574 18.488 225.787 19.2613 225.787 20.232V25H224.699L224.587 24.072H224.539C224.177 24.3707 223.777 24.632 223.339 24.856C222.913 25.08 222.454 25.192 221.963 25.192ZM222.347 24.136C222.721 24.136 223.073 24.0453 223.403 23.864C223.734 23.6827 224.086 23.4267 224.459 23.096V20.936C223.169 21.096 222.262 21.336 221.739 21.656C221.227 21.976 220.971 22.3867 220.971 22.888C220.971 23.3253 221.105 23.6453 221.371 23.848C221.638 24.04 221.963 24.136 222.347 24.136ZM228.062 25V24.216C229.086 23.192 229.955 22.296 230.67 21.528C231.385 20.7493 231.929 20.0507 232.302 19.432C232.675 18.8027 232.862 18.216 232.862 17.672C232.862 17.0853 232.702 16.6053 232.382 16.232C232.062 15.8587 231.577 15.672 230.926 15.672C230.499 15.672 230.105 15.7947 229.742 16.04C229.379 16.2747 229.049 16.5627 228.75 16.904L227.998 16.152C228.425 15.6827 228.878 15.3093 229.358 15.032C229.849 14.744 230.425 14.6 231.086 14.6C232.035 14.6 232.782 14.8773 233.326 15.432C233.87 15.976 234.142 16.7013 234.142 17.608C234.142 18.248 233.961 18.8987 233.598 19.56C233.246 20.2107 232.755 20.8987 232.126 21.624C231.507 22.3387 230.793 23.1173 229.982 23.96C230.259 23.9387 230.547 23.9173 230.846 23.896C231.145 23.8747 231.427 23.864 231.694 23.864H234.654V25H228.062Z" fill="black"/>
<path d="M181 26.2H206.904V27H181V26.2ZM206.625 26.2H227.423V27H206.625V26.2ZM227.422 26.2H235.374V27H227.422V26.2Z" fill="black"/>
</g>
<g clip-path="url(#clip5_2393_19716)">
<path d="M250.92 25.0067C251.246 25.3334 251.773 25.3334 252.1 25.0067L257.64 19.4667C257.9 19.2067 257.9 18.7867 257.64 18.5267L252.1 12.9867C251.773 12.66 251.246 12.66 250.92 12.9867C250.593 13.3134 250.593 13.84 250.92 14.1667L255.746 19L250.913 23.8334C250.593 24.1534 250.593 24.6867 250.92 25.0067Z" fill="black"/>
</g>
<g clip-path="url(#clip6_2393_19716)" filter="url(#filter3_i_2393_19716)">
<path d="M276.352 25.192C275.616 25.192 274.933 25.0533 274.304 24.776C273.675 24.488 273.131 24.1093 272.672 23.64L273.472 22.712C273.845 23.1067 274.283 23.4267 274.784 23.672C275.296 23.9067 275.824 24.024 276.368 24.024C277.061 24.024 277.6 23.8693 277.984 23.56C278.368 23.24 278.56 22.824 278.56 22.312C278.56 21.9493 278.48 21.6613 278.32 21.448C278.171 21.2347 277.963 21.0533 277.696 20.904C277.44 20.7547 277.147 20.6053 276.816 20.456L275.312 19.8C274.981 19.6613 274.651 19.48 274.32 19.256C274 19.032 273.728 18.744 273.504 18.392C273.291 18.04 273.184 17.608 273.184 17.096C273.184 16.5627 273.323 16.088 273.6 15.672C273.888 15.2453 274.283 14.9147 274.784 14.68C275.285 14.4347 275.851 14.312 276.48 14.312C277.109 14.312 277.691 14.4347 278.224 14.68C278.757 14.9147 279.211 15.224 279.584 15.608L278.864 16.472C278.544 16.1627 278.187 15.9227 277.792 15.752C277.408 15.5707 276.971 15.48 276.48 15.48C275.893 15.48 275.419 15.6187 275.056 15.896C274.704 16.1733 274.528 16.5467 274.528 17.016C274.528 17.3467 274.613 17.624 274.784 17.848C274.965 18.0613 275.189 18.2373 275.456 18.376C275.723 18.5147 275.995 18.6427 276.272 18.76L277.76 19.4C278.165 19.5707 278.528 19.7787 278.848 20.024C279.179 20.2587 279.44 20.552 279.632 20.904C279.824 21.2453 279.92 21.6773 279.92 22.2C279.92 22.7547 279.776 23.2613 279.488 23.72C279.2 24.168 278.789 24.5253 278.256 24.792C277.723 25.0587 277.088 25.192 276.352 25.192ZM285.511 25.192C284.818 25.192 284.188 25.032 283.623 24.712C283.058 24.3813 282.61 23.912 282.279 23.304C281.948 22.696 281.783 21.9707 281.783 21.128C281.783 20.2747 281.948 19.544 282.279 18.936C282.62 18.328 283.058 17.8587 283.591 17.528C284.124 17.1973 284.684 17.032 285.271 17.032C286.263 17.032 287.026 17.3627 287.559 18.024C288.103 18.6853 288.375 19.5707 288.375 20.68C288.375 20.8187 288.37 20.9573 288.359 21.096C288.359 21.224 288.348 21.336 288.327 21.432H283.079C283.132 22.2533 283.388 22.9093 283.847 23.4C284.316 23.8907 284.924 24.136 285.671 24.136C286.044 24.136 286.386 24.0827 286.695 23.976C287.015 23.8587 287.319 23.7093 287.607 23.528L288.071 24.392C287.74 24.6053 287.362 24.792 286.935 24.952C286.519 25.112 286.044 25.192 285.511 25.192ZM283.063 20.488H287.223C287.223 19.6987 287.052 19.1013 286.711 18.696C286.38 18.28 285.911 18.072 285.303 18.072C284.759 18.072 284.268 18.2853 283.831 18.712C283.404 19.128 283.148 19.72 283.063 20.488ZM290.796 25V13.608H292.092V21.32H292.14L295.452 17.224H296.908L294.3 20.344L297.26 25H295.82L293.548 21.256L292.092 22.952V25H290.796ZM302.009 25.192C301.326 25.192 300.708 25.032 300.153 24.712C299.598 24.392 299.161 23.928 298.841 23.32C298.521 22.712 298.361 21.9813 298.361 21.128C298.361 20.2533 298.532 19.512 298.873 18.904C299.225 18.296 299.684 17.832 300.249 17.512C300.825 17.192 301.444 17.032 302.105 17.032C302.617 17.032 303.054 17.1227 303.417 17.304C303.79 17.4853 304.11 17.6987 304.377 17.944L303.705 18.808C303.481 18.6053 303.241 18.44 302.985 18.312C302.74 18.184 302.462 18.12 302.153 18.12C301.684 18.12 301.262 18.248 300.889 18.504C300.526 18.7493 300.238 19.1013 300.025 19.56C299.822 20.008 299.721 20.5307 299.721 21.128C299.721 22.0133 299.94 22.7333 300.377 23.288C300.825 23.832 301.406 24.104 302.121 24.104C302.484 24.104 302.82 24.0293 303.129 23.88C303.438 23.72 303.71 23.5333 303.945 23.32L304.521 24.2C304.169 24.5093 303.78 24.7547 303.353 24.936C302.926 25.1067 302.478 25.192 302.009 25.192ZM306.734 25V17.224H308.046V25H306.734ZM307.406 15.624C307.15 15.624 306.937 15.5493 306.766 15.4C306.606 15.24 306.526 15.0267 306.526 14.76C306.526 14.504 306.606 14.296 306.766 14.136C306.937 13.976 307.15 13.896 307.406 13.896C307.662 13.896 307.87 13.976 308.03 14.136C308.201 14.296 308.286 14.504 308.286 14.76C308.286 15.0267 308.201 15.24 308.03 15.4C307.87 15.5493 307.662 15.624 307.406 15.624ZM312.963 25.192C312.313 25.192 311.769 25 311.331 24.616C310.905 24.2213 310.691 23.6773 310.691 22.984C310.691 22.1307 311.07 21.48 311.827 21.032C312.595 20.5733 313.806 20.2533 315.459 20.072C315.459 19.7413 315.411 19.4267 315.315 19.128C315.23 18.8293 315.07 18.5893 314.835 18.408C314.611 18.216 314.286 18.12 313.859 18.12C313.411 18.12 312.99 18.2053 312.595 18.376C312.201 18.5467 311.849 18.7387 311.539 18.952L311.027 18.04C311.39 17.8053 311.833 17.5813 312.355 17.368C312.889 17.144 313.465 17.032 314.083 17.032C315.033 17.032 315.721 17.3253 316.147 17.912C316.574 18.488 316.787 19.2613 316.787 20.232V25H315.699L315.587 24.072H315.539C315.177 24.3707 314.777 24.632 314.339 24.856C313.913 25.08 313.454 25.192 312.963 25.192ZM313.347 24.136C313.721 24.136 314.073 24.0453 314.403 23.864C314.734 23.6827 315.086 23.4267 315.459 23.096V20.936C314.169 21.096 313.262 21.336 312.739 21.656C312.227 21.976 311.971 22.3867 311.971 22.888C311.971 23.3253 312.105 23.6453 312.371 23.848C312.638 24.04 312.963 24.136 313.347 24.136ZM322.198 25.192C321.387 25.192 320.71 25.048 320.166 24.76C319.622 24.4613 319.179 24.1253 318.838 23.752L319.51 22.888C319.819 23.208 320.182 23.4907 320.598 23.736C321.014 23.9813 321.521 24.104 322.118 24.104C322.737 24.104 323.243 23.9333 323.638 23.592C324.033 23.2507 324.23 22.7973 324.23 22.232C324.23 21.8267 324.123 21.4747 323.91 21.176C323.707 20.8667 323.366 20.6267 322.886 20.456C322.417 20.2853 321.777 20.2 320.966 20.2V19.192C321.691 19.192 322.262 19.1067 322.678 18.936C323.105 18.7653 323.409 18.536 323.59 18.248C323.771 17.96 323.862 17.64 323.862 17.288C323.862 16.7867 323.702 16.392 323.382 16.104C323.073 15.816 322.646 15.672 322.102 15.672C321.675 15.672 321.281 15.768 320.918 15.96C320.566 16.152 320.235 16.4027 319.926 16.712L319.222 15.88C319.617 15.5067 320.054 15.2027 320.534 14.968C321.014 14.7227 321.553 14.6 322.15 14.6C323.035 14.6 323.766 14.8293 324.342 15.288C324.918 15.736 325.206 16.3707 325.206 17.192C325.206 17.8107 325.035 18.3173 324.694 18.712C324.353 19.1067 323.905 19.4107 323.35 19.624V19.688C323.969 19.8267 324.491 20.12 324.918 20.568C325.345 21.0053 325.558 21.576 325.558 22.28C325.558 22.8773 325.409 23.3947 325.11 23.832C324.811 24.2693 324.406 24.6053 323.894 24.84C323.393 25.0747 322.827 25.192 322.198 25.192Z" fill="black"/>
<path d="M272 26.2H297.904V27H272V26.2ZM297.625 26.2H318.423V27H297.625V26.2ZM318.422 26.2H326.374V27H318.422V26.2Z" fill="black"/>
</g>
<g clip-path="url(#clip7_2393_19716)">
<path d="M341.92 25.0067C342.246 25.3334 342.773 25.3334 343.1 25.0067L348.64 19.4667C348.9 19.2067 348.9 18.7867 348.64 18.5267L343.1 12.9867C342.773 12.66 342.246 12.66 341.92 12.9867C341.593 13.3134 341.593 13.84 341.92 14.1667L346.746 19L341.913 23.8334C341.593 24.1534 341.593 24.6867 341.92 25.0067Z" fill="black"/>
</g>
<g clip-path="url(#clip8_2393_19716)" filter="url(#filter4_i_2393_19716)">
<path d="M367.352 25.192C366.616 25.192 365.933 25.0533 365.304 24.776C364.675 24.488 364.131 24.1093 363.672 23.64L364.472 22.712C364.845 23.1067 365.283 23.4267 365.784 23.672C366.296 23.9067 366.824 24.024 367.368 24.024C368.061 24.024 368.6 23.8693 368.984 23.56C369.368 23.24 369.56 22.824 369.56 22.312C369.56 21.9493 369.48 21.6613 369.32 21.448C369.171 21.2347 368.963 21.0533 368.696 20.904C368.44 20.7547 368.147 20.6053 367.816 20.456L366.312 19.8C365.981 19.6613 365.651 19.48 365.32 19.256C365 19.032 364.728 18.744 364.504 18.392C364.291 18.04 364.184 17.608 364.184 17.096C364.184 16.5627 364.323 16.088 364.6 15.672C364.888 15.2453 365.283 14.9147 365.784 14.68C366.285 14.4347 366.851 14.312 367.48 14.312C368.109 14.312 368.691 14.4347 369.224 14.68C369.757 14.9147 370.211 15.224 370.584 15.608L369.864 16.472C369.544 16.1627 369.187 15.9227 368.792 15.752C368.408 15.5707 367.971 15.48 367.48 15.48C366.893 15.48 366.419 15.6187 366.056 15.896C365.704 16.1733 365.528 16.5467 365.528 17.016C365.528 17.3467 365.613 17.624 365.784 17.848C365.965 18.0613 366.189 18.2373 366.456 18.376C366.723 18.5147 366.995 18.6427 367.272 18.76L368.76 19.4C369.165 19.5707 369.528 19.7787 369.848 20.024C370.179 20.2587 370.44 20.552 370.632 20.904C370.824 21.2453 370.92 21.6773 370.92 22.2C370.92 22.7547 370.776 23.2613 370.488 23.72C370.2 24.168 369.789 24.5253 369.256 24.792C368.723 25.0587 368.088 25.192 367.352 25.192ZM376.511 25.192C375.818 25.192 375.188 25.032 374.623 24.712C374.058 24.3813 373.61 23.912 373.279 23.304C372.948 22.696 372.783 21.9707 372.783 21.128C372.783 20.2747 372.948 19.544 373.279 18.936C373.62 18.328 374.058 17.8587 374.591 17.528C375.124 17.1973 375.684 17.032 376.271 17.032C377.263 17.032 378.026 17.3627 378.559 18.024C379.103 18.6853 379.375 19.5707 379.375 20.68C379.375 20.8187 379.37 20.9573 379.359 21.096C379.359 21.224 379.348 21.336 379.327 21.432H374.079C374.132 22.2533 374.388 22.9093 374.847 23.4C375.316 23.8907 375.924 24.136 376.671 24.136C377.044 24.136 377.386 24.0827 377.695 23.976C378.015 23.8587 378.319 23.7093 378.607 23.528L379.071 24.392C378.74 24.6053 378.362 24.792 377.935 24.952C377.519 25.112 377.044 25.192 376.511 25.192ZM374.063 20.488H378.223C378.223 19.6987 378.052 19.1013 377.711 18.696C377.38 18.28 376.911 18.072 376.303 18.072C375.759 18.072 375.268 18.2853 374.831 18.712C374.404 19.128 374.148 19.72 374.063 20.488ZM381.796 25V13.608H383.092V21.32H383.14L386.452 17.224H387.908L385.3 20.344L388.26 25H386.82L384.548 21.256L383.092 22.952V25H381.796ZM393.009 25.192C392.326 25.192 391.708 25.032 391.153 24.712C390.598 24.392 390.161 23.928 389.841 23.32C389.521 22.712 389.361 21.9813 389.361 21.128C389.361 20.2533 389.532 19.512 389.873 18.904C390.225 18.296 390.684 17.832 391.249 17.512C391.825 17.192 392.444 17.032 393.105 17.032C393.617 17.032 394.054 17.1227 394.417 17.304C394.79 17.4853 395.11 17.6987 395.377 17.944L394.705 18.808C394.481 18.6053 394.241 18.44 393.985 18.312C393.74 18.184 393.462 18.12 393.153 18.12C392.684 18.12 392.262 18.248 391.889 18.504C391.526 18.7493 391.238 19.1013 391.025 19.56C390.822 20.008 390.721 20.5307 390.721 21.128C390.721 22.0133 390.94 22.7333 391.377 23.288C391.825 23.832 392.406 24.104 393.121 24.104C393.484 24.104 393.82 24.0293 394.129 23.88C394.438 23.72 394.71 23.5333 394.945 23.32L395.521 24.2C395.169 24.5093 394.78 24.7547 394.353 24.936C393.926 25.1067 393.478 25.192 393.009 25.192ZM397.734 25V17.224H399.046V25H397.734ZM398.406 15.624C398.15 15.624 397.937 15.5493 397.766 15.4C397.606 15.24 397.526 15.0267 397.526 14.76C397.526 14.504 397.606 14.296 397.766 14.136C397.937 13.976 398.15 13.896 398.406 13.896C398.662 13.896 398.87 13.976 399.03 14.136C399.201 14.296 399.286 14.504 399.286 14.76C399.286 15.0267 399.201 15.24 399.03 15.4C398.87 15.5493 398.662 15.624 398.406 15.624ZM403.963 25.192C403.313 25.192 402.769 25 402.331 24.616C401.905 24.2213 401.691 23.6773 401.691 22.984C401.691 22.1307 402.07 21.48 402.827 21.032C403.595 20.5733 404.806 20.2533 406.459 20.072C406.459 19.7413 406.411 19.4267 406.315 19.128C406.23 18.8293 406.07 18.5893 405.835 18.408C405.611 18.216 405.286 18.12 404.859 18.12C404.411 18.12 403.99 18.2053 403.595 18.376C403.201 18.5467 402.849 18.7387 402.539 18.952L402.027 18.04C402.39 17.8053 402.833 17.5813 403.355 17.368C403.889 17.144 404.465 17.032 405.083 17.032C406.033 17.032 406.721 17.3253 407.147 17.912C407.574 18.488 407.787 19.2613 407.787 20.232V25H406.699L406.587 24.072H406.539C406.177 24.3707 405.777 24.632 405.339 24.856C404.913 25.08 404.454 25.192 403.963 25.192ZM404.347 24.136C404.721 24.136 405.073 24.0453 405.403 23.864C405.734 23.6827 406.086 23.4267 406.459 23.096V20.936C405.169 21.096 404.262 21.336 403.739 21.656C403.227 21.976 402.971 22.3867 402.971 22.888C402.971 23.3253 403.105 23.6453 403.371 23.848C403.638 24.04 403.963 24.136 404.347 24.136ZM411.086 21.128H414.286V18.168C414.286 17.8907 414.297 17.56 414.318 17.176C414.339 16.792 414.355 16.4667 414.366 16.2H414.302C414.174 16.4453 414.041 16.6853 413.902 16.92C413.763 17.1547 413.619 17.3947 413.47 17.64L411.086 21.128ZM414.286 25V22.184H409.694V21.32L414.062 14.792H415.534V21.128H416.926V22.184H415.534V25H414.286Z" fill="black"/>
<path d="M363 26.2H388.904V27H363V26.2ZM388.625 26.2H409.423V27H388.625V26.2ZM409.422 26.2H417.374V27H409.422V26.2Z" fill="black"/>
</g>
<g clip-path="url(#clip9_2393_19716)">
<path d="M432.92 25.0067C433.246 25.3334 433.773 25.3334 434.1 25.0067L439.64 19.4667C439.9 19.2067 439.9 18.7867 439.64 18.5267L434.1 12.9867C433.773 12.66 433.246 12.66 432.92 12.9867C432.593 13.3134 432.593 13.84 432.92 14.1667L437.746 19L432.913 23.8334C432.593 24.1534 432.593 24.6867 432.92 25.0067Z" fill="black"/>
</g>
<g clip-path="url(#clip10_2393_19716)" filter="url(#filter5_i_2393_19716)">
<path d="M458.352 25.192C457.616 25.192 456.933 25.0533 456.304 24.776C455.675 24.488 455.131 24.1093 454.672 23.64L455.472 22.712C455.845 23.1067 456.283 23.4267 456.784 23.672C457.296 23.9067 457.824 24.024 458.368 24.024C459.061 24.024 459.6 23.8693 459.984 23.56C460.368 23.24 460.56 22.824 460.56 22.312C460.56 21.9493 460.48 21.6613 460.32 21.448C460.171 21.2347 459.963 21.0533 459.696 20.904C459.44 20.7547 459.147 20.6053 458.816 20.456L457.312 19.8C456.981 19.6613 456.651 19.48 456.32 19.256C456 19.032 455.728 18.744 455.504 18.392C455.291 18.04 455.184 17.608 455.184 17.096C455.184 16.5627 455.323 16.088 455.6 15.672C455.888 15.2453 456.283 14.9147 456.784 14.68C457.285 14.4347 457.851 14.312 458.48 14.312C459.109 14.312 459.691 14.4347 460.224 14.68C460.757 14.9147 461.211 15.224 461.584 15.608L460.864 16.472C460.544 16.1627 460.187 15.9227 459.792 15.752C459.408 15.5707 458.971 15.48 458.48 15.48C457.893 15.48 457.419 15.6187 457.056 15.896C456.704 16.1733 456.528 16.5467 456.528 17.016C456.528 17.3467 456.613 17.624 456.784 17.848C456.965 18.0613 457.189 18.2373 457.456 18.376C457.723 18.5147 457.995 18.6427 458.272 18.76L459.76 19.4C460.165 19.5707 460.528 19.7787 460.848 20.024C461.179 20.2587 461.44 20.552 461.632 20.904C461.824 21.2453 461.92 21.6773 461.92 22.2C461.92 22.7547 461.776 23.2613 461.488 23.72C461.2 24.168 460.789 24.5253 460.256 24.792C459.723 25.0587 459.088 25.192 458.352 25.192ZM467.511 25.192C466.818 25.192 466.188 25.032 465.623 24.712C465.058 24.3813 464.61 23.912 464.279 23.304C463.948 22.696 463.783 21.9707 463.783 21.128C463.783 20.2747 463.948 19.544 464.279 18.936C464.62 18.328 465.058 17.8587 465.591 17.528C466.124 17.1973 466.684 17.032 467.271 17.032C468.263 17.032 469.026 17.3627 469.559 18.024C470.103 18.6853 470.375 19.5707 470.375 20.68C470.375 20.8187 470.37 20.9573 470.359 21.096C470.359 21.224 470.348 21.336 470.327 21.432H465.079C465.132 22.2533 465.388 22.9093 465.847 23.4C466.316 23.8907 466.924 24.136 467.671 24.136C468.044 24.136 468.386 24.0827 468.695 23.976C469.015 23.8587 469.319 23.7093 469.607 23.528L470.071 24.392C469.74 24.6053 469.362 24.792 468.935 24.952C468.519 25.112 468.044 25.192 467.511 25.192ZM465.063 20.488H469.223C469.223 19.6987 469.052 19.1013 468.711 18.696C468.38 18.28 467.911 18.072 467.303 18.072C466.759 18.072 466.268 18.2853 465.831 18.712C465.404 19.128 465.148 19.72 465.063 20.488ZM472.796 25V13.608H474.092V21.32H474.14L477.452 17.224H478.908L476.3 20.344L479.26 25H477.82L475.548 21.256L474.092 22.952V25H472.796ZM484.009 25.192C483.326 25.192 482.708 25.032 482.153 24.712C481.598 24.392 481.161 23.928 480.841 23.32C480.521 22.712 480.361 21.9813 480.361 21.128C480.361 20.2533 480.532 19.512 480.873 18.904C481.225 18.296 481.684 17.832 482.249 17.512C482.825 17.192 483.444 17.032 484.105 17.032C484.617 17.032 485.054 17.1227 485.417 17.304C485.79 17.4853 486.11 17.6987 486.377 17.944L485.705 18.808C485.481 18.6053 485.241 18.44 484.985 18.312C484.74 18.184 484.462 18.12 484.153 18.12C483.684 18.12 483.262 18.248 482.889 18.504C482.526 18.7493 482.238 19.1013 482.025 19.56C481.822 20.008 481.721 20.5307 481.721 21.128C481.721 22.0133 481.94 22.7333 482.377 23.288C482.825 23.832 483.406 24.104 484.121 24.104C484.484 24.104 484.82 24.0293 485.129 23.88C485.438 23.72 485.71 23.5333 485.945 23.32L486.521 24.2C486.169 24.5093 485.78 24.7547 485.353 24.936C484.926 25.1067 484.478 25.192 484.009 25.192ZM488.734 25V17.224H490.046V25H488.734ZM489.406 15.624C489.15 15.624 488.937 15.5493 488.766 15.4C488.606 15.24 488.526 15.0267 488.526 14.76C488.526 14.504 488.606 14.296 488.766 14.136C488.937 13.976 489.15 13.896 489.406 13.896C489.662 13.896 489.87 13.976 490.03 14.136C490.201 14.296 490.286 14.504 490.286 14.76C490.286 15.0267 490.201 15.24 490.03 15.4C489.87 15.5493 489.662 15.624 489.406 15.624ZM494.963 25.192C494.313 25.192 493.769 25 493.331 24.616C492.905 24.2213 492.691 23.6773 492.691 22.984C492.691 22.1307 493.07 21.48 493.827 21.032C494.595 20.5733 495.806 20.2533 497.459 20.072C497.459 19.7413 497.411 19.4267 497.315 19.128C497.23 18.8293 497.07 18.5893 496.835 18.408C496.611 18.216 496.286 18.12 495.859 18.12C495.411 18.12 494.99 18.2053 494.595 18.376C494.201 18.5467 493.849 18.7387 493.539 18.952L493.027 18.04C493.39 17.8053 493.833 17.5813 494.355 17.368C494.889 17.144 495.465 17.032 496.083 17.032C497.033 17.032 497.721 17.3253 498.147 17.912C498.574 18.488 498.787 19.2613 498.787 20.232V25H497.699L497.587 24.072H497.539C497.177 24.3707 496.777 24.632 496.339 24.856C495.913 25.08 495.454 25.192 494.963 25.192ZM495.347 24.136C495.721 24.136 496.073 24.0453 496.403 23.864C496.734 23.6827 497.086 23.4267 497.459 23.096V20.936C496.169 21.096 495.262 21.336 494.739 21.656C494.227 21.976 493.971 22.3867 493.971 22.888C493.971 23.3253 494.105 23.6453 494.371 23.848C494.638 24.04 494.963 24.136 495.347 24.136ZM504.166 25.192C503.355 25.192 502.683 25.048 502.15 24.76C501.617 24.472 501.174 24.152 500.822 23.8L501.462 22.936C501.771 23.2347 502.129 23.5067 502.534 23.752C502.939 23.9867 503.441 24.104 504.038 24.104C504.667 24.104 505.195 23.896 505.622 23.48C506.059 23.0533 506.278 22.4827 506.278 21.768C506.278 21.064 506.081 20.5147 505.686 20.12C505.291 19.7253 504.763 19.528 504.102 19.528C503.75 19.528 503.446 19.5813 503.19 19.688C502.945 19.7947 502.667 19.9493 502.358 20.152L501.654 19.704L501.99 14.792H507.094V15.928H503.142L502.87 18.952C503.115 18.824 503.361 18.7227 503.606 18.648C503.851 18.5733 504.129 18.536 504.438 18.536C505.025 18.536 505.553 18.6533 506.022 18.888C506.502 19.112 506.886 19.4587 507.174 19.928C507.462 20.3973 507.606 21 507.606 21.736C507.606 22.472 507.441 23.1013 507.11 23.624C506.79 24.136 506.369 24.5253 505.846 24.792C505.323 25.0587 504.763 25.192 504.166 25.192Z" fill="black"/>
</g>
<defs>
<filter id="filter0_i_2393_19716" x="0" y="5" width="50" height="28" filterUnits="userSpaceOnUse" color-interpolation-filters="sRGB">
<feFlood flood-opacity="0" result="BackgroundImageFix"/>
<feBlend mode="normal" in="SourceGraphic" in2="BackgroundImageFix" result="shape"/>
<feColorMatrix in="SourceAlpha" type="matrix" values="0 0 0 0 0 0 0 0 0 0 0 0 0 0 0 0 0 0 127 0" result="hardAlpha"/>
<feOffset dy="-1"/>
<feComposite in2="hardAlpha" operator="arithmetic" k2="-1" k3="1"/>
<feColorMatrix type="matrix" values="0 0 0 0 0.0431373 0 0 0 0 0.0470588 0 0 0 0 0.0470588 0 0 0 1 0"/>
<feBlend mode="normal" in2="shape" result="effect1_innerShadow_2393_19716"/>
</filter>
<filter id="filter1_i_2393_19716" x="88" y="5" width="55" height="28" filterUnits="userSpaceOnUse" color-interpolation-filters="sRGB">
<feFlood flood-opacity="0" result="BackgroundImageFix"/>
<feBlend mode="normal" in="SourceGraphic" in2="BackgroundImageFix" result="shape"/>
<feColorMatrix in="SourceAlpha" type="matrix" values="0 0 0 0 0 0 0 0 0 0 0 0 0 0 0 0 0 0 127 0" result="hardAlpha"/>
<feOffset dy="-1"/>
<feComposite in2="hardAlpha" operator="arithmetic" k2="-1" k3="1"/>
<feColorMatrix type="matrix" values="0 0 0 0 0.0431373 0 0 0 0 0.0470588 0 0 0 0 0.0470588 0 0 0 1 0"/>
<feBlend mode="normal" in2="shape" result="effect1_innerShadow_2393_19716"/>
</filter>
<filter id="filter2_i_2393_19716" x="181" y="5" width="55" height="28" filterUnits="userSpaceOnUse" color-interpolation-filters="sRGB">
<feFlood flood-opacity="0" result="BackgroundImageFix"/>
<feBlend mode="normal" in="SourceGraphic" in2="BackgroundImageFix" result="shape"/>
<feColorMatrix in="SourceAlpha" type="matrix" values="0 0 0 0 0 0 0 0 0 0 0 0 0 0 0 0 0 0 127 0" result="hardAlpha"/>
<feOffset dy="-1"/>
<feComposite in2="hardAlpha" operator="arithmetic" k2="-1" k3="1"/>
<feColorMatrix type="matrix" values="0 0 0 0 0.0431373 0 0 0 0 0.0470588 0 0 0 0 0.0470588 0 0 0 1 0"/>
<feBlend mode="normal" in2="shape" result="effect1_innerShadow_2393_19716"/>
</filter>
<filter id="filter3_i_2393_19716" x="272" y="5" width="55" height="28" filterUnits="userSpaceOnUse" color-interpolation-filters="sRGB">
<feFlood flood-opacity="0" result="BackgroundImageFix"/>
<feBlend mode="normal" in="SourceGraphic" in2="BackgroundImageFix" result="shape"/>
<feColorMatrix in="SourceAlpha" type="matrix" values="0 0 0 0 0 0 0 0 0 0 0 0 0 0 0 0 0 0 127 0" result="hardAlpha"/>
<feOffset dy="-1"/>
<feComposite in2="hardAlpha" operator="arithmetic" k2="-1" k3="1"/>
<feColorMatrix type="matrix" values="0 0 0 0 0.0431373 0 0 0 0 0.0470588 0 0 0 0 0.0470588 0 0 0 1 0"/>
<feBlend mode="normal" in2="shape" result="effect1_innerShadow_2393_19716"/>
</filter>
<filter id="filter4_i_2393_19716" x="363" y="5" width="55" height="28" filterUnits="userSpaceOnUse" color-interpolation-filters="sRGB">
<feFlood flood-opacity="0" result="BackgroundImageFix"/>
<feBlend mode="normal" in="SourceGraphic" in2="BackgroundImageFix" result="shape"/>
<feColorMatrix in="SourceAlpha" type="matrix" values="0 0 0 0 0 0 0 0 0 0 0 0 0 0 0 0 0 0 127 0" result="hardAlpha"/>
<feOffset dy="-1"/>
<feComposite in2="hardAlpha" operator="arithmetic" k2="-1" k3="1"/>
<feColorMatrix type="matrix" values="0 0 0 0 0.0431373 0 0 0 0 0.0470588 0 0 0 0 0.0470588 0 0 0 1 0"/>
<feBlend mode="normal" in2="shape" result="effect1_innerShadow_2393_19716"/>
</filter>
<filter id="filter5_i_2393_19716" x="454" y="7" width="55" height="24" filterUnits="userSpaceOnUse" color-interpolation-filters="sRGB">
<feFlood flood-opacity="0" result="BackgroundImageFix"/>
<feBlend mode="normal" in="SourceGraphic" in2="BackgroundImageFix" result="shape"/>
<feColorMatrix in="SourceAlpha" type="matrix" values="0 0 0 0 0 0 0 0 0 0 0 0 0 0 0 0 0 0 127 0" result="hardAlpha"/>
<feOffset dy="-1"/>
<feComposite in2="hardAlpha" operator="arithmetic" k2="-1" k3="1"/>
<feColorMatrix type="matrix" values="0 0 0 0 0.0431373 0 0 0 0 0.0470588 0 0 0 0 0.0470588 0 0 0 1 0"/>
<feBlend mode="normal" in2="shape" result="effect1_innerShadow_2393_19716"/>
</filter>
<clipPath id="clip0_2393_19716">
<rect width="50" height="28" fill="white" transform="translate(0 5)"/>
</clipPath>
<clipPath id="clip1_2393_19716">
<rect width="16" height="16" fill="white" transform="translate(60 11)"/>
</clipPath>
<clipPath id="clip2_2393_19716">
<rect width="55" height="28" fill="white" transform="translate(88 5)"/>
</clipPath>
<clipPath id="clip3_2393_19716">
<rect width="16" height="16" fill="white" transform="translate(155 11)"/>
</clipPath>
<clipPath id="clip4_2393_19716">
<rect width="55" height="28" fill="white" transform="translate(181 5)"/>
</clipPath>
<clipPath id="clip5_2393_19716">
<rect width="16" height="16" fill="white" transform="translate(246 11)"/>
</clipPath>
<clipPath id="clip6_2393_19716">
<rect width="55" height="28" fill="white" transform="translate(272 5)"/>
</clipPath>
<clipPath id="clip7_2393_19716">
<rect width="16" height="16" fill="white" transform="translate(337 11)"/>
</clipPath>
<clipPath id="clip8_2393_19716">
<rect width="55" height="28" fill="white" transform="translate(363 5)"/>
</clipPath>
<clipPath id="clip9_2393_19716">
<rect width="16" height="16" fill="white" transform="translate(428 11)"/>
</clipPath>
<clipPath id="clip10_2393_19716">
<rect width="55" height="24" fill="white" transform="translate(454 7)"/>
</clipPath>
</defs>
</svg>
