<svg width="270" height="50" viewBox="0 0 270 50" fill="none" xmlns="http://www.w3.org/2000/svg">
<rect x="1.5" y="1.5" width="193" height="47" rx="6.5" stroke="#D96E00" stroke-width="3"/>
<rect x="6" y="6" width="38" height="38" rx="19" fill="white"/>
<rect x="6" y="6" width="38" height="38" rx="19" stroke="black" stroke-width="2"/>
<path d="M61.71 32V19.536H63.344L67.847 27.364L69.196 29.948H69.272C69.234 29.3147 69.1897 28.6623 69.139 27.991C69.101 27.307 69.082 26.6357 69.082 25.977V19.536H70.583V32H68.949L64.427 24.153L63.078 21.588H63.002C63.0527 22.2087 63.097 22.8483 63.135 23.507C63.1857 24.1657 63.211 24.8243 63.211 25.483V32H61.71ZM76.4878 32.228C75.7151 32.228 75.0691 32 74.5498 31.544C74.0431 31.0753 73.7898 30.4293 73.7898 29.606C73.7898 28.5927 74.2394 27.82 75.1388 27.288C76.0508 26.7433 77.4884 26.3633 79.4518 26.148C79.4518 25.7553 79.3948 25.3817 79.2808 25.027C79.1794 24.6723 78.9894 24.3873 78.7108 24.172C78.4448 23.944 78.0584 23.83 77.5518 23.83C77.0198 23.83 76.5194 23.9313 76.0508 24.134C75.5821 24.3367 75.1641 24.5647 74.7968 24.818L74.1888 23.735C74.6194 23.4563 75.1451 23.1903 75.7658 22.937C76.3991 22.671 77.0831 22.538 77.8178 22.538C78.9451 22.538 79.7621 22.8863 80.2688 23.583C80.7754 24.267 81.0288 25.1853 81.0288 26.338V32H79.7368L79.6038 30.898H79.5468C79.1161 31.2527 78.6411 31.563 78.1218 31.829C77.6151 32.095 77.0704 32.228 76.4878 32.228ZM76.9438 30.974C77.3871 30.974 77.8051 30.8663 78.1978 30.651C78.5904 30.4357 79.0084 30.1317 79.4518 29.739V27.174C77.9191 27.364 76.8424 27.649 76.2218 28.029C75.6138 28.409 75.3098 28.8967 75.3098 29.492C75.3098 30.0113 75.4681 30.3913 75.7848 30.632C76.1014 30.86 76.4878 30.974 76.9438 30.974ZM77.6088 21.113L76.8108 20.334L79.4898 17.161L80.5918 18.206L77.6088 21.113ZM83.465 32V31.164L88.329 24.039H83.997V22.766H90.305V23.602L85.441 30.727H90.457V32H83.465ZM96.4107 32.228C95.6634 32.228 94.9604 32.038 94.3017 31.658C93.6557 31.278 93.1301 30.727 92.7247 30.005C92.3321 29.283 92.1357 28.4153 92.1357 27.402C92.1357 26.3633 92.3321 25.483 92.7247 24.761C93.1301 24.039 93.6557 23.488 94.3017 23.108C94.9604 22.728 95.6634 22.538 96.4107 22.538C97.1707 22.538 97.8737 22.728 98.5197 23.108C99.1657 23.488 99.6851 24.039 100.078 24.761C100.483 25.483 100.686 26.3633 100.686 27.402C100.686 28.4153 100.483 29.283 100.078 30.005C99.6851 30.727 99.1657 31.278 98.5197 31.658C97.8737 32.038 97.1707 32.228 96.4107 32.228ZM96.4107 30.936C97.2087 30.936 97.8484 30.613 98.3297 29.967C98.8237 29.3083 99.0707 28.4533 99.0707 27.402C99.0707 26.338 98.8237 25.4767 98.3297 24.818C97.8484 24.1593 97.2087 23.83 96.4107 23.83C95.6254 23.83 94.9857 24.1593 94.4917 24.818C93.9977 25.4767 93.7507 26.338 93.7507 27.402C93.7507 28.4533 93.9977 29.3083 94.4917 29.967C94.9857 30.613 95.6254 30.936 96.4107 30.936ZM105.538 32L102.213 22.766H103.828L105.576 28.01C105.716 28.466 105.855 28.922 105.994 29.378C106.146 29.834 106.292 30.2837 106.431 30.727H106.507C106.647 30.2837 106.786 29.834 106.925 29.378C107.077 28.922 107.217 28.466 107.343 28.01L109.091 22.766H110.63L107.362 32H105.538ZM117.216 35.895V22.766H118.508L118.641 23.83H118.698C119.116 23.4753 119.572 23.1713 120.066 22.918C120.573 22.6647 121.099 22.538 121.643 22.538C122.834 22.538 123.74 22.9687 124.36 23.83C124.981 24.6787 125.291 25.8187 125.291 27.25C125.291 28.2887 125.101 29.1817 124.721 29.929C124.354 30.6763 123.866 31.2463 123.258 31.639C122.663 32.0317 122.011 32.228 121.301 32.228C120.871 32.228 120.44 32.133 120.009 31.943C119.591 31.753 119.167 31.4933 118.736 31.164L118.774 32.779V35.895H117.216ZM121.035 30.917C121.795 30.917 122.422 30.594 122.916 29.948C123.423 29.2893 123.676 28.39 123.676 27.25C123.676 26.2367 123.486 25.4197 123.106 24.799C122.739 24.1657 122.118 23.849 121.244 23.849C120.852 23.849 120.453 23.9567 120.047 24.172C119.655 24.3873 119.23 24.6977 118.774 25.103V29.948C119.192 30.3027 119.598 30.556 119.99 30.708C120.383 30.8473 120.731 30.917 121.035 30.917ZM131.846 32.228C131.099 32.228 130.396 32.038 129.737 31.658C129.091 31.278 128.566 30.727 128.16 30.005C127.768 29.283 127.571 28.4153 127.571 27.402C127.571 26.3633 127.768 25.483 128.16 24.761C128.566 24.039 129.091 23.488 129.737 23.108C130.396 22.728 131.099 22.538 131.846 22.538C132.606 22.538 133.309 22.728 133.955 23.108C134.601 23.488 135.121 24.039 135.513 24.761C135.919 25.483 136.121 26.3633 136.121 27.402C136.121 28.4153 135.919 29.283 135.513 30.005C135.121 30.727 134.601 31.278 133.955 31.658C133.309 32.038 132.606 32.228 131.846 32.228ZM131.846 30.936C132.644 30.936 133.284 30.613 133.765 29.967C134.259 29.3083 134.506 28.4533 134.506 27.402C134.506 26.338 134.259 25.4767 133.765 24.818C133.284 24.1593 132.644 23.83 131.846 23.83C131.061 23.83 130.421 24.1593 129.927 24.818C129.433 25.4767 129.186 26.338 129.186 27.402C129.186 28.4533 129.433 29.3083 129.927 29.967C130.421 30.613 131.061 30.936 131.846 30.936ZM140.706 32.228C140.123 32.228 139.699 32.0507 139.433 31.696C139.18 31.3287 139.053 30.8093 139.053 30.138V18.472H140.611V30.252C140.611 30.4927 140.655 30.67 140.744 30.784C140.833 30.8853 140.934 30.936 141.048 30.936C141.099 30.936 141.143 30.936 141.181 30.936C141.232 30.9233 141.301 30.9107 141.39 30.898L141.599 32.076C141.498 32.1267 141.377 32.1647 141.238 32.19C141.099 32.2153 140.921 32.228 140.706 32.228ZM147.987 32.228C147.24 32.228 146.537 32.038 145.878 31.658C145.232 31.278 144.706 30.727 144.301 30.005C143.908 29.283 143.712 28.4153 143.712 27.402C143.712 26.3633 143.908 25.483 144.301 24.761C144.706 24.039 145.232 23.488 145.878 23.108C146.537 22.728 147.24 22.538 147.987 22.538C148.747 22.538 149.45 22.728 150.096 23.108C150.742 23.488 151.261 24.039 151.654 24.761C152.059 25.483 152.262 26.3633 152.262 27.402C152.262 28.4153 152.059 29.283 151.654 30.005C151.261 30.727 150.742 31.278 150.096 31.658C149.45 32.038 148.747 32.228 147.987 32.228ZM147.987 30.936C148.785 30.936 149.425 30.613 149.906 29.967C150.4 29.3083 150.647 28.4533 150.647 27.402C150.647 26.338 150.4 25.4767 149.906 24.818C149.425 24.1593 148.785 23.83 147.987 23.83C147.202 23.83 146.562 24.1593 146.068 24.818C145.574 25.4767 145.327 26.338 145.327 27.402C145.327 28.4533 145.574 29.3083 146.068 29.967C146.562 30.613 147.202 30.936 147.987 30.936ZM154.113 32V31.164L158.977 24.039H154.645V22.766H160.953V23.602L156.089 30.727H161.105V32H154.113ZM157.134 21.094L154.968 18.434L155.633 17.826L157.875 19.973H157.951L160.193 17.826L160.858 18.434L158.692 21.094H157.134ZM163.654 32V18.472H165.193V27.63H165.25L169.183 22.766H170.912L167.815 26.471L171.33 32H169.62L166.922 27.554L165.193 29.568V32H163.654ZM173.713 35.971C173.51 35.971 173.314 35.952 173.124 35.914C172.947 35.876 172.782 35.8317 172.63 35.781L172.934 34.546C173.035 34.5713 173.149 34.5967 173.276 34.622C173.403 34.66 173.523 34.679 173.637 34.679C174.156 34.679 174.587 34.489 174.929 34.109C175.271 33.7417 175.537 33.273 175.727 32.703L175.936 32.019L172.231 22.766H173.846L175.727 27.877C175.866 28.2697 176.012 28.694 176.164 29.15C176.329 29.606 176.481 30.0493 176.62 30.48H176.696C176.835 30.062 176.968 29.625 177.095 29.169C177.222 28.713 177.348 28.2823 177.475 27.877L179.128 22.766H180.648L177.171 32.76C176.956 33.368 176.696 33.9127 176.392 34.394C176.101 34.8753 175.733 35.2553 175.29 35.534C174.859 35.8253 174.334 35.971 173.713 35.971Z" fill="black"/>
<rect x="221.5" y="1.5" width="47" height="47" rx="23.5" stroke="#D96E00" stroke-width="3"/>
<rect x="226" y="6" width="38" height="38" rx="19" fill="white"/>
<rect x="226" y="6" width="38" height="38" rx="19" stroke="black" stroke-width="2"/>
</svg>
