<svg width="360" height="253" viewBox="0 0 360 253" fill="none" xmlns="http://www.w3.org/2000/svg">
<rect x="0.5" y="0.5" width="359" height="252" rx="9.5" fill="white"/>
<rect x="0.5" y="0.5" width="359" height="252" rx="9.5" stroke="#E0E0E0"/>
<path d="M21.848 47V31.352H25.472L29.552 39.128L31.088 42.584H31.184C31.12 41.752 31.032 40.824 30.92 39.8C30.808 38.776 30.752 37.8 30.752 36.872V31.352H34.112V47H30.488L26.408 39.2L24.872 35.792H24.776C24.856 36.656 24.944 37.584 25.04 38.576C25.152 39.568 25.208 40.528 25.208 41.456V47H21.848ZM40.6709 47.288C39.5829 47.288 38.7189 46.944 38.0789 46.256C37.4389 45.552 37.1189 44.696 37.1189 43.688C37.1189 42.44 37.6469 41.464 38.7029 40.76C39.7589 40.056 41.4629 39.584 43.8149 39.344C43.7829 38.816 43.6229 38.4 43.3349 38.096C43.0629 37.776 42.5989 37.616 41.9429 37.616C41.4469 37.616 40.9429 37.712 40.4309 37.904C39.9189 38.096 39.3749 38.36 38.7989 38.696L37.5269 36.368C38.2789 35.904 39.0789 35.528 39.9269 35.24C40.7909 34.952 41.6869 34.808 42.6149 34.808C44.1349 34.808 45.3029 35.248 46.1189 36.128C46.9349 37.008 47.3429 38.36 47.3429 40.184V47H44.4629L44.2229 45.776H44.1269C43.6309 46.224 43.0949 46.592 42.5189 46.88C41.9589 47.152 41.3429 47.288 40.6709 47.288ZM41.8709 44.552C42.2709 44.552 42.6149 44.464 42.9029 44.288C43.2069 44.096 43.5109 43.848 43.8149 43.544V41.456C42.5669 41.616 41.7029 41.872 41.2229 42.224C40.7429 42.56 40.5029 42.96 40.5029 43.424C40.5029 43.808 40.6229 44.096 40.8629 44.288C41.1189 44.464 41.4549 44.552 41.8709 44.552ZM54.7252 47.288C53.2532 47.288 52.0692 46.736 51.1732 45.632C50.2932 44.512 49.8532 42.984 49.8532 41.048C49.8532 39.752 50.0852 38.64 50.5492 37.712C51.0292 36.768 51.6452 36.048 52.3972 35.552C53.1652 35.056 53.9652 34.808 54.7972 34.808C55.4532 34.808 56.0052 34.92 56.4532 35.144C56.9012 35.368 57.3252 35.672 57.7252 36.056L57.5812 34.232V30.176H61.1092V47H58.2292L57.9892 45.824H57.8932C57.4772 46.24 56.9892 46.592 56.4292 46.88C55.8692 47.152 55.3012 47.288 54.7252 47.288ZM55.6372 44.408C56.0212 44.408 56.3652 44.328 56.6692 44.168C56.9892 44.008 57.2932 43.728 57.5812 43.328V38.456C57.2772 38.168 56.9492 37.968 56.5972 37.856C56.2612 37.744 55.9332 37.688 55.6132 37.688C55.0532 37.688 54.5572 37.96 54.1252 38.504C53.6932 39.032 53.4772 39.864 53.4772 41C53.4772 42.168 53.6612 43.032 54.0292 43.592C54.4132 44.136 54.9492 44.408 55.6372 44.408ZM64.385 51.416V35.096H67.265L67.505 36.272H67.601C68.065 35.856 68.585 35.512 69.161 35.24C69.753 34.952 70.361 34.808 70.985 34.808C72.425 34.808 73.561 35.36 74.393 36.464C75.225 37.552 75.641 39.016 75.641 40.856C75.641 42.216 75.401 43.376 74.921 44.336C74.441 45.296 73.817 46.032 73.049 46.544C72.297 47.04 71.489 47.288 70.625 47.288C70.113 47.288 69.617 47.184 69.137 46.976C68.657 46.752 68.209 46.44 67.793 46.04L67.913 47.936V51.416H64.385ZM69.809 44.408C70.417 44.408 70.937 44.128 71.369 43.568C71.801 43.008 72.017 42.12 72.017 40.904C72.017 38.76 71.329 37.688 69.953 37.688C69.265 37.688 68.585 38.048 67.913 38.768V43.64C68.233 43.928 68.553 44.128 68.873 44.24C69.193 44.352 69.505 44.408 69.809 44.408ZM78.2928 47V35.096H81.8208V47H78.2928ZM80.0448 33.344C79.4528 33.344 78.9728 33.176 78.6048 32.84C78.2368 32.504 78.0528 32.056 78.0528 31.496C78.0528 30.936 78.2368 30.488 78.6048 30.152C78.9728 29.816 79.4528 29.648 80.0448 29.648C80.6368 29.648 81.1168 29.816 81.4848 30.152C81.8528 30.488 82.0368 30.936 82.0368 31.496C82.0368 32.056 81.8528 32.504 81.4848 32.84C81.1168 33.176 80.6368 33.344 80.0448 33.344ZM88.5796 47.288C87.7956 47.288 86.9876 47.136 86.1556 46.832C85.3396 46.528 84.6276 46.128 84.0196 45.632L85.6036 43.424C86.1476 43.824 86.6676 44.136 87.1636 44.36C87.6756 44.568 88.1796 44.672 88.6756 44.672C89.2036 44.672 89.5876 44.584 89.8276 44.408C90.0676 44.216 90.1876 43.968 90.1876 43.664C90.1876 43.392 90.0676 43.168 89.8276 42.992C89.6036 42.816 89.3076 42.656 88.9396 42.512C88.5716 42.352 88.1796 42.192 87.7636 42.032C87.2836 41.84 86.8036 41.6 86.3236 41.312C85.8596 41.024 85.4676 40.656 85.1476 40.208C84.8276 39.744 84.6676 39.184 84.6676 38.528C84.6676 37.424 85.0836 36.528 85.9156 35.84C86.7636 35.152 87.8676 34.808 89.2276 34.808C90.1396 34.808 90.9396 34.968 91.6276 35.288C92.3316 35.592 92.9316 35.936 93.4276 36.32L91.8436 38.432C91.4276 38.112 91.0116 37.864 90.5956 37.688C90.1796 37.512 89.7636 37.424 89.3476 37.424C88.4356 37.424 87.9796 37.736 87.9796 38.36C87.9796 38.744 88.2036 39.04 88.6516 39.248C89.1156 39.44 89.6516 39.648 90.2596 39.872C90.7716 40.048 91.2676 40.28 91.7476 40.568C92.2436 40.84 92.6516 41.208 92.9716 41.672C93.3076 42.12 93.4756 42.712 93.4756 43.448C93.4756 44.52 93.0596 45.432 92.2276 46.184C91.3956 46.92 90.1796 47.288 88.5796 47.288Z" fill="black"/>
<path d="M24.294 87V75.866H20.532V74.536H29.652V75.866H25.89V87H24.294ZM34.7258 87.228C33.9025 87.228 33.1551 87.038 32.4838 86.658C31.8125 86.2653 31.2805 85.708 30.8878 84.986C30.4951 84.264 30.2988 83.4027 30.2988 82.402C30.2988 81.3887 30.4951 80.521 30.8878 79.799C31.2931 79.077 31.8125 78.5197 32.4458 78.127C33.0791 77.7343 33.7441 77.538 34.4408 77.538C35.6188 77.538 36.5245 77.9307 37.1578 78.716C37.8038 79.5013 38.1268 80.5527 38.1268 81.87C38.1268 82.0347 38.1205 82.1993 38.1078 82.364C38.1078 82.516 38.0951 82.649 38.0698 82.763H31.8378C31.9011 83.7383 32.2051 84.5173 32.7498 85.1C33.3071 85.6827 34.0291 85.974 34.9158 85.974C35.3591 85.974 35.7645 85.9107 36.1318 85.784C36.5118 85.6447 36.8728 85.4673 37.2148 85.252L37.7658 86.278C37.3731 86.5313 36.9235 86.753 36.4168 86.943C35.9228 87.133 35.3591 87.228 34.7258 87.228ZM31.8188 81.642H36.7588C36.7588 80.7047 36.5561 79.9953 36.1508 79.514C35.7581 79.02 35.2008 78.773 34.4788 78.773C33.8328 78.773 33.2501 79.0263 32.7308 79.533C32.2241 80.027 31.9201 80.73 31.8188 81.642ZM40.9086 87V77.766H42.2006L42.3336 79.096H42.3906C42.8339 78.6527 43.3026 78.2853 43.7966 77.994C44.2906 77.69 44.8543 77.538 45.4876 77.538C46.4629 77.538 47.1723 77.8483 47.6156 78.469C48.0716 79.077 48.2996 79.97 48.2996 81.148V87H46.7416V81.357C46.7416 80.4957 46.6023 79.8687 46.3236 79.476C46.0449 79.0833 45.6016 78.887 44.9936 78.887C44.5249 78.887 44.1006 79.0073 43.7206 79.248C43.3533 79.4887 42.9353 79.8433 42.4666 80.312V87H40.9086ZM54.7062 87.228C53.7182 87.228 53.0279 86.943 52.6352 86.373C52.2552 85.803 52.0652 85.062 52.0652 84.15V79.039H50.6972V77.861L52.1412 77.766L52.3312 75.182H53.6422V77.766H56.1312V79.039H53.6422V84.169C53.6422 84.739 53.7435 85.1823 53.9462 85.499C54.1615 85.803 54.5352 85.955 55.0672 85.955C55.2319 85.955 55.4092 85.9297 55.5992 85.879C55.7892 85.8157 55.9602 85.7587 56.1122 85.708L56.4162 86.886C56.1629 86.9747 55.8842 87.0507 55.5802 87.114C55.2889 87.19 54.9975 87.228 54.7062 87.228ZM62.0504 87.228C61.303 87.228 60.6 87.038 59.9414 86.658C59.2954 86.278 58.7697 85.727 58.3644 85.005C57.9717 84.283 57.7754 83.4153 57.7754 82.402C57.7754 81.3633 57.9717 80.483 58.3644 79.761C58.7697 79.039 59.2954 78.488 59.9414 78.108C60.6 77.728 61.303 77.538 62.0504 77.538C62.8104 77.538 63.5134 77.728 64.1594 78.108C64.8054 78.488 65.3247 79.039 65.7174 79.761C66.1227 80.483 66.3254 81.3633 66.3254 82.402C66.3254 83.4153 66.1227 84.283 65.7174 85.005C65.3247 85.727 64.8054 86.278 64.1594 86.658C63.5134 87.038 62.8104 87.228 62.0504 87.228ZM62.0504 85.936C62.8484 85.936 63.488 85.613 63.9694 84.967C64.4634 84.3083 64.7104 83.4533 64.7104 82.402C64.7104 81.338 64.4634 80.4767 63.9694 79.818C63.488 79.1593 62.8484 78.83 62.0504 78.83C61.265 78.83 60.6254 79.1593 60.1314 79.818C59.6374 80.4767 59.3904 81.338 59.3904 82.402C59.3904 83.4533 59.6374 84.3083 60.1314 84.967C60.6254 85.613 61.265 85.936 62.0504 85.936ZM76.4679 87.228C75.4799 87.228 74.7896 86.943 74.3969 86.373C74.0169 85.803 73.8269 85.062 73.8269 84.15V79.039H72.4589V77.861L73.9029 77.766L74.0929 75.182H75.4039V77.766H77.8929V79.039H75.4039V84.169C75.4039 84.739 75.5053 85.1823 75.7079 85.499C75.9233 85.803 76.2969 85.955 76.8289 85.955C76.9936 85.955 77.1709 85.9297 77.3609 85.879C77.5509 85.8157 77.7219 85.7587 77.8739 85.708L78.1779 86.886C77.9246 86.9747 77.6459 87.0507 77.3419 87.114C77.0506 87.19 76.7593 87.228 76.4679 87.228ZM83.9641 87.228C83.1408 87.228 82.3934 87.038 81.7221 86.658C81.0508 86.2653 80.5188 85.708 80.1261 84.986C79.7334 84.264 79.5371 83.4027 79.5371 82.402C79.5371 81.3887 79.7334 80.521 80.1261 79.799C80.5314 79.077 81.0508 78.5197 81.6841 78.127C82.3174 77.7343 82.9824 77.538 83.6791 77.538C84.8571 77.538 85.7628 77.9307 86.3961 78.716C87.0421 79.5013 87.3651 80.5527 87.3651 81.87C87.3651 82.0347 87.3588 82.1993 87.3461 82.364C87.3461 82.516 87.3334 82.649 87.3081 82.763H81.0761C81.1394 83.7383 81.4434 84.5173 81.9881 85.1C82.5454 85.6827 83.2674 85.974 84.1541 85.974C84.5974 85.974 85.0028 85.9107 85.3701 85.784C85.7501 85.6447 86.1111 85.4673 86.4531 85.252L87.0041 86.278C86.6114 86.5313 86.1618 86.753 85.6551 86.943C85.1611 87.133 84.5974 87.228 83.9641 87.228ZM81.0571 81.642H85.9971C85.9971 80.7047 85.7944 79.9953 85.3891 79.514C84.9964 79.02 84.4391 78.773 83.7171 78.773C83.0711 78.773 82.4884 79.0263 81.9691 79.533C81.4624 80.027 81.1584 80.73 81.0571 81.642ZM88.725 87L91.746 82.174L88.953 77.766H90.644L91.879 79.799C92.0183 80.0397 92.164 80.293 92.316 80.559C92.468 80.825 92.6263 81.0847 92.791 81.338H92.867C93.0063 81.0847 93.1457 80.825 93.285 80.559C93.4243 80.293 93.5637 80.0397 93.703 79.799L94.824 77.766H96.458L93.665 82.345L96.667 87H94.976L93.627 84.853C93.4623 84.5743 93.2977 84.2957 93.133 84.017C92.9683 83.7383 92.7973 83.466 92.62 83.2H92.544C92.3793 83.466 92.221 83.7383 92.069 84.017C91.917 84.283 91.765 84.5617 91.613 84.853L90.359 87H88.725ZM101.44 87.228C100.452 87.228 99.7613 86.943 99.3686 86.373C98.9886 85.803 98.7986 85.062 98.7986 84.15V79.039H97.4306V77.861L98.8746 77.766L99.0646 75.182H100.376V77.766H102.865V79.039H100.376V84.169C100.376 84.739 100.477 85.1823 100.68 85.499C100.895 85.803 101.269 85.955 101.801 85.955C101.965 85.955 102.143 85.9297 102.333 85.879C102.523 85.8157 102.694 85.7587 102.846 85.708L103.15 86.886C102.896 86.9747 102.618 87.0507 102.314 87.114C102.022 87.19 101.731 87.228 101.44 87.228ZM112.169 87.228C111.511 87.228 110.884 87.1077 110.288 86.867C109.693 86.6137 109.174 86.3097 108.73 85.955L109.509 84.91C109.915 85.2267 110.333 85.4927 110.763 85.708C111.194 85.9107 111.682 86.012 112.226 86.012C112.834 86.012 113.29 85.8727 113.594 85.594C113.898 85.3027 114.05 84.9607 114.05 84.568C114.05 84.2513 113.943 83.9853 113.727 83.77C113.525 83.5547 113.259 83.3773 112.929 83.238C112.613 83.086 112.283 82.9467 111.941 82.82C111.511 82.6553 111.086 82.4717 110.668 82.269C110.25 82.0537 109.908 81.7813 109.642 81.452C109.376 81.11 109.243 80.6793 109.243 80.16C109.243 79.4127 109.522 78.792 110.079 78.298C110.649 77.7913 111.435 77.538 112.435 77.538C113.005 77.538 113.537 77.6393 114.031 77.842C114.525 78.0447 114.95 78.2917 115.304 78.583L114.544 79.571C114.228 79.3303 113.898 79.134 113.556 78.982C113.214 78.83 112.841 78.754 112.435 78.754C111.853 78.754 111.422 78.887 111.143 79.153C110.877 79.419 110.744 79.7293 110.744 80.084C110.744 80.3753 110.839 80.616 111.029 80.806C111.219 80.9833 111.466 81.1417 111.77 81.281C112.074 81.4077 112.397 81.5407 112.739 81.68C113.183 81.8447 113.62 82.0347 114.05 82.25C114.481 82.4527 114.836 82.7313 115.114 83.086C115.406 83.428 115.551 83.8903 115.551 84.473C115.551 84.967 115.418 85.423 115.152 85.841C114.899 86.259 114.519 86.5947 114.012 86.848C113.518 87.1013 112.904 87.228 112.169 87.228ZM119.869 87.228C119.287 87.228 118.862 87.0507 118.596 86.696C118.343 86.3287 118.216 85.8093 118.216 85.138V73.472H119.774V85.252C119.774 85.4927 119.819 85.67 119.907 85.784C119.996 85.8853 120.097 85.936 120.211 85.936C120.262 85.936 120.306 85.936 120.344 85.936C120.395 85.9233 120.465 85.9107 120.553 85.898L120.762 87.076C120.661 87.1267 120.541 87.1647 120.401 87.19C120.262 87.2153 120.085 87.228 119.869 87.228ZM126.257 87.228C125.282 87.228 124.566 86.924 124.11 86.316C123.654 85.6953 123.426 84.796 123.426 83.618V77.766H125.003V83.409C125.003 84.2703 125.136 84.8973 125.402 85.29C125.681 85.6827 126.124 85.879 126.732 85.879C127.213 85.879 127.638 85.7587 128.005 85.518C128.385 85.2647 128.79 84.8657 129.221 84.321V77.766H130.779V87H129.487L129.354 85.556H129.297C128.866 86.0627 128.41 86.468 127.929 86.772C127.448 87.076 126.89 87.228 126.257 87.228ZM126.884 76.113L126.086 75.334L128.765 72.161L129.867 73.206L126.884 76.113ZM133.425 87V86.164L138.289 79.039H133.957V77.766H140.265V78.602L135.401 85.727H140.417V87H133.425ZM136.446 76.094L134.28 73.434L134.945 72.826L137.187 74.973H137.263L139.505 72.826L140.17 73.434L138.004 76.094H136.446ZM142.965 87V77.766H144.523V87H142.965ZM143.763 75.866C143.459 75.866 143.206 75.7773 143.003 75.6C142.813 75.41 142.718 75.1567 142.718 74.84C142.718 74.536 142.813 74.289 143.003 74.099C143.206 73.909 143.459 73.814 143.763 73.814C144.067 73.814 144.314 73.909 144.504 74.099C144.707 74.289 144.808 74.536 144.808 74.84C144.808 75.1567 144.707 75.41 144.504 75.6C144.314 75.7773 144.067 75.866 143.763 75.866ZM152.445 87V77.766H154.003V87H152.445ZM153.243 75.866C152.939 75.866 152.685 75.7773 152.483 75.6C152.293 75.41 152.198 75.1567 152.198 74.84C152.198 74.536 152.293 74.289 152.483 74.099C152.685 73.909 152.939 73.814 153.243 73.814C153.547 73.814 153.794 73.909 153.984 74.099C154.186 74.289 154.288 74.536 154.288 74.84C154.288 75.1567 154.186 75.41 153.984 75.6C153.794 75.7773 153.547 75.866 153.243 75.866ZM161.706 87.228C161.275 87.228 160.825 87.1267 160.357 86.924C159.901 86.7087 159.47 86.4173 159.065 86.05H159.008L158.875 87H157.621V73.472H159.179V77.158L159.141 78.83C159.559 78.4627 160.015 78.1587 160.509 77.918C161.015 77.6647 161.522 77.538 162.029 77.538C163.232 77.538 164.144 77.9623 164.765 78.811C165.385 79.6597 165.696 80.7997 165.696 82.231C165.696 83.2823 165.506 84.1817 165.126 84.929C164.758 85.6763 164.271 86.2463 163.663 86.639C163.067 87.0317 162.415 87.228 161.706 87.228ZM161.44 85.917C162.2 85.917 162.827 85.594 163.321 84.948C163.827 84.2893 164.081 83.39 164.081 82.25C164.081 81.2367 163.891 80.4197 163.511 79.799C163.143 79.1657 162.523 78.849 161.648 78.849C161.256 78.849 160.857 78.9567 160.452 79.172C160.046 79.3873 159.622 79.6977 159.179 80.103V84.948C159.584 85.3027 159.983 85.556 160.376 85.708C160.781 85.8473 161.136 85.917 161.44 85.917ZM170.491 87.228C169.718 87.228 169.072 87 168.553 86.544C168.046 86.0753 167.793 85.4293 167.793 84.606C167.793 83.5927 168.242 82.82 169.142 82.288C170.054 81.7433 171.491 81.3633 173.455 81.148C173.455 80.7553 173.398 80.3817 173.284 80.027C173.182 79.6723 172.992 79.3873 172.714 79.172C172.448 78.944 172.061 78.83 171.555 78.83C171.023 78.83 170.522 78.9313 170.054 79.134C169.585 79.3367 169.167 79.5647 168.8 79.818L168.192 78.735C168.622 78.4563 169.148 78.1903 169.769 77.937C170.402 77.671 171.086 77.538 171.821 77.538C172.948 77.538 173.765 77.8863 174.272 78.583C174.778 79.267 175.032 80.1853 175.032 81.338V87H173.74L173.607 85.898H173.55C173.119 86.2527 172.644 86.563 172.125 86.829C171.618 87.095 171.073 87.228 170.491 87.228ZM170.947 85.974C171.39 85.974 171.808 85.8663 172.201 85.651C172.593 85.4357 173.011 85.1317 173.455 84.739V82.174C171.922 82.364 170.845 82.649 170.225 83.029C169.617 83.409 169.313 83.8967 169.313 84.492C169.313 85.0113 169.471 85.3913 169.788 85.632C170.104 85.86 170.491 85.974 170.947 85.974ZM184.869 87.228C184.096 87.228 183.45 87 182.931 86.544C182.424 86.0753 182.171 85.4293 182.171 84.606C182.171 83.5927 182.62 82.82 183.52 82.288C184.432 81.7433 185.869 81.3633 187.833 81.148C187.833 80.7553 187.776 80.3817 187.662 80.027C187.56 79.6723 187.37 79.3873 187.092 79.172C186.826 78.944 186.439 78.83 185.933 78.83C185.401 78.83 184.9 78.9313 184.432 79.134C183.963 79.3367 183.545 79.5647 183.178 79.818L182.57 78.735C183 78.4563 183.526 78.1903 184.147 77.937C184.78 77.671 185.464 77.538 186.199 77.538C187.326 77.538 188.143 77.8863 188.65 78.583C189.156 79.267 189.41 80.1853 189.41 81.338V87H188.118L187.985 85.898H187.928C187.497 86.2527 187.022 86.563 186.503 86.829C185.996 87.095 185.451 87.228 184.869 87.228ZM185.325 85.974C185.768 85.974 186.186 85.8663 186.579 85.651C186.971 85.4357 187.389 85.1317 187.833 84.739V82.174C186.3 82.364 185.223 82.649 184.603 83.029C183.995 83.409 183.691 83.8967 183.691 84.492C183.691 85.0113 183.849 85.3913 184.166 85.632C184.482 85.86 184.869 85.974 185.325 85.974ZM192.815 87V73.472H194.354V82.63H194.411L198.344 77.766H200.073L196.976 81.471L200.491 87H198.781L196.083 82.554L194.354 84.568V87H192.815ZM205.979 87.228C205.232 87.228 204.529 87.038 203.87 86.658C203.224 86.278 202.698 85.727 202.293 85.005C201.9 84.283 201.704 83.4153 201.704 82.402C201.704 81.3633 201.9 80.483 202.293 79.761C202.698 79.039 203.224 78.488 203.87 78.108C204.529 77.728 205.232 77.538 205.979 77.538C206.739 77.538 207.442 77.728 208.088 78.108C208.734 78.488 209.253 79.039 209.646 79.761C210.051 80.483 210.254 81.3633 210.254 82.402C210.254 83.4153 210.051 84.283 209.646 85.005C209.253 85.727 208.734 86.278 208.088 86.658C207.442 87.038 206.739 87.228 205.979 87.228ZM205.979 85.936C206.777 85.936 207.417 85.613 207.898 84.967C208.392 84.3083 208.639 83.4533 208.639 82.402C208.639 81.338 208.392 80.4767 207.898 79.818C207.417 79.1593 206.777 78.83 205.979 78.83C205.194 78.83 204.554 79.1593 204.06 79.818C203.566 80.4767 203.319 81.338 203.319 82.402C203.319 83.4533 203.566 84.3083 204.06 84.967C204.554 85.613 205.194 85.936 205.979 85.936ZM220.188 87.228C219.212 87.228 218.497 86.924 218.041 86.316C217.585 85.6953 217.357 84.796 217.357 83.618V77.766H218.934V83.409C218.934 84.2703 219.067 84.8973 219.333 85.29C219.611 85.6827 220.055 85.879 220.663 85.879C221.144 85.879 221.568 85.7587 221.936 85.518C222.316 85.2647 222.721 84.8657 223.152 84.321V77.766H224.71V87H223.418L223.285 85.556H223.228C222.797 86.0627 222.341 86.468 221.86 86.772C221.378 87.076 220.821 87.228 220.188 87.228ZM228.325 87V73.472H229.864V82.63H229.921L233.854 77.766H235.583L232.486 81.471L236.001 87H234.291L231.593 82.554L229.864 84.568V87H228.325ZM240.174 87.228C239.402 87.228 238.756 87 238.236 86.544C237.73 86.0753 237.476 85.4293 237.476 84.606C237.476 83.5927 237.926 82.82 238.825 82.288C239.737 81.7433 241.175 81.3633 243.138 81.148C243.138 80.7553 243.081 80.3817 242.967 80.027C242.866 79.6723 242.676 79.3873 242.397 79.172C242.131 78.944 241.745 78.83 241.238 78.83C240.706 78.83 240.206 78.9313 239.737 79.134C239.269 79.3367 238.851 79.5647 238.483 79.818L237.875 78.735C238.306 78.4563 238.832 78.1903 239.452 77.937C240.086 77.671 240.77 77.538 241.504 77.538C242.632 77.538 243.449 77.8863 243.955 78.583C244.462 79.267 244.715 80.1853 244.715 81.338V87H243.423L243.29 85.898H243.233C242.803 86.2527 242.328 86.563 241.808 86.829C241.302 87.095 240.757 87.228 240.174 87.228ZM240.63 85.974C241.074 85.974 241.492 85.8663 241.884 85.651C242.277 85.4357 242.695 85.1317 243.138 84.739V82.174C241.606 82.364 240.529 82.649 239.908 83.029C239.3 83.409 238.996 83.8967 238.996 84.492C238.996 85.0113 239.155 85.3913 239.471 85.632C239.788 85.86 240.174 85.974 240.63 85.974ZM241.295 76.113L240.497 75.334L243.176 72.161L244.278 73.206L241.295 76.113ZM247.152 87V86.164L252.016 79.039H247.684V77.766H253.992V78.602L249.128 85.727H254.144V87H247.152ZM250.173 76.094L248.007 73.434L248.672 72.826L250.914 74.973H250.99L253.232 72.826L253.897 73.434L251.731 76.094H250.173ZM256.692 87V73.472H258.231V82.63H258.288L262.221 77.766H263.95L260.853 81.471L264.368 87H262.658L259.96 82.554L258.231 84.568V87H256.692ZM268.541 87.228C267.769 87.228 267.123 87 266.603 86.544C266.097 86.0753 265.843 85.4293 265.843 84.606C265.843 83.5927 266.293 82.82 267.192 82.288C268.104 81.7433 269.542 81.3633 271.505 81.148C271.505 80.7553 271.448 80.3817 271.334 80.027C271.233 79.6723 271.043 79.3873 270.764 79.172C270.498 78.944 270.112 78.83 269.605 78.83C269.073 78.83 268.573 78.9313 268.104 79.134C267.636 79.3367 267.218 79.5647 266.85 79.818L266.242 78.735C266.673 78.4563 267.199 78.1903 267.819 77.937C268.453 77.671 269.137 77.538 269.871 77.538C270.999 77.538 271.816 77.8863 272.322 78.583C272.829 79.267 273.082 80.1853 273.082 81.338V87H271.79L271.657 85.898H271.6C271.17 86.2527 270.695 86.563 270.175 86.829C269.669 87.095 269.124 87.228 268.541 87.228ZM268.997 85.974C269.441 85.974 269.859 85.8663 270.251 85.651C270.644 85.4357 271.062 85.1317 271.505 84.739V82.174C269.973 82.364 268.896 82.649 268.275 83.029C267.667 83.409 267.363 83.8967 267.363 84.492C267.363 85.0113 267.522 85.3913 267.838 85.632C268.155 85.86 268.541 85.974 268.997 85.974ZM21.558 115V105.766H22.85L22.983 107.096H23.04C23.4833 106.653 23.952 106.285 24.446 105.994C24.94 105.69 25.5037 105.538 26.137 105.538C27.1123 105.538 27.8217 105.848 28.265 106.469C28.721 107.077 28.949 107.97 28.949 109.148V115H27.391V109.357C27.391 108.496 27.2517 107.869 26.973 107.476C26.6943 107.083 26.251 106.887 25.643 106.887C25.1743 106.887 24.75 107.007 24.37 107.248C24.0027 107.489 23.5847 107.843 23.116 108.312V115H21.558ZM34.5766 115.228C33.804 115.228 33.158 115 32.6386 114.544C32.132 114.075 31.8786 113.429 31.8786 112.606C31.8786 111.593 32.3283 110.82 33.2276 110.288C34.1396 109.743 35.5773 109.363 37.5406 109.148C37.5406 108.755 37.4836 108.382 37.3696 108.027C37.2683 107.672 37.0783 107.387 36.7996 107.172C36.5336 106.944 36.1473 106.83 35.6406 106.83C35.1086 106.83 34.6083 106.931 34.1396 107.134C33.671 107.337 33.253 107.565 32.8856 107.818L32.2776 106.735C32.7083 106.456 33.234 106.19 33.8546 105.937C34.488 105.671 35.172 105.538 35.9066 105.538C37.034 105.538 37.851 105.886 38.3576 106.583C38.8643 107.267 39.1176 108.185 39.1176 109.338V115H37.8256L37.6926 113.898H37.6356C37.205 114.253 36.73 114.563 36.2106 114.829C35.704 115.095 35.1593 115.228 34.5766 115.228ZM35.0326 113.974C35.476 113.974 35.894 113.866 36.2866 113.651C36.6793 113.436 37.0973 113.132 37.5406 112.739V110.174C36.008 110.364 34.9313 110.649 34.3106 111.029C33.7026 111.409 33.3986 111.897 33.3986 112.492C33.3986 113.011 33.557 113.391 33.8736 113.632C34.1903 113.86 34.5766 113.974 35.0326 113.974ZM42.5228 118.895V105.766H43.8148L43.9478 106.83H44.0048C44.4228 106.475 44.8788 106.171 45.3728 105.918C45.8795 105.665 46.4052 105.538 46.9498 105.538C48.1405 105.538 49.0462 105.969 49.6668 106.83C50.2875 107.679 50.5978 108.819 50.5978 110.25C50.5978 111.289 50.4078 112.182 50.0278 112.929C49.6605 113.676 49.1728 114.246 48.5648 114.639C47.9695 115.032 47.3172 115.228 46.6078 115.228C46.1772 115.228 45.7465 115.133 45.3158 114.943C44.8978 114.753 44.4735 114.493 44.0428 114.164L44.0808 115.779V118.895H42.5228ZM46.3418 113.917C47.1018 113.917 47.7288 113.594 48.2228 112.948C48.7295 112.289 48.9828 111.39 48.9828 110.25C48.9828 109.237 48.7928 108.42 48.4128 107.799C48.0455 107.166 47.4248 106.849 46.5508 106.849C46.1582 106.849 45.7592 106.957 45.3538 107.172C44.9612 107.387 44.5368 107.698 44.0808 108.103V112.948C44.4988 113.303 44.9042 113.556 45.2968 113.708C45.6895 113.847 46.0378 113.917 46.3418 113.917ZM55.2149 115.228C54.6322 115.228 54.2079 115.051 53.9419 114.696C53.6886 114.329 53.5619 113.809 53.5619 113.138V101.472H55.1199V113.252C55.1199 113.493 55.1642 113.67 55.2529 113.784C55.3416 113.885 55.4429 113.936 55.5569 113.936C55.6076 113.936 55.6519 113.936 55.6899 113.936C55.7406 113.923 55.8102 113.911 55.8989 113.898L56.1079 115.076C56.0066 115.127 55.8862 115.165 55.7469 115.19C55.6076 115.215 55.4302 115.228 55.2149 115.228ZM58.9047 115V105.766H60.1967L60.3297 107.096H60.3867C60.83 106.653 61.2987 106.285 61.7927 105.994C62.2867 105.69 62.8503 105.538 63.4837 105.538C64.459 105.538 65.1683 105.848 65.6117 106.469C66.0677 107.077 66.2957 107.97 66.2957 109.148V115H64.7377V109.357C64.7377 108.496 64.5983 107.869 64.3197 107.476C64.041 107.083 63.5977 106.887 62.9897 106.887C62.521 106.887 62.0967 107.007 61.7167 107.248C61.3493 107.489 60.9313 107.843 60.4627 108.312V115H58.9047ZM73.5383 115.228C72.715 115.228 71.9676 115.038 71.2963 114.658C70.625 114.265 70.093 113.708 69.7003 112.986C69.3076 112.264 69.1113 111.403 69.1113 110.402C69.1113 109.389 69.3076 108.521 69.7003 107.799C70.1056 107.077 70.625 106.52 71.2583 106.127C71.8916 105.734 72.5566 105.538 73.2533 105.538C74.4313 105.538 75.337 105.931 75.9703 106.716C76.6163 107.501 76.9393 108.553 76.9393 109.87C76.9393 110.035 76.933 110.199 76.9203 110.364C76.9203 110.516 76.9076 110.649 76.8823 110.763H70.6503C70.7136 111.738 71.0176 112.517 71.5623 113.1C72.1196 113.683 72.8416 113.974 73.7283 113.974C74.1716 113.974 74.577 113.911 74.9443 113.784C75.3243 113.645 75.6853 113.467 76.0273 113.252L76.5783 114.278C76.1856 114.531 75.736 114.753 75.2293 114.943C74.7353 115.133 74.1716 115.228 73.5383 115.228ZM70.6313 109.642H75.5713C75.5713 108.705 75.3686 107.995 74.9633 107.514C74.5706 107.02 74.0133 106.773 73.2913 106.773C72.6453 106.773 72.0626 107.026 71.5433 107.533C71.0366 108.027 70.7326 108.73 70.6313 109.642ZM79.7211 115V105.766H81.0131L81.1461 107.096H81.2031C81.6464 106.653 82.1151 106.285 82.6091 105.994C83.1031 105.69 83.6668 105.538 84.3001 105.538C85.2754 105.538 85.9848 105.848 86.4281 106.469C86.8841 107.077 87.1121 107.97 87.1121 109.148V115H85.5541V109.357C85.5541 108.496 85.4148 107.869 85.1361 107.476C84.8574 107.083 84.4141 106.887 83.8061 106.887C83.3374 106.887 82.9131 107.007 82.5331 107.248C82.1658 107.489 81.7478 107.843 81.2791 108.312V115H79.7211ZM94.3547 115.228C93.5314 115.228 92.784 115.038 92.1127 114.658C91.4414 114.265 90.9094 113.708 90.5167 112.986C90.124 112.264 89.9277 111.403 89.9277 110.402C89.9277 109.389 90.124 108.521 90.5167 107.799C90.922 107.077 91.4414 106.52 92.0747 106.127C92.708 105.734 93.373 105.538 94.0697 105.538C95.2477 105.538 96.1534 105.931 96.7867 106.716C97.4327 107.501 97.7557 108.553 97.7557 109.87C97.7557 110.035 97.7494 110.199 97.7367 110.364C97.7367 110.516 97.724 110.649 97.6987 110.763H91.4667C91.53 111.738 91.834 112.517 92.3787 113.1C92.936 113.683 93.658 113.974 94.5447 113.974C94.988 113.974 95.3934 113.911 95.7607 113.784C96.1407 113.645 96.5017 113.467 96.8437 113.252L97.3947 114.278C97.002 114.531 96.5524 114.753 96.0457 114.943C95.5517 115.133 94.988 115.228 94.3547 115.228ZM91.4477 109.642H96.3877C96.3877 108.705 96.185 107.995 95.7797 107.514C95.387 107.02 94.8297 106.773 94.1077 106.773C93.4617 106.773 92.879 107.026 92.3597 107.533C91.853 108.027 91.549 108.73 91.4477 109.642ZM93.8037 104.113L93.0057 103.334L95.6847 100.161L96.7867 101.206L93.8037 104.113ZM100.537 115V101.472H102.095V105.158L102.038 107.058C102.482 106.64 102.944 106.285 103.425 105.994C103.919 105.69 104.483 105.538 105.116 105.538C106.092 105.538 106.801 105.848 107.244 106.469C107.7 107.077 107.928 107.97 107.928 109.148V115H106.37V109.357C106.37 108.496 106.231 107.869 105.952 107.476C105.674 107.083 105.23 106.887 104.622 106.887C104.154 106.887 103.729 107.007 103.349 107.248C102.982 107.489 102.564 107.843 102.095 108.312V115H100.537ZM114.963 115.228C114.216 115.228 113.513 115.038 112.854 114.658C112.208 114.278 111.683 113.727 111.277 113.005C110.885 112.283 110.688 111.415 110.688 110.402C110.688 109.363 110.885 108.483 111.277 107.761C111.683 107.039 112.208 106.488 112.854 106.108C113.513 105.728 114.216 105.538 114.963 105.538C115.723 105.538 116.426 105.728 117.072 106.108C117.718 106.488 118.238 107.039 118.63 107.761C119.036 108.483 119.238 109.363 119.238 110.402C119.238 111.415 119.036 112.283 118.63 113.005C118.238 113.727 117.718 114.278 117.072 114.658C116.426 115.038 115.723 115.228 114.963 115.228ZM114.963 113.936C115.761 113.936 116.401 113.613 116.882 112.967C117.376 112.308 117.623 111.453 117.623 110.402C117.623 109.338 117.376 108.477 116.882 107.818C116.401 107.159 115.761 106.83 114.963 106.83C114.178 106.83 113.538 107.159 113.044 107.818C112.55 108.477 112.303 109.338 112.303 110.402C112.303 111.453 112.55 112.308 113.044 112.967C113.538 113.613 114.178 113.936 114.963 113.936ZM130.065 115.228C129.318 115.228 128.615 115.038 127.956 114.658C127.31 114.278 126.784 113.727 126.379 113.005C125.986 112.283 125.79 111.415 125.79 110.402C125.79 109.363 125.986 108.483 126.379 107.761C126.784 107.039 127.31 106.488 127.956 106.108C128.615 105.728 129.318 105.538 130.065 105.538C130.825 105.538 131.528 105.728 132.174 106.108C132.82 106.488 133.339 107.039 133.732 107.761C134.137 108.483 134.34 109.363 134.34 110.402C134.34 111.415 134.137 112.283 133.732 113.005C133.339 113.727 132.82 114.278 132.174 114.658C131.528 115.038 130.825 115.228 130.065 115.228ZM130.065 113.936C130.863 113.936 131.503 113.613 131.984 112.967C132.478 112.308 132.725 111.453 132.725 110.402C132.725 109.338 132.478 108.477 131.984 107.818C131.503 107.159 130.863 106.83 130.065 106.83C129.28 106.83 128.64 107.159 128.146 107.818C127.652 108.477 127.405 109.338 127.405 110.402C127.405 111.453 127.652 112.308 128.146 112.967C128.64 113.613 129.28 113.936 130.065 113.936ZM141.357 115.228C140.926 115.228 140.477 115.127 140.008 114.924C139.552 114.709 139.121 114.417 138.716 114.05H138.659L138.526 115H137.272V101.472H138.83V105.158L138.792 106.83C139.21 106.463 139.666 106.159 140.16 105.918C140.667 105.665 141.173 105.538 141.68 105.538C142.883 105.538 143.795 105.962 144.416 106.811C145.037 107.66 145.347 108.8 145.347 110.231C145.347 111.282 145.157 112.182 144.777 112.929C144.41 113.676 143.922 114.246 143.314 114.639C142.719 115.032 142.066 115.228 141.357 115.228ZM141.091 113.917C141.851 113.917 142.478 113.594 142.972 112.948C143.479 112.289 143.732 111.39 143.732 110.25C143.732 109.237 143.542 108.42 143.162 107.799C142.795 107.166 142.174 106.849 141.3 106.849C140.907 106.849 140.508 106.957 140.103 107.172C139.698 107.387 139.273 107.698 138.83 108.103V112.948C139.235 113.303 139.634 113.556 140.027 113.708C140.432 113.847 140.787 113.917 141.091 113.917ZM150.687 115.228C150.028 115.228 149.401 115.108 148.806 114.867C148.21 114.614 147.691 114.31 147.248 113.955L148.027 112.91C148.432 113.227 148.85 113.493 149.281 113.708C149.711 113.911 150.199 114.012 150.744 114.012C151.352 114.012 151.808 113.873 152.112 113.594C152.416 113.303 152.568 112.961 152.568 112.568C152.568 112.251 152.46 111.985 152.245 111.77C152.042 111.555 151.776 111.377 151.447 111.238C151.13 111.086 150.801 110.947 150.459 110.82C150.028 110.655 149.604 110.472 149.186 110.269C148.768 110.054 148.426 109.781 148.16 109.452C147.894 109.11 147.761 108.679 147.761 108.16C147.761 107.413 148.039 106.792 148.597 106.298C149.167 105.791 149.952 105.538 150.953 105.538C151.523 105.538 152.055 105.639 152.549 105.842C153.043 106.045 153.467 106.292 153.822 106.583L153.062 107.571C152.745 107.33 152.416 107.134 152.074 106.982C151.732 106.83 151.358 106.754 150.953 106.754C150.37 106.754 149.939 106.887 149.661 107.153C149.395 107.419 149.262 107.729 149.262 108.084C149.262 108.375 149.357 108.616 149.547 108.806C149.737 108.983 149.984 109.142 150.288 109.281C150.592 109.408 150.915 109.541 151.257 109.68C151.7 109.845 152.137 110.035 152.568 110.25C152.998 110.453 153.353 110.731 153.632 111.086C153.923 111.428 154.069 111.89 154.069 112.473C154.069 112.967 153.936 113.423 153.67 113.841C153.416 114.259 153.036 114.595 152.53 114.848C152.036 115.101 151.421 115.228 150.687 115.228ZM158.862 115.228C158.089 115.228 157.443 115 156.924 114.544C156.417 114.075 156.164 113.429 156.164 112.606C156.164 111.593 156.613 110.82 157.513 110.288C158.425 109.743 159.862 109.363 161.826 109.148C161.826 108.755 161.769 108.382 161.655 108.027C161.553 107.672 161.363 107.387 161.085 107.172C160.819 106.944 160.432 106.83 159.926 106.83C159.394 106.83 158.893 106.931 158.425 107.134C157.956 107.337 157.538 107.565 157.171 107.818L156.563 106.735C156.993 106.456 157.519 106.19 158.14 105.937C158.773 105.671 159.457 105.538 160.192 105.538C161.319 105.538 162.136 105.886 162.643 106.583C163.149 107.267 163.403 108.185 163.403 109.338V115H162.111L161.978 113.898H161.921C161.49 114.253 161.015 114.563 160.496 114.829C159.989 115.095 159.444 115.228 158.862 115.228ZM159.318 113.974C159.761 113.974 160.179 113.866 160.572 113.651C160.964 113.436 161.382 113.132 161.826 112.739V110.174C160.293 110.364 159.216 110.649 158.596 111.029C157.988 111.409 157.684 111.897 157.684 112.492C157.684 113.011 157.842 113.391 158.159 113.632C158.475 113.86 158.862 113.974 159.318 113.974ZM166.808 115V101.472H168.366V105.158L168.309 107.058C168.752 106.64 169.215 106.285 169.696 105.994C170.19 105.69 170.754 105.538 171.387 105.538C172.362 105.538 173.072 105.848 173.515 106.469C173.971 107.077 174.199 107.97 174.199 109.148V115H172.641V109.357C172.641 108.496 172.502 107.869 172.223 107.476C171.944 107.083 171.501 106.887 170.893 106.887C170.424 106.887 170 107.007 169.62 107.248C169.253 107.489 168.835 107.843 168.366 108.312V115H166.808ZM180.341 115.228C179.366 115.228 178.65 114.924 178.194 114.316C177.738 113.695 177.51 112.796 177.51 111.618V105.766H179.087V111.409C179.087 112.27 179.22 112.897 179.486 113.29C179.765 113.683 180.208 113.879 180.816 113.879C181.297 113.879 181.722 113.759 182.089 113.518C182.469 113.265 182.874 112.866 183.305 112.321V105.766H184.863V115H183.571L183.438 113.556H183.381C182.95 114.063 182.494 114.468 182.013 114.772C181.532 115.076 180.974 115.228 180.341 115.228ZM194.777 115L191.452 105.766H193.067L194.815 111.01C194.954 111.466 195.093 111.922 195.233 112.378C195.385 112.834 195.53 113.284 195.67 113.727H195.746C195.885 113.284 196.024 112.834 196.164 112.378C196.316 111.922 196.455 111.466 196.582 111.01L198.33 105.766H199.869L196.601 115H194.777ZM209.608 115.228C208.456 115.228 207.531 114.81 206.834 113.974C206.138 113.125 205.789 111.935 205.789 110.402C205.789 109.401 205.973 108.54 206.34 107.818C206.72 107.083 207.214 106.52 207.822 106.127C208.443 105.734 209.102 105.538 209.798 105.538C210.33 105.538 210.793 105.633 211.185 105.823C211.578 106.013 211.977 106.273 212.382 106.602L212.306 105.025V101.472H213.883V115H212.591L212.458 113.917H212.401C212.047 114.272 211.629 114.582 211.147 114.848C210.666 115.101 210.153 115.228 209.608 115.228ZM209.95 113.917C210.761 113.917 211.546 113.493 212.306 112.644V107.818C211.914 107.463 211.534 107.216 211.166 107.077C210.812 106.925 210.444 106.849 210.064 106.849C209.57 106.849 209.121 107.001 208.715 107.305C208.323 107.596 208.006 108.008 207.765 108.54C207.525 109.059 207.404 109.674 207.404 110.383C207.404 111.485 207.626 112.353 208.069 112.986C208.513 113.607 209.14 113.917 209.95 113.917ZM219.622 115.228C218.849 115.228 218.203 115 217.684 114.544C217.177 114.075 216.924 113.429 216.924 112.606C216.924 111.593 217.373 110.82 218.273 110.288C219.185 109.743 220.622 109.363 222.586 109.148C222.586 108.755 222.529 108.382 222.415 108.027C222.313 107.672 222.123 107.387 221.845 107.172C221.579 106.944 221.192 106.83 220.686 106.83C220.154 106.83 219.653 106.931 219.185 107.134C218.716 107.337 218.298 107.565 217.931 107.818L217.323 106.735C217.753 106.456 218.279 106.19 218.9 105.937C219.533 105.671 220.217 105.538 220.952 105.538C222.079 105.538 222.896 105.886 223.403 106.583C223.909 107.267 224.163 108.185 224.163 109.338V115H222.871L222.738 113.898H222.681C222.25 114.253 221.775 114.563 221.256 114.829C220.749 115.095 220.204 115.228 219.622 115.228ZM220.078 113.974C220.521 113.974 220.939 113.866 221.332 113.651C221.724 113.436 222.142 113.132 222.586 112.739V110.174C221.053 110.364 219.976 110.649 219.356 111.029C218.748 111.409 218.444 111.897 218.444 112.492C218.444 113.011 218.602 113.391 218.919 113.632C219.235 113.86 219.622 113.974 220.078 113.974ZM227.568 115V105.766H228.86L228.993 107.096H229.05C229.493 106.653 229.962 106.285 230.456 105.994C230.95 105.69 231.513 105.538 232.147 105.538C233.122 105.538 233.831 105.848 234.275 106.469C234.731 107.077 234.959 107.97 234.959 109.148V115H233.401V109.357C233.401 108.496 233.261 107.869 232.983 107.476C232.704 107.083 232.261 106.887 231.653 106.887C231.184 106.887 230.76 107.007 230.38 107.248C230.012 107.489 229.594 107.843 229.126 108.312V115H227.568ZM242.049 115.228C241.302 115.228 240.599 115.038 239.94 114.658C239.294 114.278 238.769 113.727 238.363 113.005C237.971 112.283 237.774 111.415 237.774 110.402C237.774 109.363 237.971 108.483 238.363 107.761C238.769 107.039 239.294 106.488 239.94 106.108C240.599 105.728 241.302 105.538 242.049 105.538C242.809 105.538 243.512 105.728 244.158 106.108C244.804 106.488 245.324 107.039 245.716 107.761C246.122 108.483 246.324 109.363 246.324 110.402C246.324 111.415 246.122 112.283 245.716 113.005C245.324 113.727 244.804 114.278 244.158 114.658C243.512 115.038 242.809 115.228 242.049 115.228ZM242.049 113.936C242.847 113.936 243.487 113.613 243.968 112.967C244.462 112.308 244.709 111.453 244.709 110.402C244.709 109.338 244.462 108.477 243.968 107.818C243.487 107.159 242.847 106.83 242.049 106.83C241.264 106.83 240.624 107.159 240.13 107.818C239.636 108.477 239.389 109.338 239.389 110.402C239.389 111.453 239.636 112.308 240.13 112.967C240.624 113.613 241.264 113.936 242.049 113.936ZM249.256 115V105.766H250.548L250.681 107.096H250.738C251.144 106.653 251.587 106.285 252.068 105.994C252.55 105.69 253.063 105.538 253.607 105.538C254.317 105.538 254.868 105.696 255.26 106.013C255.666 106.317 255.963 106.748 256.153 107.305C256.635 106.786 257.122 106.361 257.616 106.032C258.11 105.703 258.636 105.538 259.193 105.538C260.143 105.538 260.846 105.848 261.302 106.469C261.771 107.077 262.005 107.97 262.005 109.148V115H260.447V109.357C260.447 108.496 260.308 107.869 260.029 107.476C259.751 107.083 259.32 106.887 258.737 106.887C258.053 106.887 257.281 107.362 256.419 108.312V115H254.861V109.357C254.861 108.496 254.722 107.869 254.443 107.476C254.165 107.083 253.728 106.887 253.132 106.887C252.448 106.887 251.676 107.362 250.814 108.312V115H249.256ZM21.558 143V129.472H23.097V138.63H23.154L27.087 133.766H28.816L25.719 137.471L29.234 143H27.524L24.826 138.554L23.097 140.568V143H21.558ZM34.7222 143.228C33.9749 143.228 33.2719 143.038 32.6132 142.658C31.9672 142.278 31.4416 141.727 31.0362 141.005C30.6436 140.283 30.4472 139.415 30.4472 138.402C30.4472 137.363 30.6436 136.483 31.0362 135.761C31.4416 135.039 31.9672 134.488 32.6132 134.108C33.2719 133.728 33.9749 133.538 34.7222 133.538C35.4822 133.538 36.1852 133.728 36.8312 134.108C37.4772 134.488 37.9966 135.039 38.3892 135.761C38.7946 136.483 38.9972 137.363 38.9972 138.402C38.9972 139.415 38.7946 140.283 38.3892 141.005C37.9966 141.727 37.4772 142.278 36.8312 142.658C36.1852 143.038 35.4822 143.228 34.7222 143.228ZM34.7222 141.936C35.5202 141.936 36.1599 141.613 36.6412 140.967C37.1352 140.308 37.3822 139.453 37.3822 138.402C37.3822 137.338 37.1352 136.477 36.6412 135.818C36.1599 135.159 35.5202 134.83 34.7222 134.83C33.9369 134.83 33.2972 135.159 32.8032 135.818C32.3092 136.477 32.0622 137.338 32.0622 138.402C32.0622 139.453 32.3092 140.308 32.8032 140.967C33.2972 141.613 33.9369 141.936 34.7222 141.936ZM41.9291 143V133.766H43.2211L43.3541 135.096H43.4111C43.8164 134.653 44.2598 134.285 44.7411 133.994C45.2224 133.69 45.7354 133.538 46.2801 133.538C46.9894 133.538 47.5404 133.696 47.9331 134.013C48.3384 134.317 48.6361 134.748 48.8261 135.305C49.3074 134.786 49.7951 134.361 50.2891 134.032C50.7831 133.703 51.3088 133.538 51.8661 133.538C52.8161 133.538 53.5191 133.848 53.9751 134.469C54.4438 135.077 54.6781 135.97 54.6781 137.148V143H53.1201V137.357C53.1201 136.496 52.9808 135.869 52.7021 135.476C52.4234 135.083 51.9928 134.887 51.4101 134.887C50.7261 134.887 49.9534 135.362 49.0921 136.312V143H47.5341V137.357C47.5341 136.496 47.3948 135.869 47.1161 135.476C46.8374 135.083 46.4004 134.887 45.8051 134.887C45.1211 134.887 44.3484 135.362 43.4871 136.312V143H41.9291ZM58.182 146.895V133.766H59.474L59.607 134.83H59.664C60.082 134.475 60.538 134.171 61.032 133.918C61.5387 133.665 62.0644 133.538 62.609 133.538C63.7997 133.538 64.7054 133.969 65.326 134.83C65.9467 135.679 66.257 136.819 66.257 138.25C66.257 139.289 66.067 140.182 65.687 140.929C65.3197 141.676 64.832 142.246 64.224 142.639C63.6287 143.032 62.9764 143.228 62.267 143.228C61.8364 143.228 61.4057 143.133 60.975 142.943C60.557 142.753 60.1327 142.493 59.702 142.164L59.74 143.779V146.895H58.182ZM62.001 141.917C62.761 141.917 63.388 141.594 63.882 140.948C64.3887 140.289 64.642 139.39 64.642 138.25C64.642 137.237 64.452 136.42 64.072 135.799C63.7047 135.166 63.084 134.849 62.21 134.849C61.8174 134.849 61.4184 134.957 61.013 135.172C60.6204 135.387 60.196 135.698 59.74 136.103V140.948C60.158 141.303 60.5634 141.556 60.956 141.708C61.3487 141.847 61.697 141.917 62.001 141.917ZM72.8121 143.228C72.0648 143.228 71.3618 143.038 70.7031 142.658C70.0571 142.278 69.5314 141.727 69.1261 141.005C68.7334 140.283 68.5371 139.415 68.5371 138.402C68.5371 137.363 68.7334 136.483 69.1261 135.761C69.5314 135.039 70.0571 134.488 70.7031 134.108C71.3618 133.728 72.0648 133.538 72.8121 133.538C73.5721 133.538 74.2751 133.728 74.9211 134.108C75.5671 134.488 76.0864 135.039 76.4791 135.761C76.8844 136.483 77.0871 137.363 77.0871 138.402C77.0871 139.415 76.8844 140.283 76.4791 141.005C76.0864 141.727 75.5671 142.278 74.9211 142.658C74.2751 143.038 73.5721 143.228 72.8121 143.228ZM72.8121 141.936C73.6101 141.936 74.2498 141.613 74.7311 140.967C75.2251 140.308 75.4721 139.453 75.4721 138.402C75.4721 137.338 75.2251 136.477 74.7311 135.818C74.2498 135.159 73.6101 134.83 72.8121 134.83C72.0268 134.83 71.3871 135.159 70.8931 135.818C70.3991 136.477 70.1521 137.338 70.1521 138.402C70.1521 139.453 70.3991 140.308 70.8931 140.967C71.3871 141.613 72.0268 141.936 72.8121 141.936ZM80.0189 143V133.766H81.3109L81.4439 135.096H81.5009C81.9443 134.653 82.4129 134.285 82.9069 133.994C83.4009 133.69 83.9646 133.538 84.5979 133.538C85.5733 133.538 86.2826 133.848 86.7259 134.469C87.1819 135.077 87.4099 135.97 87.4099 137.148V143H85.8519V137.357C85.8519 136.496 85.7126 135.869 85.4339 135.476C85.1553 135.083 84.7119 134.887 84.1039 134.887C83.6353 134.887 83.2109 135.007 82.8309 135.248C82.4636 135.489 82.0456 135.843 81.5769 136.312V143H80.0189ZM94.6526 143.228C93.8292 143.228 93.0819 143.038 92.4106 142.658C91.7392 142.265 91.2072 141.708 90.8146 140.986C90.4219 140.264 90.2256 139.403 90.2256 138.402C90.2256 137.389 90.4219 136.521 90.8146 135.799C91.2199 135.077 91.7392 134.52 92.3726 134.127C93.0059 133.734 93.6709 133.538 94.3676 133.538C95.5456 133.538 96.4512 133.931 97.0846 134.716C97.7306 135.501 98.0536 136.553 98.0536 137.87C98.0536 138.035 98.0472 138.199 98.0346 138.364C98.0346 138.516 98.0219 138.649 97.9966 138.763H91.7646C91.8279 139.738 92.1319 140.517 92.6766 141.1C93.2339 141.683 93.9559 141.974 94.8426 141.974C95.2859 141.974 95.6912 141.911 96.0586 141.784C96.4386 141.645 96.7996 141.467 97.1416 141.252L97.6926 142.278C97.2999 142.531 96.8502 142.753 96.3436 142.943C95.8496 143.133 95.2859 143.228 94.6526 143.228ZM91.7456 137.642H96.6856C96.6856 136.705 96.4829 135.995 96.0776 135.514C95.6849 135.02 95.1276 134.773 94.4056 134.773C93.7596 134.773 93.1769 135.026 92.6576 135.533C92.1509 136.027 91.8469 136.73 91.7456 137.642ZM100.835 143V133.766H102.127L102.26 135.096H102.317C102.761 134.653 103.229 134.285 103.723 133.994C104.217 133.69 104.781 133.538 105.414 133.538C106.39 133.538 107.099 133.848 107.542 134.469C107.998 135.077 108.226 135.97 108.226 137.148V143H106.668V137.357C106.668 136.496 106.529 135.869 106.25 135.476C105.972 135.083 105.528 134.887 104.92 134.887C104.452 134.887 104.027 135.007 103.647 135.248C103.28 135.489 102.862 135.843 102.393 136.312V143H100.835ZM114.633 143.228C113.645 143.228 112.955 142.943 112.562 142.373C112.182 141.803 111.992 141.062 111.992 140.15V135.039H110.624V133.861L112.068 133.766L112.258 131.182H113.569V133.766H116.058V135.039H113.569V140.169C113.569 140.739 113.67 141.182 113.873 141.499C114.088 141.803 114.462 141.955 114.994 141.955C115.159 141.955 115.336 141.93 115.526 141.879C115.716 141.816 115.887 141.759 116.039 141.708L116.343 142.886C116.09 142.975 115.811 143.051 115.507 143.114C115.216 143.19 114.924 143.228 114.633 143.228ZM122.129 143.228C121.306 143.228 120.558 143.038 119.887 142.658C119.216 142.265 118.684 141.708 118.291 140.986C117.898 140.264 117.702 139.403 117.702 138.402C117.702 137.389 117.898 136.521 118.291 135.799C118.696 135.077 119.216 134.52 119.849 134.127C120.482 133.734 121.147 133.538 121.844 133.538C123.022 133.538 123.928 133.931 124.561 134.716C125.207 135.501 125.53 136.553 125.53 137.87C125.53 138.035 125.524 138.199 125.511 138.364C125.511 138.516 125.498 138.649 125.473 138.763H119.241C119.304 139.738 119.608 140.517 120.153 141.1C120.71 141.683 121.432 141.974 122.319 141.974C122.762 141.974 123.168 141.911 123.535 141.784C123.915 141.645 124.276 141.467 124.618 141.252L125.169 142.278C124.776 142.531 124.327 142.753 123.82 142.943C123.326 143.133 122.762 143.228 122.129 143.228ZM119.222 137.642H124.162C124.162 136.705 123.959 135.995 123.554 135.514C123.161 135.02 122.604 134.773 121.882 134.773C121.236 134.773 120.653 135.026 120.134 135.533C119.627 136.027 119.323 136.73 119.222 137.642ZM129.129 143.228C128.812 143.228 128.54 143.12 128.312 142.905C128.097 142.677 127.989 142.392 127.989 142.05C127.989 141.683 128.097 141.391 128.312 141.176C128.54 140.948 128.812 140.834 129.129 140.834C129.433 140.834 129.693 140.948 129.908 141.176C130.136 141.391 130.25 141.683 130.25 142.05C130.25 142.392 130.136 142.677 129.908 142.905C129.693 143.12 129.433 143.228 129.129 143.228ZM137.999 143V130.536H139.633L144.136 138.364L145.485 140.948H145.561C145.523 140.315 145.479 139.662 145.428 138.991C145.39 138.307 145.371 137.636 145.371 136.977V130.536H146.872V143H145.238L140.716 135.153L139.367 132.588H139.291C139.342 133.209 139.386 133.848 139.424 134.507C139.475 135.166 139.5 135.824 139.5 136.483V143H137.999ZM154.392 143.228C153.568 143.228 152.821 143.038 152.15 142.658C151.478 142.265 150.946 141.708 150.554 140.986C150.161 140.264 149.965 139.403 149.965 138.402C149.965 137.389 150.161 136.521 150.554 135.799C150.959 135.077 151.478 134.52 152.112 134.127C152.745 133.734 153.41 133.538 154.107 133.538C155.285 133.538 156.19 133.931 156.824 134.716C157.47 135.501 157.793 136.553 157.793 137.87C157.793 138.035 157.786 138.199 157.774 138.364C157.774 138.516 157.761 138.649 157.736 138.763H151.504C151.567 139.738 151.871 140.517 152.416 141.1C152.973 141.683 153.695 141.974 154.582 141.974C155.025 141.974 155.43 141.911 155.798 141.784C156.178 141.645 156.539 141.467 156.881 141.252L157.432 142.278C157.039 142.531 156.589 142.753 156.083 142.943C155.589 143.133 155.025 143.228 154.392 143.228ZM151.485 137.642H156.425C156.425 136.705 156.222 135.995 155.817 135.514C155.424 135.02 154.867 134.773 154.145 134.773C153.499 134.773 152.916 135.026 152.397 135.533C151.89 136.027 151.586 136.73 151.485 137.642ZM160.575 146.895V133.766H161.867L162 134.83H162.057C162.475 134.475 162.931 134.171 163.425 133.918C163.931 133.665 164.457 133.538 165.002 133.538C166.192 133.538 167.098 133.969 167.719 134.83C168.339 135.679 168.65 136.819 168.65 138.25C168.65 139.289 168.46 140.182 168.08 140.929C167.712 141.676 167.225 142.246 166.617 142.639C166.021 143.032 165.369 143.228 164.66 143.228C164.229 143.228 163.798 143.133 163.368 142.943C162.95 142.753 162.525 142.493 162.095 142.164L162.133 143.779V146.895H160.575ZM164.394 141.917C165.154 141.917 165.781 141.594 166.275 140.948C166.781 140.289 167.035 139.39 167.035 138.25C167.035 137.237 166.845 136.42 166.465 135.799C166.097 135.166 165.477 134.849 164.603 134.849C164.21 134.849 163.811 134.957 163.406 135.172C163.013 135.387 162.589 135.698 162.133 136.103V140.948C162.551 141.303 162.956 141.556 163.349 141.708C163.741 141.847 164.09 141.917 164.394 141.917ZM175.205 143.228C174.457 143.228 173.754 143.038 173.096 142.658C172.45 142.278 171.924 141.727 171.519 141.005C171.126 140.283 170.93 139.415 170.93 138.402C170.93 137.363 171.126 136.483 171.519 135.761C171.924 135.039 172.45 134.488 173.096 134.108C173.754 133.728 174.457 133.538 175.205 133.538C175.965 133.538 176.668 133.728 177.314 134.108C177.96 134.488 178.479 135.039 178.872 135.761C179.277 136.483 179.48 137.363 179.48 138.402C179.48 139.415 179.277 140.283 178.872 141.005C178.479 141.727 177.96 142.278 177.314 142.658C176.668 143.038 175.965 143.228 175.205 143.228ZM175.205 141.936C176.003 141.936 176.642 141.613 177.124 140.967C177.618 140.308 177.865 139.453 177.865 138.402C177.865 137.338 177.618 136.477 177.124 135.818C176.642 135.159 176.003 134.83 175.205 134.83C174.419 134.83 173.78 135.159 173.286 135.818C172.792 136.477 172.545 137.338 172.545 138.402C172.545 139.453 172.792 140.308 173.286 140.967C173.78 141.613 174.419 141.936 175.205 141.936ZM185.11 143.228C184.134 143.228 183.419 142.924 182.963 142.316C182.507 141.695 182.279 140.796 182.279 139.618V133.766H183.856V139.409C183.856 140.27 183.989 140.897 184.255 141.29C184.533 141.683 184.977 141.879 185.585 141.879C186.066 141.879 186.49 141.759 186.858 141.518C187.238 141.265 187.643 140.866 188.074 140.321V133.766H189.632V143H188.34L188.207 141.556H188.15C187.719 142.063 187.263 142.468 186.782 142.772C186.3 143.076 185.743 143.228 185.11 143.228ZM192.277 143V142.164L197.141 135.039H192.809V133.766H199.117V134.602L194.253 141.727H199.269V143H192.277ZM195.298 132.094L193.132 129.434L193.797 128.826L196.039 130.973H196.115L198.357 128.826L199.022 129.434L196.856 132.094H195.298ZM201.818 143V133.766H203.376V143H201.818ZM202.35 132.113L201.552 131.334L204.231 128.161L205.333 129.206L202.35 132.113ZM208.989 143L205.664 133.766H207.279L209.027 139.01C209.166 139.466 209.305 139.922 209.445 140.378C209.597 140.834 209.742 141.284 209.882 141.727H209.958C210.097 141.284 210.236 140.834 210.376 140.378C210.528 139.922 210.667 139.466 210.794 139.01L212.542 133.766H214.081L210.813 143H208.989ZM218.12 143.228C217.347 143.228 216.701 143 216.182 142.544C215.675 142.075 215.422 141.429 215.422 140.606C215.422 139.593 215.871 138.82 216.771 138.288C217.683 137.743 219.12 137.363 221.084 137.148C221.084 136.755 221.027 136.382 220.913 136.027C220.811 135.672 220.621 135.387 220.343 135.172C220.077 134.944 219.69 134.83 219.184 134.83C218.652 134.83 218.151 134.931 217.683 135.134C217.214 135.337 216.796 135.565 216.429 135.818L215.821 134.735C216.251 134.456 216.777 134.19 217.398 133.937C218.031 133.671 218.715 133.538 219.45 133.538C220.577 133.538 221.394 133.886 221.901 134.583C222.407 135.267 222.661 136.185 222.661 137.338V143H221.369L221.236 141.898H221.179C220.748 142.253 220.273 142.563 219.754 142.829C219.247 143.095 218.702 143.228 218.12 143.228ZM218.576 141.974C219.019 141.974 219.437 141.866 219.83 141.651C220.222 141.436 220.64 141.132 221.084 140.739V138.174C219.551 138.364 218.474 138.649 217.854 139.029C217.246 139.409 216.942 139.897 216.942 140.492C216.942 141.011 217.1 141.391 217.417 141.632C217.733 141.86 218.12 141.974 218.576 141.974ZM228.713 143.228C227.725 143.228 227.035 142.943 226.642 142.373C226.262 141.803 226.072 141.062 226.072 140.15V135.039H224.704V133.861L226.148 133.766L226.338 131.182H227.649V133.766H230.138V135.039H227.649V140.169C227.649 140.739 227.75 141.182 227.953 141.499C228.168 141.803 228.542 141.955 229.074 141.955C229.239 141.955 229.416 141.93 229.606 141.879C229.796 141.816 229.967 141.759 230.119 141.708L230.423 142.886C230.17 142.975 229.891 143.051 229.587 143.114C229.296 143.19 229.004 143.228 228.713 143.228ZM229.112 132.588L229.036 128.56H230.157L230.138 129.643L229.872 132.588H229.112ZM237.03 146.895V133.766H238.322L238.455 134.83H238.512C238.93 134.475 239.386 134.171 239.88 133.918C240.386 133.665 240.912 133.538 241.457 133.538C242.647 133.538 243.553 133.969 244.174 134.83C244.794 135.679 245.105 136.819 245.105 138.25C245.105 139.289 244.915 140.182 244.535 140.929C244.167 141.676 243.68 142.246 243.072 142.639C242.476 143.032 241.824 143.228 241.115 143.228C240.684 143.228 240.253 143.133 239.823 142.943C239.405 142.753 238.98 142.493 238.55 142.164L238.588 143.779V146.895H237.03ZM240.849 141.917C241.609 141.917 242.236 141.594 242.73 140.948C243.236 140.289 243.49 139.39 243.49 138.25C243.49 137.237 243.3 136.42 242.92 135.799C242.552 135.166 241.932 134.849 241.058 134.849C240.665 134.849 240.266 134.957 239.861 135.172C239.468 135.387 239.044 135.698 238.588 136.103V140.948C239.006 141.303 239.411 141.556 239.804 141.708C240.196 141.847 240.545 141.917 240.849 141.917ZM248.069 143V133.766H249.361L249.494 135.438H249.551C249.867 134.855 250.254 134.393 250.71 134.051C251.166 133.709 251.653 133.538 252.173 133.538C252.54 133.538 252.869 133.601 253.161 133.728L252.857 135.096C252.705 135.045 252.565 135.007 252.439 134.982C252.312 134.957 252.154 134.944 251.964 134.944C251.571 134.944 251.159 135.102 250.729 135.419C250.311 135.736 249.943 136.287 249.627 137.072V143H248.069ZM255.156 143V133.766H256.714V143H255.156ZM255.954 131.866C255.65 131.866 255.396 131.777 255.194 131.6C255.004 131.41 254.909 131.157 254.909 130.84C254.909 130.536 255.004 130.289 255.194 130.099C255.396 129.909 255.65 129.814 255.954 129.814C256.258 129.814 256.505 129.909 256.695 130.099C256.897 130.289 256.999 130.536 256.999 130.84C256.999 131.157 256.897 131.41 256.695 131.6C256.505 131.777 256.258 131.866 255.954 131.866ZM21.558 171V161.766H23.116V171H21.558ZM22.356 159.866C22.052 159.866 21.7987 159.777 21.596 159.6C21.406 159.41 21.311 159.157 21.311 158.84C21.311 158.536 21.406 158.289 21.596 158.099C21.7987 157.909 22.052 157.814 22.356 157.814C22.66 157.814 22.907 157.909 23.097 158.099C23.2997 158.289 23.401 158.536 23.401 158.84C23.401 159.157 23.2997 159.41 23.097 159.6C22.907 159.777 22.66 159.866 22.356 159.866ZM26.7338 171V161.766H28.0258L28.1588 163.096H28.2158C28.6211 162.653 29.0644 162.285 29.5458 161.994C30.0271 161.69 30.5401 161.538 31.0848 161.538C31.7941 161.538 32.3451 161.696 32.7378 162.013C33.1431 162.317 33.4408 162.748 33.6308 163.305C34.1121 162.786 34.5998 162.361 35.0938 162.032C35.5878 161.703 36.1134 161.538 36.6708 161.538C37.6208 161.538 38.3238 161.848 38.7798 162.469C39.2484 163.077 39.4828 163.97 39.4828 165.148V171H37.9248V165.357C37.9248 164.496 37.7854 163.869 37.5068 163.476C37.2281 163.083 36.7974 162.887 36.2148 162.887C35.5308 162.887 34.7581 163.362 33.8968 164.312V171H32.3388V165.357C32.3388 164.496 32.1994 163.869 31.9208 163.476C31.6421 163.083 31.2051 162.887 30.6098 162.887C29.9258 162.887 29.1531 163.362 28.2918 164.312V171H26.7338ZM42.9867 174.895V161.766H44.2787L44.4117 162.83H44.4687C44.8867 162.475 45.3427 162.171 45.8367 161.918C46.3434 161.665 46.869 161.538 47.4137 161.538C48.6044 161.538 49.51 161.969 50.1307 162.83C50.7514 163.679 51.0617 164.819 51.0617 166.25C51.0617 167.289 50.8717 168.182 50.4917 168.929C50.1244 169.676 49.6367 170.246 49.0287 170.639C48.4334 171.032 47.781 171.228 47.0717 171.228C46.641 171.228 46.2104 171.133 45.7797 170.943C45.3617 170.753 44.9374 170.493 44.5067 170.164L44.5447 171.779V174.895H42.9867ZM46.8057 169.917C47.5657 169.917 48.1927 169.594 48.6867 168.948C49.1934 168.289 49.4467 167.39 49.4467 166.25C49.4467 165.237 49.2567 164.42 48.8767 163.799C48.5094 163.166 47.8887 162.849 47.0147 162.849C46.622 162.849 46.223 162.957 45.8177 163.172C45.425 163.387 45.0007 163.698 44.5447 164.103V168.948C44.9627 169.303 45.368 169.556 45.7607 169.708C46.1534 169.847 46.5017 169.917 46.8057 169.917ZM55.6788 171.228C55.0961 171.228 54.6718 171.051 54.4058 170.696C54.1524 170.329 54.0258 169.809 54.0258 169.138V157.472H55.5838V169.252C55.5838 169.493 55.6281 169.67 55.7168 169.784C55.8054 169.885 55.9068 169.936 56.0208 169.936C56.0714 169.936 56.1158 169.936 56.1538 169.936C56.2044 169.923 56.2741 169.911 56.3628 169.898L56.5718 171.076C56.4704 171.127 56.3501 171.165 56.2108 171.19C56.0714 171.215 55.8941 171.228 55.6788 171.228ZM63.1115 171.228C62.2882 171.228 61.5409 171.038 60.8695 170.658C60.1982 170.265 59.6662 169.708 59.2735 168.986C58.8809 168.264 58.6845 167.403 58.6845 166.402C58.6845 165.389 58.8809 164.521 59.2735 163.799C59.6789 163.077 60.1982 162.52 60.8315 162.127C61.4649 161.734 62.1299 161.538 62.8265 161.538C64.0045 161.538 64.9102 161.931 65.5435 162.716C66.1895 163.501 66.5125 164.553 66.5125 165.87C66.5125 166.035 66.5062 166.199 66.4935 166.364C66.4935 166.516 66.4809 166.649 66.4555 166.763H60.2235C60.2869 167.738 60.5909 168.517 61.1355 169.1C61.6929 169.683 62.4149 169.974 63.3015 169.974C63.7449 169.974 64.1502 169.911 64.5175 169.784C64.8975 169.645 65.2585 169.467 65.6005 169.252L66.1515 170.278C65.7589 170.531 65.3092 170.753 64.8025 170.943C64.3085 171.133 63.7449 171.228 63.1115 171.228ZM60.2045 165.642H65.1445C65.1445 164.705 64.9419 163.995 64.5365 163.514C64.1439 163.02 63.5865 162.773 62.8645 162.773C62.2185 162.773 61.6359 163.026 61.1165 163.533C60.6099 164.027 60.3059 164.73 60.2045 165.642ZM69.2943 171V161.766H70.5863L70.7193 163.096H70.7763C71.1817 162.653 71.625 162.285 72.1063 161.994C72.5877 161.69 73.1007 161.538 73.6453 161.538C74.3547 161.538 74.9057 161.696 75.2983 162.013C75.7037 162.317 76.0013 162.748 76.1913 163.305C76.6727 162.786 77.1603 162.361 77.6543 162.032C78.1483 161.703 78.674 161.538 79.2313 161.538C80.1813 161.538 80.8843 161.848 81.3403 162.469C81.809 163.077 82.0433 163.97 82.0433 165.148V171H80.4853V165.357C80.4853 164.496 80.346 163.869 80.0673 163.476C79.7887 163.083 79.358 162.887 78.7753 162.887C78.0913 162.887 77.3187 163.362 76.4573 164.312V171H74.8993V165.357C74.8993 164.496 74.76 163.869 74.4813 163.476C74.2027 163.083 73.7657 162.887 73.1703 162.887C72.4863 162.887 71.7137 163.362 70.8523 164.312V171H69.2943ZM89.2903 171.228C88.4669 171.228 87.7196 171.038 87.0483 170.658C86.3769 170.265 85.8449 169.708 85.4523 168.986C85.0596 168.264 84.8633 167.403 84.8633 166.402C84.8633 165.389 85.0596 164.521 85.4523 163.799C85.8576 163.077 86.3769 162.52 87.0103 162.127C87.6436 161.734 88.3086 161.538 89.0053 161.538C90.1833 161.538 91.0889 161.931 91.7223 162.716C92.3683 163.501 92.6913 164.553 92.6913 165.87C92.6913 166.035 92.6849 166.199 92.6723 166.364C92.6723 166.516 92.6596 166.649 92.6343 166.763H86.4023C86.4656 167.738 86.7696 168.517 87.3143 169.1C87.8716 169.683 88.5936 169.974 89.4803 169.974C89.9236 169.974 90.3289 169.911 90.6963 169.784C91.0763 169.645 91.4373 169.467 91.7793 169.252L92.3303 170.278C91.9376 170.531 91.4879 170.753 90.9813 170.943C90.4873 171.133 89.9236 171.228 89.2903 171.228ZM86.3833 165.642H91.3233C91.3233 164.705 91.1206 163.995 90.7153 163.514C90.3226 163.02 89.7653 162.773 89.0433 162.773C88.3973 162.773 87.8146 163.026 87.2953 163.533C86.7886 164.027 86.4846 164.73 86.3833 165.642ZM95.473 171V161.766H96.765L96.898 163.096H96.955C97.3984 162.653 97.867 162.285 98.361 161.994C98.855 161.69 99.4187 161.538 100.052 161.538C101.027 161.538 101.737 161.848 102.18 162.469C102.636 163.077 102.864 163.97 102.864 165.148V171H101.306V165.357C101.306 164.496 101.167 163.869 100.888 163.476C100.609 163.083 100.166 162.887 99.558 162.887C99.0894 162.887 98.665 163.007 98.285 163.248C97.9177 163.489 97.4997 163.843 97.031 164.312V171H95.473ZM109.271 171.228C108.283 171.228 107.592 170.943 107.2 170.373C106.82 169.803 106.63 169.062 106.63 168.15V163.039H105.262V161.861L106.706 161.766L106.896 159.182H108.207V161.766H110.696V163.039H108.207V168.169C108.207 168.739 108.308 169.182 108.511 169.499C108.726 169.803 109.1 169.955 109.632 169.955C109.796 169.955 109.974 169.93 110.164 169.879C110.354 169.816 110.525 169.759 110.677 169.708L110.981 170.886C110.727 170.975 110.449 171.051 110.145 171.114C109.853 171.19 109.562 171.228 109.271 171.228ZM115.003 171.228C114.231 171.228 113.585 171 113.065 170.544C112.559 170.075 112.305 169.429 112.305 168.606C112.305 167.593 112.755 166.82 113.654 166.288C114.566 165.743 116.004 165.363 117.967 165.148C117.967 164.755 117.91 164.382 117.796 164.027C117.695 163.672 117.505 163.387 117.226 163.172C116.96 162.944 116.574 162.83 116.067 162.83C115.535 162.83 115.035 162.931 114.566 163.134C114.098 163.337 113.68 163.565 113.312 163.818L112.704 162.735C113.135 162.456 113.661 162.19 114.281 161.937C114.915 161.671 115.599 161.538 116.333 161.538C117.461 161.538 118.278 161.886 118.784 162.583C119.291 163.267 119.544 164.185 119.544 165.338V171H118.252L118.119 169.898H118.062C117.632 170.253 117.157 170.563 116.637 170.829C116.131 171.095 115.586 171.228 115.003 171.228ZM115.459 169.974C115.903 169.974 116.321 169.866 116.713 169.651C117.106 169.436 117.524 169.132 117.967 168.739V166.174C116.435 166.364 115.358 166.649 114.737 167.029C114.129 167.409 113.825 167.897 113.825 168.492C113.825 169.011 113.984 169.391 114.3 169.632C114.617 169.86 115.003 169.974 115.459 169.974ZM116.124 160.113L115.326 159.334L118.005 156.161L119.107 157.206L116.124 160.113ZM126.598 171.228C125.787 171.228 125.052 171.038 124.394 170.658C123.735 170.278 123.216 169.727 122.836 169.005C122.456 168.283 122.266 167.415 122.266 166.402C122.266 165.363 122.468 164.483 122.874 163.761C123.292 163.039 123.836 162.488 124.508 162.108C125.192 161.728 125.926 161.538 126.712 161.538C127.32 161.538 127.839 161.646 128.27 161.861C128.713 162.076 129.093 162.33 129.41 162.621L128.612 163.647C128.346 163.406 128.061 163.21 127.757 163.058C127.465 162.906 127.136 162.83 126.769 162.83C126.211 162.83 125.711 162.982 125.268 163.286C124.837 163.577 124.495 163.995 124.242 164.54C124.001 165.072 123.881 165.693 123.881 166.402C123.881 167.453 124.14 168.308 124.66 168.967C125.192 169.613 125.882 169.936 126.731 169.936C127.161 169.936 127.56 169.847 127.928 169.67C128.295 169.48 128.618 169.258 128.897 169.005L129.581 170.05C129.163 170.417 128.7 170.709 128.194 170.924C127.687 171.127 127.155 171.228 126.598 171.228ZM132.115 171V161.766H133.673V171H132.115ZM132.913 159.866C132.609 159.866 132.355 159.777 132.153 159.6C131.963 159.41 131.868 159.157 131.868 158.84C131.868 158.536 131.963 158.289 132.153 158.099C132.355 157.909 132.609 157.814 132.913 157.814C133.217 157.814 133.464 157.909 133.654 158.099C133.856 158.289 133.958 158.536 133.958 158.84C133.958 159.157 133.856 159.41 133.654 159.6C133.464 159.777 133.217 159.866 132.913 159.866ZM137.29 171V161.766H138.848V171H137.29ZM138.088 159.866C137.784 159.866 137.531 159.777 137.328 159.6C137.138 159.41 137.043 159.157 137.043 158.84C137.043 158.536 137.138 158.289 137.328 158.099C137.531 157.909 137.784 157.814 138.088 157.814C138.392 157.814 138.639 157.909 138.829 158.099C139.032 158.289 139.133 158.536 139.133 158.84C139.133 159.157 139.032 159.41 138.829 159.6C138.639 159.777 138.392 159.866 138.088 159.866ZM148.898 171.228C148.125 171.228 147.479 171 146.96 170.544C146.453 170.075 146.2 169.429 146.2 168.606C146.2 167.593 146.65 166.82 147.549 166.288C148.461 165.743 149.899 165.363 151.862 165.148C151.862 164.755 151.805 164.382 151.691 164.027C151.59 163.672 151.4 163.387 151.121 163.172C150.855 162.944 150.469 162.83 149.962 162.83C149.43 162.83 148.93 162.931 148.461 163.134C147.992 163.337 147.574 163.565 147.207 163.818L146.599 162.735C147.03 162.456 147.555 162.19 148.176 161.937C148.809 161.671 149.493 161.538 150.228 161.538C151.355 161.538 152.172 161.886 152.679 162.583C153.186 163.267 153.439 164.185 153.439 165.338V171H152.147L152.014 169.898H151.957C151.526 170.253 151.051 170.563 150.532 170.829C150.025 171.095 149.481 171.228 148.898 171.228ZM149.354 169.974C149.797 169.974 150.215 169.866 150.608 169.651C151.001 169.436 151.419 169.132 151.862 168.739V166.174C150.329 166.364 149.253 166.649 148.632 167.029C148.024 167.409 147.72 167.897 147.72 168.492C147.72 169.011 147.878 169.391 148.195 169.632C148.512 169.86 148.898 169.974 149.354 169.974ZM164.302 171.228C163.149 171.228 162.225 170.81 161.528 169.974C160.831 169.125 160.483 167.935 160.483 166.402C160.483 165.401 160.667 164.54 161.034 163.818C161.414 163.083 161.908 162.52 162.516 162.127C163.137 161.734 163.795 161.538 164.492 161.538C165.024 161.538 165.486 161.633 165.879 161.823C166.272 162.013 166.671 162.273 167.076 162.602L167 161.025V157.472H168.577V171H167.285L167.152 169.917H167.095C166.74 170.272 166.322 170.582 165.841 170.848C165.36 171.101 164.847 171.228 164.302 171.228ZM164.644 169.917C165.455 169.917 166.24 169.493 167 168.644V163.818C166.607 163.463 166.227 163.216 165.86 163.077C165.505 162.925 165.138 162.849 164.758 162.849C164.264 162.849 163.814 163.001 163.409 163.305C163.016 163.596 162.7 164.008 162.459 164.54C162.218 165.059 162.098 165.674 162.098 166.383C162.098 167.485 162.32 168.353 162.763 168.986C163.206 169.607 163.833 169.917 164.644 169.917ZM172.187 171V161.766H173.745V171H172.187ZM172.985 159.866C172.681 159.866 172.428 159.777 172.225 159.6C172.035 159.41 171.94 159.157 171.94 158.84C171.94 158.536 172.035 158.289 172.225 158.099C172.428 157.909 172.681 157.814 172.985 157.814C173.289 157.814 173.536 157.909 173.726 158.099C173.929 158.289 174.03 158.536 174.03 158.84C174.03 159.157 173.929 159.41 173.726 159.6C173.536 159.777 173.289 159.866 172.985 159.866ZM176.394 171V170.164L181.258 163.039H176.926V161.766H183.234V162.602L178.37 169.727H183.386V171H176.394ZM187.617 171.228C186.844 171.228 186.198 171 185.679 170.544C185.172 170.075 184.919 169.429 184.919 168.606C184.919 167.593 185.368 166.82 186.268 166.288C187.18 165.743 188.617 165.363 190.581 165.148C190.581 164.755 190.524 164.382 190.41 164.027C190.308 163.672 190.118 163.387 189.84 163.172C189.574 162.944 189.187 162.83 188.681 162.83C188.149 162.83 187.648 162.931 187.18 163.134C186.711 163.337 186.293 163.565 185.926 163.818L185.318 162.735C185.748 162.456 186.274 162.19 186.895 161.937C187.528 161.671 188.212 161.538 188.947 161.538C190.074 161.538 190.891 161.886 191.398 162.583C191.904 163.267 192.158 164.185 192.158 165.338V171H190.866L190.733 169.898H190.676C190.245 170.253 189.77 170.563 189.251 170.829C188.744 171.095 188.199 171.228 187.617 171.228ZM188.073 169.974C188.516 169.974 188.934 169.866 189.327 169.651C189.719 169.436 190.137 169.132 190.581 168.739V166.174C189.048 166.364 187.971 166.649 187.351 167.029C186.743 167.409 186.439 167.897 186.439 168.492C186.439 169.011 186.597 169.391 186.914 169.632C187.23 169.86 187.617 169.974 188.073 169.974ZM194.613 175.123C194.334 175.123 194.081 175.098 193.853 175.047C193.612 174.996 193.41 174.939 193.245 174.876L193.568 173.698C193.682 173.736 193.815 173.768 193.967 173.793C194.119 173.831 194.277 173.85 194.442 173.85C194.898 173.85 195.202 173.685 195.354 173.356C195.506 173.039 195.582 172.602 195.582 172.045V161.766H197.14V172.045C197.14 172.982 196.95 173.73 196.57 174.287C196.19 174.844 195.538 175.123 194.613 175.123ZM196.342 159.866C196.038 159.866 195.785 159.777 195.582 159.6C195.392 159.41 195.297 159.157 195.297 158.84C195.297 158.536 195.392 158.289 195.582 158.099C195.785 157.909 196.038 157.814 196.342 157.814C196.646 157.814 196.893 157.909 197.083 158.099C197.286 158.289 197.387 158.536 197.387 158.84C197.387 159.157 197.286 159.41 197.083 159.6C196.893 159.777 196.646 159.866 196.342 159.866ZM200.757 171V161.766H202.049L202.182 163.096H202.239C202.683 162.653 203.151 162.285 203.645 161.994C204.139 161.69 204.703 161.538 205.336 161.538C206.312 161.538 207.021 161.848 207.464 162.469C207.92 163.077 208.148 163.97 208.148 165.148V171H206.59V165.357C206.59 164.496 206.451 163.869 206.172 163.476C205.894 163.083 205.45 162.887 204.842 162.887C204.374 162.887 203.949 163.007 203.569 163.248C203.202 163.489 202.784 163.843 202.315 164.312V171H200.757ZM215.391 171.228C214.568 171.228 213.82 171.038 213.149 170.658C212.478 170.265 211.946 169.708 211.553 168.986C211.16 168.264 210.964 167.403 210.964 166.402C210.964 165.389 211.16 164.521 211.553 163.799C211.958 163.077 212.478 162.52 213.111 162.127C213.744 161.734 214.409 161.538 215.106 161.538C216.284 161.538 217.19 161.931 217.823 162.716C218.469 163.501 218.792 164.553 218.792 165.87C218.792 166.035 218.786 166.199 218.773 166.364C218.773 166.516 218.76 166.649 218.735 166.763H212.503C212.566 167.738 212.87 168.517 213.415 169.1C213.972 169.683 214.694 169.974 215.581 169.974C216.024 169.974 216.43 169.911 216.797 169.784C217.177 169.645 217.538 169.467 217.88 169.252L218.431 170.278C218.038 170.531 217.589 170.753 217.082 170.943C216.588 171.133 216.024 171.228 215.391 171.228ZM212.484 165.642H217.424C217.424 164.705 217.221 163.995 216.816 163.514C216.423 163.02 215.866 162.773 215.144 162.773C214.498 162.773 213.915 163.026 213.396 163.533C212.889 164.027 212.585 164.73 212.484 165.642ZM222.391 171.228C222.074 171.228 221.802 171.12 221.574 170.905C221.358 170.677 221.251 170.392 221.251 170.05C221.251 169.683 221.358 169.391 221.574 169.176C221.802 168.948 222.074 168.834 222.391 168.834C222.695 168.834 222.954 168.948 223.17 169.176C223.398 169.391 223.512 169.683 223.512 170.05C223.512 170.392 223.398 170.677 223.17 170.905C222.954 171.12 222.695 171.228 222.391 171.228Z" fill="black"/>
<rect x="18.5" y="191.5" width="77" height="47" rx="6.5" stroke="#D96E00" stroke-width="3"/>
<rect x="22" y="195" width="70" height="40" rx="5" fill="#126DFF"/>
<g clip-path="url(#clip0_1933_20664)">
<path d="M40.7738 215.72L40.5178 216.68H42.7418L42.5018 215.72C42.3631 215.197 42.2191 214.643 42.0698 214.056C41.9311 213.469 41.7924 212.904 41.6538 212.36H41.5898C41.4618 212.915 41.3284 213.485 41.1898 214.072C41.0618 214.648 40.9231 215.197 40.7738 215.72ZM36.9977 221L40.2618 210.568H43.0938L46.3578 221H43.8618L43.2218 218.52H40.0378L39.3978 221H36.9977ZM47.8056 221V209.784H50.0936V216.216H50.1576L52.6696 213.064H55.2296L52.4456 216.328L55.4376 221H52.8936L51.1016 217.912L50.0936 219.048V221H47.8056ZM60.0741 221.192C59.3381 221.192 58.6715 221.032 58.0741 220.712C57.4875 220.381 57.0181 219.907 56.6661 219.288C56.3248 218.659 56.1541 217.907 56.1541 217.032C56.1541 216.147 56.3461 215.395 56.7301 214.776C57.1141 214.157 57.6208 213.688 58.2501 213.368C58.8795 213.037 59.5568 212.872 60.2821 212.872C60.7728 212.872 61.2048 212.952 61.5781 213.112C61.9621 213.272 62.3035 213.475 62.6021 213.72L61.4981 215.24C61.1248 214.931 60.7675 214.776 60.4261 214.776C59.8608 214.776 59.4075 214.979 59.0661 215.384C58.7355 215.789 58.5701 216.339 58.5701 217.032C58.5701 217.715 58.7355 218.264 59.0661 218.68C59.4075 219.085 59.8341 219.288 60.3461 219.288C60.6021 219.288 60.8528 219.235 61.0981 219.128C61.3435 219.011 61.5675 218.872 61.7701 218.712L62.6981 220.248C62.3035 220.589 61.8768 220.835 61.4181 220.984C60.9595 221.123 60.5115 221.192 60.0741 221.192ZM64.5869 221V213.064H66.9389V221H64.5869ZM65.7549 211.896C65.3602 211.896 65.0402 211.784 64.7949 211.56C64.5495 211.336 64.4269 211.037 64.4269 210.664C64.4269 210.291 64.5495 209.992 64.7949 209.768C65.0402 209.544 65.3602 209.432 65.7549 209.432C66.1495 209.432 66.4695 209.544 66.7149 209.768C66.9602 209.992 67.0829 210.291 67.0829 210.664C67.0829 211.037 66.9602 211.336 66.7149 211.56C66.4695 211.784 66.1495 211.896 65.7549 211.896ZM71.5088 221.192C70.7834 221.192 70.2074 220.963 69.7808 220.504C69.3541 220.035 69.1408 219.464 69.1408 218.792C69.1408 217.96 69.4928 217.309 70.1968 216.84C70.9008 216.371 72.0368 216.056 73.6048 215.896C73.5834 215.544 73.4768 215.267 73.2848 215.064C73.1034 214.851 72.7941 214.744 72.3568 214.744C72.0261 214.744 71.6901 214.808 71.3488 214.936C71.0074 215.064 70.6448 215.24 70.2608 215.464L69.4128 213.912C69.9141 213.603 70.4474 213.352 71.0128 213.16C71.5888 212.968 72.1861 212.872 72.8048 212.872C73.8181 212.872 74.5968 213.165 75.1408 213.752C75.6848 214.339 75.9568 215.24 75.9568 216.456V221H74.0368L73.8768 220.184H73.8128C73.4821 220.483 73.1248 220.728 72.7408 220.92C72.3674 221.101 71.9568 221.192 71.5088 221.192ZM72.3088 219.368C72.5754 219.368 72.8048 219.309 72.9968 219.192C73.1994 219.064 73.4021 218.899 73.6048 218.696V217.304C72.7728 217.411 72.1968 217.581 71.8768 217.816C71.5568 218.04 71.3968 218.307 71.3968 218.616C71.3968 218.872 71.4768 219.064 71.6368 219.192C71.8074 219.309 72.0314 219.368 72.3088 219.368Z" fill="white"/>
</g>
<defs>
<clipPath id="clip0_1933_20664">
<rect width="40" height="24" fill="white" transform="translate(37 203)"/>
</clipPath>
</defs>
</svg>
