<svg width="406" height="93" viewBox="0 0 406 93" fill="none" xmlns="http://www.w3.org/2000/svg">
<path d="M6.71 21V8.536H8.344L12.847 16.364L14.196 18.948H14.272C14.234 18.3147 14.1897 17.6623 14.139 16.991C14.101 16.307 14.082 15.6357 14.082 14.977V8.536H15.583V21H13.949L9.427 13.153L8.078 10.588H8.002C8.05267 11.2087 8.097 11.8483 8.135 12.507C8.18567 13.1657 8.211 13.8243 8.211 14.483V21H6.71ZM21.4878 21.228C20.7151 21.228 20.0691 21 19.5498 20.544C19.0431 20.0753 18.7898 19.4293 18.7898 18.606C18.7898 17.5927 19.2394 16.82 20.1388 16.288C21.0508 15.7433 22.4884 15.3633 24.4518 15.148C24.4518 14.7553 24.3948 14.3817 24.2808 14.027C24.1794 13.6723 23.9894 13.3873 23.7108 13.172C23.4448 12.944 23.0584 12.83 22.5518 12.83C22.0198 12.83 21.5194 12.9313 21.0508 13.134C20.5821 13.3367 20.1641 13.5647 19.7968 13.818L19.1888 12.735C19.6194 12.4563 20.1451 12.1903 20.7658 11.937C21.3991 11.671 22.0831 11.538 22.8178 11.538C23.9451 11.538 24.7621 11.8863 25.2688 12.583C25.7754 13.267 26.0288 14.1853 26.0288 15.338V21H24.7368L24.6038 19.898H24.5468C24.1161 20.2527 23.6411 20.563 23.1218 20.829C22.6151 21.095 22.0704 21.228 21.4878 21.228ZM21.9438 19.974C22.3871 19.974 22.8051 19.8663 23.1978 19.651C23.5904 19.4357 24.0084 19.1317 24.4518 18.739V16.174C22.9191 16.364 21.8424 16.649 21.2218 17.029C20.6138 17.409 20.3098 17.8967 20.3098 18.492C20.3098 19.0113 20.4681 19.3913 20.7848 19.632C21.1014 19.86 21.4878 19.974 21.9438 19.974ZM22.6088 10.113L21.8108 9.334L24.4898 6.161L25.5918 7.206L22.6088 10.113ZM28.465 21V20.164L33.329 13.039H28.997V11.766H35.305V12.602L30.441 19.727H35.457V21H28.465ZM41.4107 21.228C40.6634 21.228 39.9604 21.038 39.3017 20.658C38.6557 20.278 38.1301 19.727 37.7247 19.005C37.3321 18.283 37.1357 17.4153 37.1357 16.402C37.1357 15.3633 37.3321 14.483 37.7247 13.761C38.1301 13.039 38.6557 12.488 39.3017 12.108C39.9604 11.728 40.6634 11.538 41.4107 11.538C42.1707 11.538 42.8737 11.728 43.5197 12.108C44.1657 12.488 44.6851 13.039 45.0777 13.761C45.4831 14.483 45.6857 15.3633 45.6857 16.402C45.6857 17.4153 45.4831 18.283 45.0777 19.005C44.6851 19.727 44.1657 20.278 43.5197 20.658C42.8737 21.038 42.1707 21.228 41.4107 21.228ZM41.4107 19.936C42.2087 19.936 42.8484 19.613 43.3297 18.967C43.8237 18.3083 44.0707 17.4533 44.0707 16.402C44.0707 15.338 43.8237 14.4767 43.3297 13.818C42.8484 13.1593 42.2087 12.83 41.4107 12.83C40.6254 12.83 39.9857 13.1593 39.4917 13.818C38.9977 14.4767 38.7507 15.338 38.7507 16.402C38.7507 17.4533 38.9977 18.3083 39.4917 18.967C39.9857 19.613 40.6254 19.936 41.4107 19.936ZM50.5384 21L47.2134 11.766H48.8284L50.5764 17.01C50.7157 17.466 50.855 17.922 50.9944 18.378C51.1464 18.834 51.292 19.2837 51.4314 19.727H51.5074C51.6467 19.2837 51.786 18.834 51.9254 18.378C52.0774 17.922 52.2167 17.466 52.3434 17.01L54.0914 11.766H55.6304L52.3624 21H50.5384ZM65.1232 21.228C64.1352 21.228 63.4449 20.943 63.0522 20.373C62.6722 19.803 62.4822 19.062 62.4822 18.15V13.039H61.1142V11.861L62.5582 11.766L62.7482 9.182H64.0592V11.766H66.5482V13.039H64.0592V18.169C64.0592 18.739 64.1605 19.1823 64.3632 19.499C64.5785 19.803 64.9522 19.955 65.4842 19.955C65.6489 19.955 65.8262 19.9297 66.0162 19.879C66.2062 19.8157 66.3772 19.7587 66.5292 19.708L66.8332 20.886C66.5799 20.9747 66.3012 21.0507 65.9972 21.114C65.7059 21.19 65.4145 21.228 65.1232 21.228ZM72.6194 21.228C71.796 21.228 71.0487 21.038 70.3774 20.658C69.706 20.2653 69.174 19.708 68.7814 18.986C68.3887 18.264 68.1924 17.4027 68.1924 16.402C68.1924 15.3887 68.3887 14.521 68.7814 13.799C69.1867 13.077 69.706 12.5197 70.3394 12.127C70.9727 11.7343 71.6377 11.538 72.3344 11.538C73.5124 11.538 74.418 11.9307 75.0514 12.716C75.6974 13.5013 76.0204 14.5527 76.0204 15.87C76.0204 16.0347 76.014 16.1993 76.0014 16.364C76.0014 16.516 75.9887 16.649 75.9634 16.763H69.7314C69.7947 17.7383 70.0987 18.5173 70.6434 19.1C71.2007 19.6827 71.9227 19.974 72.8094 19.974C73.2527 19.974 73.658 19.9107 74.0254 19.784C74.4054 19.6447 74.7664 19.4673 75.1084 19.252L75.6594 20.278C75.2667 20.5313 74.817 20.753 74.3104 20.943C73.8164 21.133 73.2527 21.228 72.6194 21.228ZM69.7124 15.642H74.6524C74.6524 14.7047 74.4497 13.9953 74.0444 13.514C73.6517 13.02 73.0944 12.773 72.3724 12.773C71.7264 12.773 71.1437 13.0263 70.6244 13.533C70.1177 14.027 69.8137 14.73 69.7124 15.642ZM77.3803 21L80.4013 16.174L77.6083 11.766H79.2993L80.5343 13.799C80.6736 14.0397 80.8193 14.293 80.9713 14.559C81.1233 14.825 81.2816 15.0847 81.4463 15.338H81.5223C81.6616 15.0847 81.8009 14.825 81.9403 14.559C82.0796 14.293 82.2189 14.0397 82.3583 13.799L83.4793 11.766H85.1133L82.3203 16.345L85.3223 21H83.6313L82.2823 18.853C82.1176 18.5743 81.9529 18.2957 81.7883 18.017C81.6236 17.7383 81.4526 17.466 81.2753 17.2H81.1993C81.0346 17.466 80.8763 17.7383 80.7243 18.017C80.5723 18.283 80.4203 18.5617 80.2683 18.853L79.0143 21H77.3803ZM90.0949 21.228C89.1069 21.228 88.4165 20.943 88.0239 20.373C87.6439 19.803 87.4539 19.062 87.4539 18.15V13.039H86.0859V11.861L87.5299 11.766L87.7199 9.182H89.0309V11.766H91.5199V13.039H89.0309V18.169C89.0309 18.739 89.1322 19.1823 89.3349 19.499C89.5502 19.803 89.9239 19.955 90.4559 19.955C90.6205 19.955 90.7979 19.9297 90.9879 19.879C91.1779 19.8157 91.3489 19.7587 91.5009 19.708L91.8049 20.886C91.5515 20.9747 91.2729 21.0507 90.9689 21.114C90.6775 21.19 90.3862 21.228 90.0949 21.228ZM97.439 21.228C96.6917 21.228 95.9887 21.038 95.33 20.658C94.684 20.278 94.1584 19.727 93.753 19.005C93.3604 18.283 93.164 17.4153 93.164 16.402C93.164 15.3633 93.3604 14.483 93.753 13.761C94.1584 13.039 94.684 12.488 95.33 12.108C95.9887 11.728 96.6917 11.538 97.439 11.538C98.199 11.538 98.902 11.728 99.548 12.108C100.194 12.488 100.713 13.039 101.106 13.761C101.511 14.483 101.714 15.3633 101.714 16.402C101.714 17.4153 101.511 18.283 101.106 19.005C100.713 19.727 100.194 20.278 99.548 20.658C98.902 21.038 98.199 21.228 97.439 21.228ZM97.439 19.936C98.237 19.936 98.8767 19.613 99.358 18.967C99.852 18.3083 100.099 17.4533 100.099 16.402C100.099 15.338 99.852 14.4767 99.358 13.818C98.8767 13.1593 98.237 12.83 97.439 12.83C96.6537 12.83 96.014 13.1593 95.52 13.818C95.026 14.4767 94.779 15.338 94.779 16.402C94.779 17.4533 95.026 18.3083 95.52 18.967C96.014 19.613 96.6537 19.936 97.439 19.936ZM106.567 21L103.242 11.766H104.857L106.605 17.01C106.744 17.466 106.883 17.922 107.023 18.378C107.175 18.834 107.32 19.2837 107.46 19.727H107.536C107.675 19.2837 107.814 18.834 107.954 18.378C108.106 17.922 108.245 17.466 108.372 17.01L110.12 11.766H111.659L108.391 21H106.567ZM117.61 21.228C116.786 21.228 116.039 21.038 115.368 20.658C114.696 20.2653 114.164 19.708 113.772 18.986C113.379 18.264 113.183 17.4027 113.183 16.402C113.183 15.3887 113.379 14.521 113.772 13.799C114.177 13.077 114.696 12.5197 115.33 12.127C115.963 11.7343 116.628 11.538 117.325 11.538C118.503 11.538 119.408 11.9307 120.042 12.716C120.688 13.5013 121.011 14.5527 121.011 15.87C121.011 16.0347 121.004 16.1993 120.992 16.364C120.992 16.516 120.979 16.649 120.954 16.763H114.722C114.785 17.7383 115.089 18.5173 115.634 19.1C116.191 19.6827 116.913 19.974 117.8 19.974C118.243 19.974 118.648 19.9107 119.016 19.784C119.396 19.6447 119.757 19.4673 120.099 19.252L120.65 20.278C120.257 20.5313 119.807 20.753 119.301 20.943C118.807 21.133 118.243 21.228 117.61 21.228ZM114.703 15.642H119.643C119.643 14.7047 119.44 13.9953 119.035 13.514C118.642 13.02 118.085 12.773 117.363 12.773C116.717 12.773 116.134 13.0263 115.615 13.533C115.108 14.027 114.804 14.73 114.703 15.642ZM117.059 10.113L116.261 9.334L118.94 6.161L120.042 7.206L117.059 10.113ZM123.792 21V7.472H125.35V11.158L125.293 13.058C125.737 12.64 126.199 12.2853 126.68 11.994C127.174 11.69 127.738 11.538 128.371 11.538C129.347 11.538 130.056 11.8483 130.499 12.469C130.955 13.077 131.183 13.97 131.183 15.148V21H129.625V15.357C129.625 14.4957 129.486 13.8687 129.207 13.476C128.929 13.0833 128.485 12.887 127.877 12.887C127.409 12.887 126.984 13.0073 126.604 13.248C126.237 13.4887 125.819 13.8433 125.35 14.312V21H123.792ZM138.218 21.228C137.471 21.228 136.768 21.038 136.109 20.658C135.463 20.278 134.938 19.727 134.532 19.005C134.14 18.283 133.943 17.4153 133.943 16.402C133.943 15.3633 134.14 14.483 134.532 13.761C134.938 13.039 135.463 12.488 136.109 12.108C136.768 11.728 137.471 11.538 138.218 11.538C138.978 11.538 139.681 11.728 140.327 12.108C140.973 12.488 141.493 13.039 141.885 13.761C142.291 14.483 142.493 15.3633 142.493 16.402C142.493 17.4153 142.291 18.283 141.885 19.005C141.493 19.727 140.973 20.278 140.327 20.658C139.681 21.038 138.978 21.228 138.218 21.228ZM138.218 19.936C139.016 19.936 139.656 19.613 140.137 18.967C140.631 18.3083 140.878 17.4533 140.878 16.402C140.878 15.338 140.631 14.4767 140.137 13.818C139.656 13.1593 139.016 12.83 138.218 12.83C137.433 12.83 136.793 13.1593 136.299 13.818C135.805 14.4767 135.558 15.338 135.558 16.402C135.558 17.4533 135.805 18.3083 136.299 18.967C136.793 19.613 137.433 19.936 138.218 19.936ZM149.729 24.895V11.766H151.021L151.154 12.83H151.211C151.629 12.4753 152.085 12.1713 152.579 11.918C153.086 11.6647 153.611 11.538 154.156 11.538C155.347 11.538 156.252 11.9687 156.873 12.83C157.494 13.6787 157.804 14.8187 157.804 16.25C157.804 17.2887 157.614 18.1817 157.234 18.929C156.867 19.6763 156.379 20.2463 155.771 20.639C155.176 21.0317 154.523 21.228 153.814 21.228C153.383 21.228 152.953 21.133 152.522 20.943C152.104 20.753 151.68 20.4933 151.249 20.164L151.287 21.779V24.895H149.729ZM153.548 19.917C154.308 19.917 154.935 19.594 155.429 18.948C155.936 18.2893 156.189 17.39 156.189 16.25C156.189 15.2367 155.999 14.4197 155.619 13.799C155.252 13.1657 154.631 12.849 153.757 12.849C153.364 12.849 152.965 12.9567 152.56 13.172C152.167 13.3873 151.743 13.6977 151.287 14.103V18.948C151.705 19.3027 152.11 19.556 152.503 19.708C152.896 19.8473 153.244 19.917 153.548 19.917ZM164.359 21.228C163.612 21.228 162.909 21.038 162.25 20.658C161.604 20.278 161.078 19.727 160.673 19.005C160.28 18.283 160.084 17.4153 160.084 16.402C160.084 15.3633 160.28 14.483 160.673 13.761C161.078 13.039 161.604 12.488 162.25 12.108C162.909 11.728 163.612 11.538 164.359 11.538C165.119 11.538 165.822 11.728 166.468 12.108C167.114 12.488 167.633 13.039 168.026 13.761C168.431 14.483 168.634 15.3633 168.634 16.402C168.634 17.4153 168.431 18.283 168.026 19.005C167.633 19.727 167.114 20.278 166.468 20.658C165.822 21.038 165.119 21.228 164.359 21.228ZM164.359 19.936C165.157 19.936 165.797 19.613 166.278 18.967C166.772 18.3083 167.019 17.4533 167.019 16.402C167.019 15.338 166.772 14.4767 166.278 13.818C165.797 13.1593 165.157 12.83 164.359 12.83C163.574 12.83 162.934 13.1593 162.44 13.818C161.946 14.4767 161.699 15.338 161.699 16.402C161.699 17.4533 161.946 18.3083 162.44 18.967C162.934 19.613 163.574 19.936 164.359 19.936ZM173.219 21.228C172.636 21.228 172.212 21.0507 171.946 20.696C171.692 20.3287 171.566 19.8093 171.566 19.138V7.472H173.124V19.252C173.124 19.4927 173.168 19.67 173.257 19.784C173.345 19.8853 173.447 19.936 173.561 19.936C173.611 19.936 173.656 19.936 173.694 19.936C173.744 19.9233 173.814 19.9107 173.903 19.898L174.112 21.076C174.01 21.1267 173.89 21.1647 173.751 21.19C173.611 21.2153 173.434 21.228 173.219 21.228ZM174.207 10.588L174.131 6.56H175.252L175.233 7.643L174.967 10.588H174.207ZM178.944 21.228C178.171 21.228 177.525 21 177.006 20.544C176.499 20.0753 176.246 19.4293 176.246 18.606C176.246 17.5927 176.695 16.82 177.595 16.288C178.507 15.7433 179.944 15.3633 181.908 15.148C181.908 14.7553 181.851 14.3817 181.737 14.027C181.635 13.6723 181.445 13.3873 181.167 13.172C180.901 12.944 180.514 12.83 180.008 12.83C179.476 12.83 178.975 12.9313 178.507 13.134C178.038 13.3367 177.62 13.5647 177.253 13.818L176.645 12.735C177.075 12.4563 177.601 12.1903 178.222 11.937C178.855 11.671 179.539 11.538 180.274 11.538C181.401 11.538 182.218 11.8863 182.725 12.583C183.231 13.267 183.485 14.1853 183.485 15.338V21H182.193L182.06 19.898H182.003C181.572 20.2527 181.097 20.563 180.578 20.829C180.071 21.095 179.526 21.228 178.944 21.228ZM179.4 19.974C179.843 19.974 180.261 19.8663 180.654 19.651C181.046 19.4357 181.464 19.1317 181.908 18.739V16.174C180.375 16.364 179.298 16.649 178.678 17.029C178.07 17.409 177.766 17.8967 177.766 18.492C177.766 19.0113 177.924 19.3913 178.241 19.632C178.557 19.86 178.944 19.974 179.4 19.974Z" fill="black"/>
<path d="M194.066 24.344C193.281 23.0647 192.666 21.7283 192.223 20.335C191.78 18.929 191.558 17.39 191.558 15.718C191.558 14.046 191.78 12.507 192.223 11.101C192.666 9.695 193.281 8.35867 194.066 7.092L195.035 7.548C194.3 8.75133 193.749 10.056 193.382 11.462C193.027 12.8553 192.85 14.274 192.85 15.718C192.85 17.162 193.027 18.587 193.382 19.993C193.749 21.3863 194.3 22.6847 195.035 23.888L194.066 24.344ZM197.81 21V11.766H199.102L199.235 13.096H199.292C199.735 12.6527 200.204 12.2853 200.698 11.994C201.192 11.69 201.756 11.538 202.389 11.538C203.364 11.538 204.074 11.8483 204.517 12.469C204.973 13.077 205.201 13.97 205.201 15.148V21H203.643V15.357C203.643 14.4957 203.504 13.8687 203.225 13.476C202.946 13.0833 202.503 12.887 201.895 12.887C201.426 12.887 201.002 13.0073 200.622 13.248C200.255 13.4887 199.837 13.8433 199.368 14.312V21H197.81ZM212.444 21.228C211.62 21.228 210.873 21.038 210.202 20.658C209.53 20.2653 208.998 19.708 208.606 18.986C208.213 18.264 208.017 17.4027 208.017 16.402C208.017 15.3887 208.213 14.521 208.606 13.799C209.011 13.077 209.53 12.5197 210.164 12.127C210.797 11.7343 211.462 11.538 212.159 11.538C213.337 11.538 214.242 11.9307 214.876 12.716C215.522 13.5013 215.845 14.5527 215.845 15.87C215.845 16.0347 215.838 16.1993 215.826 16.364C215.826 16.516 215.813 16.649 215.788 16.763H209.556C209.619 17.7383 209.923 18.5173 210.468 19.1C211.025 19.6827 211.747 19.974 212.634 19.974C213.077 19.974 213.482 19.9107 213.85 19.784C214.23 19.6447 214.591 19.4673 214.933 19.252L215.484 20.278C215.091 20.5313 214.641 20.753 214.135 20.943C213.641 21.133 213.077 21.228 212.444 21.228ZM209.537 15.642H214.477C214.477 14.7047 214.274 13.9953 213.869 13.514C213.476 13.02 212.919 12.773 212.197 12.773C211.551 12.773 210.968 13.0263 210.449 13.533C209.942 14.027 209.638 14.73 209.537 15.642ZM218.626 24.895V11.766H219.918L220.051 12.83H220.108C220.526 12.4753 220.982 12.1713 221.476 11.918C221.983 11.6647 222.509 11.538 223.053 11.538C224.244 11.538 225.15 11.9687 225.77 12.83C226.391 13.6787 226.701 14.8187 226.701 16.25C226.701 17.2887 226.511 18.1817 226.131 18.929C225.764 19.6763 225.276 20.2463 224.668 20.639C224.073 21.0317 223.421 21.228 222.711 21.228C222.281 21.228 221.85 21.133 221.419 20.943C221.001 20.753 220.577 20.4933 220.146 20.164L220.184 21.779V24.895H218.626ZM222.445 19.917C223.205 19.917 223.832 19.594 224.326 18.948C224.833 18.2893 225.086 17.39 225.086 16.25C225.086 15.2367 224.896 14.4197 224.516 13.799C224.149 13.1657 223.528 12.849 222.654 12.849C222.262 12.849 221.863 12.9567 221.457 13.172C221.065 13.3873 220.64 13.6977 220.184 14.103V18.948C220.602 19.3027 221.008 19.556 221.4 19.708C221.793 19.8473 222.141 19.917 222.445 19.917ZM233.256 21.228C232.509 21.228 231.806 21.038 231.147 20.658C230.501 20.278 229.976 19.727 229.57 19.005C229.178 18.283 228.981 17.4153 228.981 16.402C228.981 15.3633 229.178 14.483 229.57 13.761C229.976 13.039 230.501 12.488 231.147 12.108C231.806 11.728 232.509 11.538 233.256 11.538C234.016 11.538 234.719 11.728 235.365 12.108C236.011 12.488 236.531 13.039 236.923 13.761C237.329 14.483 237.531 15.3633 237.531 16.402C237.531 17.4153 237.329 18.283 236.923 19.005C236.531 19.727 236.011 20.278 235.365 20.658C234.719 21.038 234.016 21.228 233.256 21.228ZM233.256 19.936C234.054 19.936 234.694 19.613 235.175 18.967C235.669 18.3083 235.916 17.4533 235.916 16.402C235.916 15.338 235.669 14.4767 235.175 13.818C234.694 13.1593 234.054 12.83 233.256 12.83C232.471 12.83 231.831 13.1593 231.337 13.818C230.843 14.4767 230.596 15.338 230.596 16.402C230.596 17.4533 230.843 18.3083 231.337 18.967C231.831 19.613 232.471 19.936 233.256 19.936ZM242.384 21L239.059 11.766H240.674L242.422 17.01C242.561 17.466 242.701 17.922 242.84 18.378C242.992 18.834 243.138 19.2837 243.277 19.727H243.353C243.492 19.2837 243.632 18.834 243.771 18.378C243.923 17.922 244.062 17.466 244.189 17.01L245.937 11.766H247.476L244.208 21H242.384ZM249.758 21V11.766H251.316V21H249.758ZM250.556 9.866C250.252 9.866 249.999 9.77733 249.796 9.6C249.606 9.41 249.511 9.15667 249.511 8.84C249.511 8.536 249.606 8.289 249.796 8.099C249.999 7.909 250.252 7.814 250.556 7.814C250.86 7.814 251.107 7.909 251.297 8.099C251.5 8.289 251.601 8.536 251.601 8.84C251.601 9.15667 251.5 9.41 251.297 9.6C251.107 9.77733 250.86 9.866 250.556 9.866ZM254.934 21V11.766H256.226L256.359 13.096H256.416C256.859 12.6527 257.328 12.2853 257.822 11.994C258.316 11.69 258.88 11.538 259.513 11.538C260.488 11.538 261.198 11.8483 261.641 12.469C262.097 13.077 262.325 13.97 262.325 15.148V21H260.767V15.357C260.767 14.4957 260.628 13.8687 260.349 13.476C260.07 13.0833 259.627 12.887 259.019 12.887C258.55 12.887 258.126 13.0073 257.746 13.248C257.379 13.4887 256.961 13.8433 256.492 14.312V21H254.934ZM265.825 21V11.766H267.117L267.25 13.096H267.307C267.75 12.6527 268.219 12.2853 268.713 11.994C269.207 11.69 269.77 11.538 270.404 11.538C271.379 11.538 272.088 11.8483 272.532 12.469C272.988 13.077 273.216 13.97 273.216 15.148V21H271.658V15.357C271.658 14.4957 271.518 13.8687 271.24 13.476C270.961 13.0833 270.518 12.887 269.91 12.887C269.441 12.887 269.017 13.0073 268.637 13.248C268.269 13.4887 267.851 13.8433 267.383 14.312V21H265.825ZM280.458 21.228C279.635 21.228 278.888 21.038 278.216 20.658C277.545 20.2653 277.013 19.708 276.62 18.986C276.228 18.264 276.031 17.4027 276.031 16.402C276.031 15.3887 276.228 14.521 276.62 13.799C277.026 13.077 277.545 12.5197 278.178 12.127C278.812 11.7343 279.477 11.538 280.173 11.538C281.351 11.538 282.257 11.9307 282.89 12.716C283.536 13.5013 283.859 14.5527 283.859 15.87C283.859 16.0347 283.853 16.1993 283.84 16.364C283.84 16.516 283.828 16.649 283.802 16.763H277.57C277.634 17.7383 277.938 18.5173 278.482 19.1C279.04 19.6827 279.762 19.974 280.648 19.974C281.092 19.974 281.497 19.9107 281.864 19.784C282.244 19.6447 282.605 19.4673 282.947 19.252L283.498 20.278C283.106 20.5313 282.656 20.753 282.149 20.943C281.655 21.133 281.092 21.228 280.458 21.228ZM277.551 15.642H282.491C282.491 14.7047 282.289 13.9953 281.883 13.514C281.491 13.02 280.933 12.773 280.211 12.773C279.565 12.773 278.983 13.0263 278.463 13.533C277.957 14.027 277.653 14.73 277.551 15.642ZM279.907 10.113L279.109 9.334L281.788 6.161L282.89 7.206L279.907 10.113ZM286.774 24.344L285.805 23.888C286.54 22.6847 287.084 21.3863 287.439 19.993C287.806 18.587 287.99 17.162 287.99 15.718C287.99 14.274 287.806 12.8553 287.439 11.462C287.084 10.056 286.54 8.75133 285.805 7.548L286.774 7.092C287.559 8.35867 288.174 9.695 288.617 11.101C289.06 12.507 289.282 14.046 289.282 15.718C289.282 17.39 289.06 18.929 288.617 20.335C288.174 21.7283 287.559 23.0647 286.774 24.344Z" fill="#757575"/>
<rect x="1.5" y="36.5" width="403" height="55" rx="6.5" stroke="#D96E00" stroke-width="3"/>
<rect x="6" y="41" width="394" height="46" rx="4" fill="white"/>
<rect x="6" y="41" width="394" height="46" rx="4" stroke="#424242" stroke-width="2"/>
<path d="M21.748 75.75V56.75H22.85V75.75H21.748Z" fill="black"/>
</svg>
