<svg width="196" height="58" viewBox="0 0 196 58" fill="none" xmlns="http://www.w3.org/2000/svg">
<rect x="1.5" y="1.5" width="193" height="55" rx="6.5" stroke="#D96E00" stroke-width="3"/>
<rect x="5" y="5" width="186" height="48" rx="5" fill="#126DFF"/>
<g clip-path="url(#clip0_1933_20691)">
<path d="M26.6929 35V24.568H30.2769C31.0449 24.568 31.7383 24.6747 32.3569 24.888C32.9863 25.0907 33.4876 25.4373 33.8609 25.928C34.2343 26.4187 34.4209 27.0853 34.4209 27.928C34.4209 28.7387 34.2343 29.4053 33.8609 29.928C33.4876 30.4507 32.9916 30.84 32.3729 31.096C31.7543 31.3413 31.0769 31.464 30.3409 31.464H29.0449V35H26.6929ZM29.0449 29.592H30.1969C31.4769 29.592 32.1169 29.0373 32.1169 27.928C32.1169 27.384 31.9463 27 31.6049 26.776C31.2636 26.552 30.7729 26.44 30.1329 26.44H29.0449V29.592ZM36.5322 35V27.064H38.4522L38.6122 28.456H38.6762C38.9642 27.9227 39.3109 27.528 39.7162 27.272C40.1215 27.0053 40.5269 26.872 40.9322 26.872C41.1562 26.872 41.3429 26.888 41.4922 26.92C41.6415 26.9413 41.7695 26.9787 41.8762 27.032L41.4922 29.064C41.3535 29.0213 41.2149 28.9893 41.0762 28.968C40.9482 28.9467 40.7989 28.936 40.6282 28.936C40.3295 28.936 40.0149 29.048 39.6842 29.272C39.3642 29.4853 39.0975 29.8587 38.8842 30.392V35H36.5322ZM43.4072 35V27.064H45.7592V35H43.4072ZM44.5752 25.896C44.1805 25.896 43.8605 25.784 43.6152 25.56C43.3699 25.336 43.2472 25.0373 43.2472 24.664C43.2472 24.2907 43.3699 23.992 43.6152 23.768C43.8605 23.544 44.1805 23.432 44.5752 23.432C44.9699 23.432 45.2899 23.544 45.5352 23.768C45.7805 23.992 45.9032 24.2907 45.9032 24.664C45.9032 25.0373 45.7805 25.336 45.5352 25.56C45.2899 25.784 44.9699 25.896 44.5752 25.896ZM48.3291 35V27.064H50.2491L50.4091 28.088H50.4731C50.8037 27.7573 51.1557 27.4747 51.5291 27.24C51.9024 26.9947 52.3504 26.872 52.8731 26.872C53.4384 26.872 53.8917 26.9893 54.2331 27.224C54.5851 27.448 54.8624 27.7733 55.0651 28.2C55.4171 27.8373 55.7904 27.528 56.1851 27.272C56.5797 27.0053 57.0384 26.872 57.5611 26.872C58.4144 26.872 59.0384 27.16 59.4331 27.736C59.8384 28.3013 60.0411 29.08 60.0411 30.072V35H57.6891V30.376C57.6891 29.8 57.6091 29.4053 57.4491 29.192C57.2997 28.9787 57.0544 28.872 56.7131 28.872C56.3184 28.872 55.8651 29.128 55.3531 29.64V35H53.0011V30.376C53.0011 29.8 52.9211 29.4053 52.7611 29.192C52.6117 28.9787 52.3664 28.872 52.0251 28.872C51.6304 28.872 51.1824 29.128 50.6811 29.64V35H48.3291ZM64.5478 35.192C63.8225 35.192 63.2465 34.9627 62.8198 34.504C62.3931 34.0347 62.1798 33.464 62.1798 32.792C62.1798 31.96 62.5318 31.3093 63.2358 30.84C63.9398 30.3707 65.0758 30.056 66.6438 29.896C66.6225 29.544 66.5158 29.2667 66.3238 29.064C66.1425 28.8507 65.8331 28.744 65.3958 28.744C65.0651 28.744 64.7291 28.808 64.3878 28.936C64.0465 29.064 63.6838 29.24 63.2998 29.464L62.4518 27.912C62.9531 27.6027 63.4865 27.352 64.0518 27.16C64.6278 26.968 65.2251 26.872 65.8438 26.872C66.8571 26.872 67.6358 27.1653 68.1798 27.752C68.7238 28.3387 68.9958 29.24 68.9958 30.456V35H67.0758L66.9158 34.184H66.8518C66.5211 34.4827 66.1638 34.728 65.7798 34.92C65.4065 35.1013 64.9958 35.192 64.5478 35.192ZM65.3478 33.368C65.6145 33.368 65.8438 33.3093 66.0358 33.192C66.2385 33.064 66.4411 32.8987 66.6438 32.696V31.304C65.8118 31.4107 65.2358 31.5813 64.9158 31.816C64.5958 32.04 64.4358 32.3067 64.4358 32.616C64.4358 32.872 64.5158 33.064 64.6758 33.192C64.8465 33.3093 65.0705 33.368 65.3478 33.368ZM66.0838 25.848L64.9318 24.696L67.3958 21.784L68.9798 23.336L66.0838 25.848ZM71.4853 35V27.064H73.4053L73.5653 28.456H73.6293C73.9173 27.9227 74.264 27.528 74.6693 27.272C75.0746 27.0053 75.48 26.872 75.8853 26.872C76.1093 26.872 76.296 26.888 76.4453 26.92C76.5946 26.9413 76.7226 26.9787 76.8293 27.032L76.4453 29.064C76.3066 29.0213 76.168 28.9893 76.0293 28.968C75.9013 28.9467 75.752 28.936 75.5813 28.936C75.2826 28.936 74.968 29.048 74.6373 29.272C74.3173 29.4853 74.0506 29.8587 73.8373 30.392V35H71.4853ZM78.3603 35V27.064H80.2803L80.4403 28.072H80.5043C80.8456 27.752 81.219 27.4747 81.6243 27.24C82.0403 26.9947 82.515 26.872 83.0483 26.872C83.9123 26.872 84.5363 27.16 84.9203 27.736C85.315 28.3013 85.5123 29.08 85.5123 30.072V35H83.1603V30.376C83.1603 29.8 83.0803 29.4053 82.9203 29.192C82.771 28.9787 82.5256 28.872 82.1843 28.872C81.8856 28.872 81.6296 28.9413 81.4163 29.08C81.203 29.208 80.9683 29.3947 80.7123 29.64V35H78.3603ZM88.8966 38.104C88.6619 38.104 88.4539 38.088 88.2726 38.056C88.1019 38.024 87.9366 37.9867 87.7766 37.944L88.1926 36.152C88.2672 36.1627 88.3526 36.1787 88.4486 36.2C88.5446 36.232 88.6352 36.248 88.7206 36.248C89.1152 36.248 89.4192 36.152 89.6326 35.96C89.8459 35.768 90.0059 35.5173 90.1126 35.208L90.2246 34.792L87.1686 27.064H89.5366L90.6726 30.472C90.7899 30.8347 90.8966 31.2027 90.9926 31.576C91.0886 31.9493 91.1899 32.3333 91.2966 32.728H91.3606C91.4459 32.3547 91.5312 31.9813 91.6166 31.608C91.7126 31.224 91.8086 30.8453 91.9046 30.472L92.8646 27.064H95.1206L92.3686 35.08C92.1232 35.7413 91.8512 36.296 91.5526 36.744C91.2539 37.2027 90.8912 37.544 90.4646 37.768C90.0486 37.992 89.5259 38.104 88.8966 38.104ZM95.9658 37.56L99.1818 23.64H100.718L97.5018 37.56H95.9658ZM102.256 35V33.576L106.864 26.552H102.688V24.568H109.76V25.992L105.152 33.016H109.808V35H102.256ZM113.688 35.192C112.963 35.192 112.387 34.9627 111.96 34.504C111.534 34.0347 111.32 33.464 111.32 32.792C111.32 31.96 111.672 31.3093 112.376 30.84C113.08 30.3707 114.216 30.056 115.784 29.896C115.763 29.544 115.656 29.2667 115.464 29.064C115.283 28.8507 114.974 28.744 114.536 28.744C114.206 28.744 113.87 28.808 113.528 28.936C113.187 29.064 112.824 29.24 112.44 29.464L111.592 27.912C112.094 27.6027 112.627 27.352 113.192 27.16C113.768 26.968 114.366 26.872 114.984 26.872C115.998 26.872 116.776 27.1653 117.32 27.752C117.864 28.3387 118.136 29.24 118.136 30.456V35H116.216L116.056 34.184H115.992C115.662 34.4827 115.304 34.728 114.92 34.92C114.547 35.1013 114.136 35.192 113.688 35.192ZM114.488 33.368C114.755 33.368 114.984 33.3093 115.176 33.192C115.379 33.064 115.582 32.8987 115.784 32.696V31.304C114.952 31.4107 114.376 31.5813 114.056 31.816C113.736 32.04 113.576 32.3067 113.576 32.616C113.576 32.872 113.656 33.064 113.816 33.192C113.987 33.3093 114.211 33.368 114.488 33.368ZM115.224 25.848L114.072 24.696L116.536 21.784L118.12 23.336L115.224 25.848ZM120.626 35V23.784H122.914V30.216H122.978L125.49 27.064H128.05L125.266 30.328L128.258 35H125.714L123.922 31.912L122.914 33.048V35H120.626ZM132.052 35.192C131.241 35.192 130.676 34.952 130.356 34.472C130.046 33.9813 129.892 33.336 129.892 32.536V23.784H132.244V32.632C132.244 32.8773 132.286 33.048 132.372 33.144C132.468 33.24 132.564 33.288 132.66 33.288C132.713 33.288 132.756 33.288 132.788 33.288C132.83 33.2773 132.884 33.2667 132.948 33.256L133.236 35C133.108 35.0533 132.942 35.096 132.74 35.128C132.548 35.1707 132.318 35.192 132.052 35.192ZM136.97 35.192C136.244 35.192 135.668 34.9627 135.242 34.504C134.815 34.0347 134.602 33.464 134.602 32.792C134.602 31.96 134.954 31.3093 135.658 30.84C136.362 30.3707 137.498 30.056 139.066 29.896C139.044 29.544 138.938 29.2667 138.746 29.064C138.564 28.8507 138.255 28.744 137.818 28.744C137.487 28.744 137.151 28.808 136.81 28.936C136.468 29.064 136.106 29.24 135.722 29.464L134.874 27.912C135.375 27.6027 135.908 27.352 136.474 27.16C137.05 26.968 137.647 26.872 138.266 26.872C139.279 26.872 140.058 27.1653 140.602 27.752C141.146 28.3387 141.418 29.24 141.418 30.456V35H139.498L139.338 34.184H139.274C138.943 34.4827 138.586 34.728 138.202 34.92C137.828 35.1013 137.418 35.192 136.97 35.192ZM137.77 33.368C138.036 33.368 138.266 33.3093 138.458 33.192C138.66 33.064 138.863 32.8987 139.066 32.696V31.304C138.234 31.4107 137.658 31.5813 137.338 31.816C137.018 32.04 136.858 32.3067 136.858 32.616C136.858 32.872 136.938 33.064 137.098 33.192C137.268 33.3093 137.492 33.368 137.77 33.368ZM146.739 35.192C145.758 35.192 144.969 34.824 144.371 34.088C143.785 33.3413 143.491 32.3227 143.491 31.032C143.491 30.168 143.646 29.4267 143.955 28.808C144.275 28.1787 144.686 27.6987 145.187 27.368C145.699 27.0373 146.233 26.872 146.787 26.872C147.225 26.872 147.593 26.9467 147.891 27.096C148.19 27.2453 148.473 27.448 148.739 27.704L148.643 26.488V23.784H150.995V35H149.075L148.915 34.216H148.851C148.574 34.4933 148.249 34.728 147.875 34.92C147.502 35.1013 147.123 35.192 146.739 35.192ZM147.347 33.272C147.603 33.272 147.833 33.2187 148.035 33.112C148.249 33.0053 148.451 32.8187 148.643 32.552V29.304C148.441 29.112 148.222 28.9787 147.987 28.904C147.763 28.8293 147.545 28.792 147.331 28.792C146.958 28.792 146.627 28.9733 146.339 29.336C146.051 29.688 145.907 30.2427 145.907 31C145.907 31.7787 146.03 32.3547 146.275 32.728C146.531 33.0907 146.889 33.272 147.347 33.272ZM153.579 35V27.064H155.499L155.659 28.072H155.723C156.064 27.752 156.438 27.4747 156.843 27.24C157.259 26.9947 157.734 26.872 158.267 26.872C159.131 26.872 159.755 27.16 160.139 27.736C160.534 28.3013 160.731 29.08 160.731 30.072V35H158.379V30.376C158.379 29.8 158.299 29.4053 158.139 29.192C157.99 28.9787 157.744 28.872 157.403 28.872C157.104 28.872 156.848 28.9413 156.635 29.08C156.422 29.208 156.187 29.3947 155.931 29.64V35H153.579ZM164.115 38.104C163.881 38.104 163.673 38.088 163.491 38.056C163.321 38.024 163.155 37.9867 162.995 37.944L163.411 36.152C163.486 36.1627 163.571 36.1787 163.667 36.2C163.763 36.232 163.854 36.248 163.939 36.248C164.334 36.248 164.638 36.152 164.851 35.96C165.065 35.768 165.225 35.5173 165.331 35.208L165.443 34.792L162.387 27.064H164.755L165.891 30.472C166.009 30.8347 166.115 31.2027 166.211 31.576C166.307 31.9493 166.409 32.3333 166.515 32.728H166.579C166.665 32.3547 166.75 31.9813 166.835 31.608C166.931 31.224 167.027 30.8453 167.123 30.472L168.083 27.064H170.339L167.587 35.08C167.342 35.7413 167.07 36.296 166.771 36.744C166.473 37.2027 166.11 37.544 165.683 37.768C165.267 37.992 164.745 38.104 164.115 38.104ZM166.627 25.848L165.475 24.696L167.939 21.784L169.523 23.336L166.627 25.848Z" fill="white"/>
</g>
<defs>
<clipPath id="clip0_1933_20691">
<rect width="146" height="24" fill="white" transform="translate(25 17)"/>
</clipPath>
</defs>
</svg>
