<svg width="375" height="44" viewBox="0 0 375 44" fill="none" xmlns="http://www.w3.org/2000/svg">
<rect width="375" height="44" fill="#072C66"/>
<rect x="28.5" y="6.5" width="101" height="31" rx="6.5" stroke="white" stroke-width="3"/>
<path d="M36.659 28.192C35.923 28.192 35.2404 28.0533 34.611 27.776C33.9817 27.488 33.4377 27.1093 32.979 26.64L33.779 25.712C34.1524 26.1067 34.5897 26.4267 35.091 26.672C35.603 26.9067 36.131 27.024 36.675 27.024C37.3684 27.024 37.907 26.8693 38.291 26.56C38.675 26.24 38.867 25.824 38.867 25.312C38.867 24.9493 38.787 24.6613 38.627 24.448C38.4777 24.2347 38.2697 24.0533 38.003 23.904C37.747 23.7547 37.4537 23.6053 37.123 23.456L35.619 22.8C35.2884 22.6613 34.9577 22.48 34.627 22.256C34.307 22.032 34.035 21.744 33.811 21.392C33.5977 21.04 33.491 20.608 33.491 20.096C33.491 19.5627 33.6297 19.088 33.907 18.672C34.195 18.2453 34.5897 17.9147 35.091 17.68C35.5924 17.4347 36.1577 17.312 36.787 17.312C37.4164 17.312 37.9977 17.4347 38.531 17.68C39.0644 17.9147 39.5177 18.224 39.891 18.608L39.171 19.472C38.851 19.1627 38.4937 18.9227 38.099 18.752C37.715 18.5707 37.2777 18.48 36.787 18.48C36.2004 18.48 35.7257 18.6187 35.363 18.896C35.011 19.1733 34.835 19.5467 34.835 20.016C34.835 20.3467 34.9204 20.624 35.091 20.848C35.2724 21.0613 35.4964 21.2373 35.763 21.376C36.0297 21.5147 36.3017 21.6427 36.579 21.76L38.067 22.4C38.4724 22.5707 38.835 22.7787 39.155 23.024C39.4857 23.2587 39.747 23.552 39.939 23.904C40.131 24.2453 40.227 24.6773 40.227 25.2C40.227 25.7547 40.083 26.2613 39.795 26.72C39.507 27.168 39.0964 27.5253 38.563 27.792C38.0297 28.0587 37.395 28.192 36.659 28.192ZM42.7939 28V17.504H44.1219V22.768H44.1699L48.5379 17.504H50.0419L46.7619 21.504L50.5539 28H49.0659L45.9299 22.544L44.1219 24.672V28H42.7939ZM58.5139 28.192C57.7565 28.192 57.0739 28.0267 56.4659 27.696C55.8579 27.3653 55.3779 26.8907 55.0259 26.272C54.6739 25.6533 54.4979 24.9067 54.4979 24.032C54.4979 23.168 54.6739 22.4267 55.0259 21.808C55.3885 21.1893 55.8579 20.7147 56.4339 20.384C57.0099 20.0427 57.6125 19.872 58.2419 19.872C58.9992 19.872 59.6232 20.0427 60.1139 20.384C60.6152 20.7147 60.9885 21.168 61.2339 21.744C61.4899 22.3093 61.6179 22.9547 61.6179 23.68C61.6179 23.8827 61.6072 24.0853 61.5859 24.288C61.5645 24.48 61.5432 24.624 61.5219 24.72H56.7699C56.8765 25.296 57.1165 25.7227 57.4899 26C57.8632 26.2667 58.3112 26.4 58.8339 26.4C59.3992 26.4 59.9699 26.224 60.5459 25.872L61.3299 27.296C60.9245 27.5733 60.4712 27.792 59.9699 27.952C59.4685 28.112 58.9832 28.192 58.5139 28.192ZM56.7539 23.168H59.6179C59.6179 22.7307 59.5112 22.3733 59.2979 22.096C59.0952 21.808 58.7592 21.664 58.2899 21.664C57.9272 21.664 57.6019 21.792 57.3139 22.048C57.0259 22.2933 56.8392 22.6667 56.7539 23.168ZM63.5474 24.784V23.12H67.4834V24.784H63.5474ZM74.5119 28.192C73.5625 28.192 72.6985 27.9893 71.9199 27.584C71.1519 27.1787 70.5385 26.5813 70.0799 25.792C69.6319 24.992 69.4079 24.0107 69.4079 22.848C69.4079 21.696 69.6372 20.7147 70.0959 19.904C70.5652 19.0827 71.1839 18.4587 71.9519 18.032C72.7199 17.5947 73.5679 17.376 74.4959 17.376C75.2532 17.376 75.9039 17.5147 76.4479 17.792C76.9919 18.0693 77.4345 18.384 77.7759 18.736L76.5439 20.24C76.2772 20.0053 75.9945 19.808 75.6959 19.648C75.3972 19.488 75.0239 19.408 74.5759 19.408C73.7652 19.408 73.1039 19.7067 72.5919 20.304C72.0799 20.9013 71.8239 21.7227 71.8239 22.768C71.8239 23.8347 72.0692 24.6667 72.5599 25.264C73.0505 25.8613 73.7812 26.16 74.7519 26.16C74.9652 26.16 75.1732 26.1333 75.3759 26.08C75.5785 26.0267 75.7439 25.9467 75.8719 25.84V24.048H74.1439V22.128H77.9519V26.928C77.5892 27.28 77.1039 27.5787 76.4959 27.824C75.8985 28.0693 75.2372 28.192 74.5119 28.192ZM83.823 28.192C83.151 28.192 82.5163 28.032 81.919 27.712C81.3323 27.3813 80.8577 26.9067 80.495 26.288C80.1323 25.6587 79.951 24.9067 79.951 24.032C79.951 23.1467 80.1323 22.3947 80.495 21.776C80.8577 21.1573 81.3323 20.688 81.919 20.368C82.5163 20.0373 83.151 19.872 83.823 19.872C84.495 19.872 85.1243 20.0373 85.711 20.368C86.2977 20.688 86.7723 21.1573 87.135 21.776C87.4977 22.3947 87.679 23.1467 87.679 24.032C87.679 24.9067 87.4977 25.6587 87.135 26.288C86.7723 26.9067 86.2977 27.3813 85.711 27.712C85.1243 28.032 84.495 28.192 83.823 28.192ZM83.823 26.288C84.303 26.288 84.6657 26.0853 84.911 25.68C85.1563 25.264 85.279 24.7147 85.279 24.032C85.279 23.3387 85.1563 22.7893 84.911 22.384C84.6657 21.9787 84.303 21.776 83.823 21.776C83.3323 21.776 82.9643 21.9787 82.719 22.384C82.4843 22.7893 82.367 23.3387 82.367 24.032C82.367 24.7147 82.4843 25.264 82.719 25.68C82.9643 26.0853 83.3323 26.288 83.823 26.288ZM91.489 28L88.817 20.064H91.185L92.209 23.808C92.3157 24.2027 92.417 24.608 92.513 25.024C92.6197 25.4293 92.7263 25.84 92.833 26.256H92.897C92.993 25.84 93.089 25.4293 93.185 25.024C93.2917 24.608 93.3983 24.2027 93.505 23.808L94.545 20.064H96.801L94.209 28H91.489Z" fill="white"/>
<g clip-path="url(#clip0_1933_20735)">
<path d="M110.71 21.71L113.3 24.3C113.69 24.69 114.32 24.69 114.71 24.3L117.3 21.71C117.93 21.08 117.48 20 116.59 20H111.41C110.52 20 110.08 21.08 110.71 21.71Z" fill="white"/>
</g>
<g clip-path="url(#clip1_1933_20735)">
<path d="M242.344 28.192C241.789 28.192 241.261 28.0907 240.76 27.888C240.259 27.6747 239.821 27.4187 239.448 27.12L240.104 26.24C240.445 26.5067 240.797 26.7307 241.16 26.912C241.523 27.0827 241.933 27.168 242.392 27.168C242.904 27.168 243.288 27.0507 243.544 26.816C243.8 26.5707 243.928 26.2827 243.928 25.952C243.928 25.6853 243.837 25.4613 243.656 25.28C243.485 25.0987 243.261 24.9493 242.984 24.832C242.717 24.704 242.44 24.5867 242.152 24.48C241.789 24.3413 241.432 24.1867 241.08 24.016C240.728 23.8347 240.44 23.6053 240.216 23.328C239.992 23.04 239.88 22.6773 239.88 22.24C239.88 21.6107 240.115 21.088 240.584 20.672C241.064 20.2453 241.725 20.032 242.568 20.032C243.048 20.032 243.496 20.1173 243.912 20.288C244.328 20.4587 244.685 20.6667 244.984 20.912L244.344 21.744C244.077 21.5413 243.8 21.376 243.512 21.248C243.224 21.12 242.909 21.056 242.568 21.056C242.077 21.056 241.715 21.168 241.48 21.392C241.256 21.616 241.144 21.8773 241.144 22.176C241.144 22.4213 241.224 22.624 241.384 22.784C241.544 22.9333 241.752 23.0667 242.008 23.184C242.264 23.2907 242.536 23.4027 242.824 23.52C243.197 23.6587 243.565 23.8187 243.928 24C244.291 24.1707 244.589 24.4053 244.824 24.704C245.069 24.992 245.192 25.3813 245.192 25.872C245.192 26.288 245.08 26.672 244.856 27.024C244.643 27.376 244.323 27.6587 243.896 27.872C243.48 28.0853 242.963 28.192 242.344 28.192ZM248.907 28.192C248.416 28.192 248.059 28.0427 247.835 27.744C247.622 27.4347 247.515 26.9973 247.515 26.432V16.608H248.827V26.528C248.827 26.7307 248.864 26.88 248.939 26.976C249.014 27.0613 249.099 27.104 249.195 27.104C249.238 27.104 249.275 27.104 249.307 27.104C249.35 27.0933 249.408 27.0827 249.483 27.072L249.659 28.064C249.574 28.1067 249.472 28.1387 249.355 28.16C249.238 28.1813 249.088 28.192 248.907 28.192ZM255.117 28.192C254.488 28.192 253.896 28.032 253.341 27.712C252.797 27.392 252.355 26.928 252.013 26.32C251.683 25.712 251.517 24.9813 251.517 24.128C251.517 23.2533 251.683 22.512 252.013 21.904C252.355 21.296 252.797 20.832 253.341 20.512C253.896 20.192 254.488 20.032 255.117 20.032C255.757 20.032 256.349 20.192 256.893 20.512C257.437 20.832 257.875 21.296 258.205 21.904C258.547 22.512 258.717 23.2533 258.717 24.128C258.717 24.9813 258.547 25.712 258.205 26.32C257.875 26.928 257.437 27.392 256.893 27.712C256.349 28.032 255.757 28.192 255.117 28.192ZM255.117 27.104C255.789 27.104 256.328 26.832 256.733 26.288C257.149 25.7333 257.357 25.0133 257.357 24.128C257.357 23.232 257.149 22.5067 256.733 21.952C256.328 21.3973 255.789 21.12 255.117 21.12C254.456 21.12 253.917 21.3973 253.501 21.952C253.085 22.5067 252.877 23.232 252.877 24.128C252.877 25.0133 253.085 25.7333 253.501 26.288C253.917 26.832 254.456 27.104 255.117 27.104ZM262.883 28L260.083 20.224H261.443L262.915 24.64C263.032 25.024 263.149 25.408 263.267 25.792C263.395 26.176 263.517 26.5547 263.635 26.928H263.699C263.816 26.5547 263.933 26.176 264.051 25.792C264.179 25.408 264.296 25.024 264.403 24.64L265.875 20.224H267.171L264.419 28H262.883ZM272.261 28.192C271.568 28.192 270.938 28.032 270.373 27.712C269.808 27.3813 269.36 26.912 269.029 26.304C268.698 25.696 268.533 24.9707 268.533 24.128C268.533 23.2747 268.698 22.544 269.029 21.936C269.37 21.328 269.808 20.8587 270.341 20.528C270.874 20.1973 271.434 20.032 272.021 20.032C273.013 20.032 273.776 20.3627 274.309 21.024C274.853 21.6853 275.125 22.5707 275.125 23.68C275.125 23.8187 275.12 23.9573 275.109 24.096C275.109 24.224 275.098 24.336 275.077 24.432H269.829C269.882 25.2533 270.138 25.9093 270.597 26.4C271.066 26.8907 271.674 27.136 272.421 27.136C272.794 27.136 273.136 27.0827 273.445 26.976C273.765 26.8587 274.069 26.7093 274.357 26.528L274.821 27.392C274.49 27.6053 274.112 27.792 273.685 27.952C273.269 28.112 272.794 28.192 272.261 28.192ZM269.813 23.488H273.973C273.973 22.6987 273.802 22.1013 273.461 21.696C273.13 21.28 272.661 21.072 272.053 21.072C271.509 21.072 271.018 21.2853 270.581 21.712C270.154 22.128 269.898 22.72 269.813 23.488ZM277.546 28V20.224H278.634L278.746 21.344H278.794C279.168 20.9707 279.562 20.6613 279.978 20.416C280.394 20.16 280.869 20.032 281.402 20.032C282.224 20.032 282.821 20.2933 283.194 20.816C283.578 21.328 283.77 22.08 283.77 23.072V28H282.458V23.248C282.458 22.5227 282.341 21.9947 282.106 21.664C281.872 21.3333 281.498 21.168 280.986 21.168C280.592 21.168 280.234 21.2693 279.914 21.472C279.605 21.6747 279.253 21.9733 278.858 22.368V28H277.546ZM289.868 28.192C289.186 28.192 288.567 28.032 288.012 27.712C287.458 27.392 287.02 26.928 286.7 26.32C286.38 25.712 286.22 24.9813 286.22 24.128C286.22 23.2533 286.391 22.512 286.732 21.904C287.084 21.296 287.543 20.832 288.108 20.512C288.684 20.192 289.303 20.032 289.964 20.032C290.476 20.032 290.914 20.1227 291.276 20.304C291.65 20.4853 291.97 20.6987 292.236 20.944L291.564 21.808C291.34 21.6053 291.1 21.44 290.844 21.312C290.599 21.184 290.322 21.12 290.012 21.12C289.543 21.12 289.122 21.248 288.748 21.504C288.386 21.7493 288.098 22.1013 287.884 22.56C287.682 23.008 287.58 23.5307 287.58 24.128C287.58 25.0133 287.799 25.7333 288.236 26.288C288.684 26.832 289.266 27.104 289.98 27.104C290.343 27.104 290.679 27.0293 290.988 26.88C291.298 26.72 291.57 26.5333 291.804 26.32L292.38 27.2C292.028 27.5093 291.639 27.7547 291.212 27.936C290.786 28.1067 290.338 28.192 289.868 28.192ZM289.212 18.816L287.388 16.576L287.948 16.064L289.836 17.872H289.9L291.788 16.064L292.348 16.576L290.524 18.816H289.212ZM294.593 28V20.224H295.905V28H294.593ZM295.265 18.624C295.009 18.624 294.796 18.5493 294.625 18.4C294.465 18.24 294.385 18.0267 294.385 17.76C294.385 17.504 294.465 17.296 294.625 17.136C294.796 16.976 295.009 16.896 295.265 16.896C295.521 16.896 295.729 16.976 295.889 17.136C296.06 17.296 296.145 17.504 296.145 17.76C296.145 18.0267 296.06 18.24 295.889 18.4C295.729 18.5493 295.521 18.624 295.265 18.624ZM299.031 28V20.224H300.119L300.231 21.344H300.279C300.652 20.9707 301.047 20.6613 301.463 20.416C301.879 20.16 302.353 20.032 302.887 20.032C303.708 20.032 304.305 20.2933 304.679 20.816C305.063 21.328 305.255 22.08 305.255 23.072V28H303.943V23.248C303.943 22.5227 303.825 21.9947 303.591 21.664C303.356 21.3333 302.983 21.168 302.471 21.168C302.076 21.168 301.719 21.2693 301.399 21.472C301.089 21.6747 300.737 21.9733 300.343 22.368V28H299.031ZM310.073 28.192C309.422 28.192 308.878 28 308.441 27.616C308.014 27.2213 307.801 26.6773 307.801 25.984C307.801 25.1307 308.179 24.48 308.937 24.032C309.705 23.5733 310.915 23.2533 312.569 23.072C312.569 22.7413 312.521 22.4267 312.425 22.128C312.339 21.8293 312.179 21.5893 311.945 21.408C311.721 21.216 311.395 21.12 310.969 21.12C310.521 21.12 310.099 21.2053 309.705 21.376C309.31 21.5467 308.958 21.7387 308.649 21.952L308.137 21.04C308.499 20.8053 308.942 20.5813 309.465 20.368C309.998 20.144 310.574 20.032 311.193 20.032C312.142 20.032 312.83 20.3253 313.257 20.912C313.683 21.488 313.897 22.2613 313.897 23.232V28H312.809L312.697 27.072H312.649C312.286 27.3707 311.886 27.632 311.449 27.856C311.022 28.08 310.563 28.192 310.073 28.192ZM310.457 27.136C310.83 27.136 311.182 27.0453 311.513 26.864C311.843 26.6827 312.195 26.4267 312.569 26.096V23.936C311.278 24.096 310.371 24.336 309.849 24.656C309.337 24.976 309.081 25.3867 309.081 25.888C309.081 26.3253 309.214 26.6453 309.481 26.848C309.747 27.04 310.073 27.136 310.457 27.136Z" fill="white"/>
<g clip-path="url(#clip2_1933_20735)">
<path d="M329.71 21.71L332.3 24.3C332.69 24.69 333.32 24.69 333.71 24.3L336.3 21.71C336.93 21.08 336.48 20 335.59 20H330.41C329.52 20 329.08 21.08 329.71 21.71Z" fill="white"/>
</g>
</g>
<defs>
<clipPath id="clip0_1933_20735">
<rect width="24" height="24" fill="white" transform="translate(102 10)"/>
</clipPath>
<clipPath id="clip1_1933_20735">
<rect width="106" height="24" fill="white" transform="translate(239 10)"/>
</clipPath>
<clipPath id="clip2_1933_20735">
<rect width="24" height="24" fill="white" transform="translate(321 10)"/>
</clipPath>
</defs>
</svg>
