<svg width="196" height="50" viewBox="0 0 196 50" fill="none" xmlns="http://www.w3.org/2000/svg">
<rect x="1.5" y="1.5" width="193" height="47" rx="6.5" stroke="#D96E00" stroke-width="3"/>
<rect x="6" y="6" width="38" height="38" rx="4" fill="white"/>
<rect x="6" y="6" width="38" height="38" rx="4" stroke="black" stroke-width="2"/>
<path d="M61.774 32V19.536H63.408L67.911 27.364L69.26 29.948H69.336C69.298 29.3147 69.2536 28.6623 69.203 27.991C69.165 27.307 69.146 26.6357 69.146 25.977V19.536H70.647V32H69.013L64.491 24.153L63.142 21.588H63.066C63.1166 22.2087 63.161 22.8483 63.199 23.507C63.2496 24.1657 63.275 24.8243 63.275 25.483V32H61.774ZM76.5517 32.228C75.7791 32.228 75.1331 32 74.6137 31.544C74.1071 31.0753 73.8537 30.4293 73.8537 29.606C73.8537 28.5927 74.3034 27.82 75.2027 27.288C76.1147 26.7433 77.5524 26.3633 79.5157 26.148C79.5157 25.7553 79.4587 25.3817 79.3447 25.027C79.2434 24.6723 79.0534 24.3873 78.7747 24.172C78.5087 23.944 78.1224 23.83 77.6157 23.83C77.0837 23.83 76.5834 23.9313 76.1147 24.134C75.6461 24.3367 75.2281 24.5647 74.8607 24.818L74.2527 23.735C74.6834 23.4563 75.2091 23.1903 75.8297 22.937C76.4631 22.671 77.1471 22.538 77.8817 22.538C79.0091 22.538 79.8261 22.8863 80.3327 23.583C80.8394 24.267 81.0927 25.1853 81.0927 26.338V32H79.8007L79.6677 30.898H79.6107C79.1801 31.2527 78.7051 31.563 78.1857 31.829C77.6791 32.095 77.1344 32.228 76.5517 32.228ZM77.0077 30.974C77.4511 30.974 77.8691 30.8663 78.2617 30.651C78.6544 30.4357 79.0724 30.1317 79.5157 29.739V27.174C77.9831 27.364 76.9064 27.649 76.2857 28.029C75.6777 28.409 75.3737 28.8967 75.3737 29.492C75.3737 30.0113 75.5321 30.3913 75.8487 30.632C76.1654 30.86 76.5517 30.974 77.0077 30.974ZM77.6727 21.113L76.8747 20.334L79.5537 17.161L80.6557 18.206L77.6727 21.113ZM83.5289 32V31.164L88.3929 24.039H84.0609V22.766H90.3689V23.602L85.5049 30.727H90.5209V32H83.5289ZM96.4747 32.228C95.7274 32.228 95.0244 32.038 94.3657 31.658C93.7197 31.278 93.194 30.727 92.7887 30.005C92.396 29.283 92.1997 28.4153 92.1997 27.402C92.1997 26.3633 92.396 25.483 92.7887 24.761C93.194 24.039 93.7197 23.488 94.3657 23.108C95.0244 22.728 95.7274 22.538 96.4747 22.538C97.2347 22.538 97.9377 22.728 98.5837 23.108C99.2297 23.488 99.749 24.039 100.142 24.761C100.547 25.483 100.75 26.3633 100.75 27.402C100.75 28.4153 100.547 29.283 100.142 30.005C99.749 30.727 99.2297 31.278 98.5837 31.658C97.9377 32.038 97.2347 32.228 96.4747 32.228ZM96.4747 30.936C97.2727 30.936 97.9124 30.613 98.3937 29.967C98.8877 29.3083 99.1347 28.4533 99.1347 27.402C99.1347 26.338 98.8877 25.4767 98.3937 24.818C97.9124 24.1593 97.2727 23.83 96.4747 23.83C95.6894 23.83 95.0497 24.1593 94.5557 24.818C94.0617 25.4767 93.8147 26.338 93.8147 27.402C93.8147 28.4533 94.0617 29.3083 94.5557 29.967C95.0497 30.613 95.6894 30.936 96.4747 30.936ZM105.602 32L102.277 22.766H103.892L105.64 28.01C105.78 28.466 105.919 28.922 106.058 29.378C106.21 29.834 106.356 30.2837 106.495 30.727H106.571C106.711 30.2837 106.85 29.834 106.989 29.378C107.141 28.922 107.281 28.466 107.407 28.01L109.155 22.766H110.694L107.426 32H105.602ZM117.28 35.895V22.766H118.572L118.705 23.83H118.762C119.18 23.4753 119.636 23.1713 120.13 22.918C120.637 22.6647 121.163 22.538 121.707 22.538C122.898 22.538 123.804 22.9687 124.424 23.83C125.045 24.6787 125.355 25.8187 125.355 27.25C125.355 28.2887 125.165 29.1817 124.785 29.929C124.418 30.6763 123.93 31.2463 123.322 31.639C122.727 32.0317 122.075 32.228 121.365 32.228C120.935 32.228 120.504 32.133 120.073 31.943C119.655 31.753 119.231 31.4933 118.8 31.164L118.838 32.779V35.895H117.28ZM121.099 30.917C121.859 30.917 122.486 30.594 122.98 29.948C123.487 29.2893 123.74 28.39 123.74 27.25C123.74 26.2367 123.55 25.4197 123.17 24.799C122.803 24.1657 122.182 23.849 121.308 23.849C120.916 23.849 120.517 23.9567 120.111 24.172C119.719 24.3873 119.294 24.6977 118.838 25.103V29.948C119.256 30.3027 119.662 30.556 120.054 30.708C120.447 30.8473 120.795 30.917 121.099 30.917ZM131.91 32.228C131.163 32.228 130.46 32.038 129.801 31.658C129.155 31.278 128.63 30.727 128.224 30.005C127.832 29.283 127.635 28.4153 127.635 27.402C127.635 26.3633 127.832 25.483 128.224 24.761C128.63 24.039 129.155 23.488 129.801 23.108C130.46 22.728 131.163 22.538 131.91 22.538C132.67 22.538 133.373 22.728 134.019 23.108C134.665 23.488 135.185 24.039 135.577 24.761C135.983 25.483 136.185 26.3633 136.185 27.402C136.185 28.4153 135.983 29.283 135.577 30.005C135.185 30.727 134.665 31.278 134.019 31.658C133.373 32.038 132.67 32.228 131.91 32.228ZM131.91 30.936C132.708 30.936 133.348 30.613 133.829 29.967C134.323 29.3083 134.57 28.4533 134.57 27.402C134.57 26.338 134.323 25.4767 133.829 24.818C133.348 24.1593 132.708 23.83 131.91 23.83C131.125 23.83 130.485 24.1593 129.991 24.818C129.497 25.4767 129.25 26.338 129.25 27.402C129.25 28.4533 129.497 29.3083 129.991 29.967C130.485 30.613 131.125 30.936 131.91 30.936ZM140.77 32.228C140.187 32.228 139.763 32.0507 139.497 31.696C139.244 31.3287 139.117 30.8093 139.117 30.138V18.472H140.675V30.252C140.675 30.4927 140.719 30.67 140.808 30.784C140.897 30.8853 140.998 30.936 141.112 30.936C141.163 30.936 141.207 30.936 141.245 30.936C141.296 30.9233 141.365 30.9107 141.454 30.898L141.663 32.076C141.562 32.1267 141.441 32.1647 141.302 32.19C141.163 32.2153 140.985 32.228 140.77 32.228ZM148.051 32.228C147.304 32.228 146.601 32.038 145.942 31.658C145.296 31.278 144.77 30.727 144.365 30.005C143.972 29.283 143.776 28.4153 143.776 27.402C143.776 26.3633 143.972 25.483 144.365 24.761C144.77 24.039 145.296 23.488 145.942 23.108C146.601 22.728 147.304 22.538 148.051 22.538C148.811 22.538 149.514 22.728 150.16 23.108C150.806 23.488 151.325 24.039 151.718 24.761C152.123 25.483 152.326 26.3633 152.326 27.402C152.326 28.4153 152.123 29.283 151.718 30.005C151.325 30.727 150.806 31.278 150.16 31.658C149.514 32.038 148.811 32.228 148.051 32.228ZM148.051 30.936C148.849 30.936 149.489 30.613 149.97 29.967C150.464 29.3083 150.711 28.4533 150.711 27.402C150.711 26.338 150.464 25.4767 149.97 24.818C149.489 24.1593 148.849 23.83 148.051 23.83C147.266 23.83 146.626 24.1593 146.132 24.818C145.638 25.4767 145.391 26.338 145.391 27.402C145.391 28.4533 145.638 29.3083 146.132 29.967C146.626 30.613 147.266 30.936 148.051 30.936ZM154.177 32V31.164L159.041 24.039H154.709V22.766H161.017V23.602L156.153 30.727H161.169V32H154.177ZM157.198 21.094L155.032 18.434L155.697 17.826L157.939 19.973H158.015L160.257 17.826L160.922 18.434L158.756 21.094H157.198ZM163.718 32V18.472H165.257V27.63H165.314L169.247 22.766H170.976L167.879 26.471L171.394 32H169.684L166.986 27.554L165.257 29.568V32H163.718ZM173.777 35.971C173.574 35.971 173.378 35.952 173.188 35.914C173.011 35.876 172.846 35.8317 172.694 35.781L172.998 34.546C173.099 34.5713 173.213 34.5967 173.34 34.622C173.467 34.66 173.587 34.679 173.701 34.679C174.22 34.679 174.651 34.489 174.993 34.109C175.335 33.7417 175.601 33.273 175.791 32.703L176 32.019L172.295 22.766H173.91L175.791 27.877C175.93 28.2697 176.076 28.694 176.228 29.15C176.393 29.606 176.545 30.0493 176.684 30.48H176.76C176.899 30.062 177.032 29.625 177.159 29.169C177.286 28.713 177.412 28.2823 177.539 27.877L179.192 22.766H180.712L177.235 32.76C177.02 33.368 176.76 33.9127 176.456 34.394C176.165 34.8753 175.797 35.2553 175.354 35.534C174.923 35.8253 174.398 35.971 173.777 35.971Z" fill="black"/>
</svg>
