<svg width="203" height="32" viewBox="0 0 203 32" fill="none" xmlns="http://www.w3.org/2000/svg">
<rect x="5.33472" y="24" width="2.66667" height="2.66669" transform="rotate(-90 5.33472 24)" fill="#126DFF"/>
<rect x="2.66675" y="24" width="2.66667" height="2.66669" transform="rotate(-90 2.66675 24)" fill="#126DFF"/>
<rect x="0.000732422" y="24" width="2.66667" height="2.66669" transform="rotate(-90 0.000732422 24)" fill="#126DFF"/>
<rect x="18.6667" y="24" width="2.66667" height="2.66669" transform="rotate(90 18.6667 24)" fill="#126DFF"/>
<rect x="21.3347" y="24" width="2.66667" height="2.66669" transform="rotate(90 21.3347 24)" fill="#126DFF"/>
<rect x="21.3347" y="21.333" width="2.66667" height="2.66669" transform="rotate(90 21.3347 21.333)" fill="#126DFF"/>
<rect x="23.9998" y="21.333" width="2.66667" height="2.66669" transform="rotate(90 23.9998 21.333)" fill="#126DFF"/>
<rect x="21.3347" y="18.667" width="2.66667" height="2.66669" transform="rotate(90 21.3347 18.667)" fill="#126DFF"/>
<rect x="18.6667" y="18.667" width="2.66667" height="2.66669" transform="rotate(90 18.6667 18.667)" fill="#126DFF"/>
<rect x="5.33472" y="18.667" width="2.66667" height="2.66669" transform="rotate(90 5.33472 18.667)" fill="#126DFF"/>
<rect x="7.99976" y="18.667" width="2.66667" height="2.66669" transform="rotate(90 7.99976 18.667)" fill="#126DFF"/>
<rect x="2.66675" y="2.66699" width="2.66667" height="2.66669" transform="rotate(90 2.66675 2.66699)" fill="#FF0000"/>
<rect x="5.33447" width="2.66667" height="2.66669" transform="rotate(90 5.33447 0)" fill="#FF0000"/>
<rect width="2.66667" height="2.66669" transform="matrix(4.2387e-08 1 1 -4.50771e-08 18.6665 0)" fill="#FF0000"/>
<rect x="8" width="2.66667" height="2.66669" transform="rotate(90 8 0)" fill="#FF0000"/>
<rect width="2.66667" height="2.66669" transform="matrix(4.2387e-08 1 1 -4.50771e-08 16 0)" fill="#FF0000"/>
<rect x="10.6665" width="2.66667" height="2.66669" transform="rotate(90 10.6665 0)" fill="#FF0000"/>
<rect width="2.66667" height="2.66669" transform="matrix(4.2387e-08 1 1 -4.50771e-08 13.3345 0)" fill="#FF0000"/>
<rect x="13.3345" width="2.66667" height="2.66669" transform="rotate(90 13.3345 0)" fill="#FF0000"/>
<rect x="5.33472" y="2.66699" width="2.66667" height="2.66669" transform="rotate(90 5.33472 2.66699)" fill="#FF0000"/>
<rect width="2.66667" height="2.66669" transform="matrix(4.37118e-08 1 1 -4.3711e-08 18.6667 2.66699)" fill="#FF0000"/>
<rect x="7.99976" y="2.66699" width="2.66667" height="2.66669" transform="rotate(90 7.99976 2.66699)" fill="#FF0000"/>
<rect width="2.66667" height="2.66669" transform="matrix(4.37118e-08 1 1 -4.3711e-08 15.9998 2.66699)" fill="#FF0000"/>
<rect x="10.6667" y="2.66699" width="2.66667" height="2.66669" transform="rotate(90 10.6667 2.66699)" fill="#FF0000"/>
<rect width="2.66667" height="2.66669" transform="matrix(4.37118e-08 1 1 -4.3711e-08 13.3347 2.66699)" fill="#FF0000"/>
<rect x="10.6667" y="8" width="2.66667" height="2.66669" transform="rotate(90 10.6667 8)" fill="#FF0000"/>
<rect width="2.66667" height="2.66669" transform="matrix(4.37118e-08 1 1 -4.3711e-08 13.3347 8)" fill="#FF0000"/>
<rect x="10.6667" y="13.334" width="2.66667" height="2.66669" transform="rotate(90 10.6667 13.334)" fill="#FF0000"/>
<rect width="2.66667" height="2.66669" transform="matrix(4.37118e-08 1 1 -4.3711e-08 13.3347 13.334)" fill="#FF0000"/>
<rect x="5.33472" y="5.33301" width="2.66667" height="2.66669" transform="rotate(90 5.33472 5.33301)" fill="#FF0000"/>
<rect width="2.66667" height="2.66669" transform="matrix(4.37118e-08 1 1 -4.3711e-08 18.6667 5.33301)" fill="#FF0000"/>
<rect x="7.99976" y="5.33301" width="2.66667" height="2.66669" transform="rotate(90 7.99976 5.33301)" fill="#FF0000"/>
<rect width="2.66667" height="2.66669" transform="matrix(4.37118e-08 1 1 -4.3711e-08 15.9998 5.33301)" fill="#FF0000"/>
<rect x="5.33472" y="8" width="2.66667" height="2.66669" transform="rotate(90 5.33472 8)" fill="#FF0000"/>
<rect width="2.66667" height="2.66669" transform="matrix(4.37118e-08 1 1 -4.3711e-08 18.6667 8)" fill="#FF0000"/>
<rect x="7.99976" y="8" width="2.66667" height="2.66669" transform="rotate(90 7.99976 8)" fill="#FF0000"/>
<rect width="2.66667" height="2.66669" transform="matrix(4.37118e-08 1 1 -4.3711e-08 15.9998 8)" fill="#FF0000"/>
<rect x="5.33472" y="10.667" width="2.66667" height="2.66669" transform="rotate(90 5.33472 10.667)" fill="#FF0000"/>
<rect width="2.66667" height="2.66669" transform="matrix(4.37118e-08 1 1 -4.3711e-08 18.6667 10.667)" fill="#FF0000"/>
<rect x="5.33472" y="13.334" width="2.66667" height="2.66669" transform="rotate(90 5.33472 13.334)" fill="#FF0000"/>
<rect width="2.66667" height="2.66669" transform="matrix(4.37118e-08 1 1 -4.3711e-08 18.6667 13.334)" fill="#FF0000"/>
<rect x="7.99976" y="13.334" width="2.66667" height="2.66669" transform="rotate(90 7.99976 13.334)" fill="#FF0000"/>
<rect width="2.66667" height="2.66669" transform="matrix(4.37118e-08 1 1 -4.3711e-08 15.9998 13.334)" fill="#FF0000"/>
<rect x="5.33472" y="16" width="2.66667" height="2.66669" transform="rotate(90 5.33472 16)" fill="#FF0000"/>
<rect width="2.66667" height="2.66669" transform="matrix(4.37118e-08 1 1 -4.3711e-08 18.6667 16)" fill="#FF0000"/>
<rect x="7.99976" y="16" width="2.66667" height="2.66669" transform="rotate(90 7.99976 16)" fill="#FF0000"/>
<rect width="2.66667" height="2.66669" transform="matrix(4.37118e-08 1 1 -4.3711e-08 15.9998 16)" fill="#FF0000"/>
<rect x="2.66675" y="5.33301" width="2.66667" height="2.66669" transform="rotate(90 2.66675 5.33301)" fill="#FF0000"/>
<rect x="2.66675" y="8" width="2.66667" height="2.66669" transform="rotate(90 2.66675 8)" fill="#FF0000"/>
<rect x="2.66675" y="10.667" width="2.66667" height="2.66669" transform="rotate(90 2.66675 10.667)" fill="#FF0000"/>
<rect x="2.66675" y="13.334" width="2.66667" height="2.66669" transform="rotate(90 2.66675 13.334)" fill="#FF0000"/>
<rect x="2.66675" y="16" width="2.66667" height="2.66669" transform="rotate(90 2.66675 16)" fill="#FF0000"/>
<rect x="2.66675" y="18.667" width="2.66667" height="2.66669" transform="rotate(90 2.66675 18.667)" fill="#FF0000"/>
<rect x="7.99976" y="24" width="2.66667" height="2.66669" transform="rotate(-90 7.99976 24)" fill="#126DFF"/>
<rect x="15.9998" y="24" width="2.66667" height="2.66669" transform="rotate(90 15.9998 24)" fill="#126DFF"/>
<rect x="13.3347" y="21.333" width="2.66667" height="2.66669" transform="rotate(-90 13.3347 21.333)" fill="#126DFF"/>
<rect x="10.6667" y="26.667" width="2.66667" height="2.66669" transform="rotate(90 10.6667 26.667)" fill="#126DFF"/>
<rect x="7.99976" y="26.667" width="2.66667" height="2.66669" transform="rotate(90 7.99976 26.667)" fill="#126DFF"/>
<rect x="10.6667" y="29.333" width="2.66667" height="2.66669" transform="rotate(90 10.6667 29.333)" fill="#126DFF"/>
<rect x="10.6667" y="18.667" width="2.66667" height="2.66669" transform="rotate(-90 10.6667 18.667)" fill="#126DFF"/>
<rect x="13.3347" y="18.667" width="2.66667" height="2.66669" transform="rotate(-90 13.3347 18.667)" fill="#126DFF"/>
<rect x="7.99976" y="18.667" width="2.66667" height="2.66669" transform="rotate(-90 7.99976 18.667)" fill="#126DFF"/>
<rect x="10.6667" y="16" width="2.66667" height="2.66669" transform="rotate(-90 10.6667 16)" fill="white"/>
<rect x="10.6667" y="13.334" width="2.66667" height="2.66669" transform="rotate(-90 10.6667 13.334)" fill="white"/>
<rect x="10.6667" y="10.667" width="2.66667" height="2.66669" transform="rotate(-90 10.6667 10.667)" fill="white"/>
<rect x="13.3347" y="8" width="2.66667" height="2.66669" transform="rotate(-90 13.3347 8)" fill="white"/>
<rect x="13.3347" y="13.334" width="2.66667" height="2.66669" transform="rotate(-90 13.3347 13.334)" fill="white"/>
<rect x="15.9998" y="13.334" width="2.66667" height="2.66669" transform="rotate(-90 15.9998 13.334)" fill="white"/>
<rect x="5.33472" y="13.334" width="2.66667" height="2.66669" transform="rotate(-90 5.33472 13.334)" fill="white"/>
<rect x="7.99976" y="8" width="2.66667" height="2.66669" transform="rotate(-90 7.99976 8)" fill="white"/>
<rect x="7.99976" y="13.334" width="2.66667" height="2.66669" transform="rotate(-90 7.99976 13.334)" fill="white"/>
<rect x="10.6667" y="8" width="2.66667" height="2.66669" transform="rotate(-90 10.6667 8)" fill="white"/>
<rect x="10.6667" y="5.33301" width="2.66667" height="2.66669" transform="rotate(-90 10.6667 5.33301)" fill="white"/>
<rect x="13.3347" y="29.333" width="2.66667" height="2.66669" transform="rotate(90 13.3347 29.333)" fill="#126DFF"/>
<rect x="7.99976" y="21.333" width="2.66667" height="2.66669" transform="rotate(-90 7.99976 21.333)" fill="#126DFF"/>
<rect x="15.9998" y="26.667" width="2.66667" height="2.66669" transform="rotate(90 15.9998 26.667)" fill="#126DFF"/>
<rect x="18.6667" y="26.667" width="2.66667" height="2.66669" transform="rotate(90 18.6667 26.667)" fill="#126DFF"/>
<rect x="15.9998" y="29.333" width="2.66667" height="2.66669" transform="rotate(90 15.9998 29.333)" fill="#126DFF"/>
<rect x="15.9998" y="24" width="2.66667" height="2.66669" transform="rotate(-90 15.9998 24)" fill="#126DFF"/>
<rect x="7.99976" y="24" width="2.66667" height="2.66669" transform="rotate(90 7.99976 24)" fill="#126DFF"/>
<rect x="5.33472" y="24" width="2.66667" height="2.66669" transform="rotate(90 5.33472 24)" fill="#126DFF"/>
<rect x="13.3347" y="24" width="2.66667" height="2.66669" transform="rotate(-90 13.3347 24)" fill="#126DFF"/>
<rect x="10.6667" y="24" width="2.66667" height="2.66669" transform="rotate(90 10.6667 24)" fill="#126DFF"/>
<rect x="10.6667" y="24" width="2.66667" height="2.66669" transform="rotate(-90 10.6667 24)" fill="#126DFF"/>
<rect x="13.3347" y="24" width="2.66667" height="2.66669" transform="rotate(90 13.3347 24)" fill="#126DFF"/>
<rect x="10.6667" y="21.333" width="2.66667" height="2.66669" transform="rotate(-90 10.6667 21.333)" fill="#126DFF"/>
<rect x="13.3347" y="26.667" width="2.66667" height="2.66669" transform="rotate(90 13.3347 26.667)" fill="#126DFF"/>
<rect x="23.9998" y="2.66699" width="2.66667" height="2.66669" transform="rotate(90 23.9998 2.66699)" fill="#FF0000"/>
<rect x="23.9998" y="5.33301" width="2.66667" height="2.66669" transform="rotate(90 23.9998 5.33301)" fill="#FF0000"/>
<rect x="23.9998" y="8" width="2.66667" height="2.66669" transform="rotate(90 23.9998 8)" fill="#FF0000"/>
<rect x="23.9998" y="10.667" width="2.66667" height="2.66669" transform="rotate(90 23.9998 10.667)" fill="#FF0000"/>
<rect x="23.9998" y="13.334" width="2.66667" height="2.66669" transform="rotate(90 23.9998 13.334)" fill="#FF0000"/>
<rect x="23.9998" y="16" width="2.66667" height="2.66669" transform="rotate(90 23.9998 16)" fill="#FF0000"/>
<rect x="23.9998" y="18.667" width="2.66667" height="2.66669" transform="rotate(90 23.9998 18.667)" fill="#FF0000"/>
<path d="M35.2318 22V11.568H38.1758C39.2424 11.568 40.1651 11.7493 40.9438 12.112C41.7224 12.4747 42.3251 13.04 42.7518 13.808C43.1891 14.5653 43.4078 15.5413 43.4078 16.736C43.4078 17.9307 43.1944 18.9173 42.7678 19.696C42.3411 20.4747 41.7438 21.056 40.9758 21.44C40.2184 21.8133 39.3278 22 38.3038 22H35.2318ZM37.5838 20.096H38.0318C38.6291 20.096 39.1464 19.9893 39.5838 19.776C40.0318 19.5627 40.3784 19.2107 40.6238 18.72C40.8691 18.2293 40.9918 17.568 40.9918 16.736C40.9918 15.904 40.8691 15.2533 40.6238 14.784C40.3784 14.304 40.0318 13.968 39.5838 13.776C39.1464 13.5733 38.6291 13.472 38.0318 13.472H37.5838V20.096ZM45.696 22V14.064H48.048V22H45.696ZM46.864 12.896C46.4693 12.896 46.1493 12.784 45.904 12.56C45.6587 12.336 45.536 12.0373 45.536 11.664C45.536 11.2907 45.6587 10.992 45.904 10.768C46.1493 10.544 46.4693 10.432 46.864 10.432C47.2587 10.432 47.5787 10.544 47.824 10.768C48.0693 10.992 48.192 11.2907 48.192 11.664C48.192 12.0373 48.0693 12.336 47.824 12.56C47.5787 12.784 47.2587 12.896 46.864 12.896ZM50.1859 22V20.736L53.5139 15.904H50.5539V14.064H56.4419V15.312L53.1139 20.16H56.5539V22H50.1859ZM60.2585 22.192C59.5332 22.192 58.9572 21.9627 58.5305 21.504C58.1038 21.0347 57.8905 20.464 57.8905 19.792C57.8905 18.96 58.2425 18.3093 58.9465 17.84C59.6505 17.3707 60.7865 17.056 62.3545 16.896C62.3332 16.544 62.2265 16.2667 62.0345 16.064C61.8532 15.8507 61.5438 15.744 61.1065 15.744C60.7758 15.744 60.4398 15.808 60.0985 15.936C59.7572 16.064 59.3945 16.24 59.0105 16.464L58.1625 14.912C58.6638 14.6027 59.1972 14.352 59.7625 14.16C60.3385 13.968 60.9358 13.872 61.5545 13.872C62.5678 13.872 63.3465 14.1653 63.8905 14.752C64.4345 15.3387 64.7065 16.24 64.7065 17.456V22H62.7865L62.6265 21.184H62.5625C62.2318 21.4827 61.8745 21.728 61.4905 21.92C61.1172 22.1013 60.7065 22.192 60.2585 22.192ZM61.0585 20.368C61.3252 20.368 61.5545 20.3093 61.7465 20.192C61.9492 20.064 62.1518 19.8987 62.3545 19.696V18.304C61.5225 18.4107 60.9465 18.5813 60.6265 18.816C60.3065 19.04 60.1465 19.3067 60.1465 19.616C60.1465 19.872 60.2265 20.064 60.3865 20.192C60.5572 20.3093 60.7812 20.368 61.0585 20.368ZM66.732 25.136C66.4013 25.136 66.1293 25.1147 65.916 25.072C65.692 25.0293 65.5 24.976 65.34 24.912L65.756 23.184C65.8627 23.216 65.9693 23.2427 66.076 23.264C66.172 23.2853 66.2733 23.296 66.38 23.296C66.6893 23.296 66.9027 23.1893 67.02 22.976C67.148 22.7733 67.212 22.4533 67.212 22.016V14.064H69.564V21.952C69.564 22.528 69.4787 23.056 69.308 23.536C69.1373 24.016 68.844 24.4 68.428 24.688C68.0227 24.9867 67.4573 25.136 66.732 25.136ZM68.396 12.896C68.0013 12.896 67.6813 12.784 67.436 12.56C67.1907 12.336 67.068 12.0373 67.068 11.664C67.068 11.2907 67.1907 10.992 67.436 10.768C67.6813 10.544 68.0013 10.432 68.396 10.432C68.7907 10.432 69.1107 10.544 69.356 10.768C69.6013 10.992 69.724 11.2907 69.724 11.664C69.724 12.0373 69.6013 12.336 69.356 12.56C69.1107 12.784 68.7907 12.896 68.396 12.896ZM72.1491 22V14.064H74.0691L74.2291 15.072H74.2931C74.6345 14.752 75.0078 14.4747 75.4131 14.24C75.8291 13.9947 76.3038 13.872 76.8371 13.872C77.7011 13.872 78.3251 14.16 78.7091 14.736C79.1038 15.3013 79.3011 16.08 79.3011 17.072V22H76.9491V17.376C76.9491 16.8 76.8691 16.4053 76.7091 16.192C76.5598 15.9787 76.3145 15.872 75.9731 15.872C75.6745 15.872 75.4185 15.9413 75.2051 16.08C74.9918 16.208 74.7571 16.3947 74.5011 16.64V22H72.1491ZM87.8445 22.192C87.3218 22.192 86.7832 22.0907 86.2285 21.888C85.6845 21.6853 85.2098 21.4187 84.8045 21.088L85.8605 19.616C86.2232 19.8827 86.5698 20.0907 86.9005 20.24C87.2418 20.3787 87.5778 20.448 87.9085 20.448C88.2605 20.448 88.5165 20.3893 88.6765 20.272C88.8365 20.144 88.9165 19.9787 88.9165 19.776C88.9165 19.5947 88.8365 19.4453 88.6765 19.328C88.5272 19.2107 88.3298 19.104 88.0845 19.008C87.8392 18.9013 87.5778 18.7947 87.3005 18.688C86.9805 18.56 86.6605 18.4 86.3405 18.208C86.0312 18.016 85.7698 17.7707 85.5565 17.472C85.3432 17.1627 85.2365 16.7893 85.2365 16.352C85.2365 15.616 85.5138 15.0187 86.0685 14.56C86.6338 14.1013 87.3698 13.872 88.2765 13.872C88.8845 13.872 89.4178 13.9787 89.8765 14.192C90.3458 14.3947 90.7458 14.624 91.0765 14.88L90.0205 16.288C89.7432 16.0747 89.4658 15.9093 89.1885 15.792C88.9112 15.6747 88.6338 15.616 88.3565 15.616C87.7485 15.616 87.4445 15.824 87.4445 16.24C87.4445 16.496 87.5938 16.6933 87.8925 16.832C88.2018 16.96 88.5592 17.0987 88.9645 17.248C89.3058 17.3653 89.6365 17.52 89.9565 17.712C90.2872 17.8933 90.5592 18.1387 90.7725 18.448C90.9965 18.7467 91.1085 19.1413 91.1085 19.632C91.1085 20.3467 90.8312 20.9547 90.2765 21.456C89.7218 21.9467 88.9112 22.192 87.8445 22.192ZM93.9823 25.104C93.7476 25.104 93.5396 25.088 93.3583 25.056C93.1876 25.024 93.0223 24.9867 92.8623 24.944L93.2783 23.152C93.3529 23.1627 93.4383 23.1787 93.5343 23.2C93.6303 23.232 93.7209 23.248 93.8063 23.248C94.2009 23.248 94.5049 23.152 94.7183 22.96C94.9316 22.768 95.0916 22.5173 95.1983 22.208L95.3103 21.792L92.2543 14.064H94.6223L95.7583 17.472C95.8756 17.8347 95.9823 18.2027 96.0783 18.576C96.1743 18.9493 96.2756 19.3333 96.3823 19.728H96.4463C96.5316 19.3547 96.6169 18.9813 96.7023 18.608C96.7983 18.224 96.8943 17.8453 96.9903 17.472L97.9503 14.064H100.206L97.4543 22.08C97.2089 22.7413 96.9369 23.296 96.6383 23.744C96.3396 24.2027 95.9769 24.544 95.5503 24.768C95.1343 24.992 94.6116 25.104 93.9823 25.104ZM104.282 22.192C103.759 22.192 103.221 22.0907 102.666 21.888C102.122 21.6853 101.647 21.4187 101.242 21.088L102.298 19.616C102.661 19.8827 103.007 20.0907 103.338 20.24C103.679 20.3787 104.015 20.448 104.346 20.448C104.698 20.448 104.954 20.3893 105.114 20.272C105.274 20.144 105.354 19.9787 105.354 19.776C105.354 19.5947 105.274 19.4453 105.114 19.328C104.965 19.2107 104.767 19.104 104.522 19.008C104.277 18.9013 104.015 18.7947 103.738 18.688C103.418 18.56 103.098 18.4 102.778 18.208C102.469 18.016 102.207 17.7707 101.994 17.472C101.781 17.1627 101.674 16.7893 101.674 16.352C101.674 15.616 101.951 15.0187 102.506 14.56C103.071 14.1013 103.807 13.872 104.714 13.872C105.322 13.872 105.855 13.9787 106.314 14.192C106.783 14.3947 107.183 14.624 107.514 14.88L106.458 16.288C106.181 16.0747 105.903 15.9093 105.626 15.792C105.349 15.6747 105.071 15.616 104.794 15.616C104.186 15.616 103.882 15.824 103.882 16.24C103.882 16.496 104.031 16.6933 104.33 16.832C104.639 16.96 104.997 17.0987 105.402 17.248C105.743 17.3653 106.074 17.52 106.394 17.712C106.725 17.8933 106.997 18.1387 107.21 18.448C107.434 18.7467 107.546 19.1413 107.546 19.632C107.546 20.3467 107.269 20.9547 106.714 21.456C106.159 21.9467 105.349 22.192 104.282 22.192ZM112.283 22.192C111.302 22.192 110.598 21.9093 110.171 21.344C109.755 20.7787 109.547 20.0373 109.547 19.12V15.904H108.459V14.16L109.675 14.064L109.947 11.952H111.899V14.064H113.803V15.904H111.899V19.088C111.899 19.536 111.99 19.8613 112.171 20.064C112.363 20.256 112.614 20.352 112.923 20.352C113.051 20.352 113.179 20.336 113.307 20.304C113.446 20.272 113.569 20.2347 113.675 20.192L114.043 21.904C113.841 21.968 113.59 22.032 113.291 22.096C113.003 22.16 112.667 22.192 112.283 22.192ZM119.123 22.192C118.366 22.192 117.683 22.0267 117.075 21.696C116.467 21.3653 115.987 20.8907 115.635 20.272C115.283 19.6533 115.107 18.9067 115.107 18.032C115.107 17.168 115.283 16.4267 115.635 15.808C115.998 15.1893 116.467 14.7147 117.043 14.384C117.619 14.0427 118.222 13.872 118.851 13.872C119.608 13.872 120.232 14.0427 120.723 14.384C121.224 14.7147 121.598 15.168 121.843 15.744C122.099 16.3093 122.227 16.9547 122.227 17.68C122.227 17.8827 122.216 18.0853 122.195 18.288C122.174 18.48 122.152 18.624 122.131 18.72H117.379C117.486 19.296 117.726 19.7227 118.099 20C118.472 20.2667 118.92 20.4 119.443 20.4C120.008 20.4 120.579 20.224 121.155 19.872L121.939 21.296C121.534 21.5733 121.08 21.792 120.579 21.952C120.078 22.112 119.592 22.192 119.123 22.192ZM117.363 17.168H120.227C120.227 16.7307 120.12 16.3733 119.907 16.096C119.704 15.808 119.368 15.664 118.899 15.664C118.536 15.664 118.211 15.792 117.923 16.048C117.635 16.2933 117.448 16.6667 117.363 17.168ZM118.979 12.848L117.827 11.696L120.291 8.784L121.875 10.336L118.979 12.848ZM124.352 22V14.064H126.272L126.432 15.088H126.496C126.827 14.7573 127.179 14.4747 127.552 14.24C127.926 13.9947 128.374 13.872 128.896 13.872C129.462 13.872 129.915 13.9893 130.256 14.224C130.608 14.448 130.886 14.7733 131.088 15.2C131.44 14.8373 131.814 14.528 132.208 14.272C132.603 14.0053 133.062 13.872 133.584 13.872C134.438 13.872 135.062 14.16 135.456 14.736C135.862 15.3013 136.064 16.08 136.064 17.072V22H133.712V17.376C133.712 16.8 133.632 16.4053 133.472 16.192C133.323 15.9787 133.078 15.872 132.736 15.872C132.342 15.872 131.888 16.128 131.376 16.64V22H129.024V17.376C129.024 16.8 128.944 16.4053 128.784 16.192C128.635 15.9787 128.39 15.872 128.048 15.872C127.654 15.872 127.206 16.128 126.704 16.64V22H124.352ZM142.466 22V11.568H144.818V22H142.466ZM147.779 22V11.568H150.723C151.789 11.568 152.712 11.7493 153.491 12.112C154.269 12.4747 154.872 13.04 155.299 13.808C155.736 14.5653 155.955 15.5413 155.955 16.736C155.955 17.9307 155.741 18.9173 155.315 19.696C154.888 20.4747 154.291 21.056 153.523 21.44C152.765 21.8133 151.875 22 150.851 22H147.779ZM150.131 20.096H150.579C151.176 20.096 151.693 19.9893 152.131 19.776C152.579 19.5627 152.925 19.2107 153.171 18.72C153.416 18.2293 153.539 17.568 153.539 16.736C153.539 15.904 153.416 15.2533 153.171 14.784C152.925 14.304 152.579 13.968 152.131 13.776C151.693 13.5733 151.176 13.472 150.579 13.472H150.131V20.096ZM157.891 18.784V17.12H161.827V18.784H157.891ZM167.01 22.192C166.327 22.192 165.644 22.064 164.962 21.808C164.29 21.552 163.687 21.1787 163.154 20.688L164.498 19.072C164.871 19.392 165.287 19.6533 165.746 19.856C166.204 20.0587 166.647 20.16 167.074 20.16C167.564 20.16 167.927 20.0693 168.162 19.888C168.407 19.7067 168.53 19.4613 168.53 19.152C168.53 18.8213 168.391 18.5813 168.114 18.432C167.847 18.272 167.484 18.096 167.026 17.904L165.666 17.328C165.314 17.1787 164.978 16.9813 164.658 16.736C164.338 16.48 164.076 16.1653 163.874 15.792C163.671 15.4187 163.57 14.9813 163.57 14.48C163.57 13.904 163.724 13.3813 164.034 12.912C164.354 12.4427 164.791 12.0693 165.346 11.792C165.911 11.5147 166.556 11.376 167.282 11.376C167.879 11.376 168.476 11.4933 169.074 11.728C169.671 11.9627 170.194 12.304 170.642 12.752L169.442 14.24C169.1 13.9733 168.759 13.7707 168.418 13.632C168.076 13.4827 167.698 13.408 167.282 13.408C166.876 13.408 166.551 13.4933 166.306 13.664C166.071 13.824 165.954 14.0533 165.954 14.352C165.954 14.672 166.103 14.912 166.402 15.072C166.711 15.232 167.09 15.4027 167.538 15.584L168.882 16.128C169.511 16.384 170.012 16.736 170.386 17.184C170.759 17.632 170.946 18.224 170.946 18.96C170.946 19.536 170.791 20.0693 170.482 20.56C170.172 21.0507 169.724 21.4453 169.138 21.744C168.551 22.0427 167.842 22.192 167.01 22.192ZM173.216 22V11.568H175.568V15.84H175.632L178.736 11.568H181.328L178.176 15.728L181.904 22H179.328L176.784 17.6L175.568 19.2V22H173.216Z" fill="#0B4199"/>
</svg>
