<svg width="40" height="40" viewBox="0 0 40 40" fill="none" xmlns="http://www.w3.org/2000/svg">
<path d="M0 27.767L19.8844 16.1165L40 27.767L19.8844 39.4175L0 27.767Z" fill="#126DFF"/>
<path d="M19.9224 23.8833L13.2815 19.9998V27.7668L19.9224 31.6503V23.8833Z" fill="#0454D3"/>
<path d="M13.2816 20L19.9225 16.1165L26.6407 20L19.9225 23.8835L13.2816 20Z" fill="#817F7F"/>
<path d="M26.6405 27.7668V19.9998L19.9224 23.8833V31.6503L26.6405 27.7668Z" fill="#0B4199"/>
<path d="M33.2049 23.8833L26.564 19.9998V27.7668L33.2049 31.6503V23.8833Z" fill="#C3112B"/>
<path d="M26.5638 20L33.2048 16.1165L39.9229 20L33.2048 23.8835L26.5638 20Z" fill="#817F7F"/>
<path d="M39.9229 27.7668V19.9998L33.2047 23.8833V31.6503L39.9229 27.7668Z" fill="#990319"/>
<path d="M26.5635 27.7675L19.9226 23.884V31.651L26.5635 35.5345V27.7675Z" fill="#C3112B"/>
<path d="M19.9226 23.884L26.5635 20.0005L33.2817 23.884L26.5635 27.7675L19.9226 23.884Z" fill="#E51533"/>
<path d="M33.282 31.651V23.884L26.5638 27.7675V35.5345L33.282 31.651Z" fill="#990319"/>
<path d="M6.64093 23.8833L0 19.9998V27.7668L6.64093 31.6503V23.8833Z" fill="#E2E2E2"/>
<path d="M0 20L6.64093 16.1165L13.3591 20L6.64093 23.8835L0 20Z" fill="#817F7F"/>
<path d="M13.3591 27.7668V19.9998L6.64099 23.8833V31.6503L13.3591 27.7668Z" fill="#AAAAAA"/>
<path d="M13.2818 27.7675L6.64087 23.884V31.651L13.2818 35.5345V27.7675Z" fill="#0454D3"/>
<path d="M6.64087 23.884L13.2818 20.0005L20 23.884L13.2818 27.7675L6.64087 23.884Z" fill="#126DFF"/>
<path d="M19.9999 31.651V23.884L13.2817 27.7675V35.5345L19.9999 31.651Z" fill="#0B4199"/>
<path d="M19.9224 31.6507L13.2815 27.7672V35.5342L19.9224 39.4177V31.6507Z" fill="#C3112B"/>
<path d="M13.2816 27.767L19.9225 23.8835L26.6407 27.767L19.9225 31.6505L13.2816 27.767Z" fill="#E51533"/>
<path d="M26.6405 35.5342V27.7672L19.9224 31.6507V39.4177L26.6405 35.5342Z" fill="#990319"/>
<path d="M19.9224 16.1169L13.2815 12.2334V20.0004L19.9224 23.8839V16.1169Z" fill="#0454D3"/>
<path d="M13.2815 12.2334L19.9224 8.34991L26.6406 12.2334L19.9224 16.1169L13.2815 12.2334Z" fill="#817F7F"/>
<path d="M26.6405 20.0004V12.2334L19.9224 16.1169V23.8839L26.6405 20.0004Z" fill="#0B4199"/>
<path d="M33.2049 16.1169L26.564 12.2334V20.0004L33.2049 23.8839V16.1169Z" fill="#C3112B"/>
<path d="M26.564 12.2334L33.2049 8.34991L39.923 12.2334L33.2049 16.1169L26.564 12.2334Z" fill="#E61533"/>
<path d="M39.923 20.0004V12.2334L33.2048 16.1169V23.8839L39.923 20.0004Z" fill="#990319"/>
<path d="M6.64093 16.1169L0 12.2334V20.0004L6.64093 23.8839V16.1169Z" fill="#E2E2E2"/>
<path d="M0 12.2334L6.64093 8.34991L13.3591 12.2334L6.64093 16.1169L0 12.2334Z" fill="#F2F2F2"/>
<path d="M13.3591 20.0004V12.2334L6.64099 16.1169V23.8839L13.3591 20.0004Z" fill="#AAAAAA"/>
<path d="M19.9224 8.3495L13.2815 4.466V12.233L19.9224 16.1165V8.3495Z" fill="#0454D3"/>
<path d="M13.2816 4.46602L19.9225 0.58252L26.6407 4.46602L19.9225 8.34951L13.2816 4.46602Z" fill="#126DFF"/>
<path d="M26.6405 12.233V4.466L19.9224 8.3495V16.1165L26.6405 12.233Z" fill="#0B4199"/>
</svg>
