<svg width="320" height="196" viewBox="0 0 320 196" fill="none" xmlns="http://www.w3.org/2000/svg">
<g clip-path="url(#clip0_1724_47870)">
<rect width="320" height="196" fill="#EEEEEE"/>
<line x1="284" y1="3.57643e-08" x2="284" y2="232" stroke="#0B4199" stroke-width="2" stroke-dasharray="10 10"/>
<line x1="152" y1="4.37119e-08" x2="152" y2="232" stroke="#C3112B" stroke-width="2" stroke-dasharray="10 10"/>
<line x1="320" y1="127" x2="-9.86054e-08" y2="127" stroke="#0B4199" stroke-width="2" stroke-dasharray="10 10"/>
<line x1="320" y1="41" x2="-8.74232e-08" y2="41" stroke="#C3112B" stroke-width="2" stroke-dasharray="10 10"/>
<g filter="url(#filter0_d_1724_47870)">
<path d="M154 161L179 175.434L179 146.566L154 161ZM283 161L258 146.566L258 175.434L283 161ZM176.5 163.5L260.5 163.5L260.5 158.5L176.5 158.5L176.5 163.5Z" fill="#126DFF"/>
</g>
<g filter="url(#filter1_d_1724_47870)">
<path d="M69 41L54.5662 66H83.4338L69 41ZM69 126L83.4338 101H54.5662L69 126ZM66.5 63.5V103.5H71.5V63.5H66.5Z" fill="#126DFF"/>
</g>
</g>
<defs>
<filter id="filter0_d_1724_47870" x="146" y="142.566" width="145" height="44.8672" filterUnits="userSpaceOnUse" color-interpolation-filters="sRGB">
<feFlood flood-opacity="0" result="BackgroundImageFix"/>
<feColorMatrix in="SourceAlpha" type="matrix" values="0 0 0 0 0 0 0 0 0 0 0 0 0 0 0 0 0 0 127 0" result="hardAlpha"/>
<feOffset dy="4"/>
<feGaussianBlur stdDeviation="4"/>
<feColorMatrix type="matrix" values="0 0 0 0 0.101961 0 0 0 0 0.101961 0 0 0 0 0.101961 0 0 0 0.2 0"/>
<feBlend mode="normal" in2="BackgroundImageFix" result="effect1_dropShadow_1724_47870"/>
<feBlend mode="normal" in="SourceGraphic" in2="effect1_dropShadow_1724_47870" result="shape"/>
</filter>
<filter id="filter1_d_1724_47870" x="46.5662" y="37" width="44.8677" height="101" filterUnits="userSpaceOnUse" color-interpolation-filters="sRGB">
<feFlood flood-opacity="0" result="BackgroundImageFix"/>
<feColorMatrix in="SourceAlpha" type="matrix" values="0 0 0 0 0 0 0 0 0 0 0 0 0 0 0 0 0 0 127 0" result="hardAlpha"/>
<feOffset dy="4"/>
<feGaussianBlur stdDeviation="4"/>
<feColorMatrix type="matrix" values="0 0 0 0 0.101961 0 0 0 0 0.101961 0 0 0 0 0.101961 0 0 0 0.2 0"/>
<feBlend mode="normal" in2="BackgroundImageFix" result="effect1_dropShadow_1724_47870"/>
<feBlend mode="normal" in="SourceGraphic" in2="effect1_dropShadow_1724_47870" result="shape"/>
</filter>
<clipPath id="clip0_1724_47870">
<rect width="320" height="196" fill="white"/>
</clipPath>
</defs>
</svg>
