<svg width="320" height="196" viewBox="0 0 320 196" fill="none" xmlns="http://www.w3.org/2000/svg">
<g clip-path="url(#clip0_1724_47826)">
<rect width="320" height="196" fill="#EEEEEE"/>
<path d="M158 215.5L94.5 123.5H226L345 197.5L158 215.5Z" fill="url(#paint0_linear_1724_47826)"/>
<path d="M93.481 123.412L159.616 84.6621L226.521 123.412L159.616 162.161L93.481 123.412Z" fill="#126DFF"/>
<path d="M159.743 110.494L137.656 97.5771V123.41L159.743 136.327V110.494Z" fill="#0454D3"/>
<path d="M137.656 97.5796L159.743 84.6631L182.088 97.5796L159.743 110.496L137.656 97.5796Z" fill="#817F7F"/>
<path d="M182.087 123.41V97.5771L159.742 110.494V136.327L182.087 123.41Z" fill="#0B4199"/>
<path d="M203.914 110.494L181.827 97.5771V123.41L203.914 136.327V110.494Z" fill="#C3112B"/>
<path d="M181.827 97.5796L203.914 84.6631L226.259 97.5796L203.914 110.496L181.827 97.5796Z" fill="#817F7F"/>
<path d="M226.258 123.41V97.5771L203.913 110.494V136.327L226.258 123.41Z" fill="#990319"/>
<path d="M181.831 123.413L159.743 110.496V136.329L181.831 149.246V123.413Z" fill="#C3112B"/>
<path d="M159.743 110.499L181.831 97.582L204.175 110.499L181.831 123.415L159.743 110.499Z" fill="#E51533"/>
<path d="M204.174 136.329V110.496L181.83 123.413V149.246L204.174 136.329Z" fill="#990319"/>
<path d="M115.568 110.494L93.4805 97.5771V123.41L115.568 136.327V110.494Z" fill="#E2E2E2"/>
<path d="M93.4805 97.5796L115.568 84.6631L137.913 97.5796L115.568 110.496L93.4805 97.5796Z" fill="#817F7F"/>
<path d="M137.912 123.41V97.5771L115.567 110.494V136.327L137.912 123.41Z" fill="#AAAAAA"/>
<path d="M137.656 123.413L115.568 110.496V136.329L137.656 149.246V123.413Z" fill="#0454D3"/>
<path d="M115.568 110.499L137.656 97.582L160 110.499L137.656 123.415L115.568 110.499Z" fill="#126DFF"/>
<path d="M159.999 136.329V110.496L137.655 123.413V149.246L159.999 136.329Z" fill="#0B4199"/>
<path d="M159.743 136.328L137.656 123.411V149.244L159.743 162.161V136.328Z" fill="#C3112B"/>
<path d="M137.656 123.414L159.743 110.497L182.088 123.414L159.743 136.33L137.656 123.414Z" fill="#E51533"/>
<path d="M182.087 149.244V123.411L159.742 136.328V162.161L182.087 149.244Z" fill="#990319"/>
<path d="M159.743 84.6646L137.656 71.748V97.5811L159.743 110.498V84.6646Z" fill="#0454D3"/>
<path d="M137.656 71.7505L159.743 58.834L182.088 71.7505L159.743 84.667L137.656 71.7505Z" fill="#817F7F"/>
<path d="M182.087 97.5811V71.748L159.742 84.6646V110.498L182.087 97.5811Z" fill="#0B4199"/>
<path d="M203.914 84.6646L181.827 71.748V97.5811L203.914 110.498V84.6646Z" fill="#C3112B"/>
<path d="M181.827 71.7505L203.914 58.834L226.259 71.7505L203.914 84.667L181.827 71.7505Z" fill="#E61533"/>
<path d="M226.258 97.5811V71.748L203.913 84.6646V110.498L226.258 97.5811Z" fill="#990319"/>
<path d="M115.568 84.6646L93.4805 71.748V97.5811L115.568 110.498V84.6646Z" fill="#E2E2E2"/>
<path d="M93.4805 71.7505L115.568 58.834L137.913 71.7505L115.568 84.667L93.4805 71.7505Z" fill="#F2F2F2"/>
<path d="M137.912 97.5811V71.748L115.567 84.6646V110.498L137.912 97.5811Z" fill="#AAAAAA"/>
<path d="M159.743 58.8306L137.656 45.9141V71.7471L159.743 84.6636V58.8306Z" fill="#0454D3"/>
<path d="M137.656 45.9165L159.743 33L182.088 45.9165L159.743 58.833L137.656 45.9165Z" fill="#126DFF"/>
<path d="M182.087 71.7471V45.9141L159.742 58.8306V84.6636L182.087 71.7471Z" fill="#0B4199"/>
</g>
<defs>
<linearGradient id="paint0_linear_1724_47826" x1="207.5" y1="103" x2="234.5" y2="218" gradientUnits="userSpaceOnUse">
<stop stop-color="#221D1D"/>
<stop offset="1" stop-color="#EEEEEE"/>
</linearGradient>
<clipPath id="clip0_1724_47826">
<rect width="320" height="196" fill="white"/>
</clipPath>
</defs>
</svg>
