<svg width="320" height="196" viewBox="0 0 320 196" fill="none" xmlns="http://www.w3.org/2000/svg">
<g clip-path="url(#clip0_1724_47980)">
<rect width="320" height="196" fill="#EEEEEE"/>
<g filter="url(#filter0_d_1724_47980)">
<path d="M34 45C34 42.2386 36.2386 40 39 40H280C282.761 40 285 42.2386 285 45V208H34V45Z" fill="white"/>
</g>
<rect x="11" y="104" width="69" height="32.0561" rx="16.028" stroke="#0B4199" stroke-width="2"/>
<circle cx="64.5964" cy="120.028" r="11.8972" fill="#C3112B"/>
<rect x="248" y="161" width="55" height="19" fill="#C3112B"/>
<rect x="91" y="162" width="212" height="19" stroke="#0B4199" stroke-width="2"/>
<path d="M34 44C34 41.2386 36.2386 39 39 39H280C282.761 39 285 41.2386 285 44V84H34V44Z" fill="#126DFF"/>
<path d="M234 51H267" stroke="white" stroke-width="2" stroke-linecap="round"/>
<path d="M234 61H267" stroke="white" stroke-width="2" stroke-linecap="round"/>
<path d="M234 71H267" stroke="white" stroke-width="2" stroke-linecap="round"/>
<rect x="105" y="107" width="162" height="8" rx="4" fill="#C3D9F9"/>
<rect x="151" y="127" width="116" height="8" rx="4" fill="#C3D9F9"/>
<rect x="56" y="60" width="43" height="4" rx="2" fill="white"/>
<rect x="117" y="60" width="43" height="4" rx="2" fill="white"/>
</g>
<defs>
<filter id="filter0_d_1724_47980" x="26" y="36" width="267" height="184" filterUnits="userSpaceOnUse" color-interpolation-filters="sRGB">
<feFlood flood-opacity="0" result="BackgroundImageFix"/>
<feColorMatrix in="SourceAlpha" type="matrix" values="0 0 0 0 0 0 0 0 0 0 0 0 0 0 0 0 0 0 127 0" result="hardAlpha"/>
<feOffset dy="4"/>
<feGaussianBlur stdDeviation="4"/>
<feColorMatrix type="matrix" values="0 0 0 0 0.101961 0 0 0 0 0.101961 0 0 0 0 0.101961 0 0 0 0.2 0"/>
<feBlend mode="normal" in2="BackgroundImageFix" result="effect1_dropShadow_1724_47980"/>
<feBlend mode="normal" in="SourceGraphic" in2="effect1_dropShadow_1724_47980" result="shape"/>
</filter>
<clipPath id="clip0_1724_47980">
<rect width="320" height="196" fill="white"/>
</clipPath>
</defs>
</svg>
