<svg width="320" height="196" viewBox="0 0 320 196" fill="none" xmlns="http://www.w3.org/2000/svg">
<g clip-path="url(#clip0_1724_48120)">
<rect width="320" height="196" fill="#EEEEEE"/>
<g filter="url(#filter0_d_1724_48120)">
<rect width="153.061" height="216.369" transform="translate(96.9385 31.5586) rotate(4.79106)" fill="#0B4199"/>
</g>
<path d="M80.6455 245.76L77.4986 236.672L242.016 40.1866L246.692 46.4622L228.503 257.447L80.6455 245.76Z" fill="#EFF5FE"/>
<g filter="url(#filter1_d_1724_48120)">
<rect width="153.061" height="216.369" transform="translate(89.9756 20.96) rotate(4.79106)" fill="#0B4199"/>
<circle cx="156.257" cy="140.762" r="47" transform="rotate(4.79106 156.257 140.762)" fill="white"/>
<path d="M118.686 152.247L156.603 134.1L191.391 158.34L153.053 176.452L118.686 152.247Z" fill="#126DFF"/>
<path d="M155.487 148.223L144.008 140.152L142.825 154.27L154.304 162.34L155.487 148.223Z" fill="#0454D3"/>
<path d="M144.008 140.153L156.671 134.106L168.29 142.189L155.487 148.224L144.008 140.153Z" fill="#817F7F"/>
<path d="M167.106 156.305L168.29 142.188L155.487 148.223L154.304 162.34L167.106 156.305Z" fill="#0B4199"/>
<path d="M179.63 150.246L168.151 142.176L166.968 156.293L178.447 164.364L179.63 150.246Z" fill="#C3112B"/>
<path d="M168.151 142.177L180.813 136.13L192.433 144.212L179.63 150.247L168.151 142.177Z" fill="#817F7F"/>
<path d="M191.249 158.328L192.433 144.211L179.63 150.246L178.447 164.364L191.249 158.328Z" fill="#990319"/>
<path d="M166.965 156.295L155.486 148.225L154.303 162.342L165.782 170.413L166.965 156.295Z" fill="#C3112B"/>
<path d="M155.486 148.226L168.148 142.179L179.768 150.261L166.965 156.296L155.486 148.226Z" fill="#E51533"/>
<path d="M178.584 164.377L179.767 150.26L166.965 156.295L165.782 170.413L178.584 164.377Z" fill="#990319"/>
<path d="M131.349 146.199L119.87 138.129L118.686 152.246L130.165 160.317L131.349 146.199Z" fill="#E2E2E2"/>
<path d="M119.87 138.13L132.532 132.083L144.151 140.165L131.349 146.2L119.87 138.13Z" fill="#817F7F"/>
<path d="M142.968 154.282L144.151 140.164L131.348 146.199L130.165 160.317L142.968 154.282Z" fill="#AAAAAA"/>
<path d="M142.826 154.272L131.347 146.201L130.164 160.319L141.643 168.389L142.826 154.272Z" fill="#0454D3"/>
<path d="M131.347 146.202L144.009 140.155L155.629 148.237L142.826 154.273L131.347 146.202Z" fill="#126DFF"/>
<path d="M154.445 162.354L155.629 148.236L142.826 154.272L141.643 168.389L154.445 162.354Z" fill="#0B4199"/>
<path d="M154.304 162.341L142.825 154.271L141.642 168.388L153.121 176.458L154.304 162.341Z" fill="#C3112B"/>
<path d="M142.825 154.272L155.487 148.225L167.107 156.307L154.304 162.342L142.825 154.272Z" fill="#E51533"/>
<path d="M165.923 170.423L167.106 156.306L154.304 162.341L153.12 176.458L165.923 170.423Z" fill="#990319"/>
<path d="M156.671 134.107L145.191 126.036L144.008 140.154L155.487 148.224L156.671 134.107Z" fill="#0454D3"/>
<path d="M145.191 126.037L157.854 119.99L169.473 128.072L156.67 134.108L145.191 126.037Z" fill="#817F7F"/>
<path d="M168.29 142.189L169.473 128.071L156.67 134.107L155.487 148.224L168.29 142.189Z" fill="#0B4199"/>
<path d="M180.813 136.13L169.334 128.06L168.151 142.177L179.63 150.248L180.813 136.13Z" fill="#C3112B"/>
<path d="M169.334 128.061L181.997 122.014L193.616 130.096L180.813 136.131L169.334 128.061Z" fill="#E61533"/>
<path d="M192.432 144.212L193.616 130.095L180.813 136.13L179.63 150.248L192.432 144.212Z" fill="#990319"/>
<path d="M132.532 132.084L121.053 124.014L119.869 138.131L131.349 146.202L132.532 132.084Z" fill="#E2E2E2"/>
<path d="M121.053 124.015L133.715 117.968L145.334 126.05L132.532 132.085L121.053 124.015Z" fill="#F2F2F2"/>
<path d="M144.151 140.166L145.334 126.049L132.531 132.084L131.348 146.202L144.151 140.166Z" fill="#AAAAAA"/>
<path d="M157.854 119.988L146.375 111.918L145.191 126.035L156.671 134.106L157.854 119.988Z" fill="#0454D3"/>
<path d="M146.375 111.919L159.037 105.872L170.657 113.954L157.854 119.99L146.375 111.919Z" fill="#126DFF"/>
<path d="M169.473 128.071L170.656 113.953L157.853 119.988L156.67 134.106L169.473 128.071Z" fill="#0B4199"/>
<path d="M134.953 74.7726C130.617 74.4092 127.487 72.8624 125.564 70.1323C123.641 67.4022 122.902 63.3905 123.345 58.097L124.692 42.0253L132.919 42.7147L131.492 59.7431C131.26 62.5173 131.462 64.5092 132.099 65.7186C132.771 66.8989 133.92 67.5571 135.547 67.6934C137.173 67.8297 138.415 67.3718 139.274 66.3199C140.168 65.2387 140.731 63.311 140.963 60.5367L142.39 43.5084L150.33 44.1737L148.983 60.2454C148.54 65.5388 147.175 69.3743 144.888 71.7516C142.634 74.1317 139.322 75.1387 134.953 74.7726ZM167.856 77.5297C165.209 77.3079 162.802 76.5282 160.634 75.1905C158.501 73.8236 156.847 71.9028 155.674 69.4282C154.501 66.9535 154.062 63.9464 154.359 60.4068C154.578 57.792 155.17 55.5135 156.136 53.5713C157.136 51.6 158.396 49.9715 159.917 48.686C161.469 47.4032 163.168 46.4858 165.012 45.9339C166.892 45.3528 168.804 45.1437 170.749 45.3067C172.822 45.4804 174.636 46.0499 176.193 47.0153C177.785 47.9515 179.076 49.023 180.066 50.23L175.321 55.1308C174.611 54.397 173.86 53.7881 173.065 53.3041C172.305 52.7908 171.399 52.4901 170.347 52.4019C169.135 52.3004 167.972 52.5723 166.859 53.2175C165.78 53.8335 164.865 54.7845 164.115 56.0704C163.397 57.3589 162.959 58.9439 162.801 60.8253C162.558 63.7271 162.976 66.026 164.054 67.7219C165.166 69.3887 166.727 70.3062 168.736 70.4746C169.948 70.5761 171.039 70.3946 172.009 69.93C173.011 69.468 173.876 68.9143 174.605 68.2689L178.477 73.7955C177.041 75.2166 175.414 76.2363 173.596 76.8547C171.778 77.473 169.865 77.698 167.856 77.5297ZM182.442 78.174L185.048 47.0829L194.231 47.8525C197.388 48.117 200.118 48.8757 202.422 50.1284C204.76 51.3519 206.504 53.1518 207.653 55.5281C208.803 57.9044 209.224 60.9261 208.917 64.5932C208.609 68.2604 207.689 71.2018 206.154 73.4174C204.623 75.6011 202.647 77.1375 200.229 78.0267C197.81 78.9158 195.102 79.2348 192.104 78.9836L182.442 78.174ZM191.222 72.2625L191.701 72.3026C193.2 72.4282 194.576 72.2866 195.831 71.878C197.085 71.4693 198.118 70.6406 198.929 69.392C199.772 68.146 200.295 66.3113 200.498 63.8878C200.701 61.4643 200.488 59.6 199.859 58.2949C199.264 56.9606 198.38 56.0194 197.206 55.4715C196.034 54.8916 194.699 54.5389 193.2 54.4133L192.722 54.3732L191.222 72.2625Z" fill="white"/>
</g>
<rect x="89.7126" y="20.5762" width="6" height="217" transform="rotate(4.79106 89.7126 20.5762)" fill="#072C66"/>
</g>
<defs>
<filter id="filter0_d_1724_48120" x="70.8669" y="27.5586" width="186.598" height="244.396" filterUnits="userSpaceOnUse" color-interpolation-filters="sRGB">
<feFlood flood-opacity="0" result="BackgroundImageFix"/>
<feColorMatrix in="SourceAlpha" type="matrix" values="0 0 0 0 0 0 0 0 0 0 0 0 0 0 0 0 0 0 127 0" result="hardAlpha"/>
<feOffset dy="4"/>
<feGaussianBlur stdDeviation="4"/>
<feColorMatrix type="matrix" values="0 0 0 0 0.101961 0 0 0 0 0.101961 0 0 0 0 0.101961 0 0 0 0.2 0"/>
<feBlend mode="normal" in2="BackgroundImageFix" result="effect1_dropShadow_1724_48120"/>
<feBlend mode="normal" in="SourceGraphic" in2="effect1_dropShadow_1724_48120" result="shape"/>
</filter>
<filter id="filter1_d_1724_48120" x="63.9041" y="16.96" width="186.598" height="244.396" filterUnits="userSpaceOnUse" color-interpolation-filters="sRGB">
<feFlood flood-opacity="0" result="BackgroundImageFix"/>
<feColorMatrix in="SourceAlpha" type="matrix" values="0 0 0 0 0 0 0 0 0 0 0 0 0 0 0 0 0 0 127 0" result="hardAlpha"/>
<feOffset dy="4"/>
<feGaussianBlur stdDeviation="4"/>
<feColorMatrix type="matrix" values="0 0 0 0 0.101961 0 0 0 0 0.101961 0 0 0 0 0.101961 0 0 0 0.2 0"/>
<feBlend mode="normal" in2="BackgroundImageFix" result="effect1_dropShadow_1724_48120"/>
<feBlend mode="normal" in="SourceGraphic" in2="effect1_dropShadow_1724_48120" result="shape"/>
</filter>
<clipPath id="clip0_1724_48120">
<rect width="320" height="196" fill="white"/>
</clipPath>
</defs>
</svg>
