<svg width="378" height="305" viewBox="0 0 378 305" fill="none" xmlns="http://www.w3.org/2000/svg">
<g clip-path="url(#clip0_20_527)">
<path d="M332.041 295.967L324.183 295.967L320.444 265.266L332.042 265.267L332.041 295.967Z" fill="#FFB6B6"/>
<path d="M332.317 304.27L308.153 304.27V303.96C308.153 298.699 312.364 294.434 317.558 294.433H317.559L321.973 291.042L330.208 294.434L332.318 294.434L332.317 304.27Z" fill="#2F2E41"/>
<path d="M297.203 295.967L289.345 295.967L285.607 265.266L297.205 265.267L297.203 295.967Z" fill="#FFB6B6"/>
<path d="M297.48 304.27L273.315 304.27V303.96C273.315 298.699 277.526 294.434 282.72 294.433H282.721L287.135 291.042L295.37 294.434L297.48 294.434L297.48 304.27Z" fill="#2F2E41"/>
<path d="M293.458 124.636L338.795 125.602C338.795 125.602 346.946 139.137 340.723 158.23L341.42 163.547L338.557 171.765L337.125 196.9L338.557 200.767L337.602 208.018C337.602 208.018 341.42 255.871 331.875 280.04L320.422 279.557L316.127 216.499L318.513 211.885L318.036 209.951L312.309 180.949L306.582 195.933V204.259L301.333 210.434C301.333 210.434 303.242 267.472 297.992 279.073H285.169L280.335 201.734L285.107 156.78L284.153 153.88L285.584 152.43L284.63 147.596L293.458 124.636L293.458 124.636Z" fill="#2F2E41"/>
<path d="M312.786 36.4202L326.626 33.0366L330.444 42.2206C330.444 42.2206 350.196 52.8549 351.151 67.356C351.151 67.356 353.828 78.957 351.442 84.2741C349.056 89.5912 339.034 106.509 339.034 106.509C339.034 106.509 348.101 135.995 345.715 137.445C343.329 138.895 286.539 135.995 286.539 133.095C286.539 130.195 295.99 99.742 295.99 99.742L297.992 47.5378L310.877 42.704L312.786 36.4202L312.786 36.4202V36.4202Z" fill="#3F3D56"/>
<path d="M349.682 155.41C346.785 153.931 345.62 150.354 347.08 147.42C347.227 147.125 347.4 146.853 347.586 146.594L339.885 93.115L350.546 93.4604L356.123 145.567C358.145 147.304 358.815 150.271 357.57 152.774C356.11 155.708 352.579 156.888 349.682 155.41H349.682Z" fill="#FFB6B6"/>
<path d="M248.519 130.169C247.353 127.104 248.861 123.661 251.887 122.48C252.192 122.361 252.501 122.276 252.81 122.211L282.56 77.3464L290.231 84.8541L259.817 127.258C260.164 129.919 258.693 132.574 256.111 133.581C253.084 134.763 249.685 133.235 248.519 130.169V130.169Z" fill="#FFB6B6"/>
<path d="M330.254 79.6261C327.242 69.1439 332.245 58.4494 343.023 58.501C346.139 58.516 348.559 59.4316 349.23 61.9662C351.578 70.837 352.858 84.2277 352.858 84.2277L355.643 98.4847L353.956 101.445L357.473 110.999L355.767 115.519L355.398 138.602L346.808 138.119L337.343 120.522L333.724 118.342C333.724 118.342 336.63 89.8906 330.85 81.6987L330.254 79.6261H330.254V79.6261Z" fill="#3F3D56"/>
<path d="M291.777 53.8291C296.8 44.1698 309.659 41.8818 317.377 49.5033C319.607 51.7062 320.72 54.0679 319.464 56.363C315.068 64.3956 304.879 73.0444 304.879 73.0444L292.331 93.4763L289.088 94.4185L285.064 103.765L276.442 114.033L265.021 120.134L258.34 113.367L259.759 104.667L276.952 81.4639C276.952 81.4639 289.323 65.6986 290.784 55.739L291.777 53.8291V53.8291V53.8291Z" fill="#3F3D56"/>
<path d="M315.416 33.5951C315.732 33.6335 316.047 33.6624 316.361 33.6769C317.336 33.7311 318.299 33.6748 319.228 33.5153C322.05 33.0572 324.613 31.7036 326.591 29.7185C328.682 27.6239 330.113 24.8282 330.5 21.6454C331.406 14.1328 326.125 7.28926 318.708 6.3713C311.397 5.46119 304.733 10.6403 303.669 17.9805C303.652 18.0942 303.635 18.203 303.623 18.3161C302.717 25.8336 307.994 32.6728 315.416 33.595V33.5951V33.5951Z" fill="#FFB6B6"/>
<path d="M300.619 17.4776C302.54 18.44 305.68 15.4145 306.882 17.1552C307.077 16.779 307.293 16.4152 307.506 16.0712C307.699 15.7633 307.975 15.1061 308.294 14.9936C307.89 15.9807 307.979 17.3177 308.398 18.4631C310.294 19.1804 312.775 17.5926 314.529 15.7146C317.283 12.7699 321.781 20.3211 320.717 24.2289C322.071 22.555 325.008 23.4991 326.003 25.4131C326.998 27.3223 325.317 28.8521 324.957 30.9817L327.671 30.6327C329.382 28.944 329.263 26.0984 330.672 24.1412C333.027 20.8657 333.939 17.5236 332.169 14.1432C330.599 11.1541 330.452 7.28571 327.572 5.56245C328.83 4.93921 324.355 5.91287 325.55 3.88178C326.751 1.85495 320.351 1.60894 319.933 2.69481C318.104 0.477787 316.26 -0.983938 314.01 0.792527C311.8 2.54029 312.029 4.37738 309.434 4.21275C308.217 4.13633 308.35 6.43589 307.626 7.43846C306.907 8.43567 304.109 9.07584 303.973 8.96912C303.234 8.38357 300.72 13.3683 300.72 13.3683C300.72 13.3683 298.682 16.5024 300.619 17.4776H300.619Z" fill="#2F2E41"/>
<path d="M131.277 104.48C176.74 104.48 213.595 141.809 213.595 187.858C213.595 233.906 176.74 271.235 131.277 271.235C85.8142 271.235 22.8953 225.58 48.9593 187.858C75.0232 150.135 85.8142 104.48 131.277 104.48Z" fill="#F2F2F2"/>
<path d="M241.454 108.446C240.715 108.446 240.115 109.054 240.115 109.802V153.186C240.115 153.933 240.715 154.541 241.454 154.541C242.192 154.541 242.792 153.933 242.792 153.186V109.802C242.792 109.054 242.192 108.446 241.454 108.446Z" fill="#3F3D56"/>
<path d="M16.5853 75.9087C15.8471 75.9087 15.2468 76.5167 15.2468 77.2644V88.1103C15.2468 88.858 15.8471 89.466 16.5853 89.466C17.3235 89.466 17.9238 88.858 17.9238 88.1103V77.2644C17.9238 76.5167 17.3235 75.9087 16.5853 75.9087Z" fill="#3F3D56"/>
<path d="M16.5853 108.446C15.8471 108.446 15.2468 109.054 15.2468 109.802V130.816C15.2468 131.564 15.8471 132.172 16.5853 132.172C17.3235 132.172 17.9238 131.564 17.9238 130.816V109.802C17.9238 109.054 17.3235 108.446 16.5853 108.446Z" fill="#3F3D56"/>
<path d="M16.5853 138.272C15.8471 138.272 15.2468 138.88 15.2468 139.628V160.642C15.2468 161.39 15.8471 161.998 16.5853 161.998C17.3235 161.998 17.9238 161.39 17.9238 160.642V139.628C17.9238 138.88 17.3235 138.272 16.5853 138.272Z" fill="#3F3D56"/>
<path d="M136.631 33.2031C135.893 33.2031 135.293 33.8111 135.293 34.5588V55.5727C135.293 56.3204 135.893 56.9284 136.631 56.9284C137.369 56.9284 137.97 56.3204 137.97 55.5727V34.5588C137.97 33.8111 137.369 33.2031 136.631 33.2031Z" fill="#3F3D56"/>
<path d="M341.687 293.251C343.07 293.338 343.834 291.598 342.788 290.584L342.684 290.165C342.697 290.132 342.711 290.098 342.725 290.065C344.123 286.688 348.862 286.711 350.248 290.093C351.479 293.095 353.046 296.102 353.431 299.275C353.604 300.676 353.526 302.104 353.219 303.478C356.103 297.099 357.62 290.133 357.62 283.128C357.62 281.368 357.525 279.608 357.33 277.852C357.17 276.416 356.95 274.989 356.665 273.575C355.121 265.93 351.78 258.649 346.96 252.568C344.643 251.285 342.711 249.28 341.544 246.876C341.125 246.009 340.796 245.077 340.641 244.127C340.904 244.162 341.635 240.094 341.436 239.845C341.804 239.28 342.461 238.999 342.863 238.448C344.858 235.707 347.608 236.186 349.044 239.911C352.111 241.478 352.14 244.078 350.259 246.579C349.061 248.169 348.897 250.322 347.846 252.025C347.955 252.165 348.067 252.301 348.175 252.441C350.157 255.016 351.871 257.783 353.316 260.69C352.907 257.459 353.51 253.567 354.538 251.058C355.708 248.199 357.901 245.791 359.832 243.32C362.152 240.351 366.908 241.647 367.317 245.41C367.321 245.446 367.325 245.483 367.329 245.519C367.042 245.683 366.761 245.857 366.486 246.041C364.92 247.09 365.462 249.548 367.317 249.838L367.359 249.845C367.255 250.891 367.078 251.929 366.818 252.949C369.296 262.653 363.947 266.188 356.31 266.346C356.142 266.434 355.977 266.522 355.809 266.605C356.583 268.811 357.201 271.075 357.659 273.369C358.069 275.396 358.355 277.445 358.515 279.503C358.714 282.099 358.696 284.709 358.48 287.301L358.493 287.209C359.042 284.354 360.572 281.688 362.794 279.84C366.104 277.086 370.78 276.072 374.351 273.859C376.07 272.793 378.272 274.17 377.972 276.188L377.958 276.285C377.426 276.504 376.907 276.758 376.406 277.042C376.119 277.206 375.838 277.381 375.564 277.564C373.998 278.613 374.539 281.072 376.394 281.362L376.436 281.368C376.466 281.373 376.492 281.377 376.523 281.381C375.611 283.575 374.34 285.611 372.749 287.366C371.2 295.838 364.547 296.642 357.43 294.175H357.425C356.647 297.607 355.51 300.961 354.049 304.157H341.989C341.946 304.021 341.907 303.881 341.868 303.745C342.984 303.816 344.107 303.75 345.205 303.544C344.311 302.432 343.416 301.311 342.521 300.199C342.499 300.177 342.482 300.155 342.465 300.133C342.011 299.564 341.553 298.999 341.099 298.43L341.099 298.43C341.07 296.682 341.277 294.941 341.687 293.251L341.687 293.251L341.687 293.251H341.687Z" fill="#F2F2F2"/>
<path d="M0 304.193C0 304.641 0.354723 305 0.796449 305H377.11C377.551 305 377.906 304.641 377.906 304.193C377.906 303.746 377.551 303.387 377.11 303.387H0.796449C0.354723 303.387 0 303.746 0 304.193Z" fill="#CCCCCC"/>
<path d="M95.2853 182.237H48.9592V180.882H95.2853C99.3096 180.882 102.584 177.565 102.584 173.489V141.763H103.922V173.489C103.922 178.312 100.048 182.237 95.2853 182.237H95.2853Z" fill="#126DFF"/>
<path d="M183.679 251.01H78.3151V252.366H183.679V251.01Z" fill="#126DFF"/>
<path d="M250.53 173.172H194.251C191.214 173.172 188.743 170.669 188.743 167.593V111.285C188.743 108.209 191.214 105.707 194.251 105.707H250.53C253.567 105.707 256.037 108.209 256.037 111.285V167.593C256.037 170.669 253.567 173.172 250.53 173.172Z" fill="#E6E6E6"/>
<path d="M204.732 107.369C196.808 107.369 190.384 113.875 190.384 121.901V166.398C190.384 169.221 192.643 171.51 195.43 171.51H229.843C243.403 171.51 254.396 160.375 254.396 146.641V112.48C254.396 109.657 252.137 107.369 249.35 107.369H204.732V107.369Z" fill="white"/>
<path d="M237.463 123.732H207.199C206.622 123.732 206.152 123.256 206.152 122.671C206.152 122.087 206.622 121.611 207.199 121.611H237.463C238.041 121.611 238.51 122.087 238.51 122.671C238.51 123.256 238.041 123.732 237.463 123.732Z" fill="#E6E6E6"/>
<path d="M237.463 146.348H207.199C206.622 146.348 206.152 145.872 206.152 145.288C206.152 144.703 206.622 144.227 207.199 144.227H237.463C238.041 144.227 238.51 144.703 238.51 145.288C238.51 145.872 238.041 146.348 237.463 146.348Z" fill="#E6E6E6"/>
<path d="M249.753 135.048H194.91C194.332 135.048 193.863 134.572 193.863 133.987C193.863 133.402 194.332 132.926 194.91 132.926H249.753C250.33 132.926 250.8 133.402 250.8 133.987C250.8 134.572 250.33 135.048 249.753 135.048Z" fill="#E6E6E6"/>
<path d="M250.313 155.544H230.5C229.923 155.544 229.453 155.068 229.453 154.483C229.453 153.898 229.923 153.423 230.5 153.423H250.313C250.89 153.423 251.36 153.898 251.36 154.483C251.36 155.068 250.89 155.544 250.313 155.544Z" fill="#E6E6E6"/>
<path d="M132.319 285.362H87.6296C85.2179 285.362 83.2559 283.375 83.2559 280.932V236.22C83.2559 233.777 85.2179 231.79 87.6296 231.79H132.319C134.73 231.79 136.692 233.777 136.692 236.22V280.932C136.692 283.375 134.73 285.362 132.319 285.362H132.319Z" fill="#E6E6E6"/>
<path d="M95.9521 233.11C89.6599 233.11 84.559 238.276 84.559 244.65V279.983C84.559 282.225 86.3531 284.042 88.5661 284.042H115.892C126.66 284.042 135.389 275.201 135.389 264.294V237.169C135.389 234.927 133.595 233.11 131.382 233.11H95.952L95.9521 233.11H95.9521Z" fill="white"/>
<path d="M121.943 246.103H97.9114C97.453 246.103 97.0799 245.726 97.0799 245.261C97.0799 244.797 97.453 244.419 97.9114 244.419H121.943C122.402 244.419 122.774 244.797 122.774 245.261C122.774 245.726 122.402 246.103 121.943 246.103Z" fill="#E6E6E6"/>
<path d="M121.943 264.062H97.9114C97.453 264.062 97.0799 263.684 97.0799 263.22C97.0799 262.755 97.453 262.378 97.9114 262.378H121.943C122.402 262.378 122.774 262.755 122.774 263.22C122.774 263.684 122.402 264.062 121.943 264.062Z" fill="#E6E6E6"/>
<path d="M131.702 255.089H88.1527C87.6942 255.089 87.3212 254.711 87.3212 254.246C87.3212 253.782 87.6942 253.404 88.1527 253.404H131.702C132.16 253.404 132.533 253.782 132.533 254.246C132.533 254.711 132.16 255.089 131.702 255.089Z" fill="#E6E6E6"/>
<path d="M132.146 271.364H116.414C115.956 271.364 115.583 270.986 115.583 270.522C115.583 270.057 115.956 269.68 116.414 269.68H132.146C132.605 269.68 132.978 270.057 132.978 270.522C132.978 270.986 132.605 271.364 132.146 271.364Z" fill="#E6E6E6"/>
<path d="M101.084 141.42H68.0343C66.2508 141.42 64.7998 139.951 64.7998 138.144V105.078C64.7998 103.271 66.2508 101.802 68.0343 101.802H101.084C102.867 101.802 104.318 103.271 104.318 105.078V138.144C104.318 139.951 102.867 141.42 101.084 141.42Z" fill="#E6E6E6"/>
<path d="M74.1892 102.778C69.5358 102.778 65.7635 106.599 65.7635 111.312V137.443C65.7635 139.1 67.0903 140.444 68.727 140.444H88.9358C96.8991 140.444 103.355 133.906 103.355 125.84V105.779C103.355 104.122 102.028 102.778 100.391 102.778H74.1892V102.778L74.1892 102.778Z" fill="white"/>
<path d="M93.4106 112.387H75.6382C75.2991 112.387 75.0232 112.108 75.0232 111.764C75.0232 111.421 75.2991 111.141 75.6382 111.141H93.4106C93.7496 111.141 94.0254 111.421 94.0254 111.764C94.0254 112.108 93.7496 112.387 93.4106 112.387Z" fill="#E6E6E6"/>
<path d="M93.4106 125.668H75.6382C75.2991 125.668 75.0232 125.389 75.0232 125.045C75.0232 124.702 75.2991 124.423 75.6382 124.423H93.4106C93.7496 124.423 94.0254 124.702 94.0254 125.045C94.0254 125.389 93.7496 125.668 93.4106 125.668Z" fill="#E6E6E6"/>
<path d="M100.628 119.032H68.4212C68.0821 119.032 67.8062 118.753 67.8062 118.409C67.8062 118.066 68.0821 117.786 68.4212 117.786H100.628C100.967 117.786 101.242 118.066 101.242 118.409C101.242 118.753 100.967 119.032 100.628 119.032Z" fill="#E6E6E6"/>
<path d="M100.956 131.068H89.3218C88.9827 131.068 88.7068 130.789 88.7068 130.446C88.7068 130.102 88.9827 129.823 89.3218 129.823H100.956C101.296 129.823 101.571 130.102 101.571 130.446C101.571 130.789 101.296 131.068 100.956 131.068Z" fill="#E6E6E6"/>
<path d="M197.533 183.112C201.229 183.112 204.226 180.078 204.226 176.334C204.226 172.59 201.229 169.555 197.533 169.555C193.837 169.555 190.841 172.59 190.841 176.334C190.841 180.078 193.837 183.112 197.533 183.112Z" fill="#126DFF"/>
<path d="M103.169 148.541C106.865 148.541 109.861 145.506 109.861 141.763C109.861 138.019 106.865 134.984 103.169 134.984C99.4724 134.984 96.4761 138.019 96.4761 141.763C96.4761 145.506 99.4724 148.541 103.169 148.541Z" fill="#126DFF"/>
<path d="M135.293 241.409C138.989 241.409 141.985 238.374 141.985 234.63C141.985 230.887 138.989 227.852 135.293 227.852C131.596 227.852 128.6 230.887 128.6 234.63C128.6 238.374 131.596 241.409 135.293 241.409Z" fill="#126DFF"/>
<path d="M149.749 53.4517C154.356 53.4517 158.09 49.7489 158.09 45.1813C158.09 40.6136 154.356 36.9108 149.749 36.9108C145.143 36.9108 141.408 40.6136 141.408 45.1813C141.408 49.7489 145.143 53.4517 149.749 53.4517Z" fill="#F2F2F2"/>
<path d="M216.616 42.3519H171.719C170.179 42.3519 168.926 41.0826 168.926 39.5225C168.926 37.9625 170.179 36.6932 171.719 36.6932H216.616C218.156 36.6932 219.409 37.9625 219.409 39.5225C219.409 41.0826 218.156 42.3519 216.616 42.3519Z" fill="#F2F2F2"/>
<path d="M251.654 51.9282H171.719C170.179 51.9282 168.926 50.6589 168.926 49.0988C168.926 47.5388 170.179 46.2695 171.719 46.2695H251.654C253.194 46.2695 254.447 47.5388 254.447 49.0988C254.447 50.6589 253.194 51.9282 251.654 51.9282Z" fill="#F2F2F2"/>
<path d="M29.0181 88.2111C31.9995 88.2111 34.4164 85.8147 34.4164 82.8586C34.4164 79.9024 31.9995 77.506 29.0181 77.506C26.0368 77.506 23.6199 79.9024 23.6199 82.8586C23.6199 85.8147 26.0368 88.2111 29.0181 88.2111Z" fill="#F2F2F2"/>
<path d="M72.2933 81.0274H43.2369C42.24 81.0274 41.429 80.2059 41.429 79.1963C41.429 78.1866 42.24 77.3652 43.2369 77.3652H72.2933C73.2902 77.3652 74.1012 78.1866 74.1012 79.1963C74.1012 80.2059 73.2902 81.0274 72.2934 81.0274H72.2933Z" fill="#F2F2F2"/>
<path d="M94.9691 87.2251H43.2369C42.24 87.2251 41.429 86.4036 41.429 85.3939C41.429 84.3843 42.24 83.5628 43.2369 83.5628H94.9691C95.9659 83.5628 96.777 84.3843 96.777 85.3939C96.777 86.4036 95.9659 87.2251 94.9691 87.2251Z" fill="#F2F2F2"/>
<path d="M190.977 278.692C193.958 278.692 196.375 276.295 196.375 273.339C196.375 270.383 193.958 267.987 190.977 267.987C187.996 267.987 185.579 270.383 185.579 273.339C185.579 276.295 187.996 278.692 190.977 278.692Z" fill="#F2F2F2"/>
<path d="M234.252 271.508H205.196C204.199 271.508 203.388 270.687 203.388 269.677C203.388 268.667 204.199 267.846 205.196 267.846H234.252C235.249 267.846 236.06 268.667 236.06 269.677C236.06 270.687 235.249 271.508 234.252 271.508Z" fill="#F2F2F2"/>
<path d="M256.928 277.706H205.196C204.199 277.706 203.388 276.884 203.388 275.875C203.388 274.865 204.199 274.043 205.196 274.043H256.928C257.925 274.043 258.736 274.865 258.736 275.875C258.736 276.884 257.925 277.706 256.928 277.706Z" fill="#F2F2F2"/>
<path d="M126.09 105.727H124.752V170.125H126.09V105.727Z" fill="#E6E6E6"/>
<path d="M125.421 174.192C127.639 174.192 129.437 172.371 129.437 170.125C129.437 167.878 127.639 166.057 125.421 166.057C123.203 166.057 121.406 167.878 121.406 170.125C121.406 172.371 123.203 174.192 125.421 174.192Z" fill="#E6E6E6"/>
<path d="M186.323 220.965C188.541 220.965 190.339 219.144 190.339 216.897C190.339 214.651 188.541 212.83 186.323 212.83C184.105 212.83 182.307 214.651 182.307 216.897C182.307 219.144 184.105 220.965 186.323 220.965Z" fill="#E6E6E6"/>
<path d="M77.9043 165.379C80.122 165.379 81.9198 163.559 81.9198 161.312C81.9198 159.066 80.122 157.245 77.9043 157.245C75.6866 157.245 73.8888 159.066 73.8888 161.312C73.8888 163.559 75.6866 165.379 77.9043 165.379Z" fill="#E6E6E6"/>
<path d="M76.4203 161.318L54.4603 161.992L54.5008 163.348L76.4608 162.674L76.4203 161.318Z" fill="#E6E6E6"/>
<path d="M218.99 232.468H185.691V216.897H187.029V231.112H218.99V232.468Z" fill="#E6E6E6"/>
<path d="M76.256 209.79C78.4738 209.79 80.2716 207.969 80.2716 205.723C80.2716 203.477 78.4738 201.656 76.256 201.656C74.0383 201.656 72.2405 203.477 72.2405 205.723C72.2405 207.969 74.0383 209.79 76.256 209.79Z" fill="#E6E6E6"/>
<path d="M108.526 221.293H75.2273V205.723H76.5658V219.938H108.526V221.293Z" fill="#E6E6E6"/>
<path d="M210.416 190.247H50.4767V191.602H210.416V190.247Z" fill="#E6E6E6"/>
</g>
<defs>
<clipPath id="clip0_20_527">
<rect width="378" height="305" fill="white"/>
</clipPath>
</defs>
</svg>
