<svg width="320" height="196" viewBox="0 0 320 196" fill="none" xmlns="http://www.w3.org/2000/svg">
<g clip-path="url(#clip0_1724_47892)">
<rect width="320" height="196" fill="#EEEEEE"/>
<g filter="url(#filter0_d_1724_47892)">
<path d="M50.3947 25.9385H26.8943C25.2776 25.9385 23.9549 27.2612 23.9549 28.8779L23.9402 55.3324L29.819 49.4536H50.3947C52.0114 49.4536 53.3341 48.1309 53.3341 46.5142V28.8779C53.3341 27.2612 52.0114 25.9385 50.3947 25.9385ZM38.6372 31.8173C40.2538 31.8173 41.5765 33.14 41.5765 34.7567C41.5765 36.3733 40.2538 37.6961 38.6372 37.6961C37.0205 37.6961 35.6978 36.3733 35.6978 34.7567C35.6978 33.14 37.0205 31.8173 38.6372 31.8173ZM44.5159 43.5748H32.7584V42.7371C32.7584 41.5467 33.4638 40.4885 34.5514 40.0182C35.8006 39.4744 37.1822 39.1657 38.6372 39.1657C40.0922 39.1657 41.4737 39.4744 42.7229 40.0182C43.8105 40.4885 44.5159 41.5467 44.5159 42.7371V43.5748Z" fill="#0B4199"/>
<path d="M118.52 45.7804C116.683 45.7804 114.919 45.4865 113.273 44.9427C112.759 44.781 112.185 44.8986 111.774 45.2954L108.541 48.5287C104.381 46.4124 100.972 43.0174 98.8552 38.8434L102.089 35.5954C102.5 35.2133 102.618 34.6401 102.456 34.1257C101.912 32.4796 101.618 30.716 101.618 28.8789C101.618 28.0705 100.957 27.4092 100.149 27.4092H95.0046C94.1963 27.4092 93.5349 28.0705 93.5349 28.8789C93.5349 42.6793 104.719 53.8637 118.52 53.8637C119.328 53.8637 119.989 53.2024 119.989 52.394V47.2501C119.989 46.4418 119.328 45.7804 118.52 45.7804ZM119.989 31.8183H115.58V27.4092H112.641V31.8183H108.232V34.7577H112.641V39.1668H115.58V34.7577H119.989V31.8183Z" fill="#0B4199"/>
<path d="M174.889 25.9385C166.776 25.9385 160.192 32.5227 160.192 40.6354C160.192 48.7482 166.776 55.3324 174.889 55.3324H182.238V52.393H174.889C168.511 52.393 163.132 47.0139 163.132 40.6354C163.132 34.257 168.511 28.8779 174.889 28.8779C181.268 28.8779 186.647 34.257 186.647 40.6354V42.7371C186.647 43.8982 185.603 45.0445 184.442 45.0445C183.281 45.0445 182.238 43.8982 182.238 42.7371V40.6354C182.238 36.5791 178.945 33.287 174.889 33.287C170.833 33.287 167.541 36.5791 167.541 40.6354C167.541 44.6918 170.833 47.9839 174.889 47.9839C176.917 47.9839 178.769 47.1609 180.092 45.8235C181.047 47.1315 182.693 47.9839 184.442 47.9839C187.337 47.9839 189.586 45.6324 189.586 42.7371V40.6354C189.586 32.5227 183.002 25.9385 174.889 25.9385ZM174.889 45.0445C172.449 45.0445 170.48 43.0751 170.48 40.6354C170.48 38.1957 172.449 36.2264 174.889 36.2264C177.329 36.2264 179.298 38.1957 179.298 40.6354C179.298 43.0751 177.329 45.0445 174.889 45.0445Z" fill="#0B4199"/>
<path d="M245.214 28.8789H239.335V34.7577H245.214V28.8789Z" fill="#C3112B"/>
<path d="M236.395 46.5153H230.517V52.3941H236.395V46.5153Z" fill="#C3112B"/>
<path d="M236.395 37.6971H230.517V43.5759H236.395V37.6971Z" fill="#C3112B"/>
<path d="M236.395 28.8789H230.517V34.7577H236.395V28.8789Z" fill="#C3112B"/>
<path d="M245.214 41.2538V37.6971H239.335V43.5759H242.891L245.214 41.2538Z" fill="#C3112B"/>
<path d="M255.325 39.593L253.606 37.8735C253.37 37.6383 252.988 37.6383 252.753 37.8735L251.46 39.1668L254.032 41.7388L255.325 40.4454C255.56 40.2103 255.56 39.8281 255.325 39.593Z" fill="#C3112B"/>
<path d="M240.804 49.8221V52.3941H243.376L253.179 42.5912L250.607 40.0192L240.804 49.8221Z" fill="#C3112B"/>
<path d="M254.032 28.8789H248.153V34.7577H254.032V28.8789Z" fill="#C3112B"/>
<path d="M311.134 33.288V27.4092H296.437V53.8637H325.831V33.288H311.134ZM302.316 50.9243H299.377V47.9849H302.316V50.9243ZM302.316 45.0455H299.377V42.1061H302.316V45.0455ZM302.316 39.1668H299.377V36.2274H302.316V39.1668ZM302.316 33.288H299.377V30.3486H302.316V33.288ZM308.195 50.9243H305.255V47.9849H308.195V50.9243ZM308.195 45.0455H305.255V42.1061H308.195V45.0455ZM308.195 39.1668H305.255V36.2274H308.195V39.1668ZM308.195 33.288H305.255V30.3486H308.195V33.288ZM322.892 50.9243H311.134V47.9849H314.074V45.0455H311.134V42.1061H314.074V39.1668H311.134V36.2274H322.892V50.9243ZM319.952 39.1668H317.013V42.1061H319.952V39.1668ZM319.952 45.0455H317.013V47.9849H319.952V45.0455Z" fill="#0B4199"/>
<path d="M51.8644 111.182H48.925V124.41H29.819V127.349C29.819 128.157 30.4803 128.819 31.2887 128.819H47.4553L53.3341 134.698V112.652C53.3341 111.844 52.6728 111.182 51.8644 111.182ZM45.9856 120.001V106.773C45.9856 105.965 45.3243 105.304 44.5159 105.304H25.4099C24.6015 105.304 23.9402 105.965 23.9402 106.773V127.349L29.819 121.47H44.5159C45.3243 121.47 45.9856 120.809 45.9856 120.001Z" fill="#0B4199"/>
<path d="M117.783 106.039H94.2678C92.6511 106.039 91.3284 107.362 91.3284 108.978V126.615C91.3284 128.231 92.6511 129.554 94.2678 129.554H107.495V126.615H94.2678V111.918L106.025 119.266L117.783 111.918V119.266H120.722V108.978C120.722 107.362 119.4 106.039 117.783 106.039ZM106.025 116.327L94.2678 108.978H117.783L106.025 116.327ZM116.313 122.206L122.192 128.085L116.313 133.963V129.554H110.434V126.615H116.313V122.206Z" fill="#0B4199"/>
<path d="M183.706 134.698L183.691 125.879L177.827 120.001L183.691 114.107L183.706 105.304H166.07V114.122L171.949 120.001L166.07 125.865V134.698H183.706ZM169.009 113.387V108.243H180.767V113.387L174.888 119.266L169.009 113.387Z" fill="#C3112B"/>
<path d="M234.19 105.304L234.205 114.122L240.069 120.001L234.205 125.894L234.19 134.698H251.827V125.879L245.948 120.001L251.827 114.137V105.304H234.19ZM248.887 126.614V131.758H237.13V126.614L243.009 120.736L248.887 126.614Z" fill="#0B4199"/>
<g clip-path="url(#clip1_1724_47892)">
<path d="M305.843 129.847C306.401 130.582 306.724 131.493 306.724 132.493C306.724 134.932 304.755 136.902 302.315 136.902C299.876 136.902 297.906 134.932 297.906 132.493C297.906 130.053 299.876 128.083 302.315 128.083C302.962 128.083 303.564 128.216 304.123 128.466L306.195 125.864C304.843 124.35 304.299 122.352 304.593 120.441L301.61 119.442C300.816 120.662 299.464 121.47 297.906 121.47C295.466 121.47 293.497 119.5 293.497 117.061C293.497 114.621 295.466 112.652 297.906 112.652C300.346 112.652 302.315 114.621 302.315 117.061C302.315 117.164 302.315 117.267 302.301 117.369L305.284 118.369C306.225 116.59 307.959 115.297 310.016 114.959V111.785C308.135 111.285 306.724 109.565 306.724 107.508C306.724 105.068 308.694 103.099 311.133 103.099C313.573 103.099 315.543 105.068 315.543 107.508C315.543 109.565 314.132 111.285 312.236 111.785V114.959C314.293 115.297 316.028 116.59 316.968 118.369L319.952 117.369C319.952 117.267 319.952 117.164 319.952 117.061C319.952 114.621 321.921 112.652 324.361 112.652C326.8 112.652 328.77 114.621 328.77 117.061C328.77 119.5 326.8 121.47 324.361 121.47C322.803 121.47 321.451 120.662 320.657 119.456L317.674 120.456C317.968 122.352 317.438 124.35 316.072 125.879L318.144 128.48C318.702 128.216 319.305 128.083 319.952 128.083C322.391 128.083 324.361 130.053 324.361 132.493C324.361 134.932 322.391 136.902 319.952 136.902C317.512 136.902 315.543 134.932 315.543 132.493C315.543 131.493 315.866 130.582 316.424 129.847L314.352 127.246C312.368 128.348 309.928 128.363 307.929 127.246L305.843 129.847Z" fill="#0B4199"/>
</g>
<path d="M38.3743 200.084C38.4037 199.849 38.4331 199.614 38.4331 199.364C38.4331 199.114 38.4037 198.879 38.3743 198.644L39.9616 197.439C40.1085 197.336 40.1379 197.13 40.0497 196.968L38.5359 194.426C38.4478 194.264 38.242 194.205 38.0803 194.264L36.1991 194.999C35.8023 194.705 35.3761 194.47 34.9205 194.279L34.6266 192.324C34.6266 192.148 34.4649 192.015 34.2738 192.015H31.2609C31.0699 192.015 30.9082 192.148 30.8788 192.324L30.5849 194.264C30.1293 194.44 29.7031 194.705 29.3063 194.984L27.425 194.249C27.2487 194.176 27.0576 194.249 26.9694 194.411L25.4556 196.954C25.3675 197.13 25.4116 197.321 25.5585 197.439L27.1458 198.644C27.1164 198.879 27.1017 199.129 27.1017 199.364C27.1017 199.614 27.1311 199.849 27.1605 200.084L25.5585 201.304C25.4116 201.407 25.3822 201.613 25.4703 201.774L26.9841 204.317C27.0723 204.478 27.2781 204.537 27.4397 204.478L29.3209 203.744C29.7178 204.038 30.144 204.273 30.5996 204.464L30.8935 206.404C30.9082 206.58 31.0699 206.712 31.2609 206.712H34.2885C34.4796 206.712 34.6413 206.58 34.6559 206.404L34.9499 204.464C35.4055 204.287 35.8317 204.023 36.2285 203.744L38.1097 204.478C38.2861 204.552 38.4772 204.478 38.5653 204.317L40.0791 201.774C40.1673 201.613 40.1379 201.422 39.9909 201.304L38.3743 200.084ZM32.76 201.936C31.305 201.936 30.1146 200.79 30.1146 199.364C30.1146 197.938 31.305 196.792 32.76 196.792C34.215 196.792 35.4055 197.938 35.4055 199.364C35.4055 200.79 34.2297 201.936 32.76 201.936ZM48.9267 183.212L34.2297 183.197C32.6131 183.197 31.2903 184.52 31.2903 186.137V190.546H34.2297V189.076H48.9267V209.652H34.2297V208.182H31.2903V212.591C31.2903 214.208 32.6131 215.531 34.2297 215.531H48.9267C50.5434 215.531 51.8661 214.208 51.8661 212.591V186.137C51.8661 184.52 50.5434 183.212 48.9267 183.212Z" fill="#0B4199"/>
<path d="M119.189 203.023C119.601 202.009 119.836 200.892 119.836 199.731C119.836 194.866 115.882 190.913 111.018 190.913C109.857 190.913 108.74 191.148 107.726 191.56L110.107 193.941C110.4 193.896 110.709 193.852 111.018 193.852C114.266 193.852 116.897 196.483 116.897 199.731C116.897 200.04 116.867 200.348 116.823 200.657L119.189 203.023ZM111.018 187.974C117.514 187.974 122.775 193.235 122.775 199.731C122.775 201.715 122.261 203.582 121.379 205.228L123.54 207.388C124.921 205.154 125.715 202.538 125.715 199.731C125.715 191.618 119.13 185.034 111.018 185.034C108.211 185.034 105.595 185.843 103.361 187.195L105.506 189.34C107.152 188.473 109.034 187.974 111.018 187.974ZM98.1873 185.769L96.3208 187.636L99.4072 190.722C97.4819 193.22 96.3208 196.336 96.3208 199.731C96.3208 205.169 99.2749 209.901 103.655 212.444L105.124 209.901C101.626 207.859 99.2602 204.081 99.2602 199.731C99.2602 197.144 100.098 194.764 101.509 192.838L103.61 194.955C102.729 196.321 102.2 197.968 102.2 199.731C102.2 202.994 103.978 205.83 106.609 207.359L108.078 204.802C106.329 203.773 105.139 201.906 105.139 199.731C105.139 198.776 105.389 197.894 105.786 197.1L108.108 199.423L108.078 199.731C108.078 201.348 109.401 202.671 111.018 202.671L111.326 202.641L122.379 213.693L124.245 211.827L98.1873 185.769Z" fill="#C3112B"/>
<path d="M196.628 186.136H170.174C168.542 186.136 167.234 187.444 167.234 189.075V209.651C167.234 211.282 168.542 212.59 170.174 212.59H196.628C198.26 212.59 199.568 211.282 199.568 209.651V189.075C199.568 187.444 198.26 186.136 196.628 186.136ZM196.628 209.68H170.174V189.046H196.628V209.68ZM180.462 199.363H177.522L183.401 193.484L189.28 199.363H186.34V205.242H180.462V199.363Z" fill="#0B4199"/>
<path d="M267.536 205.39H271.798V196.572C271.798 194.074 269.888 192.163 267.389 192.163H254.162L267.536 205.39ZM267.389 195.102C268.198 195.102 268.859 195.764 268.859 196.572C268.859 197.38 268.198 198.042 267.389 198.042C266.581 198.042 265.92 197.38 265.92 196.572C265.92 195.764 266.581 195.102 267.389 195.102ZM265.92 190.693V184.814H248.283V186.431L252.692 190.693H265.92ZM241.229 183.051L239.465 184.814L246.667 192.163C244.315 192.31 242.404 194.22 242.404 196.572V205.39H248.283V211.269H265.773L270.182 215.678L272.092 213.767L241.229 183.051ZM251.223 208.33V200.981H255.485L262.833 208.33H251.223Z" fill="#0B4199"/>
<path d="M314.939 197.893H326.696V186.136H314.939V197.893ZM317.878 189.075H323.757V194.954H317.878V189.075Z" fill="#0B4199"/>
<path d="M314.939 212.59H326.696V200.833H314.939V212.59ZM317.878 203.772H323.757V209.651H317.878V203.772Z" fill="#0B4199"/>
<path d="M329.636 186.136V197.893H341.393V186.136H329.636ZM338.454 194.954H332.575V189.075H338.454V194.954Z" fill="#0B4199"/>
<path d="M341.393 209.651H338.454V212.59H341.393V209.651Z" fill="#0B4199"/>
<path d="M332.575 200.833H329.636V203.772H332.575V200.833Z" fill="#0B4199"/>
<path d="M335.514 203.772H332.575V206.711H335.514V203.772Z" fill="#0B4199"/>
<path d="M332.575 206.711H329.636V209.651H332.575V206.711Z" fill="#0B4199"/>
<path d="M335.514 209.651H332.575V212.59H335.514V209.651Z" fill="#0B4199"/>
<path d="M338.454 206.711H335.514V209.651H338.454V206.711Z" fill="#0B4199"/>
<path d="M338.454 200.833H335.514V203.772H338.454V200.833Z" fill="#0B4199"/>
<path d="M341.393 203.772H338.454V206.711H341.393V203.772Z" fill="#0B4199"/>
</g>
</g>
<defs>
<filter id="filter0_d_1724_47892" x="13" y="19" width="413.186" height="209.999" filterUnits="userSpaceOnUse" color-interpolation-filters="sRGB">
<feFlood flood-opacity="0" result="BackgroundImageFix"/>
<feColorMatrix in="SourceAlpha" type="matrix" values="0 0 0 0 0 0 0 0 0 0 0 0 0 0 0 0 0 0 127 0" result="hardAlpha"/>
<feOffset dy="4"/>
<feGaussianBlur stdDeviation="4"/>
<feColorMatrix type="matrix" values="0 0 0 0 0.101961 0 0 0 0 0.101961 0 0 0 0 0.101961 0 0 0 0.2 0"/>
<feBlend mode="normal" in2="BackgroundImageFix" result="effect1_dropShadow_1724_47892"/>
<feBlend mode="normal" in="SourceGraphic" in2="effect1_dropShadow_1724_47892" result="shape"/>
</filter>
<clipPath id="clip0_1724_47892">
<rect width="320" height="196" fill="white"/>
</clipPath>
<clipPath id="clip1_1724_47892">
<rect width="35.2727" height="35.2727" fill="white" transform="translate(293.497 102.364)"/>
</clipPath>
</defs>
</svg>
