<svg width="320" height="196" viewBox="0 0 320 196" fill="none" xmlns="http://www.w3.org/2000/svg">
<g clip-path="url(#clip0_1724_48019)">
<rect width="320" height="196" fill="#EEEEEE"/>
<g filter="url(#filter0_d_1724_48019)">
<rect width="153.061" height="216.369" transform="translate(96.9385 31.5586) rotate(4.79106)" fill="#0B4199"/>
<path d="M80.6455 245.76L77.4986 236.672L242.016 40.1866L246.692 46.4622L228.503 257.447L80.6455 245.76Z" fill="#EFF5FE"/>
<rect width="153.061" height="216.369" transform="translate(89.9756 20.96) rotate(4.79106)" fill="#0B4199"/>
<circle cx="158.255" cy="124.666" r="47" transform="rotate(4.79106 158.255 124.666)" fill="white"/>
<path d="M120.684 136.151L158.602 118.004L193.389 142.245L155.052 160.356L120.684 136.151Z" fill="#126DFF"/>
<path d="M157.486 132.127L146.007 124.057L144.824 138.174L156.303 146.245L157.486 132.127Z" fill="#0454D3"/>
<path d="M146.007 124.058L158.669 118.011L170.289 126.093L157.486 132.128L146.007 124.058Z" fill="#817F7F"/>
<path d="M169.105 140.209L170.288 126.092L157.486 132.127L156.302 146.245L169.105 140.209Z" fill="#0B4199"/>
<path d="M181.629 134.151L170.15 126.08L168.966 140.198L180.445 148.268L181.629 134.151Z" fill="#C3112B"/>
<path d="M170.15 126.081L182.812 120.034L194.431 128.116L181.629 134.152L170.15 126.081Z" fill="#817F7F"/>
<path d="M193.248 142.233L194.431 128.115L181.628 134.151L180.445 148.268L193.248 142.233Z" fill="#990319"/>
<path d="M168.964 140.199L157.485 132.129L156.301 146.246L167.78 154.317L168.964 140.199Z" fill="#C3112B"/>
<path d="M157.485 132.13L170.147 126.083L181.766 134.165L168.964 140.2L157.485 132.13Z" fill="#E51533"/>
<path d="M180.583 148.282L181.766 134.164L168.963 140.199L167.78 154.317L180.583 148.282Z" fill="#990319"/>
<path d="M133.347 130.104L121.868 122.033L120.685 136.151L132.164 144.221L133.347 130.104Z" fill="#E2E2E2"/>
<path d="M121.868 122.034L134.53 115.987L146.15 124.07L133.347 130.105L121.868 122.034Z" fill="#817F7F"/>
<path d="M144.966 138.186L146.15 124.068L133.347 130.104L132.164 144.221L144.966 138.186Z" fill="#AAAAAA"/>
<path d="M144.825 138.176L133.346 130.105L132.162 144.223L143.642 152.293L144.825 138.176Z" fill="#0454D3"/>
<path d="M133.346 130.107L146.008 124.06L157.627 132.142L144.825 138.177L133.346 130.107Z" fill="#126DFF"/>
<path d="M156.444 146.258L157.627 132.141L144.824 138.176L143.641 152.293L156.444 146.258Z" fill="#0B4199"/>
<path d="M156.303 146.245L144.823 138.175L143.64 152.292L155.119 160.363L156.303 146.245Z" fill="#C3112B"/>
<path d="M144.823 138.176L157.486 132.129L169.105 140.211L156.303 146.246L144.823 138.176Z" fill="#E51533"/>
<path d="M167.922 154.327L169.105 140.21L156.302 146.245L155.119 160.363L167.922 154.327Z" fill="#990319"/>
<path d="M158.669 118.011L147.19 109.94L146.007 124.058L157.486 132.128L158.669 118.011Z" fill="#0454D3"/>
<path d="M147.19 109.942L159.852 103.895L171.472 111.977L158.669 118.012L147.19 109.942Z" fill="#817F7F"/>
<path d="M170.288 126.093L171.471 111.976L158.669 118.011L157.485 132.128L170.288 126.093Z" fill="#0B4199"/>
<path d="M182.812 120.034L171.333 111.964L170.15 126.081L181.629 134.152L182.812 120.034Z" fill="#C3112B"/>
<path d="M171.333 111.965L183.995 105.918L195.615 114L182.812 120.035L171.333 111.965Z" fill="#E61533"/>
<path d="M194.431 128.117L195.614 113.999L182.811 120.034L181.628 134.152L194.431 128.117Z" fill="#990319"/>
<path d="M134.53 115.988L123.051 107.918L121.868 122.035L133.347 130.106L134.53 115.988Z" fill="#E2E2E2"/>
<path d="M123.051 107.919L135.714 101.872L147.333 109.954L134.53 115.99L123.051 107.919Z" fill="#F2F2F2"/>
<path d="M146.149 124.071L147.333 109.953L134.53 115.988L133.347 130.106L146.149 124.071Z" fill="#AAAAAA"/>
<path d="M159.852 103.893L148.373 95.8223L147.19 109.94L158.669 118.01L159.852 103.893Z" fill="#0454D3"/>
<path d="M148.373 95.8234L161.036 89.7764L172.655 97.8586L159.852 103.894L148.373 95.8234Z" fill="#126DFF"/>
<path d="M171.471 111.975L172.655 97.8575L159.852 103.893L158.669 118.01L171.471 111.975Z" fill="#0B4199"/>
<rect x="89.7126" y="20.5762" width="6" height="217" transform="rotate(4.79106 89.7126 20.5762)" fill="#072C66"/>
</g>
</g>
<defs>
<filter id="filter0_d_1724_48019" x="63.5884" y="16.5762" width="193.876" height="255.379" filterUnits="userSpaceOnUse" color-interpolation-filters="sRGB">
<feFlood flood-opacity="0" result="BackgroundImageFix"/>
<feColorMatrix in="SourceAlpha" type="matrix" values="0 0 0 0 0 0 0 0 0 0 0 0 0 0 0 0 0 0 127 0" result="hardAlpha"/>
<feOffset dy="4"/>
<feGaussianBlur stdDeviation="4"/>
<feColorMatrix type="matrix" values="0 0 0 0 0.101961 0 0 0 0 0.101961 0 0 0 0 0.101961 0 0 0 0.2 0"/>
<feBlend mode="normal" in2="BackgroundImageFix" result="effect1_dropShadow_1724_48019"/>
<feBlend mode="normal" in="SourceGraphic" in2="effect1_dropShadow_1724_48019" result="shape"/>
</filter>
<clipPath id="clip0_1724_48019">
<rect width="320" height="196" fill="white"/>
</clipPath>
</defs>
</svg>
