<svg width="320" height="196" viewBox="0 0 320 196" fill="none" xmlns="http://www.w3.org/2000/svg">
<rect width="320" height="196" fill="#EEEEEE"/>
<path fill-rule="evenodd" clip-rule="evenodd" d="M160.03 27.5703L266.06 147.852H54L160.03 27.5703ZM152.01 127.435L109.568 127.435L152.01 78.559L152.01 127.435ZM210.63 127.297L168.189 127.297L168.19 78.4229L210.63 127.297Z" fill="#C3D9F9"/>
<g filter="url(#filter0_d_1724_47817)">
<path d="M233.446 165.525C209.838 192.767 167.93 167.323 176.556 147.052C184.363 134.768 201.511 136.44 206.413 143.637C216.947 159.102 214.424 167.701 233.446 165.525Z" fill="#C3112B"/>
<path d="M135.119 118.915C108.648 96.2746 74.4553 48.2367 60.668 27.0477L64.1511 24C108.038 51.1683 143.682 84.9545 156.018 98.4515L135.119 118.915Z" fill="#126DFF"/>
<path d="M178.222 147.651C162.896 145.561 143.101 127.623 135.119 118.915L156.017 98.4521C177.613 117.261 184.172 134.735 184.753 141.12L178.222 147.651Z" fill="#0B4199"/>
</g>
<defs>
<filter id="filter0_d_1724_47817" x="52.668" y="20" width="188.778" height="169.395" filterUnits="userSpaceOnUse" color-interpolation-filters="sRGB">
<feFlood flood-opacity="0" result="BackgroundImageFix"/>
<feColorMatrix in="SourceAlpha" type="matrix" values="0 0 0 0 0 0 0 0 0 0 0 0 0 0 0 0 0 0 127 0" result="hardAlpha"/>
<feOffset dy="4"/>
<feGaussianBlur stdDeviation="4"/>
<feColorMatrix type="matrix" values="0 0 0 0 0.101961 0 0 0 0 0.101961 0 0 0 0 0.101961 0 0 0 0.2 0"/>
<feBlend mode="normal" in2="BackgroundImageFix" result="effect1_dropShadow_1724_47817"/>
<feBlend mode="normal" in="SourceGraphic" in2="effect1_dropShadow_1724_47817" result="shape"/>
</filter>
</defs>
</svg>
