<svg width="320" height="196" viewBox="0 0 320 196" fill="none" xmlns="http://www.w3.org/2000/svg">
<rect width="320" height="196" fill="#EEEEEE"/>
<g filter="url(#filter0_d_1724_47997)">
<rect x="86.5493" y="26" width="28.4682" height="28.4682" fill="#0B4199"/>
<rect x="125.693" y="26" width="28.4682" height="28.4682" fill="#126DFF"/>
<rect x="164.837" y="26" width="28.4682" height="28.4682" fill="#0B4199"/>
<rect x="203.981" y="26" width="28.4682" height="28.4682" fill="#0B4199"/>
<rect x="86.5493" y="67.1777" width="28.4682" height="28.4682" fill="#126DFF"/>
<rect x="125.693" y="67.1777" width="28.4682" height="28.4682" fill="#0B4199"/>
<rect x="164.837" y="67.1777" width="28.4682" height="28.4682" fill="#0B4199"/>
<rect x="203.981" y="67.1777" width="28.4682" height="28.4682" fill="#C3112B"/>
<rect x="86.5493" y="108.354" width="28.4682" height="28.4682" fill="#0B4199"/>
<rect x="125.693" y="108.354" width="28.4682" height="28.4682" fill="#0B4199"/>
<rect x="164.837" y="108.354" width="28.4682" height="28.4682" fill="#C3112B"/>
<rect x="203.981" y="108.354" width="28.4682" height="28.4682" fill="#0B4199"/>
<rect x="86.5493" y="149.532" width="28.4682" height="28.4682" fill="#0B4199"/>
<rect x="125.693" y="149.532" width="28.4682" height="28.4682" fill="#C3112B"/>
<rect x="164.837" y="149.532" width="28.4682" height="28.4682" fill="#0B4199"/>
<rect x="203.981" y="149.532" width="28.4682" height="28.4682" fill="#0B4199"/>
</g>
<defs>
<filter id="filter0_d_1724_47997" x="78.5493" y="22" width="161.9" height="168" filterUnits="userSpaceOnUse" color-interpolation-filters="sRGB">
<feFlood flood-opacity="0" result="BackgroundImageFix"/>
<feColorMatrix in="SourceAlpha" type="matrix" values="0 0 0 0 0 0 0 0 0 0 0 0 0 0 0 0 0 0 127 0" result="hardAlpha"/>
<feOffset dy="4"/>
<feGaussianBlur stdDeviation="4"/>
<feColorMatrix type="matrix" values="0 0 0 0 0.101961 0 0 0 0 0.101961 0 0 0 0 0.101961 0 0 0 0.2 0"/>
<feBlend mode="normal" in2="BackgroundImageFix" result="effect1_dropShadow_1724_47997"/>
<feBlend mode="normal" in="SourceGraphic" in2="effect1_dropShadow_1724_47997" result="shape"/>
</filter>
</defs>
</svg>
