<svg width="320" height="196" viewBox="0 0 320 196" fill="none" xmlns="http://www.w3.org/2000/svg">
<g clip-path="url(#clip0_1724_47767)">
<rect width="320" height="196" fill="#EEEEEE"/>
<g filter="url(#filter0_d_1724_47767)">
<path d="M140 146.412L206.136 107.662L273.04 146.412L206.136 185.161L140 146.412Z" fill="#126DFF"/>
<path d="M206.263 133.494L184.175 120.577V146.41L206.263 159.327V133.494Z" fill="#0454D3"/>
<path d="M184.175 120.58L206.263 107.663L228.607 120.58L206.263 133.496L184.175 120.58Z" fill="#817F7F"/>
<path d="M228.606 146.41V120.577L206.262 133.494V159.327L228.606 146.41Z" fill="#0B4199"/>
<path d="M250.434 133.494L228.346 120.577V146.41L250.434 159.327V133.494Z" fill="#C3112B"/>
<path d="M228.346 120.58L250.434 107.663L272.778 120.58L250.434 133.496L228.346 120.58Z" fill="#817F7F"/>
<path d="M272.777 146.41V120.577L250.433 133.494V159.327L272.777 146.41Z" fill="#990319"/>
<path d="M228.35 146.413L206.262 133.496V159.329L228.35 172.246V146.413Z" fill="#C3112B"/>
<path d="M206.262 133.499L228.35 120.582L250.695 133.499L228.35 146.415L206.262 133.499Z" fill="#E51533"/>
<path d="M250.694 159.329V133.496L228.349 146.413V172.246L250.694 159.329Z" fill="#990319"/>
<path d="M162.088 133.494L140 120.577V146.41L162.088 159.327V133.494Z" fill="#E2E2E2"/>
<path d="M140 120.58L162.088 107.663L184.432 120.58L162.088 133.496L140 120.58Z" fill="#817F7F"/>
<path d="M184.431 146.41V120.577L162.087 133.494V159.327L184.431 146.41Z" fill="#AAAAAA"/>
<path d="M184.175 146.413L162.087 133.496V159.329L184.175 172.246V146.413Z" fill="#0454D3"/>
<path d="M162.087 133.499L184.175 120.582L206.52 133.499L184.175 146.415L162.087 133.499Z" fill="#126DFF"/>
<path d="M206.519 159.329V133.496L184.174 146.413V172.246L206.519 159.329Z" fill="#0B4199"/>
<path d="M206.263 159.328L184.175 146.411V172.244L206.263 185.161V159.328Z" fill="#C3112B"/>
<path d="M184.175 146.414L206.263 133.497L228.607 146.414L206.263 159.33L184.175 146.414Z" fill="#E51533"/>
<path d="M228.606 172.244V146.411L206.262 159.328V185.161L228.606 172.244Z" fill="#990319"/>
<path d="M206.263 107.665L184.175 94.748V120.581L206.263 133.498V107.665Z" fill="#0454D3"/>
<path d="M184.175 94.7505L206.263 81.834L228.607 94.7505L206.263 107.667L184.175 94.7505Z" fill="#817F7F"/>
<path d="M228.606 120.581V94.748L206.262 107.665V133.498L228.606 120.581Z" fill="#0B4199"/>
<path d="M250.434 107.665L228.346 94.748V120.581L250.434 133.498V107.665Z" fill="#C3112B"/>
<path d="M228.346 94.7505L250.434 81.834L272.778 94.7505L250.434 107.667L228.346 94.7505Z" fill="#E61533"/>
<path d="M272.777 120.581V94.748L250.433 107.665V133.498L272.777 120.581Z" fill="#990319"/>
<path d="M162.088 107.665L140 94.748V120.581L162.088 133.498V107.665Z" fill="#E2E2E2"/>
<path d="M140 94.7505L162.088 81.834L184.432 94.7505L162.088 107.667L140 94.7505Z" fill="#F2F2F2"/>
<path d="M184.431 120.581V94.748L162.087 107.665V133.498L184.431 120.581Z" fill="#AAAAAA"/>
<path d="M206.263 81.8306L184.175 68.9141V94.7471L206.263 107.664V81.8306Z" fill="#0454D3"/>
<path d="M184.175 68.9165L206.263 56L228.607 68.9165L206.263 81.833L184.175 68.9165Z" fill="#126DFF"/>
<path d="M228.606 94.7471V68.9141L206.262 81.8306V107.664L228.606 94.7471Z" fill="#0B4199"/>
</g>
<g filter="url(#filter1_d_1724_47767)">
<path d="M76.8732 44.4594L59.5122 56.1096L83.041 123.955L88.9803 118.472L104.971 111.619H121.418L145.632 114.589L162.308 108.878L161.166 40.1191L139.464 46.2869L121.418 44.4594L99.9451 40.1191L76.8732 44.4594Z" fill="#EEEEEE"/>
<path d="M86.0103 67.7612L68.4208 78.726L59.5017 56.001L76.416 44.9177L86.0103 67.7612L107.94 64.5631L114.336 87.4065L129.413 91.2899H144.718L144.675 90.567L143.576 72.1014L141.748 47.2021L159.795 41.4912V64.5631L143.576 72.1014L144.675 90.567L144.764 91.2787L160.708 87.4065L161.394 108.651L147.459 112.763L144.764 91.2787L144.718 91.2899H129.413L134.438 112.763L120.732 110.25L114.336 87.4065L93.3202 88.7772L101.544 110.25L85.0965 122.357L75.0454 102.026L93.3202 88.7772L86.0103 67.7612Z" fill="#0B4199"/>
<path d="M125.073 70.9593L120.733 44.9177L102.458 41.4912L107.94 64.5631L125.073 70.9593Z" fill="#0B4199"/>
<path d="M129.184 91.5171L125.073 70.958L143.576 71.8717L144.718 91.5171H129.184Z" fill="#0B4199"/>
<path d="M60.6541 56.7951C65.8319 49.0284 82.8579 35.1396 109.539 41.7185C127.128 46.0556 133.296 51.5413 160.251 40.5764L161.851 108.421C157.434 111.163 144.033 115.823 125.758 112.533C116.849 110.173 96.2441 108.833 85.0965 122.356" stroke="#0B4199" stroke-width="4" stroke-linecap="round"/>
<path d="M57 49.9424L95.8339 156.393" stroke="#0B4199" stroke-width="4" stroke-linecap="round"/>
</g>
</g>
<defs>
<filter id="filter0_d_1724_47767" x="132" y="52" width="149.041" height="145.161" filterUnits="userSpaceOnUse" color-interpolation-filters="sRGB">
<feFlood flood-opacity="0" result="BackgroundImageFix"/>
<feColorMatrix in="SourceAlpha" type="matrix" values="0 0 0 0 0 0 0 0 0 0 0 0 0 0 0 0 0 0 127 0" result="hardAlpha"/>
<feOffset dy="4"/>
<feGaussianBlur stdDeviation="4"/>
<feColorMatrix type="matrix" values="0 0 0 0 0.101961 0 0 0 0 0.101961 0 0 0 0 0.101961 0 0 0 0.2 0"/>
<feBlend mode="normal" in2="BackgroundImageFix" result="effect1_dropShadow_1724_47767"/>
<feBlend mode="normal" in="SourceGraphic" in2="effect1_dropShadow_1724_47767" result="shape"/>
</filter>
<filter id="filter1_d_1724_47767" x="46.9995" y="33.6318" width="124.877" height="136.762" filterUnits="userSpaceOnUse" color-interpolation-filters="sRGB">
<feFlood flood-opacity="0" result="BackgroundImageFix"/>
<feColorMatrix in="SourceAlpha" type="matrix" values="0 0 0 0 0 0 0 0 0 0 0 0 0 0 0 0 0 0 127 0" result="hardAlpha"/>
<feOffset dy="4"/>
<feGaussianBlur stdDeviation="4"/>
<feColorMatrix type="matrix" values="0 0 0 0 0.101961 0 0 0 0 0.101961 0 0 0 0 0.101961 0 0 0 0.2 0"/>
<feBlend mode="normal" in2="BackgroundImageFix" result="effect1_dropShadow_1724_47767"/>
<feBlend mode="normal" in="SourceGraphic" in2="effect1_dropShadow_1724_47767" result="shape"/>
</filter>
<clipPath id="clip0_1724_47767">
<rect width="320" height="196" fill="white"/>
</clipPath>
</defs>
</svg>
