<svg width="1600" height="484" viewBox="0 0 1600 484" fill="none" xmlns="http://www.w3.org/2000/svg">
<mask id="path-1-inside-1_2524_49462" fill="white">
<path d="M0 0H1600V76H0V0Z"/>
</mask>
<path d="M1600 75H0V77H1600V75Z" fill="#E0E0E0" mask="url(#path-1-inside-1_2524_49462)"/>
<path d="M11.848 47V31.352H15.472L19.552 39.128L21.088 42.584H21.184C21.12 41.752 21.032 40.824 20.92 39.8C20.808 38.776 20.752 37.8 20.752 36.872V31.352H24.112V47H20.488L16.408 39.2L14.872 35.792H14.776C14.856 36.656 14.944 37.584 15.04 38.576C15.152 39.568 15.208 40.528 15.208 41.456V47H11.848ZM30.6709 47.288C29.5829 47.288 28.7189 46.944 28.0789 46.256C27.4389 45.552 27.1189 44.696 27.1189 43.688C27.1189 42.44 27.6469 41.464 28.7029 40.76C29.7589 40.056 31.4629 39.584 33.8149 39.344C33.7829 38.816 33.6229 38.4 33.3349 38.096C33.0629 37.776 32.5989 37.616 31.9429 37.616C31.4469 37.616 30.9429 37.712 30.4309 37.904C29.9189 38.096 29.3749 38.36 28.7989 38.696L27.5269 36.368C28.2789 35.904 29.0789 35.528 29.9269 35.24C30.7909 34.952 31.6869 34.808 32.6149 34.808C34.1349 34.808 35.3029 35.248 36.1189 36.128C36.9349 37.008 37.3429 38.36 37.3429 40.184V47H34.4629L34.2229 45.776H34.1269C33.6309 46.224 33.0949 46.592 32.5189 46.88C31.9589 47.152 31.3429 47.288 30.6709 47.288ZM31.8709 44.552C32.2709 44.552 32.6149 44.464 32.9029 44.288C33.2069 44.096 33.5109 43.848 33.8149 43.544V41.456C32.5669 41.616 31.7029 41.872 31.2229 42.224C30.7429 42.56 30.5029 42.96 30.5029 43.424C30.5029 43.808 30.6229 44.096 30.8629 44.288C31.1189 44.464 31.4549 44.552 31.8709 44.552ZM32.9749 33.272L31.2469 31.544L34.9429 27.176L37.3189 29.504L32.9749 33.272ZM39.8292 47V45.104L44.8212 37.856H40.3812V35.096H49.2132V36.968L44.2212 44.24H49.3812V47H39.8292ZM56.5439 47.288C55.5359 47.288 54.5839 47.048 53.6879 46.568C52.8079 46.072 52.0959 45.36 51.5519 44.432C51.0079 43.488 50.7359 42.36 50.7359 41.048C50.7359 39.72 51.0079 38.592 51.5519 37.664C52.0959 36.736 52.8079 36.032 53.6879 35.552C54.5839 35.056 55.5359 34.808 56.5439 34.808C57.5519 34.808 58.4959 35.056 59.3759 35.552C60.2559 36.032 60.9679 36.736 61.5119 37.664C62.0559 38.592 62.3279 39.72 62.3279 41.048C62.3279 42.36 62.0559 43.488 61.5119 44.432C60.9679 45.36 60.2559 46.072 59.3759 46.568C58.4959 47.048 57.5519 47.288 56.5439 47.288ZM56.5439 44.432C57.2639 44.432 57.8079 44.128 58.1759 43.52C58.5439 42.896 58.7279 42.072 58.7279 41.048C58.7279 40.008 58.5439 39.184 58.1759 38.576C57.8079 37.968 57.2639 37.664 56.5439 37.664C55.8079 37.664 55.2559 37.968 54.8879 38.576C54.5359 39.184 54.3599 40.008 54.3599 41.048C54.3599 42.072 54.5359 42.896 54.8879 43.52C55.2559 44.128 55.8079 44.432 56.5439 44.432ZM67.4429 47L63.4349 35.096H66.9869L68.5229 40.712C68.6829 41.304 68.8349 41.912 68.9789 42.536C69.1389 43.144 69.2989 43.76 69.4589 44.384H69.5549C69.6989 43.76 69.8429 43.144 69.9869 42.536C70.1469 41.912 70.3069 41.304 70.4669 40.712L72.0269 35.096H75.4109L71.5229 47H67.4429Z" fill="black"/>
<path d="M204.896 47V34.328H200.6V31.352H212.744V34.328H208.448V47H204.896ZM218.33 47.288C217.322 47.288 216.37 47.048 215.474 46.568C214.594 46.072 213.882 45.36 213.338 44.432C212.794 43.488 212.522 42.36 212.522 41.048C212.522 39.72 212.794 38.592 213.338 37.664C213.882 36.736 214.594 36.032 215.474 35.552C216.37 35.056 217.322 34.808 218.33 34.808C219.338 34.808 220.282 35.056 221.162 35.552C222.042 36.032 222.754 36.736 223.298 37.664C223.842 38.592 224.114 39.72 224.114 41.048C224.114 42.36 223.842 43.488 223.298 44.432C222.754 45.36 222.042 46.072 221.162 46.568C220.282 47.048 219.338 47.288 218.33 47.288ZM218.33 44.432C219.05 44.432 219.594 44.128 219.962 43.52C220.33 42.896 220.514 42.072 220.514 41.048C220.514 40.008 220.33 39.184 219.962 38.576C219.594 37.968 219.05 37.664 218.33 37.664C217.594 37.664 217.042 37.968 216.674 38.576C216.322 39.184 216.146 40.008 216.146 41.048C216.146 42.072 216.322 42.896 216.674 43.52C217.042 44.128 217.594 44.432 218.33 44.432ZM226.68 47V30.176H230.112V39.824H230.208L233.976 35.096H237.816L233.64 39.992L238.128 47H234.312L231.624 42.368L230.112 44.072V47H226.68ZM244.627 47.288C243.491 47.288 242.467 47.04 241.555 46.544C240.643 46.048 239.923 45.336 239.395 44.408C238.867 43.48 238.603 42.36 238.603 41.048C238.603 39.752 238.867 38.64 239.395 37.712C239.939 36.784 240.643 36.072 241.507 35.576C242.371 35.064 243.275 34.808 244.219 34.808C245.355 34.808 246.291 35.064 247.027 35.576C247.779 36.072 248.339 36.752 248.707 37.616C249.091 38.464 249.283 39.432 249.283 40.52C249.283 40.824 249.267 41.128 249.235 41.432C249.203 41.72 249.171 41.936 249.139 42.08H242.011C242.171 42.944 242.531 43.584 243.091 44C243.651 44.4 244.323 44.6 245.107 44.6C245.955 44.6 246.811 44.336 247.675 43.808L248.851 45.944C248.243 46.36 247.563 46.688 246.811 46.928C246.059 47.168 245.331 47.288 244.627 47.288ZM241.987 39.752H246.283C246.283 39.096 246.123 38.56 245.803 38.144C245.499 37.712 244.995 37.496 244.291 37.496C243.747 37.496 243.259 37.688 242.827 38.072C242.395 38.44 242.115 39 241.987 39.752ZM251.871 47V35.096H254.751L254.991 36.608H255.087C255.599 36.128 256.159 35.712 256.767 35.36C257.391 34.992 258.103 34.808 258.903 34.808C260.199 34.808 261.135 35.24 261.711 36.104C262.303 36.952 262.599 38.12 262.599 39.608V47H259.071V40.064C259.071 39.2 258.951 38.608 258.711 38.288C258.487 37.968 258.119 37.808 257.607 37.808C257.159 37.808 256.775 37.912 256.455 38.12C256.135 38.312 255.783 38.592 255.399 38.96V47H251.871Z" fill="black"/>
<path d="M394.56 47L389.832 31.352H393.576L395.448 38.648C395.688 39.496 395.896 40.328 396.072 41.144C396.264 41.96 396.48 42.8 396.72 43.664H396.816C397.04 42.8 397.248 41.96 397.44 41.144C397.632 40.328 397.84 39.496 398.064 38.648L399.912 31.352H403.512L398.808 47H394.56ZM409.929 47.288C408.793 47.288 407.769 47.04 406.857 46.544C405.945 46.048 405.225 45.336 404.697 44.408C404.169 43.48 403.905 42.36 403.905 41.048C403.905 39.752 404.169 38.64 404.697 37.712C405.241 36.784 405.945 36.072 406.809 35.576C407.673 35.064 408.577 34.808 409.521 34.808C410.657 34.808 411.593 35.064 412.329 35.576C413.081 36.072 413.641 36.752 414.009 37.616C414.393 38.464 414.585 39.432 414.585 40.52C414.585 40.824 414.569 41.128 414.537 41.432C414.505 41.72 414.473 41.936 414.441 42.08H407.313C407.473 42.944 407.833 43.584 408.393 44C408.953 44.4 409.625 44.6 410.409 44.6C411.257 44.6 412.113 44.336 412.977 43.808L414.153 45.944C413.545 46.36 412.865 46.688 412.113 46.928C411.361 47.168 410.633 47.288 409.929 47.288ZM407.289 39.752H411.585C411.585 39.096 411.425 38.56 411.105 38.144C410.801 37.712 410.297 37.496 409.593 37.496C409.049 37.496 408.561 37.688 408.129 38.072C407.697 38.44 407.417 39 407.289 39.752ZM420.412 47.288C419.196 47.288 418.348 46.928 417.868 46.208C417.404 45.472 417.172 44.504 417.172 43.304V30.176H420.7V43.448C420.7 43.816 420.764 44.072 420.892 44.216C421.036 44.36 421.18 44.432 421.324 44.432C421.404 44.432 421.468 44.432 421.516 44.432C421.58 44.416 421.66 44.4 421.756 44.384L422.188 47C421.996 47.08 421.748 47.144 421.444 47.192C421.156 47.256 420.812 47.288 420.412 47.288ZM421.732 33.848L421.588 28.52H423.868L423.82 30.176L423.244 33.848H421.732ZM424.963 47V30.176H428.395V39.824H428.491L432.259 35.096H436.099L431.923 39.992L436.411 47H432.595L429.907 42.368L428.395 44.072V47H424.963ZM442.694 47.288C441.686 47.288 440.734 47.048 439.838 46.568C438.958 46.072 438.246 45.36 437.702 44.432C437.158 43.488 436.886 42.36 436.886 41.048C436.886 39.72 437.158 38.592 437.702 37.664C438.246 36.736 438.958 36.032 439.838 35.552C440.734 35.056 441.686 34.808 442.694 34.808C443.702 34.808 444.646 35.056 445.526 35.552C446.406 36.032 447.118 36.736 447.662 37.664C448.206 38.592 448.478 39.72 448.478 41.048C448.478 42.36 448.206 43.488 447.662 44.432C447.118 45.36 446.406 46.072 445.526 46.568C444.646 47.048 443.702 47.288 442.694 47.288ZM442.694 44.432C443.414 44.432 443.958 44.128 444.326 43.52C444.694 42.896 444.878 42.072 444.878 41.048C444.878 40.008 444.694 39.184 444.326 38.576C443.958 37.968 443.414 37.664 442.694 37.664C441.958 37.664 441.406 37.968 441.038 38.576C440.686 39.184 440.51 40.008 440.51 41.048C440.51 42.072 440.686 42.896 441.038 43.52C441.406 44.128 441.958 44.432 442.694 44.432ZM454.431 47.288C453.647 47.288 452.839 47.136 452.007 46.832C451.191 46.528 450.479 46.128 449.871 45.632L451.455 43.424C451.999 43.824 452.519 44.136 453.015 44.36C453.527 44.568 454.031 44.672 454.527 44.672C455.055 44.672 455.439 44.584 455.679 44.408C455.919 44.216 456.039 43.968 456.039 43.664C456.039 43.392 455.919 43.168 455.679 42.992C455.455 42.816 455.159 42.656 454.791 42.512C454.423 42.352 454.031 42.192 453.615 42.032C453.135 41.84 452.655 41.6 452.175 41.312C451.711 41.024 451.319 40.656 450.999 40.208C450.679 39.744 450.519 39.184 450.519 38.528C450.519 37.424 450.935 36.528 451.767 35.84C452.615 35.152 453.719 34.808 455.079 34.808C455.991 34.808 456.791 34.968 457.479 35.288C458.183 35.592 458.783 35.936 459.279 36.32L457.695 38.432C457.279 38.112 456.863 37.864 456.447 37.688C456.031 37.512 455.615 37.424 455.199 37.424C454.287 37.424 453.831 37.736 453.831 38.36C453.831 38.744 454.055 39.04 454.503 39.248C454.967 39.44 455.503 39.648 456.111 39.872C456.623 40.048 457.119 40.28 457.599 40.568C458.095 40.84 458.503 41.208 458.823 41.672C459.159 42.12 459.327 42.712 459.327 43.448C459.327 44.52 458.911 45.432 458.079 46.184C457.247 46.92 456.031 47.288 454.431 47.288ZM465.833 47.288C464.361 47.288 463.305 46.864 462.665 46.016C462.041 45.168 461.729 44.056 461.729 42.68V37.856H460.097V35.24L461.921 35.096L462.329 31.928H465.257V35.096H468.113V37.856H465.257V42.632C465.257 43.304 465.393 43.792 465.665 44.096C465.953 44.384 466.329 44.528 466.793 44.528C466.985 44.528 467.177 44.504 467.369 44.456C467.577 44.408 467.761 44.352 467.921 44.288L468.473 46.856C468.169 46.952 467.793 47.048 467.345 47.144C466.913 47.24 466.409 47.288 465.833 47.288ZM466.409 33.848L466.265 28.52H468.545L468.497 30.176L467.921 33.848H466.409Z" fill="black"/>
<mask id="path-6-inside-2_2524_49462" fill="white">
<path d="M0 76H1600V144H0V76Z"/>
</mask>
<path d="M1600 143H0V145H1600V143Z" fill="#E0E0E0" mask="url(#path-6-inside-2_2524_49462)"/>
<path d="M11.501 117V115.708H14.275V106.778H12.071V105.771C12.6283 105.67 13.1097 105.549 13.515 105.41C13.933 105.258 14.3067 105.081 14.636 104.878H15.833V115.708H18.341V117H11.501Z" fill="black"/>
<path d="M204.294 117V105.866H200.532V104.536H209.652V105.866H205.89V117H204.294ZM214.574 117.228C213.826 117.228 213.123 117.038 212.465 116.658C211.819 116.278 211.293 115.727 210.888 115.005C210.495 114.283 210.299 113.415 210.299 112.402C210.299 111.363 210.495 110.483 210.888 109.761C211.293 109.039 211.819 108.488 212.465 108.108C213.123 107.728 213.826 107.538 214.574 107.538C215.334 107.538 216.037 107.728 216.683 108.108C217.329 108.488 217.848 109.039 218.241 109.761C218.646 110.483 218.849 111.363 218.849 112.402C218.849 113.415 218.646 114.283 218.241 115.005C217.848 115.727 217.329 116.278 216.683 116.658C216.037 117.038 215.334 117.228 214.574 117.228ZM214.574 115.936C215.372 115.936 216.011 115.613 216.493 114.967C216.987 114.308 217.234 113.453 217.234 112.402C217.234 111.338 216.987 110.477 216.493 109.818C216.011 109.159 215.372 108.83 214.574 108.83C213.788 108.83 213.149 109.159 212.655 109.818C212.161 110.477 211.914 111.338 211.914 112.402C211.914 113.453 212.161 114.308 212.655 114.967C213.149 115.613 213.788 115.936 214.574 115.936ZM221.781 117V103.472H223.32V112.63H223.377L227.31 107.766H229.039L225.942 111.471L229.457 117H227.747L225.049 112.554L223.32 114.568V117H221.781ZM235.097 117.228C234.274 117.228 233.526 117.038 232.855 116.658C232.184 116.265 231.652 115.708 231.259 114.986C230.866 114.264 230.67 113.403 230.67 112.402C230.67 111.389 230.866 110.521 231.259 109.799C231.664 109.077 232.184 108.52 232.817 108.127C233.45 107.734 234.115 107.538 234.812 107.538C235.99 107.538 236.896 107.931 237.529 108.716C238.175 109.501 238.498 110.553 238.498 111.87C238.498 112.035 238.492 112.199 238.479 112.364C238.479 112.516 238.466 112.649 238.441 112.763H232.209C232.272 113.738 232.576 114.517 233.121 115.1C233.678 115.683 234.4 115.974 235.287 115.974C235.73 115.974 236.136 115.911 236.503 115.784C236.883 115.645 237.244 115.467 237.586 115.252L238.137 116.278C237.744 116.531 237.295 116.753 236.788 116.943C236.294 117.133 235.73 117.228 235.097 117.228ZM232.19 111.642H237.13C237.13 110.705 236.927 109.995 236.522 109.514C236.129 109.02 235.572 108.773 234.85 108.773C234.204 108.773 233.621 109.026 233.102 109.533C232.595 110.027 232.291 110.73 232.19 111.642ZM241.28 117V107.766H242.572L242.705 109.096H242.762C243.205 108.653 243.674 108.285 244.168 107.994C244.662 107.69 245.225 107.538 245.859 107.538C246.834 107.538 247.543 107.848 247.987 108.469C248.443 109.077 248.671 109.97 248.671 111.148V117H247.113V111.357C247.113 110.496 246.973 109.869 246.695 109.476C246.416 109.083 245.973 108.887 245.365 108.887C244.896 108.887 244.472 109.007 244.092 109.248C243.724 109.489 243.306 109.843 242.838 110.312V117H241.28ZM256.474 117V107.766H257.766L257.899 109.096H257.956C258.361 108.653 258.805 108.285 259.286 107.994C259.767 107.69 260.28 107.538 260.825 107.538C261.534 107.538 262.085 107.696 262.478 108.013C262.883 108.317 263.181 108.748 263.371 109.305C263.852 108.786 264.34 108.361 264.834 108.032C265.328 107.703 265.854 107.538 266.411 107.538C267.361 107.538 268.064 107.848 268.52 108.469C268.989 109.077 269.223 109.97 269.223 111.148V117H267.665V111.357C267.665 110.496 267.526 109.869 267.247 109.476C266.968 109.083 266.538 108.887 265.955 108.887C265.271 108.887 264.498 109.362 263.637 110.312V117H262.079V111.357C262.079 110.496 261.94 109.869 261.661 109.476C261.382 109.083 260.945 108.887 260.35 108.887C259.666 108.887 258.893 109.362 258.032 110.312V117H256.474ZM276.47 117.228C275.647 117.228 274.899 117.038 274.228 116.658C273.557 116.265 273.025 115.708 272.632 114.986C272.239 114.264 272.043 113.403 272.043 112.402C272.043 111.389 272.239 110.521 272.632 109.799C273.037 109.077 273.557 108.52 274.19 108.127C274.823 107.734 275.488 107.538 276.185 107.538C277.363 107.538 278.269 107.931 278.902 108.716C279.548 109.501 279.871 110.553 279.871 111.87C279.871 112.035 279.865 112.199 279.852 112.364C279.852 112.516 279.839 112.649 279.814 112.763H273.582C273.645 113.738 273.949 114.517 274.494 115.1C275.051 115.683 275.773 115.974 276.66 115.974C277.103 115.974 277.509 115.911 277.876 115.784C278.256 115.645 278.617 115.467 278.959 115.252L279.51 116.278C279.117 116.531 278.668 116.753 278.161 116.943C277.667 117.133 277.103 117.228 276.47 117.228ZM273.563 111.642H278.503C278.503 110.705 278.3 109.995 277.895 109.514C277.502 109.02 276.945 108.773 276.223 108.773C275.577 108.773 274.994 109.026 274.475 109.533C273.968 110.027 273.664 110.73 273.563 111.642ZM282.653 117V107.766H283.945L284.078 109.096H284.135C284.578 108.653 285.047 108.285 285.541 107.994C286.035 107.69 286.598 107.538 287.232 107.538C288.207 107.538 288.916 107.848 289.36 108.469C289.816 109.077 290.044 109.97 290.044 111.148V117H288.486V111.357C288.486 110.496 288.346 109.869 288.068 109.476C287.789 109.083 287.346 108.887 286.738 108.887C286.269 108.887 285.845 109.007 285.465 109.248C285.097 109.489 284.679 109.843 284.211 110.312V117H282.653ZM297.134 117.228C296.387 117.228 295.684 117.038 295.025 116.658C294.379 116.278 293.854 115.727 293.448 115.005C293.056 114.283 292.859 113.415 292.859 112.402C292.859 111.363 293.056 110.483 293.448 109.761C293.854 109.039 294.379 108.488 295.025 108.108C295.684 107.728 296.387 107.538 297.134 107.538C297.894 107.538 298.597 107.728 299.243 108.108C299.889 108.488 300.409 109.039 300.801 109.761C301.207 110.483 301.409 111.363 301.409 112.402C301.409 113.415 301.207 114.283 300.801 115.005C300.409 115.727 299.889 116.278 299.243 116.658C298.597 117.038 297.894 117.228 297.134 117.228ZM297.134 115.936C297.932 115.936 298.572 115.613 299.053 114.967C299.547 114.308 299.794 113.453 299.794 112.402C299.794 111.338 299.547 110.477 299.053 109.818C298.572 109.159 297.932 108.83 297.134 108.83C296.349 108.83 295.709 109.159 295.215 109.818C294.721 110.477 294.474 111.338 294.474 112.402C294.474 113.453 294.721 114.308 295.215 114.967C295.709 115.613 296.349 115.936 297.134 115.936Z" fill="black"/>
<path d="M391.501 117V115.708H394.275V106.778H392.071V105.771C392.628 105.67 393.11 105.549 393.515 105.41C393.933 105.258 394.307 105.081 394.636 104.878H395.833V115.708H398.341V117H391.501ZM404.39 117.228C403.428 117.228 402.63 117.057 401.996 116.715C401.363 116.373 400.837 115.993 400.419 115.575L401.179 114.549C401.547 114.904 401.971 115.227 402.452 115.518C402.934 115.797 403.529 115.936 404.238 115.936C404.986 115.936 405.613 115.689 406.119 115.195C406.639 114.688 406.898 114.011 406.898 113.162C406.898 112.326 406.664 111.674 406.195 111.205C405.727 110.736 405.1 110.502 404.314 110.502C403.896 110.502 403.535 110.565 403.231 110.692C402.94 110.819 402.611 111.002 402.243 111.243L401.407 110.711L401.806 104.878H407.867V106.227H403.174L402.851 109.818C403.143 109.666 403.434 109.546 403.725 109.457C404.017 109.368 404.346 109.324 404.713 109.324C405.41 109.324 406.037 109.463 406.594 109.742C407.164 110.008 407.62 110.42 407.962 110.977C408.304 111.534 408.475 112.25 408.475 113.124C408.475 113.998 408.279 114.745 407.886 115.366C407.506 115.974 407.006 116.436 406.385 116.753C405.765 117.07 405.1 117.228 404.39 117.228ZM411.447 120.895V107.766H412.739L412.872 108.83H412.929C413.347 108.475 413.803 108.171 414.297 107.918C414.803 107.665 415.329 107.538 415.874 107.538C417.064 107.538 417.97 107.969 418.591 108.83C419.211 109.679 419.522 110.819 419.522 112.25C419.522 113.289 419.332 114.182 418.952 114.929C418.584 115.676 418.097 116.246 417.489 116.639C416.893 117.032 416.241 117.228 415.532 117.228C415.101 117.228 414.67 117.133 414.24 116.943C413.822 116.753 413.397 116.493 412.967 116.164L413.005 117.779V120.895H411.447ZM415.266 115.917C416.026 115.917 416.653 115.594 417.147 114.948C417.653 114.289 417.907 113.39 417.907 112.25C417.907 111.237 417.717 110.42 417.337 109.799C416.969 109.166 416.349 108.849 415.475 108.849C415.082 108.849 414.683 108.957 414.278 109.172C413.885 109.387 413.461 109.698 413.005 110.103V114.948C413.423 115.303 413.828 115.556 414.221 115.708C414.613 115.847 414.962 115.917 415.266 115.917ZM420.878 117L423.899 112.174L421.106 107.766H422.797L424.032 109.799C424.172 110.04 424.317 110.293 424.469 110.559C424.621 110.825 424.78 111.085 424.944 111.338H425.02C425.16 111.085 425.299 110.825 425.438 110.559C425.578 110.293 425.717 110.04 425.856 109.799L426.977 107.766H428.611L425.818 112.345L428.82 117H427.129L425.78 114.853C425.616 114.574 425.451 114.296 425.286 114.017C425.122 113.738 424.951 113.466 424.773 113.2H424.697C424.533 113.466 424.374 113.738 424.222 114.017C424.07 114.283 423.918 114.562 423.766 114.853L422.512 117H420.878Z" fill="black"/>
<rect width="15" height="15" transform="translate(580 102.5)" fill="#C3D9F9"/>
<mask id="path-11-inside-3_2524_49462" fill="white">
<path d="M0 144H1600V212H0V144Z"/>
</mask>
<path d="M1600 211H0V213H1600V211Z" fill="#E0E0E0" mask="url(#path-11-inside-3_2524_49462)"/>
<path d="M10.76 185V184.069C11.976 182.853 13.0083 181.789 13.857 180.877C14.7057 179.952 15.3517 179.123 15.795 178.388C16.2383 177.641 16.46 176.944 16.46 176.298C16.46 175.601 16.27 175.031 15.89 174.588C15.51 174.145 14.9337 173.923 14.161 173.923C13.6543 173.923 13.1857 174.069 12.755 174.36C12.3243 174.639 11.9317 174.981 11.577 175.386L10.684 174.493C11.1907 173.936 11.729 173.492 12.299 173.163C12.8817 172.821 13.5657 172.65 14.351 172.65C15.4783 172.65 16.365 172.979 17.011 173.638C17.657 174.284 17.98 175.145 17.98 176.222C17.98 176.982 17.7647 177.755 17.334 178.54C16.916 179.313 16.3333 180.13 15.586 180.991C14.8513 181.84 14.0027 182.764 13.04 183.765C13.3693 183.74 13.7113 183.714 14.066 183.689C14.4207 183.664 14.7563 183.651 15.073 183.651H18.588V185H10.76Z" fill="black"/>
<path d="M204.294 185V173.866H200.532V172.536H209.652V173.866H205.89V185H204.294ZM214.574 185.228C213.826 185.228 213.123 185.038 212.465 184.658C211.819 184.278 211.293 183.727 210.888 183.005C210.495 182.283 210.299 181.415 210.299 180.402C210.299 179.363 210.495 178.483 210.888 177.761C211.293 177.039 211.819 176.488 212.465 176.108C213.123 175.728 213.826 175.538 214.574 175.538C215.334 175.538 216.037 175.728 216.683 176.108C217.329 176.488 217.848 177.039 218.241 177.761C218.646 178.483 218.849 179.363 218.849 180.402C218.849 181.415 218.646 182.283 218.241 183.005C217.848 183.727 217.329 184.278 216.683 184.658C216.037 185.038 215.334 185.228 214.574 185.228ZM214.574 183.936C215.372 183.936 216.011 183.613 216.493 182.967C216.987 182.308 217.234 181.453 217.234 180.402C217.234 179.338 216.987 178.477 216.493 177.818C216.011 177.159 215.372 176.83 214.574 176.83C213.788 176.83 213.149 177.159 212.655 177.818C212.161 178.477 211.914 179.338 211.914 180.402C211.914 181.453 212.161 182.308 212.655 182.967C213.149 183.613 213.788 183.936 214.574 183.936ZM221.781 185V171.472H223.32V180.63H223.377L227.31 175.766H229.039L225.942 179.471L229.457 185H227.747L225.049 180.554L223.32 182.568V185H221.781ZM235.097 185.228C234.274 185.228 233.526 185.038 232.855 184.658C232.184 184.265 231.652 183.708 231.259 182.986C230.866 182.264 230.67 181.403 230.67 180.402C230.67 179.389 230.866 178.521 231.259 177.799C231.664 177.077 232.184 176.52 232.817 176.127C233.45 175.734 234.115 175.538 234.812 175.538C235.99 175.538 236.896 175.931 237.529 176.716C238.175 177.501 238.498 178.553 238.498 179.87C238.498 180.035 238.492 180.199 238.479 180.364C238.479 180.516 238.466 180.649 238.441 180.763H232.209C232.272 181.738 232.576 182.517 233.121 183.1C233.678 183.683 234.4 183.974 235.287 183.974C235.73 183.974 236.136 183.911 236.503 183.784C236.883 183.645 237.244 183.467 237.586 183.252L238.137 184.278C237.744 184.531 237.295 184.753 236.788 184.943C236.294 185.133 235.73 185.228 235.097 185.228ZM232.19 179.642H237.13C237.13 178.705 236.927 177.995 236.522 177.514C236.129 177.02 235.572 176.773 234.85 176.773C234.204 176.773 233.621 177.026 233.102 177.533C232.595 178.027 232.291 178.73 232.19 179.642ZM241.28 185V175.766H242.572L242.705 177.096H242.762C243.205 176.653 243.674 176.285 244.168 175.994C244.662 175.69 245.225 175.538 245.859 175.538C246.834 175.538 247.543 175.848 247.987 176.469C248.443 177.077 248.671 177.97 248.671 179.148V185H247.113V179.357C247.113 178.496 246.973 177.869 246.695 177.476C246.416 177.083 245.973 176.887 245.365 176.887C244.896 176.887 244.472 177.007 244.092 177.248C243.724 177.489 243.306 177.843 242.838 178.312V185H241.28ZM256.474 185V175.766H257.766L257.899 177.096H257.956C258.361 176.653 258.805 176.285 259.286 175.994C259.767 175.69 260.28 175.538 260.825 175.538C261.534 175.538 262.085 175.696 262.478 176.013C262.883 176.317 263.181 176.748 263.371 177.305C263.852 176.786 264.34 176.361 264.834 176.032C265.328 175.703 265.854 175.538 266.411 175.538C267.361 175.538 268.064 175.848 268.52 176.469C268.989 177.077 269.223 177.97 269.223 179.148V185H267.665V179.357C267.665 178.496 267.526 177.869 267.247 177.476C266.968 177.083 266.538 176.887 265.955 176.887C265.271 176.887 264.498 177.362 263.637 178.312V185H262.079V179.357C262.079 178.496 261.94 177.869 261.661 177.476C261.382 177.083 260.945 176.887 260.35 176.887C259.666 176.887 258.893 177.362 258.032 178.312V185H256.474ZM276.47 185.228C275.647 185.228 274.899 185.038 274.228 184.658C273.557 184.265 273.025 183.708 272.632 182.986C272.239 182.264 272.043 181.403 272.043 180.402C272.043 179.389 272.239 178.521 272.632 177.799C273.037 177.077 273.557 176.52 274.19 176.127C274.823 175.734 275.488 175.538 276.185 175.538C277.363 175.538 278.269 175.931 278.902 176.716C279.548 177.501 279.871 178.553 279.871 179.87C279.871 180.035 279.865 180.199 279.852 180.364C279.852 180.516 279.839 180.649 279.814 180.763H273.582C273.645 181.738 273.949 182.517 274.494 183.1C275.051 183.683 275.773 183.974 276.66 183.974C277.103 183.974 277.509 183.911 277.876 183.784C278.256 183.645 278.617 183.467 278.959 183.252L279.51 184.278C279.117 184.531 278.668 184.753 278.161 184.943C277.667 185.133 277.103 185.228 276.47 185.228ZM273.563 179.642H278.503C278.503 178.705 278.3 177.995 277.895 177.514C277.502 177.02 276.945 176.773 276.223 176.773C275.577 176.773 274.994 177.026 274.475 177.533C273.968 178.027 273.664 178.73 273.563 179.642ZM282.653 185V175.766H283.945L284.078 177.096H284.135C284.578 176.653 285.047 176.285 285.541 175.994C286.035 175.69 286.598 175.538 287.232 175.538C288.207 175.538 288.916 175.848 289.36 176.469C289.816 177.077 290.044 177.97 290.044 179.148V185H288.486V179.357C288.486 178.496 288.346 177.869 288.068 177.476C287.789 177.083 287.346 176.887 286.738 176.887C286.269 176.887 285.845 177.007 285.465 177.248C285.097 177.489 284.679 177.843 284.211 178.312V185H282.653ZM297.134 185.228C296.387 185.228 295.684 185.038 295.025 184.658C294.379 184.278 293.854 183.727 293.448 183.005C293.056 182.283 292.859 181.415 292.859 180.402C292.859 179.363 293.056 178.483 293.448 177.761C293.854 177.039 294.379 176.488 295.025 176.108C295.684 175.728 296.387 175.538 297.134 175.538C297.894 175.538 298.597 175.728 299.243 176.108C299.889 176.488 300.409 177.039 300.801 177.761C301.207 178.483 301.409 179.363 301.409 180.402C301.409 181.415 301.207 182.283 300.801 183.005C300.409 183.727 299.889 184.278 299.243 184.658C298.597 185.038 297.894 185.228 297.134 185.228ZM297.134 183.936C297.932 183.936 298.572 183.613 299.053 182.967C299.547 182.308 299.794 181.453 299.794 180.402C299.794 179.338 299.547 178.477 299.053 177.818C298.572 177.159 297.932 176.83 297.134 176.83C296.349 176.83 295.709 177.159 295.215 177.818C294.721 178.477 294.474 179.338 294.474 180.402C294.474 181.453 294.721 182.308 295.215 182.967C295.709 183.613 296.349 183.936 297.134 183.936Z" fill="black"/>
<path d="M390.76 185V184.069C391.976 182.853 393.008 181.789 393.857 180.877C394.706 179.952 395.352 179.123 395.795 178.388C396.238 177.641 396.46 176.944 396.46 176.298C396.46 175.601 396.27 175.031 395.89 174.588C395.51 174.145 394.934 173.923 394.161 173.923C393.654 173.923 393.186 174.069 392.755 174.36C392.324 174.639 391.932 174.981 391.577 175.386L390.684 174.493C391.191 173.936 391.729 173.492 392.299 173.163C392.882 172.821 393.566 172.65 394.351 172.65C395.478 172.65 396.365 172.979 397.011 173.638C397.657 174.284 397.98 175.145 397.98 176.222C397.98 176.982 397.765 177.755 397.334 178.54C396.916 179.313 396.333 180.13 395.586 180.991C394.851 181.84 394.003 182.764 393.04 183.765C393.369 183.74 393.711 183.714 394.066 183.689C394.421 183.664 394.756 183.651 395.073 183.651H398.588V185H390.76ZM404.675 185.228C403.459 185.228 402.503 184.683 401.806 183.594C401.122 182.492 400.78 180.928 400.78 178.901C400.78 176.862 401.122 175.31 401.806 174.246C402.503 173.182 403.459 172.65 404.675 172.65C405.879 172.65 406.822 173.182 407.506 174.246C408.203 175.31 408.551 176.862 408.551 178.901C408.551 180.928 408.203 182.492 407.506 183.594C406.822 184.683 405.879 185.228 404.675 185.228ZM404.675 183.974C405.385 183.974 405.955 183.575 406.385 182.777C406.816 181.966 407.031 180.674 407.031 178.901C407.031 177.128 406.816 175.855 406.385 175.082C405.955 174.297 405.385 173.904 404.675 173.904C403.966 173.904 403.39 174.297 402.946 175.082C402.516 175.855 402.3 177.128 402.3 178.901C402.3 180.674 402.516 181.966 402.946 182.777C403.39 183.575 403.966 183.974 404.675 183.974ZM411.447 188.895V175.766H412.739L412.872 176.83H412.929C413.347 176.475 413.803 176.171 414.297 175.918C414.803 175.665 415.329 175.538 415.874 175.538C417.064 175.538 417.97 175.969 418.591 176.83C419.211 177.679 419.522 178.819 419.522 180.25C419.522 181.289 419.332 182.182 418.952 182.929C418.584 183.676 418.097 184.246 417.489 184.639C416.893 185.032 416.241 185.228 415.532 185.228C415.101 185.228 414.67 185.133 414.24 184.943C413.822 184.753 413.397 184.493 412.967 184.164L413.005 185.779V188.895H411.447ZM415.266 183.917C416.026 183.917 416.653 183.594 417.147 182.948C417.653 182.289 417.907 181.39 417.907 180.25C417.907 179.237 417.717 178.42 417.337 177.799C416.969 177.166 416.349 176.849 415.475 176.849C415.082 176.849 414.683 176.957 414.278 177.172C413.885 177.387 413.461 177.698 413.005 178.103V182.948C413.423 183.303 413.828 183.556 414.221 183.708C414.613 183.847 414.962 183.917 415.266 183.917ZM420.878 185L423.899 180.174L421.106 175.766H422.797L424.032 177.799C424.172 178.04 424.317 178.293 424.469 178.559C424.621 178.825 424.78 179.085 424.944 179.338H425.02C425.16 179.085 425.299 178.825 425.438 178.559C425.578 178.293 425.717 178.04 425.856 177.799L426.977 175.766H428.611L425.818 180.345L428.82 185H427.129L425.78 182.853C425.616 182.574 425.451 182.296 425.286 182.017C425.122 181.738 424.951 181.466 424.773 181.2H424.697C424.533 181.466 424.374 181.738 424.222 182.017C424.07 182.283 423.918 182.562 423.766 182.853L422.512 185H420.878Z" fill="black"/>
<rect width="20" height="20" transform="translate(580 168)" fill="#C3D9F9"/>
<mask id="path-16-inside-4_2524_49462" fill="white">
<path d="M0 212H1600V280H0V212Z"/>
</mask>
<path d="M1600 279H0V281H1600V279Z" fill="#E0E0E0" mask="url(#path-16-inside-4_2524_49462)"/>
<path d="M14.484 253.228C13.5213 253.228 12.717 253.057 12.071 252.715C11.425 252.36 10.8993 251.961 10.494 251.518L11.292 250.492C11.6593 250.872 12.09 251.208 12.584 251.499C13.078 251.79 13.6797 251.936 14.389 251.936C15.1237 251.936 15.7253 251.733 16.194 251.328C16.6627 250.923 16.897 250.384 16.897 249.713C16.897 249.232 16.7703 248.814 16.517 248.459C16.2763 248.092 15.871 247.807 15.301 247.604C14.7437 247.401 13.9837 247.3 13.021 247.3V246.103C13.8823 246.103 14.56 246.002 15.054 245.799C15.5607 245.596 15.9217 245.324 16.137 244.982C16.3523 244.64 16.46 244.26 16.46 243.842C16.46 243.247 16.27 242.778 15.89 242.436C15.5227 242.094 15.016 241.923 14.37 241.923C13.8633 241.923 13.3947 242.037 12.964 242.265C12.546 242.493 12.1533 242.791 11.786 243.158L10.95 242.17C11.4187 241.727 11.938 241.366 12.508 241.087C13.078 240.796 13.7177 240.65 14.427 240.65C15.4783 240.65 16.346 240.922 17.03 241.467C17.714 241.999 18.056 242.753 18.056 243.728C18.056 244.463 17.8533 245.064 17.448 245.533C17.0427 246.002 16.5107 246.363 15.852 246.616V246.692C16.5867 246.857 17.2073 247.205 17.714 247.737C18.2207 248.256 18.474 248.934 18.474 249.77C18.474 250.479 18.2967 251.094 17.942 251.613C17.5873 252.132 17.106 252.531 16.498 252.81C15.9027 253.089 15.2313 253.228 14.484 253.228Z" fill="black"/>
<path d="M204.294 253V241.866H200.532V240.536H209.652V241.866H205.89V253H204.294ZM214.574 253.228C213.826 253.228 213.123 253.038 212.465 252.658C211.819 252.278 211.293 251.727 210.888 251.005C210.495 250.283 210.299 249.415 210.299 248.402C210.299 247.363 210.495 246.483 210.888 245.761C211.293 245.039 211.819 244.488 212.465 244.108C213.123 243.728 213.826 243.538 214.574 243.538C215.334 243.538 216.037 243.728 216.683 244.108C217.329 244.488 217.848 245.039 218.241 245.761C218.646 246.483 218.849 247.363 218.849 248.402C218.849 249.415 218.646 250.283 218.241 251.005C217.848 251.727 217.329 252.278 216.683 252.658C216.037 253.038 215.334 253.228 214.574 253.228ZM214.574 251.936C215.372 251.936 216.011 251.613 216.493 250.967C216.987 250.308 217.234 249.453 217.234 248.402C217.234 247.338 216.987 246.477 216.493 245.818C216.011 245.159 215.372 244.83 214.574 244.83C213.788 244.83 213.149 245.159 212.655 245.818C212.161 246.477 211.914 247.338 211.914 248.402C211.914 249.453 212.161 250.308 212.655 250.967C213.149 251.613 213.788 251.936 214.574 251.936ZM221.781 253V239.472H223.32V248.63H223.377L227.31 243.766H229.039L225.942 247.471L229.457 253H227.747L225.049 248.554L223.32 250.568V253H221.781ZM235.097 253.228C234.274 253.228 233.526 253.038 232.855 252.658C232.184 252.265 231.652 251.708 231.259 250.986C230.866 250.264 230.67 249.403 230.67 248.402C230.67 247.389 230.866 246.521 231.259 245.799C231.664 245.077 232.184 244.52 232.817 244.127C233.45 243.734 234.115 243.538 234.812 243.538C235.99 243.538 236.896 243.931 237.529 244.716C238.175 245.501 238.498 246.553 238.498 247.87C238.498 248.035 238.492 248.199 238.479 248.364C238.479 248.516 238.466 248.649 238.441 248.763H232.209C232.272 249.738 232.576 250.517 233.121 251.1C233.678 251.683 234.4 251.974 235.287 251.974C235.73 251.974 236.136 251.911 236.503 251.784C236.883 251.645 237.244 251.467 237.586 251.252L238.137 252.278C237.744 252.531 237.295 252.753 236.788 252.943C236.294 253.133 235.73 253.228 235.097 253.228ZM232.19 247.642H237.13C237.13 246.705 236.927 245.995 236.522 245.514C236.129 245.02 235.572 244.773 234.85 244.773C234.204 244.773 233.621 245.026 233.102 245.533C232.595 246.027 232.291 246.73 232.19 247.642ZM241.28 253V243.766H242.572L242.705 245.096H242.762C243.205 244.653 243.674 244.285 244.168 243.994C244.662 243.69 245.225 243.538 245.859 243.538C246.834 243.538 247.543 243.848 247.987 244.469C248.443 245.077 248.671 245.97 248.671 247.148V253H247.113V247.357C247.113 246.496 246.973 245.869 246.695 245.476C246.416 245.083 245.973 244.887 245.365 244.887C244.896 244.887 244.472 245.007 244.092 245.248C243.724 245.489 243.306 245.843 242.838 246.312V253H241.28ZM256.474 253V243.766H257.766L257.899 245.096H257.956C258.361 244.653 258.805 244.285 259.286 243.994C259.767 243.69 260.28 243.538 260.825 243.538C261.534 243.538 262.085 243.696 262.478 244.013C262.883 244.317 263.181 244.748 263.371 245.305C263.852 244.786 264.34 244.361 264.834 244.032C265.328 243.703 265.854 243.538 266.411 243.538C267.361 243.538 268.064 243.848 268.52 244.469C268.989 245.077 269.223 245.97 269.223 247.148V253H267.665V247.357C267.665 246.496 267.526 245.869 267.247 245.476C266.968 245.083 266.538 244.887 265.955 244.887C265.271 244.887 264.498 245.362 263.637 246.312V253H262.079V247.357C262.079 246.496 261.94 245.869 261.661 245.476C261.382 245.083 260.945 244.887 260.35 244.887C259.666 244.887 258.893 245.362 258.032 246.312V253H256.474ZM276.47 253.228C275.647 253.228 274.899 253.038 274.228 252.658C273.557 252.265 273.025 251.708 272.632 250.986C272.239 250.264 272.043 249.403 272.043 248.402C272.043 247.389 272.239 246.521 272.632 245.799C273.037 245.077 273.557 244.52 274.19 244.127C274.823 243.734 275.488 243.538 276.185 243.538C277.363 243.538 278.269 243.931 278.902 244.716C279.548 245.501 279.871 246.553 279.871 247.87C279.871 248.035 279.865 248.199 279.852 248.364C279.852 248.516 279.839 248.649 279.814 248.763H273.582C273.645 249.738 273.949 250.517 274.494 251.1C275.051 251.683 275.773 251.974 276.66 251.974C277.103 251.974 277.509 251.911 277.876 251.784C278.256 251.645 278.617 251.467 278.959 251.252L279.51 252.278C279.117 252.531 278.668 252.753 278.161 252.943C277.667 253.133 277.103 253.228 276.47 253.228ZM273.563 247.642H278.503C278.503 246.705 278.3 245.995 277.895 245.514C277.502 245.02 276.945 244.773 276.223 244.773C275.577 244.773 274.994 245.026 274.475 245.533C273.968 246.027 273.664 246.73 273.563 247.642ZM282.653 253V243.766H283.945L284.078 245.096H284.135C284.578 244.653 285.047 244.285 285.541 243.994C286.035 243.69 286.598 243.538 287.232 243.538C288.207 243.538 288.916 243.848 289.36 244.469C289.816 245.077 290.044 245.97 290.044 247.148V253H288.486V247.357C288.486 246.496 288.346 245.869 288.068 245.476C287.789 245.083 287.346 244.887 286.738 244.887C286.269 244.887 285.845 245.007 285.465 245.248C285.097 245.489 284.679 245.843 284.211 246.312V253H282.653ZM297.134 253.228C296.387 253.228 295.684 253.038 295.025 252.658C294.379 252.278 293.854 251.727 293.448 251.005C293.056 250.283 292.859 249.415 292.859 248.402C292.859 247.363 293.056 246.483 293.448 245.761C293.854 245.039 294.379 244.488 295.025 244.108C295.684 243.728 296.387 243.538 297.134 243.538C297.894 243.538 298.597 243.728 299.243 244.108C299.889 244.488 300.409 245.039 300.801 245.761C301.207 246.483 301.409 247.363 301.409 248.402C301.409 249.415 301.207 250.283 300.801 251.005C300.409 251.727 299.889 252.278 299.243 252.658C298.597 253.038 297.894 253.228 297.134 253.228ZM297.134 251.936C297.932 251.936 298.572 251.613 299.053 250.967C299.547 250.308 299.794 249.453 299.794 248.402C299.794 247.338 299.547 246.477 299.053 245.818C298.572 245.159 297.932 244.83 297.134 244.83C296.349 244.83 295.709 245.159 295.215 245.818C294.721 246.477 294.474 247.338 294.474 248.402C294.474 249.453 294.721 250.308 295.215 250.967C295.709 251.613 296.349 251.936 297.134 251.936Z" fill="black"/>
<path d="M394.484 253.228C393.521 253.228 392.717 253.057 392.071 252.715C391.425 252.36 390.899 251.961 390.494 251.518L391.292 250.492C391.659 250.872 392.09 251.208 392.584 251.499C393.078 251.79 393.68 251.936 394.389 251.936C395.124 251.936 395.725 251.733 396.194 251.328C396.663 250.923 396.897 250.384 396.897 249.713C396.897 249.232 396.77 248.814 396.517 248.459C396.276 248.092 395.871 247.807 395.301 247.604C394.744 247.401 393.984 247.3 393.021 247.3V246.103C393.882 246.103 394.56 246.002 395.054 245.799C395.561 245.596 395.922 245.324 396.137 244.982C396.352 244.64 396.46 244.26 396.46 243.842C396.46 243.247 396.27 242.778 395.89 242.436C395.523 242.094 395.016 241.923 394.37 241.923C393.863 241.923 393.395 242.037 392.964 242.265C392.546 242.493 392.153 242.791 391.786 243.158L390.95 242.17C391.419 241.727 391.938 241.366 392.508 241.087C393.078 240.796 393.718 240.65 394.427 240.65C395.478 240.65 396.346 240.922 397.03 241.467C397.714 241.999 398.056 242.753 398.056 243.728C398.056 244.463 397.853 245.064 397.448 245.533C397.043 246.002 396.511 246.363 395.852 246.616V246.692C396.587 246.857 397.207 247.205 397.714 247.737C398.221 248.256 398.474 248.934 398.474 249.77C398.474 250.479 398.297 251.094 397.942 251.613C397.587 252.132 397.106 252.531 396.498 252.81C395.903 253.089 395.231 253.228 394.484 253.228ZM404.675 253.228C403.459 253.228 402.503 252.683 401.806 251.594C401.122 250.492 400.78 248.928 400.78 246.901C400.78 244.862 401.122 243.31 401.806 242.246C402.503 241.182 403.459 240.65 404.675 240.65C405.879 240.65 406.822 241.182 407.506 242.246C408.203 243.31 408.551 244.862 408.551 246.901C408.551 248.928 408.203 250.492 407.506 251.594C406.822 252.683 405.879 253.228 404.675 253.228ZM404.675 251.974C405.385 251.974 405.955 251.575 406.385 250.777C406.816 249.966 407.031 248.674 407.031 246.901C407.031 245.128 406.816 243.855 406.385 243.082C405.955 242.297 405.385 241.904 404.675 241.904C403.966 241.904 403.39 242.297 402.946 243.082C402.516 243.855 402.3 245.128 402.3 246.901C402.3 248.674 402.516 249.966 402.946 250.777C403.39 251.575 403.966 251.974 404.675 251.974ZM411.447 256.895V243.766H412.739L412.872 244.83H412.929C413.347 244.475 413.803 244.171 414.297 243.918C414.803 243.665 415.329 243.538 415.874 243.538C417.064 243.538 417.97 243.969 418.591 244.83C419.211 245.679 419.522 246.819 419.522 248.25C419.522 249.289 419.332 250.182 418.952 250.929C418.584 251.676 418.097 252.246 417.489 252.639C416.893 253.032 416.241 253.228 415.532 253.228C415.101 253.228 414.67 253.133 414.24 252.943C413.822 252.753 413.397 252.493 412.967 252.164L413.005 253.779V256.895H411.447ZM415.266 251.917C416.026 251.917 416.653 251.594 417.147 250.948C417.653 250.289 417.907 249.39 417.907 248.25C417.907 247.237 417.717 246.42 417.337 245.799C416.969 245.166 416.349 244.849 415.475 244.849C415.082 244.849 414.683 244.957 414.278 245.172C413.885 245.387 413.461 245.698 413.005 246.103V250.948C413.423 251.303 413.828 251.556 414.221 251.708C414.613 251.847 414.962 251.917 415.266 251.917ZM420.878 253L423.899 248.174L421.106 243.766H422.797L424.032 245.799C424.172 246.04 424.317 246.293 424.469 246.559C424.621 246.825 424.78 247.085 424.944 247.338H425.02C425.16 247.085 425.299 246.825 425.438 246.559C425.578 246.293 425.717 246.04 425.856 245.799L426.977 243.766H428.611L425.818 248.345L428.82 253H427.129L425.78 250.853C425.616 250.574 425.451 250.296 425.286 250.017C425.122 249.738 424.951 249.466 424.773 249.2H424.697C424.533 249.466 424.374 249.738 424.222 250.017C424.07 250.283 423.918 250.562 423.766 250.853L422.512 253H420.878Z" fill="black"/>
<rect width="30" height="20" transform="translate(580 236)" fill="#C3D9F9"/>
<mask id="path-21-inside-5_2524_49462" fill="white">
<path d="M0 280H1600V348H0V280Z"/>
</mask>
<path d="M1600 347H0V349H1600V347Z" fill="#E0E0E0" mask="url(#path-21-inside-5_2524_49462)"/>
<path d="M11.976 316.402H15.776V312.887C15.776 312.558 15.7887 312.165 15.814 311.709C15.8393 311.253 15.8583 310.867 15.871 310.55H15.795C15.643 310.841 15.4847 311.126 15.32 311.405C15.1553 311.684 14.9843 311.969 14.807 312.26L11.976 316.402ZM15.776 321V317.656H10.323V316.63L15.51 308.878H17.258V316.402H18.911V317.656H17.258V321H15.776Z" fill="black"/>
<path d="M204.294 321V309.866H200.532V308.536H209.652V309.866H205.89V321H204.294ZM214.574 321.228C213.826 321.228 213.123 321.038 212.465 320.658C211.819 320.278 211.293 319.727 210.888 319.005C210.495 318.283 210.299 317.415 210.299 316.402C210.299 315.363 210.495 314.483 210.888 313.761C211.293 313.039 211.819 312.488 212.465 312.108C213.123 311.728 213.826 311.538 214.574 311.538C215.334 311.538 216.037 311.728 216.683 312.108C217.329 312.488 217.848 313.039 218.241 313.761C218.646 314.483 218.849 315.363 218.849 316.402C218.849 317.415 218.646 318.283 218.241 319.005C217.848 319.727 217.329 320.278 216.683 320.658C216.037 321.038 215.334 321.228 214.574 321.228ZM214.574 319.936C215.372 319.936 216.011 319.613 216.493 318.967C216.987 318.308 217.234 317.453 217.234 316.402C217.234 315.338 216.987 314.477 216.493 313.818C216.011 313.159 215.372 312.83 214.574 312.83C213.788 312.83 213.149 313.159 212.655 313.818C212.161 314.477 211.914 315.338 211.914 316.402C211.914 317.453 212.161 318.308 212.655 318.967C213.149 319.613 213.788 319.936 214.574 319.936ZM221.781 321V307.472H223.32V316.63H223.377L227.31 311.766H229.039L225.942 315.471L229.457 321H227.747L225.049 316.554L223.32 318.568V321H221.781ZM235.097 321.228C234.274 321.228 233.526 321.038 232.855 320.658C232.184 320.265 231.652 319.708 231.259 318.986C230.866 318.264 230.67 317.403 230.67 316.402C230.67 315.389 230.866 314.521 231.259 313.799C231.664 313.077 232.184 312.52 232.817 312.127C233.45 311.734 234.115 311.538 234.812 311.538C235.99 311.538 236.896 311.931 237.529 312.716C238.175 313.501 238.498 314.553 238.498 315.87C238.498 316.035 238.492 316.199 238.479 316.364C238.479 316.516 238.466 316.649 238.441 316.763H232.209C232.272 317.738 232.576 318.517 233.121 319.1C233.678 319.683 234.4 319.974 235.287 319.974C235.73 319.974 236.136 319.911 236.503 319.784C236.883 319.645 237.244 319.467 237.586 319.252L238.137 320.278C237.744 320.531 237.295 320.753 236.788 320.943C236.294 321.133 235.73 321.228 235.097 321.228ZM232.19 315.642H237.13C237.13 314.705 236.927 313.995 236.522 313.514C236.129 313.02 235.572 312.773 234.85 312.773C234.204 312.773 233.621 313.026 233.102 313.533C232.595 314.027 232.291 314.73 232.19 315.642ZM241.28 321V311.766H242.572L242.705 313.096H242.762C243.205 312.653 243.674 312.285 244.168 311.994C244.662 311.69 245.225 311.538 245.859 311.538C246.834 311.538 247.543 311.848 247.987 312.469C248.443 313.077 248.671 313.97 248.671 315.148V321H247.113V315.357C247.113 314.496 246.973 313.869 246.695 313.476C246.416 313.083 245.973 312.887 245.365 312.887C244.896 312.887 244.472 313.007 244.092 313.248C243.724 313.489 243.306 313.843 242.838 314.312V321H241.28ZM256.474 321V311.766H257.766L257.899 313.096H257.956C258.361 312.653 258.805 312.285 259.286 311.994C259.767 311.69 260.28 311.538 260.825 311.538C261.534 311.538 262.085 311.696 262.478 312.013C262.883 312.317 263.181 312.748 263.371 313.305C263.852 312.786 264.34 312.361 264.834 312.032C265.328 311.703 265.854 311.538 266.411 311.538C267.361 311.538 268.064 311.848 268.52 312.469C268.989 313.077 269.223 313.97 269.223 315.148V321H267.665V315.357C267.665 314.496 267.526 313.869 267.247 313.476C266.968 313.083 266.538 312.887 265.955 312.887C265.271 312.887 264.498 313.362 263.637 314.312V321H262.079V315.357C262.079 314.496 261.94 313.869 261.661 313.476C261.382 313.083 260.945 312.887 260.35 312.887C259.666 312.887 258.893 313.362 258.032 314.312V321H256.474ZM276.47 321.228C275.647 321.228 274.899 321.038 274.228 320.658C273.557 320.265 273.025 319.708 272.632 318.986C272.239 318.264 272.043 317.403 272.043 316.402C272.043 315.389 272.239 314.521 272.632 313.799C273.037 313.077 273.557 312.52 274.19 312.127C274.823 311.734 275.488 311.538 276.185 311.538C277.363 311.538 278.269 311.931 278.902 312.716C279.548 313.501 279.871 314.553 279.871 315.87C279.871 316.035 279.865 316.199 279.852 316.364C279.852 316.516 279.839 316.649 279.814 316.763H273.582C273.645 317.738 273.949 318.517 274.494 319.1C275.051 319.683 275.773 319.974 276.66 319.974C277.103 319.974 277.509 319.911 277.876 319.784C278.256 319.645 278.617 319.467 278.959 319.252L279.51 320.278C279.117 320.531 278.668 320.753 278.161 320.943C277.667 321.133 277.103 321.228 276.47 321.228ZM273.563 315.642H278.503C278.503 314.705 278.3 313.995 277.895 313.514C277.502 313.02 276.945 312.773 276.223 312.773C275.577 312.773 274.994 313.026 274.475 313.533C273.968 314.027 273.664 314.73 273.563 315.642ZM282.653 321V311.766H283.945L284.078 313.096H284.135C284.578 312.653 285.047 312.285 285.541 311.994C286.035 311.69 286.598 311.538 287.232 311.538C288.207 311.538 288.916 311.848 289.36 312.469C289.816 313.077 290.044 313.97 290.044 315.148V321H288.486V315.357C288.486 314.496 288.346 313.869 288.068 313.476C287.789 313.083 287.346 312.887 286.738 312.887C286.269 312.887 285.845 313.007 285.465 313.248C285.097 313.489 284.679 313.843 284.211 314.312V321H282.653ZM297.134 321.228C296.387 321.228 295.684 321.038 295.025 320.658C294.379 320.278 293.854 319.727 293.448 319.005C293.056 318.283 292.859 317.415 292.859 316.402C292.859 315.363 293.056 314.483 293.448 313.761C293.854 313.039 294.379 312.488 295.025 312.108C295.684 311.728 296.387 311.538 297.134 311.538C297.894 311.538 298.597 311.728 299.243 312.108C299.889 312.488 300.409 313.039 300.801 313.761C301.207 314.483 301.409 315.363 301.409 316.402C301.409 317.415 301.207 318.283 300.801 319.005C300.409 319.727 299.889 320.278 299.243 320.658C298.597 321.038 297.894 321.228 297.134 321.228ZM297.134 319.936C297.932 319.936 298.572 319.613 299.053 318.967C299.547 318.308 299.794 317.453 299.794 316.402C299.794 315.338 299.547 314.477 299.053 313.818C298.572 313.159 297.932 312.83 297.134 312.83C296.349 312.83 295.709 313.159 295.215 313.818C294.721 314.477 294.474 315.338 294.474 316.402C294.474 317.453 294.721 318.308 295.215 318.967C295.709 319.613 296.349 319.936 297.134 319.936Z" fill="black"/>
<path d="M391.976 316.402H395.776V312.887C395.776 312.558 395.789 312.165 395.814 311.709C395.839 311.253 395.858 310.867 395.871 310.55H395.795C395.643 310.841 395.485 311.126 395.32 311.405C395.155 311.684 394.984 311.969 394.807 312.26L391.976 316.402ZM395.776 321V317.656H390.323V316.63L395.51 308.878H397.258V316.402H398.911V317.656H397.258V321H395.776ZM404.675 321.228C403.459 321.228 402.503 320.683 401.806 319.594C401.122 318.492 400.78 316.928 400.78 314.901C400.78 312.862 401.122 311.31 401.806 310.246C402.503 309.182 403.459 308.65 404.675 308.65C405.879 308.65 406.822 309.182 407.506 310.246C408.203 311.31 408.551 312.862 408.551 314.901C408.551 316.928 408.203 318.492 407.506 319.594C406.822 320.683 405.879 321.228 404.675 321.228ZM404.675 319.974C405.385 319.974 405.955 319.575 406.385 318.777C406.816 317.966 407.031 316.674 407.031 314.901C407.031 313.128 406.816 311.855 406.385 311.082C405.955 310.297 405.385 309.904 404.675 309.904C403.966 309.904 403.39 310.297 402.946 311.082C402.516 311.855 402.3 313.128 402.3 314.901C402.3 316.674 402.516 317.966 402.946 318.777C403.39 319.575 403.966 319.974 404.675 319.974ZM411.447 324.895V311.766H412.739L412.872 312.83H412.929C413.347 312.475 413.803 312.171 414.297 311.918C414.803 311.665 415.329 311.538 415.874 311.538C417.064 311.538 417.97 311.969 418.591 312.83C419.211 313.679 419.522 314.819 419.522 316.25C419.522 317.289 419.332 318.182 418.952 318.929C418.584 319.676 418.097 320.246 417.489 320.639C416.893 321.032 416.241 321.228 415.532 321.228C415.101 321.228 414.67 321.133 414.24 320.943C413.822 320.753 413.397 320.493 412.967 320.164L413.005 321.779V324.895H411.447ZM415.266 319.917C416.026 319.917 416.653 319.594 417.147 318.948C417.653 318.289 417.907 317.39 417.907 316.25C417.907 315.237 417.717 314.42 417.337 313.799C416.969 313.166 416.349 312.849 415.475 312.849C415.082 312.849 414.683 312.957 414.278 313.172C413.885 313.387 413.461 313.698 413.005 314.103V318.948C413.423 319.303 413.828 319.556 414.221 319.708C414.613 319.847 414.962 319.917 415.266 319.917ZM420.878 321L423.899 316.174L421.106 311.766H422.797L424.032 313.799C424.172 314.04 424.317 314.293 424.469 314.559C424.621 314.825 424.78 315.085 424.944 315.338H425.02C425.16 315.085 425.299 314.825 425.438 314.559C425.578 314.293 425.717 314.04 425.856 313.799L426.977 311.766H428.611L425.818 316.345L428.82 321H427.129L425.78 318.853C425.616 318.574 425.451 318.296 425.286 318.017C425.122 317.738 424.951 317.466 424.773 317.2H424.697C424.533 317.466 424.374 317.738 424.222 318.017C424.07 318.283 423.918 318.562 423.766 318.853L422.512 321H420.878Z" fill="black"/>
<rect width="40" height="20" transform="translate(580 304)" fill="#C3D9F9"/>
<mask id="path-26-inside-6_2524_49462" fill="white">
<path d="M0 348H1600V416H0V348Z"/>
</mask>
<path d="M1600 415H0V417H1600V415Z" fill="#E0E0E0" mask="url(#path-26-inside-6_2524_49462)"/>
<path d="M14.446 389.228C13.4833 389.228 12.6853 389.057 12.052 388.715C11.4187 388.373 10.893 387.993 10.475 387.575L11.235 386.549C11.6023 386.904 12.0267 387.227 12.508 387.518C12.9893 387.797 13.5847 387.936 14.294 387.936C15.0413 387.936 15.6683 387.689 16.175 387.195C16.6943 386.688 16.954 386.011 16.954 385.162C16.954 384.326 16.7197 383.674 16.251 383.205C15.7823 382.736 15.1553 382.502 14.37 382.502C13.952 382.502 13.591 382.565 13.287 382.692C12.9957 382.819 12.6663 383.002 12.299 383.243L11.463 382.711L11.862 376.878H17.923V378.227H13.23L12.907 381.818C13.1983 381.666 13.4897 381.546 13.781 381.457C14.0723 381.368 14.4017 381.324 14.769 381.324C15.4657 381.324 16.0927 381.463 16.65 381.742C17.22 382.008 17.676 382.42 18.018 382.977C18.36 383.534 18.531 384.25 18.531 385.124C18.531 385.998 18.3347 386.745 17.942 387.366C17.562 387.974 17.0617 388.436 16.441 388.753C15.8203 389.07 15.1553 389.228 14.446 389.228Z" fill="black"/>
<path d="M204.294 389V377.866H200.532V376.536H209.652V377.866H205.89V389H204.294ZM214.574 389.228C213.826 389.228 213.123 389.038 212.465 388.658C211.819 388.278 211.293 387.727 210.888 387.005C210.495 386.283 210.299 385.415 210.299 384.402C210.299 383.363 210.495 382.483 210.888 381.761C211.293 381.039 211.819 380.488 212.465 380.108C213.123 379.728 213.826 379.538 214.574 379.538C215.334 379.538 216.037 379.728 216.683 380.108C217.329 380.488 217.848 381.039 218.241 381.761C218.646 382.483 218.849 383.363 218.849 384.402C218.849 385.415 218.646 386.283 218.241 387.005C217.848 387.727 217.329 388.278 216.683 388.658C216.037 389.038 215.334 389.228 214.574 389.228ZM214.574 387.936C215.372 387.936 216.011 387.613 216.493 386.967C216.987 386.308 217.234 385.453 217.234 384.402C217.234 383.338 216.987 382.477 216.493 381.818C216.011 381.159 215.372 380.83 214.574 380.83C213.788 380.83 213.149 381.159 212.655 381.818C212.161 382.477 211.914 383.338 211.914 384.402C211.914 385.453 212.161 386.308 212.655 386.967C213.149 387.613 213.788 387.936 214.574 387.936ZM221.781 389V375.472H223.32V384.63H223.377L227.31 379.766H229.039L225.942 383.471L229.457 389H227.747L225.049 384.554L223.32 386.568V389H221.781ZM235.097 389.228C234.274 389.228 233.526 389.038 232.855 388.658C232.184 388.265 231.652 387.708 231.259 386.986C230.866 386.264 230.67 385.403 230.67 384.402C230.67 383.389 230.866 382.521 231.259 381.799C231.664 381.077 232.184 380.52 232.817 380.127C233.45 379.734 234.115 379.538 234.812 379.538C235.99 379.538 236.896 379.931 237.529 380.716C238.175 381.501 238.498 382.553 238.498 383.87C238.498 384.035 238.492 384.199 238.479 384.364C238.479 384.516 238.466 384.649 238.441 384.763H232.209C232.272 385.738 232.576 386.517 233.121 387.1C233.678 387.683 234.4 387.974 235.287 387.974C235.73 387.974 236.136 387.911 236.503 387.784C236.883 387.645 237.244 387.467 237.586 387.252L238.137 388.278C237.744 388.531 237.295 388.753 236.788 388.943C236.294 389.133 235.73 389.228 235.097 389.228ZM232.19 383.642H237.13C237.13 382.705 236.927 381.995 236.522 381.514C236.129 381.02 235.572 380.773 234.85 380.773C234.204 380.773 233.621 381.026 233.102 381.533C232.595 382.027 232.291 382.73 232.19 383.642ZM241.28 389V379.766H242.572L242.705 381.096H242.762C243.205 380.653 243.674 380.285 244.168 379.994C244.662 379.69 245.225 379.538 245.859 379.538C246.834 379.538 247.543 379.848 247.987 380.469C248.443 381.077 248.671 381.97 248.671 383.148V389H247.113V383.357C247.113 382.496 246.973 381.869 246.695 381.476C246.416 381.083 245.973 380.887 245.365 380.887C244.896 380.887 244.472 381.007 244.092 381.248C243.724 381.489 243.306 381.843 242.838 382.312V389H241.28ZM256.474 389V379.766H257.766L257.899 381.096H257.956C258.361 380.653 258.805 380.285 259.286 379.994C259.767 379.69 260.28 379.538 260.825 379.538C261.534 379.538 262.085 379.696 262.478 380.013C262.883 380.317 263.181 380.748 263.371 381.305C263.852 380.786 264.34 380.361 264.834 380.032C265.328 379.703 265.854 379.538 266.411 379.538C267.361 379.538 268.064 379.848 268.52 380.469C268.989 381.077 269.223 381.97 269.223 383.148V389H267.665V383.357C267.665 382.496 267.526 381.869 267.247 381.476C266.968 381.083 266.538 380.887 265.955 380.887C265.271 380.887 264.498 381.362 263.637 382.312V389H262.079V383.357C262.079 382.496 261.94 381.869 261.661 381.476C261.382 381.083 260.945 380.887 260.35 380.887C259.666 380.887 258.893 381.362 258.032 382.312V389H256.474ZM276.47 389.228C275.647 389.228 274.899 389.038 274.228 388.658C273.557 388.265 273.025 387.708 272.632 386.986C272.239 386.264 272.043 385.403 272.043 384.402C272.043 383.389 272.239 382.521 272.632 381.799C273.037 381.077 273.557 380.52 274.19 380.127C274.823 379.734 275.488 379.538 276.185 379.538C277.363 379.538 278.269 379.931 278.902 380.716C279.548 381.501 279.871 382.553 279.871 383.87C279.871 384.035 279.865 384.199 279.852 384.364C279.852 384.516 279.839 384.649 279.814 384.763H273.582C273.645 385.738 273.949 386.517 274.494 387.1C275.051 387.683 275.773 387.974 276.66 387.974C277.103 387.974 277.509 387.911 277.876 387.784C278.256 387.645 278.617 387.467 278.959 387.252L279.51 388.278C279.117 388.531 278.668 388.753 278.161 388.943C277.667 389.133 277.103 389.228 276.47 389.228ZM273.563 383.642H278.503C278.503 382.705 278.3 381.995 277.895 381.514C277.502 381.02 276.945 380.773 276.223 380.773C275.577 380.773 274.994 381.026 274.475 381.533C273.968 382.027 273.664 382.73 273.563 383.642ZM282.653 389V379.766H283.945L284.078 381.096H284.135C284.578 380.653 285.047 380.285 285.541 379.994C286.035 379.69 286.598 379.538 287.232 379.538C288.207 379.538 288.916 379.848 289.36 380.469C289.816 381.077 290.044 381.97 290.044 383.148V389H288.486V383.357C288.486 382.496 288.346 381.869 288.068 381.476C287.789 381.083 287.346 380.887 286.738 380.887C286.269 380.887 285.845 381.007 285.465 381.248C285.097 381.489 284.679 381.843 284.211 382.312V389H282.653ZM297.134 389.228C296.387 389.228 295.684 389.038 295.025 388.658C294.379 388.278 293.854 387.727 293.448 387.005C293.056 386.283 292.859 385.415 292.859 384.402C292.859 383.363 293.056 382.483 293.448 381.761C293.854 381.039 294.379 380.488 295.025 380.108C295.684 379.728 296.387 379.538 297.134 379.538C297.894 379.538 298.597 379.728 299.243 380.108C299.889 380.488 300.409 381.039 300.801 381.761C301.207 382.483 301.409 383.363 301.409 384.402C301.409 385.415 301.207 386.283 300.801 387.005C300.409 387.727 299.889 388.278 299.243 388.658C298.597 389.038 297.894 389.228 297.134 389.228ZM297.134 387.936C297.932 387.936 298.572 387.613 299.053 386.967C299.547 386.308 299.794 385.453 299.794 384.402C299.794 383.338 299.547 382.477 299.053 381.818C298.572 381.159 297.932 380.83 297.134 380.83C296.349 380.83 295.709 381.159 295.215 381.818C294.721 382.477 294.474 383.338 294.474 384.402C294.474 385.453 294.721 386.308 295.215 386.967C295.709 387.613 296.349 387.936 297.134 387.936Z" fill="black"/>
<path d="M394.959 382.768C394.566 382.768 394.142 382.895 393.686 383.148C393.23 383.401 392.812 383.807 392.432 384.364C392.533 385.542 392.806 386.441 393.249 387.062C393.705 387.683 394.319 387.993 395.092 387.993C395.687 387.993 396.188 387.752 396.593 387.271C396.998 386.777 397.201 386.131 397.201 385.333C397.201 384.548 397.011 383.927 396.631 383.471C396.264 383.002 395.706 382.768 394.959 382.768ZM395.092 389.228C394.307 389.228 393.597 389.013 392.964 388.582C392.331 388.151 391.83 387.505 391.463 386.644C391.096 385.77 390.912 384.687 390.912 383.395C390.912 381.774 391.127 380.469 391.558 379.481C392.001 378.493 392.571 377.777 393.268 377.334C393.977 376.878 394.731 376.65 395.529 376.65C396.188 376.65 396.751 376.777 397.22 377.03C397.701 377.271 398.113 377.575 398.455 377.942L397.581 378.911C397.34 378.62 397.043 378.392 396.688 378.227C396.333 378.05 395.966 377.961 395.586 377.961C395.016 377.961 394.497 378.126 394.028 378.455C393.559 378.772 393.173 379.31 392.869 380.07C392.578 380.817 392.419 381.831 392.394 383.11C392.774 382.641 393.217 382.274 393.724 382.008C394.231 381.729 394.731 381.59 395.225 381.59C396.276 381.59 397.112 381.907 397.733 382.54C398.366 383.161 398.683 384.092 398.683 385.333C398.683 386.106 398.518 386.783 398.189 387.366C397.86 387.949 397.423 388.405 396.878 388.734C396.346 389.063 395.751 389.228 395.092 389.228ZM404.675 389.228C403.459 389.228 402.503 388.683 401.806 387.594C401.122 386.492 400.78 384.928 400.78 382.901C400.78 380.862 401.122 379.31 401.806 378.246C402.503 377.182 403.459 376.65 404.675 376.65C405.879 376.65 406.822 377.182 407.506 378.246C408.203 379.31 408.551 380.862 408.551 382.901C408.551 384.928 408.203 386.492 407.506 387.594C406.822 388.683 405.879 389.228 404.675 389.228ZM404.675 387.974C405.385 387.974 405.955 387.575 406.385 386.777C406.816 385.966 407.031 384.674 407.031 382.901C407.031 381.128 406.816 379.855 406.385 379.082C405.955 378.297 405.385 377.904 404.675 377.904C403.966 377.904 403.39 378.297 402.946 379.082C402.516 379.855 402.3 381.128 402.3 382.901C402.3 384.674 402.516 385.966 402.946 386.777C403.39 387.575 403.966 387.974 404.675 387.974ZM411.447 392.895V379.766H412.739L412.872 380.83H412.929C413.347 380.475 413.803 380.171 414.297 379.918C414.803 379.665 415.329 379.538 415.874 379.538C417.064 379.538 417.97 379.969 418.591 380.83C419.211 381.679 419.522 382.819 419.522 384.25C419.522 385.289 419.332 386.182 418.952 386.929C418.584 387.676 418.097 388.246 417.489 388.639C416.893 389.032 416.241 389.228 415.532 389.228C415.101 389.228 414.67 389.133 414.24 388.943C413.822 388.753 413.397 388.493 412.967 388.164L413.005 389.779V392.895H411.447ZM415.266 387.917C416.026 387.917 416.653 387.594 417.147 386.948C417.653 386.289 417.907 385.39 417.907 384.25C417.907 383.237 417.717 382.42 417.337 381.799C416.969 381.166 416.349 380.849 415.475 380.849C415.082 380.849 414.683 380.957 414.278 381.172C413.885 381.387 413.461 381.698 413.005 382.103V386.948C413.423 387.303 413.828 387.556 414.221 387.708C414.613 387.847 414.962 387.917 415.266 387.917ZM420.878 389L423.899 384.174L421.106 379.766H422.797L424.032 381.799C424.172 382.04 424.317 382.293 424.469 382.559C424.621 382.825 424.78 383.085 424.944 383.338H425.02C425.16 383.085 425.299 382.825 425.438 382.559C425.578 382.293 425.717 382.04 425.856 381.799L426.977 379.766H428.611L425.818 384.345L428.82 389H427.129L425.78 386.853C425.616 386.574 425.451 386.296 425.286 386.017C425.122 385.738 424.951 385.466 424.773 385.2H424.697C424.533 385.466 424.374 385.738 424.222 386.017C424.07 386.283 423.918 386.562 423.766 386.853L422.512 389H420.878Z" fill="black"/>
<rect width="60" height="20" transform="translate(580 372)" fill="#C3D9F9"/>
<path d="M14.959 450.768C14.5663 450.768 14.142 450.895 13.686 451.148C13.23 451.401 12.812 451.807 12.432 452.364C12.5333 453.542 12.8057 454.441 13.249 455.062C13.705 455.683 14.3193 455.993 15.092 455.993C15.6873 455.993 16.1877 455.752 16.593 455.271C16.9983 454.777 17.201 454.131 17.201 453.333C17.201 452.548 17.011 451.927 16.631 451.471C16.2637 451.002 15.7063 450.768 14.959 450.768ZM15.092 457.228C14.3067 457.228 13.5973 457.013 12.964 456.582C12.3307 456.151 11.8303 455.505 11.463 454.644C11.0957 453.77 10.912 452.687 10.912 451.395C10.912 449.774 11.1273 448.469 11.558 447.481C12.0013 446.493 12.5713 445.777 13.268 445.334C13.9773 444.878 14.731 444.65 15.529 444.65C16.1877 444.65 16.7513 444.777 17.22 445.03C17.7013 445.271 18.113 445.575 18.455 445.942L17.581 446.911C17.3403 446.62 17.0427 446.392 16.688 446.227C16.3333 446.05 15.966 445.961 15.586 445.961C15.016 445.961 14.4967 446.126 14.028 446.455C13.5593 446.772 13.173 447.31 12.869 448.07C12.5777 448.817 12.4193 449.831 12.394 451.11C12.774 450.641 13.2173 450.274 13.724 450.008C14.2307 449.729 14.731 449.59 15.225 449.59C16.2763 449.59 17.1123 449.907 17.733 450.54C18.3663 451.161 18.683 452.092 18.683 453.333C18.683 454.106 18.5183 454.783 18.189 455.366C17.8597 455.949 17.4227 456.405 16.878 456.734C16.346 457.063 15.7507 457.228 15.092 457.228Z" fill="black"/>
<path d="M204.294 457V445.866H200.532V444.536H209.652V445.866H205.89V457H204.294ZM214.574 457.228C213.826 457.228 213.123 457.038 212.465 456.658C211.819 456.278 211.293 455.727 210.888 455.005C210.495 454.283 210.299 453.415 210.299 452.402C210.299 451.363 210.495 450.483 210.888 449.761C211.293 449.039 211.819 448.488 212.465 448.108C213.123 447.728 213.826 447.538 214.574 447.538C215.334 447.538 216.037 447.728 216.683 448.108C217.329 448.488 217.848 449.039 218.241 449.761C218.646 450.483 218.849 451.363 218.849 452.402C218.849 453.415 218.646 454.283 218.241 455.005C217.848 455.727 217.329 456.278 216.683 456.658C216.037 457.038 215.334 457.228 214.574 457.228ZM214.574 455.936C215.372 455.936 216.011 455.613 216.493 454.967C216.987 454.308 217.234 453.453 217.234 452.402C217.234 451.338 216.987 450.477 216.493 449.818C216.011 449.159 215.372 448.83 214.574 448.83C213.788 448.83 213.149 449.159 212.655 449.818C212.161 450.477 211.914 451.338 211.914 452.402C211.914 453.453 212.161 454.308 212.655 454.967C213.149 455.613 213.788 455.936 214.574 455.936ZM221.781 457V443.472H223.32V452.63H223.377L227.31 447.766H229.039L225.942 451.471L229.457 457H227.747L225.049 452.554L223.32 454.568V457H221.781ZM235.097 457.228C234.274 457.228 233.526 457.038 232.855 456.658C232.184 456.265 231.652 455.708 231.259 454.986C230.866 454.264 230.67 453.403 230.67 452.402C230.67 451.389 230.866 450.521 231.259 449.799C231.664 449.077 232.184 448.52 232.817 448.127C233.45 447.734 234.115 447.538 234.812 447.538C235.99 447.538 236.896 447.931 237.529 448.716C238.175 449.501 238.498 450.553 238.498 451.87C238.498 452.035 238.492 452.199 238.479 452.364C238.479 452.516 238.466 452.649 238.441 452.763H232.209C232.272 453.738 232.576 454.517 233.121 455.1C233.678 455.683 234.4 455.974 235.287 455.974C235.73 455.974 236.136 455.911 236.503 455.784C236.883 455.645 237.244 455.467 237.586 455.252L238.137 456.278C237.744 456.531 237.295 456.753 236.788 456.943C236.294 457.133 235.73 457.228 235.097 457.228ZM232.19 451.642H237.13C237.13 450.705 236.927 449.995 236.522 449.514C236.129 449.02 235.572 448.773 234.85 448.773C234.204 448.773 233.621 449.026 233.102 449.533C232.595 450.027 232.291 450.73 232.19 451.642ZM241.28 457V447.766H242.572L242.705 449.096H242.762C243.205 448.653 243.674 448.285 244.168 447.994C244.662 447.69 245.225 447.538 245.859 447.538C246.834 447.538 247.543 447.848 247.987 448.469C248.443 449.077 248.671 449.97 248.671 451.148V457H247.113V451.357C247.113 450.496 246.973 449.869 246.695 449.476C246.416 449.083 245.973 448.887 245.365 448.887C244.896 448.887 244.472 449.007 244.092 449.248C243.724 449.489 243.306 449.843 242.838 450.312V457H241.28ZM256.474 457V447.766H257.766L257.899 449.096H257.956C258.361 448.653 258.805 448.285 259.286 447.994C259.767 447.69 260.28 447.538 260.825 447.538C261.534 447.538 262.085 447.696 262.478 448.013C262.883 448.317 263.181 448.748 263.371 449.305C263.852 448.786 264.34 448.361 264.834 448.032C265.328 447.703 265.854 447.538 266.411 447.538C267.361 447.538 268.064 447.848 268.52 448.469C268.989 449.077 269.223 449.97 269.223 451.148V457H267.665V451.357C267.665 450.496 267.526 449.869 267.247 449.476C266.968 449.083 266.538 448.887 265.955 448.887C265.271 448.887 264.498 449.362 263.637 450.312V457H262.079V451.357C262.079 450.496 261.94 449.869 261.661 449.476C261.382 449.083 260.945 448.887 260.35 448.887C259.666 448.887 258.893 449.362 258.032 450.312V457H256.474ZM276.47 457.228C275.647 457.228 274.899 457.038 274.228 456.658C273.557 456.265 273.025 455.708 272.632 454.986C272.239 454.264 272.043 453.403 272.043 452.402C272.043 451.389 272.239 450.521 272.632 449.799C273.037 449.077 273.557 448.52 274.19 448.127C274.823 447.734 275.488 447.538 276.185 447.538C277.363 447.538 278.269 447.931 278.902 448.716C279.548 449.501 279.871 450.553 279.871 451.87C279.871 452.035 279.865 452.199 279.852 452.364C279.852 452.516 279.839 452.649 279.814 452.763H273.582C273.645 453.738 273.949 454.517 274.494 455.1C275.051 455.683 275.773 455.974 276.66 455.974C277.103 455.974 277.509 455.911 277.876 455.784C278.256 455.645 278.617 455.467 278.959 455.252L279.51 456.278C279.117 456.531 278.668 456.753 278.161 456.943C277.667 457.133 277.103 457.228 276.47 457.228ZM273.563 451.642H278.503C278.503 450.705 278.3 449.995 277.895 449.514C277.502 449.02 276.945 448.773 276.223 448.773C275.577 448.773 274.994 449.026 274.475 449.533C273.968 450.027 273.664 450.73 273.563 451.642ZM282.653 457V447.766H283.945L284.078 449.096H284.135C284.578 448.653 285.047 448.285 285.541 447.994C286.035 447.69 286.598 447.538 287.232 447.538C288.207 447.538 288.916 447.848 289.36 448.469C289.816 449.077 290.044 449.97 290.044 451.148V457H288.486V451.357C288.486 450.496 288.346 449.869 288.068 449.476C287.789 449.083 287.346 448.887 286.738 448.887C286.269 448.887 285.845 449.007 285.465 449.248C285.097 449.489 284.679 449.843 284.211 450.312V457H282.653ZM297.134 457.228C296.387 457.228 295.684 457.038 295.025 456.658C294.379 456.278 293.854 455.727 293.448 455.005C293.056 454.283 292.859 453.415 292.859 452.402C292.859 451.363 293.056 450.483 293.448 449.761C293.854 449.039 294.379 448.488 295.025 448.108C295.684 447.728 296.387 447.538 297.134 447.538C297.894 447.538 298.597 447.728 299.243 448.108C299.889 448.488 300.409 449.039 300.801 449.761C301.207 450.483 301.409 451.363 301.409 452.402C301.409 453.415 301.207 454.283 300.801 455.005C300.409 455.727 299.889 456.278 299.243 456.658C298.597 457.038 297.894 457.228 297.134 457.228ZM297.134 455.936C297.932 455.936 298.572 455.613 299.053 454.967C299.547 454.308 299.794 453.453 299.794 452.402C299.794 451.338 299.547 450.477 299.053 449.818C298.572 449.159 297.932 448.83 297.134 448.83C296.349 448.83 295.709 449.159 295.215 449.818C294.721 450.477 294.474 451.338 294.474 452.402C294.474 453.453 294.721 454.308 295.215 454.967C295.709 455.613 296.349 455.936 297.134 455.936Z" fill="black"/>
<path d="M391.501 457V455.708H394.275V446.778H392.071V445.771C392.628 445.67 393.11 445.549 393.515 445.41C393.933 445.258 394.307 445.081 394.636 444.878H395.833V455.708H398.341V457H391.501ZM404.675 457.228C403.459 457.228 402.503 456.683 401.806 455.594C401.122 454.492 400.78 452.928 400.78 450.901C400.78 448.862 401.122 447.31 401.806 446.246C402.503 445.182 403.459 444.65 404.675 444.65C405.879 444.65 406.822 445.182 407.506 446.246C408.203 447.31 408.551 448.862 408.551 450.901C408.551 452.928 408.203 454.492 407.506 455.594C406.822 456.683 405.879 457.228 404.675 457.228ZM404.675 455.974C405.385 455.974 405.955 455.575 406.385 454.777C406.816 453.966 407.031 452.674 407.031 450.901C407.031 449.128 406.816 447.855 406.385 447.082C405.955 446.297 405.385 445.904 404.675 445.904C403.966 445.904 403.39 446.297 402.946 447.082C402.516 447.855 402.3 449.128 402.3 450.901C402.3 452.674 402.516 453.966 402.946 454.777C403.39 455.575 403.966 455.974 404.675 455.974ZM414.62 457.228C413.404 457.228 412.447 456.683 411.751 455.594C411.067 454.492 410.725 452.928 410.725 450.901C410.725 448.862 411.067 447.31 411.751 446.246C412.447 445.182 413.404 444.65 414.62 444.65C415.823 444.65 416.767 445.182 417.451 446.246C418.147 447.31 418.496 448.862 418.496 450.901C418.496 452.928 418.147 454.492 417.451 455.594C416.767 456.683 415.823 457.228 414.62 457.228ZM414.62 455.974C415.329 455.974 415.899 455.575 416.33 454.777C416.76 453.966 416.976 452.674 416.976 450.901C416.976 449.128 416.76 447.855 416.33 447.082C415.899 446.297 415.329 445.904 414.62 445.904C413.91 445.904 413.334 446.297 412.891 447.082C412.46 447.855 412.245 449.128 412.245 450.901C412.245 452.674 412.46 453.966 412.891 454.777C413.334 455.575 413.91 455.974 414.62 455.974ZM421.391 460.895V447.766H422.683L422.816 448.83H422.873C423.291 448.475 423.747 448.171 424.241 447.918C424.748 447.665 425.273 447.538 425.818 447.538C427.009 447.538 427.914 447.969 428.535 448.83C429.156 449.679 429.466 450.819 429.466 452.25C429.466 453.289 429.276 454.182 428.896 454.929C428.529 455.676 428.041 456.246 427.433 456.639C426.838 457.032 426.185 457.228 425.476 457.228C425.045 457.228 424.615 457.133 424.184 456.943C423.766 456.753 423.342 456.493 422.911 456.164L422.949 457.779V460.895H421.391ZM425.21 455.917C425.97 455.917 426.597 455.594 427.091 454.948C427.598 454.289 427.851 453.39 427.851 452.25C427.851 451.237 427.661 450.42 427.281 449.799C426.914 449.166 426.293 448.849 425.419 448.849C425.026 448.849 424.627 448.957 424.222 449.172C423.829 449.387 423.405 449.698 422.949 450.103V454.948C423.367 455.303 423.772 455.556 424.165 455.708C424.558 455.847 424.906 455.917 425.21 455.917ZM430.823 457L433.844 452.174L431.051 447.766H432.742L433.977 449.799C434.116 450.04 434.262 450.293 434.414 450.559C434.566 450.825 434.724 451.085 434.889 451.338H434.965C435.104 451.085 435.243 450.825 435.383 450.559C435.522 450.293 435.661 450.04 435.801 449.799L436.922 447.766H438.556L435.763 452.345L438.765 457H437.074L435.725 454.853C435.56 454.574 435.395 454.296 435.231 454.017C435.066 453.738 434.895 453.466 434.718 453.2H434.642C434.477 453.466 434.319 453.738 434.167 454.017C434.015 454.283 433.863 454.562 433.711 454.853L432.457 457H430.823Z" fill="black"/>
<rect width="100" height="20" transform="translate(580 440)" fill="#C3D9F9"/>
</svg>
