<svg width="320" height="196" viewBox="0 0 320 196" fill="none" xmlns="http://www.w3.org/2000/svg">
<g clip-path="url(#clip0_1724_48070)">
<rect width="320" height="196" fill="#EEEEEE"/>
<rect width="153.061" height="216.369" transform="translate(66 30.1768) rotate(-7.57474)" fill="white"/>
<g filter="url(#filter0_d_1724_48070)">
<rect width="153.061" height="216.369" transform="translate(81 23.1006) rotate(-3.40819)" fill="white"/>
<path d="M112.248 194.91C112.272 195.31 112.385 195.588 112.587 195.745C112.789 195.901 113.034 195.971 113.322 195.954C113.522 195.942 113.719 195.874 113.912 195.75C114.113 195.618 114.282 195.411 114.418 195.13C114.302 194.534 114.125 194.131 113.888 193.92C113.658 193.701 113.407 193.6 113.135 193.616C112.879 193.631 112.66 193.744 112.48 193.956C112.3 194.16 112.222 194.477 112.248 194.91ZM113.299 200.22C112.795 200.25 112.349 200.185 111.962 200.023C111.583 199.861 111.266 199.667 111.012 199.441L111.885 198.329C112.022 198.465 112.202 198.583 112.425 198.682C112.647 198.773 112.87 198.812 113.094 198.799C113.382 198.782 113.634 198.694 113.85 198.537C114.073 198.371 114.246 198.112 114.37 197.759C114.493 197.398 114.545 196.921 114.525 196.328C114.34 196.588 114.103 196.799 113.816 196.961C113.536 197.122 113.281 197.209 113.048 197.223C112.616 197.249 112.223 197.188 111.869 197.041C111.523 196.893 111.239 196.652 111.019 196.32C110.798 195.98 110.671 195.542 110.639 195.005C110.608 194.477 110.697 194.014 110.906 193.616C111.115 193.218 111.406 192.908 111.778 192.685C112.15 192.454 112.564 192.324 113.02 192.297C113.516 192.268 113.992 192.372 114.448 192.61C114.904 192.84 115.284 193.223 115.589 193.759C115.902 194.294 116.085 195.01 116.139 195.907C116.195 196.851 116.093 197.64 115.834 198.274C115.582 198.9 115.229 199.375 114.774 199.699C114.327 200.015 113.836 200.188 113.299 200.22Z" fill="#0B4199"/>
<path d="M117.621 181.891C117.317 181.909 117.054 181.82 116.834 181.624C116.621 181.42 116.505 181.162 116.486 180.85C116.467 180.53 116.552 180.26 116.739 180.04C116.935 179.811 117.184 179.688 117.488 179.67C117.793 179.652 118.051 179.745 118.264 179.949C118.485 180.145 118.604 180.402 118.623 180.723C118.642 181.035 118.554 181.305 118.359 181.534C118.171 181.754 117.925 181.873 117.621 181.891Z" fill="#0B4199"/>
<path d="M112.634 182.188C112.13 182.218 111.672 182.157 111.262 182.005C110.851 181.853 110.52 181.627 110.27 181.329C110.019 181.023 109.881 180.665 109.856 180.257C109.829 179.793 109.93 179.405 110.161 179.095C110.399 178.783 110.693 178.521 111.041 178.307L111.039 178.259C110.729 178.053 110.47 177.811 110.26 177.534C110.051 177.258 109.935 176.919 109.911 176.519C109.885 176.087 109.967 175.709 110.156 175.384C110.345 175.051 110.619 174.79 110.977 174.6C111.335 174.41 111.751 174.301 112.223 174.273C112.919 174.231 113.491 174.39 113.938 174.749C114.384 175.1 114.627 175.592 114.664 176.224C114.686 176.592 114.606 176.926 114.423 177.226C114.239 177.518 114.021 177.76 113.767 177.952L113.77 178C114.15 178.178 114.478 178.416 114.752 178.713C115.027 179.009 115.179 179.41 115.21 179.914C115.233 180.314 115.143 180.681 114.938 181.015C114.733 181.348 114.432 181.619 114.034 181.828C113.645 182.036 113.178 182.156 112.634 182.188ZM112.841 177.573C113.132 177.195 113.266 176.813 113.243 176.429C113.225 176.133 113.127 175.902 112.948 175.736C112.777 175.561 112.548 175.482 112.26 175.5C112.028 175.513 111.832 175.597 111.672 175.751C111.513 175.906 111.442 176.131 111.46 176.427C111.478 176.739 111.613 176.976 111.863 177.138C112.114 177.299 112.44 177.445 112.841 177.573ZM112.597 180.961C112.893 180.944 113.133 180.853 113.316 180.69C113.499 180.518 113.58 180.272 113.561 179.952C113.548 179.728 113.469 179.548 113.324 179.412C113.179 179.268 112.983 179.147 112.736 179.05C112.489 178.944 112.201 178.832 111.873 178.715C111.714 178.878 111.585 179.07 111.486 179.293C111.386 179.507 111.343 179.731 111.357 179.963C111.377 180.299 111.509 180.556 111.752 180.735C111.995 180.905 112.277 180.98 112.597 180.961Z" fill="#0B4199"/>
<path d="M116.548 163.882C116.244 163.9 115.981 163.811 115.761 163.616C115.548 163.411 115.432 163.153 115.413 162.841C115.394 162.521 115.479 162.251 115.666 162.031C115.862 161.802 116.111 161.679 116.415 161.661C116.72 161.643 116.978 161.736 117.191 161.94C117.412 162.136 117.531 162.394 117.55 162.714C117.569 163.026 117.481 163.296 117.286 163.525C117.098 163.745 116.852 163.864 116.548 163.882Z" fill="#0B4199"/>
<path d="M110.303 164.11C110.301 163.258 110.348 162.493 110.444 161.812C110.54 161.132 110.709 160.475 110.953 159.842C111.196 159.209 111.538 158.546 111.979 157.853L108.557 158.057L108.469 156.568L113.775 156.252L113.839 157.333C113.431 157.895 113.105 158.421 112.861 158.909C112.625 159.397 112.446 159.894 112.323 160.399C112.208 160.896 112.136 161.434 112.106 162.014C112.077 162.594 112.068 163.257 112.08 164.004L110.303 164.11Z" fill="#0B4199"/>
<path d="M115.475 145.874C115.17 145.892 114.908 145.803 114.688 145.608C114.475 145.404 114.359 145.145 114.34 144.833C114.321 144.513 114.405 144.243 114.593 144.023C114.788 143.795 115.038 143.671 115.342 143.653C115.646 143.635 115.905 143.728 116.118 143.932C116.338 144.128 116.458 144.386 116.477 144.706C116.496 145.018 116.407 145.288 116.212 145.517C116.025 145.737 115.779 145.856 115.475 145.874Z" fill="#0B4199"/>
<path d="M110.414 142.502C110.214 142.513 110.013 142.586 109.813 142.718C109.619 142.842 109.45 143.045 109.307 143.327C109.422 143.922 109.599 144.329 109.837 144.548C110.075 144.759 110.325 144.856 110.59 144.84C110.854 144.825 111.072 144.715 111.245 144.512C111.425 144.301 111.502 143.979 111.476 143.547C111.453 143.146 111.34 142.868 111.137 142.711C110.943 142.554 110.702 142.484 110.414 142.502ZM110.704 146.159C110.216 146.188 109.744 146.088 109.289 145.858C108.833 145.62 108.448 145.233 108.135 144.698C107.83 144.153 107.651 143.437 107.598 142.549C107.541 141.596 107.638 140.807 107.89 140.182C108.15 139.556 108.504 139.085 108.951 138.769C109.405 138.445 109.901 138.267 110.437 138.235C110.941 138.205 111.383 138.271 111.762 138.433C112.141 138.587 112.457 138.781 112.712 139.015L111.851 140.127C111.714 139.99 111.531 139.877 111.3 139.786C111.078 139.687 110.854 139.644 110.63 139.657C110.35 139.674 110.098 139.765 109.875 139.931C109.652 140.089 109.479 140.348 109.355 140.709C109.24 141.061 109.188 141.534 109.199 142.128C109.384 141.86 109.616 141.649 109.896 141.496C110.184 141.335 110.444 141.247 110.676 141.233C111.332 141.194 111.884 141.354 112.331 141.713C112.786 142.063 113.037 142.642 113.085 143.451C113.117 143.979 113.028 144.442 112.819 144.84C112.609 145.23 112.318 145.541 111.946 145.772C111.583 146.002 111.169 146.131 110.704 146.159Z" fill="#0B4199"/>
<path d="M114.402 127.865C114.097 127.883 113.835 127.795 113.615 127.599C113.402 127.395 113.286 127.137 113.267 126.825C113.248 126.504 113.332 126.234 113.52 126.014C113.715 125.786 113.965 125.662 114.269 125.644C114.573 125.626 114.832 125.719 115.045 125.923C115.265 126.119 115.385 126.377 115.404 126.697C115.423 127.009 115.334 127.28 115.139 127.508C114.952 127.728 114.706 127.847 114.402 127.865Z" fill="#0B4199"/>
<path d="M109.222 128.175C108.598 128.212 108.064 128.139 107.619 127.957C107.174 127.775 106.791 127.544 106.469 127.266L107.195 126.103C107.44 126.297 107.703 126.462 107.984 126.598C108.265 126.726 108.565 126.78 108.885 126.761C109.277 126.738 109.584 126.619 109.804 126.405C110.024 126.191 110.122 125.888 110.099 125.496C110.076 125.112 109.947 124.826 109.711 124.64C109.475 124.453 109.18 124.37 108.828 124.391C108.604 124.404 108.418 124.444 108.269 124.509C108.128 124.573 107.946 124.685 107.723 124.842L106.9 124.385L106.887 120.519L111.209 120.261L111.297 121.75L108.5 121.917L108.453 123.353C108.71 123.217 108.991 123.14 109.295 123.122C109.735 123.096 110.14 123.156 110.51 123.303C110.889 123.449 111.2 123.691 111.445 124.03C111.69 124.361 111.828 124.799 111.861 125.343C111.894 125.903 111.791 126.391 111.551 126.807C111.318 127.223 110.996 127.547 110.584 127.78C110.173 128.014 109.719 128.145 109.222 128.175Z" fill="#0B4199"/>
<path d="M113.329 109.858C113.024 109.876 112.762 109.787 112.542 109.591C112.329 109.387 112.213 109.129 112.194 108.817C112.175 108.497 112.259 108.226 112.447 108.006C112.642 107.778 112.892 107.655 113.196 107.637C113.5 107.618 113.759 107.711 113.972 107.916C114.192 108.111 114.312 108.369 114.331 108.689C114.35 109.002 114.261 109.272 114.066 109.5C113.879 109.72 113.633 109.839 113.329 109.858Z" fill="#0B4199"/>
<path d="M106.908 106.915L108.517 106.819L108.443 105.582C108.429 105.334 108.42 105.05 108.417 104.728C108.421 104.399 108.42 104.114 108.414 103.873L108.366 103.876C108.282 104.09 108.195 104.308 108.104 104.53C108.012 104.753 107.917 104.975 107.818 105.198L106.908 106.915ZM108.706 109.988L108.597 108.163L105.296 108.36L105.223 107.148L107.735 102.396L109.896 102.267L110.162 106.721L111.038 106.669L111.118 108.013L110.242 108.065L110.351 109.89L108.706 109.988Z" fill="#0B4199"/>
<path d="M112.256 91.8488C111.951 91.8669 111.689 91.7781 111.469 91.5824C111.256 91.3782 111.14 91.1201 111.121 90.8079C111.102 90.4878 111.186 90.2177 111.374 89.9977C111.569 89.7692 111.819 89.6459 112.123 89.6277C112.427 89.6096 112.686 89.7026 112.899 89.9068C113.119 90.1025 113.239 90.3604 113.258 90.6806C113.277 90.9927 113.188 91.2631 112.993 91.4916C112.806 91.7116 112.56 91.8306 112.256 91.8488Z" fill="#0B4199"/>
<path d="M107.028 92.1608C106.412 92.1975 105.878 92.1289 105.426 91.9551C104.982 91.7807 104.61 91.5418 104.311 91.2384L105.061 90.0732C105.306 90.2835 105.573 90.4523 105.862 90.5797C106.151 90.7071 106.455 90.7612 106.775 90.7421C107.151 90.7197 107.447 90.6258 107.662 90.4604C107.877 90.287 107.975 90.0562 107.958 89.768C107.945 89.5439 107.877 89.3552 107.756 89.2018C107.634 89.0404 107.422 88.9245 107.121 88.8541C106.819 88.7837 106.392 88.765 105.84 88.7979L105.766 87.5493C106.454 87.5083 106.921 87.3881 107.166 87.1887C107.411 86.9814 107.524 86.7257 107.506 86.4215C107.49 86.1574 107.398 85.9581 107.229 85.8235C107.06 85.681 106.823 85.6188 106.519 85.6369C106.247 85.6531 106.003 85.728 105.786 85.8614C105.577 85.9943 105.358 86.172 105.131 86.3944L104.178 85.3668C104.512 85.0417 104.87 84.7834 105.252 84.5919C105.634 84.3925 106.057 84.2789 106.521 84.2513C107.305 84.2045 107.949 84.3509 108.451 84.6905C108.96 85.0216 109.235 85.5193 109.275 86.1836C109.298 86.5758 109.206 86.9186 108.999 87.2121C108.799 87.5051 108.501 87.7518 108.103 87.9522L108.106 88.0002C108.554 88.102 108.927 88.3007 109.226 88.5961C109.532 88.8831 109.7 89.2747 109.729 89.7709C109.758 90.2432 109.65 90.6552 109.405 91.0071C109.169 91.3505 108.84 91.6231 108.418 91.825C108.004 92.0183 107.541 92.1303 107.028 92.1608Z" fill="#0B4199"/>
<path d="M111.183 73.841C110.878 73.8591 110.616 73.7703 110.396 73.5746C110.183 73.3704 110.067 73.1123 110.048 72.8001C110.029 72.48 110.113 72.2099 110.301 71.9899C110.496 71.7614 110.746 71.638 111.05 71.6199C111.354 71.6018 111.613 71.6948 111.826 71.899C112.046 72.0947 112.166 72.3526 112.185 72.6728C112.204 72.9849 112.115 73.2552 111.92 73.4837C111.733 73.7038 111.487 73.8228 111.183 73.841Z" fill="#0B4199"/>
<path d="M103.473 74.1561L103.413 73.1477C104.025 72.4928 104.564 71.9024 105.031 71.3766C105.505 70.8423 105.87 70.3587 106.125 69.9259C106.38 69.485 106.496 69.0844 106.475 68.7243C106.453 68.3481 106.336 68.0699 106.124 67.8898C105.92 67.7011 105.654 67.6166 105.326 67.6361C105.054 67.6523 104.81 67.7472 104.596 67.9206C104.389 68.0855 104.195 68.2778 104.016 68.4973L102.999 67.6061C103.351 67.1835 103.717 66.8605 104.098 66.637C104.477 66.4056 104.939 66.2736 105.484 66.2412C105.988 66.2111 106.434 66.285 106.822 66.4626C107.21 66.6403 107.519 66.907 107.749 67.2628C107.987 67.6101 108.12 68.0278 108.149 68.5161C108.175 68.9403 108.081 69.3836 107.867 69.8461C107.661 70.3002 107.388 70.7623 107.046 71.2324C106.704 71.6945 106.338 72.1541 105.948 72.6111C106.138 72.5757 106.353 72.5428 106.592 72.5125C106.831 72.4741 107.038 72.4497 107.214 72.4392L108.751 72.3477L108.84 73.8364L103.473 74.1561Z" fill="#0B4199"/>
<path d="M110.109 55.8322C109.805 55.8503 109.543 55.7615 109.322 55.5658C109.109 55.3616 108.994 55.1035 108.975 54.7913C108.956 54.4712 109.04 54.2011 109.228 53.9811C109.423 53.7526 109.673 53.6293 109.977 53.6111C110.281 53.593 110.54 53.686 110.753 53.8902C110.973 54.0859 111.093 54.3438 111.112 54.664C111.131 54.9761 111.042 55.2465 110.847 55.475C110.659 55.695 110.413 55.814 110.109 55.8322Z" fill="#0B4199"/>
<path d="M102.797 56.1235L102.712 54.6949L104.369 54.5961L104.106 50.1901L102.677 50.2752L102.612 49.1827C103.024 49.0779 103.37 48.9609 103.652 48.8316C103.933 48.7024 104.205 48.5497 104.468 48.3734L105.764 48.2961L106.133 54.491L107.562 54.4059L107.647 55.8345L102.797 56.1235Z" fill="#0B4199"/>
<rect x="121" y="47.1865" width="104" height="5" rx="2.5" transform="rotate(-3.41 121 47.1865)" fill="#C3D9F9"/>
<rect x="122.079" y="65.2959" width="104" height="5" rx="2.5" transform="rotate(-3.41 122.079 65.2959)" fill="#C3D9F9"/>
<rect x="123.158" y="83.4062" width="104" height="5" rx="2.5" transform="rotate(-3.41 123.158 83.4062)" fill="#C3D9F9"/>
<rect x="124.237" y="101.516" width="104" height="5" rx="2.5" transform="rotate(-3.41 124.237 101.516)" fill="#C3D9F9"/>
<rect x="125.316" y="119.626" width="104" height="5" rx="2.5" transform="rotate(-3.41 125.316 119.626)" fill="#C3D9F9"/>
<rect x="126.396" y="137.735" width="104" height="5" rx="2.5" transform="rotate(-3.41 126.396 137.735)" fill="#C3D9F9"/>
<rect x="127.475" y="155.846" width="104" height="5" rx="2.5" transform="rotate(-3.41 127.475 155.846)" fill="#C3D9F9"/>
<rect x="128.554" y="173.955" width="104" height="5" rx="2.5" transform="rotate(-3.41 128.554 173.955)" fill="#C3D9F9"/>
<rect x="129.633" y="192.065" width="104" height="5" rx="2.5" transform="rotate(-3.41 129.633 192.065)" fill="#C3D9F9"/>
</g>
</g>
<defs>
<filter id="filter0_d_1724_48070" x="73" y="10.001" width="181.653" height="241.086" filterUnits="userSpaceOnUse" color-interpolation-filters="sRGB">
<feFlood flood-opacity="0" result="BackgroundImageFix"/>
<feColorMatrix in="SourceAlpha" type="matrix" values="0 0 0 0 0 0 0 0 0 0 0 0 0 0 0 0 0 0 127 0" result="hardAlpha"/>
<feOffset dy="4"/>
<feGaussianBlur stdDeviation="4"/>
<feColorMatrix type="matrix" values="0 0 0 0 0.101961 0 0 0 0 0.101961 0 0 0 0 0.101961 0 0 0 0.2 0"/>
<feBlend mode="normal" in2="BackgroundImageFix" result="effect1_dropShadow_1724_48070"/>
<feBlend mode="normal" in="SourceGraphic" in2="effect1_dropShadow_1724_48070" result="shape"/>
</filter>
<clipPath id="clip0_1724_48070">
<rect width="320" height="196" fill="white"/>
</clipPath>
</defs>
</svg>
