<svg width="346" height="231" viewBox="0 0 346 231" fill="none" xmlns="http://www.w3.org/2000/svg">
<rect width="320" height="196" transform="translate(12 16)" fill="#EEEEEE"/>
<path d="M40 122.185L59.8844 110.534L80 122.185L59.8844 133.835L40 122.185Z" fill="#126DFF"/>
<path d="M59.9224 118.3L53.2815 114.417V122.184L59.9224 126.067V118.3Z" fill="#0454D3"/>
<path d="M53.2816 114.418L59.9225 110.534L66.6407 114.418L59.9225 118.301L53.2816 114.418Z" fill="#817F7F"/>
<path d="M66.6405 122.184V114.417L59.9224 118.3V126.067L66.6405 122.184Z" fill="#0B4199"/>
<path d="M73.2049 118.3L66.564 114.417V122.184L73.2049 126.067V118.3Z" fill="#C3112B"/>
<path d="M66.5638 114.418L73.2048 110.534L79.9229 114.418L73.2048 118.301L66.5638 114.418Z" fill="#817F7F"/>
<path d="M79.9229 122.184V114.417L73.2047 118.3V126.067L79.9229 122.184Z" fill="#990319"/>
<path d="M66.5635 122.185L59.9226 118.302V126.069L66.5635 129.952V122.185Z" fill="#C3112B"/>
<path d="M59.9226 118.301L66.5635 114.418L73.2817 118.301L66.5635 122.185L59.9226 118.301Z" fill="#E51533"/>
<path d="M73.282 126.069V118.302L66.5638 122.185V129.952L73.282 126.069Z" fill="#990319"/>
<path d="M46.6409 118.3L40 114.417V122.184L46.6409 126.067V118.3Z" fill="#E2E2E2"/>
<path d="M40 114.418L46.6409 110.534L53.3591 114.418L46.6409 118.301L40 114.418Z" fill="#817F7F"/>
<path d="M53.3591 122.184V114.417L46.641 118.3V126.067L53.3591 122.184Z" fill="#AAAAAA"/>
<path d="M53.2818 122.185L46.6409 118.302V126.069L53.2818 129.952V122.185Z" fill="#0454D3"/>
<path d="M46.6409 118.301L53.2818 114.418L60 118.301L53.2818 122.185L46.6409 118.301Z" fill="#126DFF"/>
<path d="M59.9999 126.069V118.302L53.2817 122.185V129.952L59.9999 126.069Z" fill="#0B4199"/>
<path d="M59.9224 126.068L53.2815 122.185V129.952L59.9224 133.835V126.068Z" fill="#C3112B"/>
<path d="M53.2816 122.184L59.9225 118.301L66.6407 122.184L59.9225 126.068L53.2816 122.184Z" fill="#E51533"/>
<path d="M66.6405 129.952V122.185L59.9224 126.068V133.835L66.6405 129.952Z" fill="#990319"/>
<path d="M59.9224 110.535L53.2815 106.651V114.418L59.9224 118.302V110.535Z" fill="#0454D3"/>
<path d="M53.2815 106.651L59.9224 102.768L66.6406 106.651L59.9224 110.535L53.2815 106.651Z" fill="#817F7F"/>
<path d="M66.6405 114.418V106.651L59.9224 110.535V118.302L66.6405 114.418Z" fill="#0B4199"/>
<path d="M73.2049 110.535L66.564 106.651V114.418L73.2049 118.302V110.535Z" fill="#C3112B"/>
<path d="M66.564 106.651L73.2049 102.768L79.923 106.651L73.2049 110.535L66.564 106.651Z" fill="#E61533"/>
<path d="M79.923 114.418V106.651L73.2048 110.535V118.302L79.923 114.418Z" fill="#990319"/>
<path d="M46.6409 110.535L40 106.651V114.418L46.6409 118.302V110.535Z" fill="#E2E2E2"/>
<path d="M40 106.651L46.6409 102.768L53.3591 106.651L46.6409 110.535L40 106.651Z" fill="#F2F2F2"/>
<path d="M53.3591 114.418V106.651L46.641 110.535V118.302L53.3591 114.418Z" fill="#AAAAAA"/>
<path d="M59.9224 102.767L53.2815 98.8838V106.651L59.9224 110.534V102.767Z" fill="#0454D3"/>
<path d="M53.2816 98.8835L59.9225 95L66.6407 98.8835L59.9225 102.767L53.2816 98.8835Z" fill="#126DFF"/>
<path d="M66.6405 106.651V98.8838L59.9224 102.767V110.534L66.6405 106.651Z" fill="#0B4199"/>
<path d="M96.848 123.417V107.769H101.264C102.864 107.769 104.248 108.041 105.416 108.585C106.584 109.129 107.488 109.977 108.128 111.129C108.784 112.265 109.112 113.729 109.112 115.521C109.112 117.313 108.792 118.793 108.152 119.961C107.512 121.129 106.616 122.001 105.464 122.577C104.328 123.137 102.992 123.417 101.456 123.417H96.848ZM100.376 120.561H101.048C101.944 120.561 102.72 120.401 103.376 120.081C104.048 119.761 104.568 119.233 104.936 118.497C105.304 117.761 105.488 116.769 105.488 115.521C105.488 114.273 105.304 113.297 104.936 112.593C104.568 111.873 104.048 111.369 103.376 111.081C102.72 110.777 101.944 110.625 101.048 110.625H100.376V120.561ZM111.794 123.417V111.513H115.322V123.417H111.794ZM113.546 109.761C112.954 109.761 112.474 109.593 112.106 109.257C111.738 108.921 111.554 108.473 111.554 107.913C111.554 107.353 111.738 106.905 112.106 106.569C112.474 106.233 112.954 106.065 113.546 106.065C114.138 106.065 114.618 106.233 114.986 106.569C115.354 106.905 115.538 107.353 115.538 107.913C115.538 108.473 115.354 108.921 114.986 109.257C114.618 109.593 114.138 109.761 113.546 109.761ZM117.779 123.417V121.521L122.771 114.273H118.331V111.513H127.163V113.385L122.171 120.657H127.331V123.417H117.779ZM132.138 123.705C131.05 123.705 130.186 123.361 129.546 122.673C128.906 121.969 128.586 121.113 128.586 120.105C128.586 118.857 129.114 117.881 130.17 117.177C131.226 116.473 132.93 116.001 135.282 115.761C135.25 115.233 135.09 114.817 134.802 114.513C134.53 114.193 134.066 114.033 133.41 114.033C132.914 114.033 132.41 114.129 131.898 114.321C131.386 114.513 130.842 114.777 130.266 115.113L128.994 112.785C129.746 112.321 130.546 111.945 131.394 111.657C132.258 111.369 133.154 111.225 134.082 111.225C135.602 111.225 136.77 111.665 137.586 112.545C138.402 113.425 138.81 114.777 138.81 116.601V123.417H135.93L135.69 122.193H135.594C135.098 122.641 134.562 123.009 133.986 123.297C133.426 123.569 132.81 123.705 132.138 123.705ZM133.338 120.969C133.738 120.969 134.082 120.881 134.37 120.705C134.674 120.513 134.978 120.265 135.282 119.961V117.873C134.034 118.033 133.17 118.289 132.69 118.641C132.21 118.977 131.97 119.377 131.97 119.841C131.97 120.225 132.09 120.513 132.33 120.705C132.586 120.881 132.922 120.969 133.338 120.969ZM141.098 128.121C140.602 128.121 140.194 128.089 139.874 128.025C139.538 127.961 139.25 127.881 139.01 127.785L139.634 125.193C139.794 125.241 139.954 125.281 140.114 125.313C140.258 125.345 140.41 125.361 140.57 125.361C141.034 125.361 141.354 125.201 141.53 124.881C141.722 124.577 141.818 124.097 141.818 123.441V111.513H145.346V123.345C145.346 124.209 145.218 125.001 144.962 125.721C144.706 126.441 144.266 127.017 143.642 127.449C143.034 127.897 142.186 128.121 141.098 128.121ZM143.594 109.761C143.002 109.761 142.522 109.593 142.154 109.257C141.786 108.921 141.602 108.473 141.602 107.913C141.602 107.353 141.786 106.905 142.154 106.569C142.522 106.233 143.002 106.065 143.594 106.065C144.186 106.065 144.666 106.233 145.034 106.569C145.402 106.905 145.586 107.353 145.586 107.913C145.586 108.473 145.402 108.921 145.034 109.257C144.666 109.593 144.186 109.761 143.594 109.761ZM148.474 123.417V111.513H151.354L151.594 113.025H151.69C152.202 112.545 152.762 112.129 153.37 111.777C153.994 111.409 154.706 111.225 155.506 111.225C156.802 111.225 157.738 111.657 158.314 112.521C158.906 113.369 159.202 114.537 159.202 116.025V123.417H155.674V116.481C155.674 115.617 155.554 115.025 155.314 114.705C155.09 114.385 154.722 114.225 154.21 114.225C153.762 114.225 153.378 114.329 153.058 114.537C152.738 114.729 152.386 115.009 152.002 115.377V123.417H148.474ZM170.517 123.705C169.733 123.705 168.925 123.553 168.093 123.249C167.277 122.945 166.565 122.545 165.957 122.049L167.541 119.841C168.085 120.241 168.605 120.553 169.101 120.777C169.613 120.985 170.117 121.089 170.613 121.089C171.141 121.089 171.525 121.001 171.765 120.825C172.005 120.633 172.125 120.385 172.125 120.081C172.125 119.809 172.005 119.585 171.765 119.409C171.541 119.233 171.245 119.073 170.877 118.929C170.509 118.769 170.117 118.609 169.701 118.449C169.221 118.257 168.741 118.017 168.261 117.729C167.797 117.441 167.405 117.073 167.085 116.625C166.765 116.161 166.605 115.601 166.605 114.945C166.605 113.841 167.021 112.945 167.853 112.257C168.701 111.569 169.805 111.225 171.165 111.225C172.077 111.225 172.877 111.385 173.565 111.705C174.269 112.009 174.869 112.353 175.365 112.737L173.781 114.849C173.365 114.529 172.949 114.281 172.533 114.105C172.117 113.929 171.701 113.841 171.285 113.841C170.373 113.841 169.917 114.153 169.917 114.777C169.917 115.161 170.141 115.457 170.589 115.665C171.053 115.857 171.589 116.065 172.197 116.289C172.709 116.465 173.205 116.697 173.685 116.985C174.181 117.257 174.589 117.625 174.909 118.089C175.245 118.537 175.413 119.129 175.413 119.865C175.413 120.937 174.997 121.849 174.165 122.601C173.333 123.337 172.117 123.705 170.517 123.705ZM178.974 128.073C178.622 128.073 178.31 128.049 178.038 128.001C177.782 127.953 177.534 127.897 177.294 127.833L177.918 125.145C178.03 125.161 178.158 125.185 178.302 125.217C178.446 125.265 178.582 125.289 178.71 125.289C179.302 125.289 179.758 125.145 180.078 124.857C180.398 124.569 180.638 124.193 180.798 123.729L180.966 123.105L176.382 111.513H179.934L181.638 116.625C181.814 117.169 181.974 117.721 182.118 118.281C182.262 118.841 182.414 119.417 182.574 120.009H182.67C182.798 119.449 182.926 118.889 183.054 118.329C183.198 117.753 183.342 117.185 183.486 116.625L184.926 111.513H188.31L184.182 123.537C183.814 124.529 183.406 125.361 182.958 126.033C182.51 126.721 181.966 127.233 181.326 127.569C180.702 127.905 179.918 128.073 178.974 128.073ZM193.673 123.705C192.889 123.705 192.081 123.553 191.249 123.249C190.433 122.945 189.721 122.545 189.113 122.049L190.697 119.841C191.241 120.241 191.761 120.553 192.257 120.777C192.769 120.985 193.273 121.089 193.769 121.089C194.297 121.089 194.681 121.001 194.921 120.825C195.161 120.633 195.281 120.385 195.281 120.081C195.281 119.809 195.161 119.585 194.921 119.409C194.697 119.233 194.401 119.073 194.033 118.929C193.665 118.769 193.273 118.609 192.857 118.449C192.377 118.257 191.897 118.017 191.417 117.729C190.953 117.441 190.561 117.073 190.241 116.625C189.921 116.161 189.761 115.601 189.761 114.945C189.761 113.841 190.177 112.945 191.009 112.257C191.857 111.569 192.961 111.225 194.321 111.225C195.233 111.225 196.033 111.385 196.721 111.705C197.425 112.009 198.025 112.353 198.521 112.737L196.937 114.849C196.521 114.529 196.105 114.281 195.689 114.105C195.273 113.929 194.857 113.841 194.441 113.841C193.529 113.841 193.073 114.153 193.073 114.777C193.073 115.161 193.297 115.457 193.745 115.665C194.209 115.857 194.745 116.065 195.353 116.289C195.865 116.465 196.361 116.697 196.841 116.985C197.337 117.257 197.745 117.625 198.065 118.089C198.401 118.537 198.569 119.129 198.569 119.865C198.569 120.937 198.153 121.849 197.321 122.601C196.489 123.337 195.273 123.705 193.673 123.705ZM204.925 123.705C203.453 123.705 202.397 123.281 201.757 122.433C201.133 121.585 200.821 120.473 200.821 119.097V114.273H199.189V111.657L201.013 111.513L201.421 108.345H204.349V111.513H207.205V114.273H204.349V119.049C204.349 119.721 204.485 120.209 204.757 120.513C205.045 120.801 205.421 120.945 205.885 120.945C206.077 120.945 206.269 120.921 206.461 120.873C206.669 120.825 206.853 120.769 207.013 120.705L207.565 123.273C207.261 123.369 206.885 123.465 206.437 123.561C206.005 123.657 205.501 123.705 204.925 123.705ZM214.435 123.705C213.299 123.705 212.275 123.457 211.363 122.961C210.451 122.465 209.731 121.753 209.203 120.825C208.675 119.897 208.411 118.777 208.411 117.465C208.411 116.169 208.675 115.057 209.203 114.129C209.747 113.201 210.451 112.489 211.315 111.993C212.179 111.481 213.083 111.225 214.027 111.225C215.163 111.225 216.099 111.481 216.835 111.993C217.587 112.489 218.147 113.169 218.515 114.033C218.899 114.881 219.091 115.849 219.091 116.937C219.091 117.241 219.075 117.545 219.043 117.849C219.011 118.137 218.979 118.353 218.947 118.497H211.819C211.979 119.361 212.339 120.001 212.899 120.417C213.459 120.817 214.131 121.017 214.915 121.017C215.763 121.017 216.619 120.753 217.483 120.225L218.659 122.361C218.051 122.777 217.371 123.105 216.619 123.345C215.867 123.585 215.139 123.705 214.435 123.705ZM211.795 116.169H216.091C216.091 115.513 215.931 114.977 215.611 114.561C215.307 114.129 214.803 113.913 214.099 113.913C213.555 113.913 213.067 114.105 212.635 114.489C212.203 114.857 211.923 115.417 211.795 116.169ZM214.219 109.689L212.491 107.961L216.187 103.593L218.563 105.921L214.219 109.689ZM221.529 123.417V111.513H224.409L224.649 113.049H224.745C225.241 112.553 225.769 112.129 226.329 111.777C226.889 111.409 227.561 111.225 228.345 111.225C229.193 111.225 229.873 111.401 230.385 111.753C230.913 112.089 231.329 112.577 231.633 113.217C232.161 112.673 232.721 112.209 233.313 111.825C233.905 111.425 234.593 111.225 235.377 111.225C236.657 111.225 237.593 111.657 238.185 112.521C238.793 113.369 239.097 114.537 239.097 116.025V123.417H235.569V116.481C235.569 115.617 235.449 115.025 235.209 114.705C234.985 114.385 234.617 114.225 234.105 114.225C233.513 114.225 232.833 114.609 232.065 115.377V123.417H228.537V116.481C228.537 115.617 228.417 115.025 228.177 114.705C227.953 114.385 227.585 114.225 227.073 114.225C226.481 114.225 225.809 114.609 225.057 115.377V123.417H221.529ZM247.2 123.417V107.769H250.728V123.417H247.2ZM254.418 123.417V107.769H258.834C260.434 107.769 261.818 108.041 262.986 108.585C264.154 109.129 265.058 109.977 265.698 111.129C266.354 112.265 266.682 113.729 266.682 115.521C266.682 117.313 266.362 118.793 265.722 119.961C265.082 121.129 264.186 122.001 263.034 122.577C261.898 123.137 260.562 123.417 259.026 123.417H254.418ZM257.946 120.561H258.618C259.514 120.561 260.29 120.401 260.946 120.081C261.618 119.761 262.138 119.233 262.506 118.497C262.874 117.761 263.058 116.769 263.058 115.521C263.058 114.273 262.874 113.297 262.506 112.593C262.138 111.873 261.618 111.369 260.946 111.081C260.29 110.777 259.514 110.625 258.618 110.625H257.946V120.561ZM268.837 118.593V116.097H274.741V118.593H268.837ZM281.765 123.705C280.741 123.705 279.717 123.513 278.693 123.129C277.685 122.745 276.781 122.185 275.981 121.449L277.997 119.025C278.557 119.505 279.181 119.897 279.869 120.201C280.557 120.505 281.221 120.657 281.861 120.657C282.597 120.657 283.141 120.521 283.493 120.249C283.861 119.977 284.045 119.609 284.045 119.145C284.045 118.649 283.837 118.289 283.421 118.065C283.021 117.825 282.477 117.561 281.789 117.273L279.749 116.409C279.221 116.185 278.717 115.889 278.237 115.521C277.757 115.137 277.365 114.665 277.061 114.105C276.757 113.545 276.605 112.889 276.605 112.137C276.605 111.273 276.837 110.489 277.301 109.785C277.781 109.081 278.437 108.521 279.269 108.105C280.117 107.689 281.085 107.481 282.173 107.481C283.069 107.481 283.965 107.657 284.861 108.009C285.757 108.361 286.541 108.873 287.213 109.545L285.413 111.777C284.901 111.377 284.389 111.073 283.877 110.865C283.365 110.641 282.797 110.529 282.173 110.529C281.565 110.529 281.077 110.657 280.709 110.913C280.357 111.153 280.181 111.497 280.181 111.945C280.181 112.425 280.405 112.785 280.853 113.025C281.317 113.265 281.885 113.521 282.557 113.793L284.573 114.609C285.517 114.993 286.269 115.521 286.829 116.193C287.389 116.865 287.669 117.753 287.669 118.857C287.669 119.721 287.437 120.521 286.973 121.257C286.509 121.993 285.837 122.585 284.957 123.033C284.077 123.481 283.013 123.705 281.765 123.705ZM290.325 123.417V107.769H293.853V114.177H293.949L298.605 107.769H302.493L297.765 114.009L303.357 123.417H299.493L295.677 116.817L293.853 119.217V123.417H290.325Z" fill="#0B4199"/>
<g filter="url(#filter0_b_1724_47712)">
<path d="M0 0H346V231H0V0Z" fill="white" fill-opacity="0.01"/>
</g>
<g filter="url(#filter1_d_1724_47712)">
<path d="M157.778 128.317C157.131 124.084 157.347 120.284 158.424 116.919C159.609 113.554 161.226 110.515 163.273 107.801C165.32 105.087 167.421 102.591 169.576 100.311C171.838 98.0317 173.724 95.8607 175.232 93.7983C176.741 91.7358 177.495 89.6734 177.495 87.6109C177.495 84.6801 176.579 82.6177 174.747 81.4236C173.024 80.121 170.923 79.4697 168.444 79.4697C165.751 79.4697 163.38 80.121 161.333 81.4236C159.394 82.7262 157.347 84.3545 155.192 86.3084L140 72.3055C143.987 67.7464 148.673 64.0557 154.061 61.2334C159.556 58.4111 165.535 57 172 57C177.926 57 183.313 57.9769 188.162 59.9308C193.01 61.7762 196.835 64.8156 199.636 69.049C202.545 73.2824 204 78.8184 204 85.6571C204 89.5648 203.192 92.9842 201.576 95.915C200.067 98.8458 198.128 101.56 195.758 104.056C193.495 106.444 191.232 108.832 188.97 111.22C186.815 113.609 185.037 116.159 183.636 118.873C182.236 121.587 181.697 124.735 182.02 128.317H157.778ZM169.737 170C165.104 170 161.226 168.372 158.101 165.115C155.084 161.75 153.576 157.734 153.576 153.066C153.576 148.29 155.084 144.274 158.101 141.017C161.226 137.761 165.104 136.133 169.737 136.133C174.478 136.133 178.357 137.761 181.374 141.017C184.391 144.274 185.899 148.29 185.899 153.066C185.899 157.734 184.391 161.75 181.374 165.115C178.357 168.372 174.478 170 169.737 170Z" fill="#0B4199"/>
</g>
<defs>
<filter id="filter0_b_1724_47712" x="-5" y="-5" width="356" height="241" filterUnits="userSpaceOnUse" color-interpolation-filters="sRGB">
<feFlood flood-opacity="0" result="BackgroundImageFix"/>
<feGaussianBlur in="BackgroundImageFix" stdDeviation="2.5"/>
<feComposite in2="SourceAlpha" operator="in" result="effect1_backgroundBlur_1724_47712"/>
<feBlend mode="normal" in="SourceGraphic" in2="effect1_backgroundBlur_1724_47712" result="shape"/>
</filter>
<filter id="filter1_d_1724_47712" x="132" y="53" width="80" height="129" filterUnits="userSpaceOnUse" color-interpolation-filters="sRGB">
<feFlood flood-opacity="0" result="BackgroundImageFix"/>
<feColorMatrix in="SourceAlpha" type="matrix" values="0 0 0 0 0 0 0 0 0 0 0 0 0 0 0 0 0 0 127 0" result="hardAlpha"/>
<feOffset dy="4"/>
<feGaussianBlur stdDeviation="4"/>
<feColorMatrix type="matrix" values="0 0 0 0 0.101961 0 0 0 0 0.101961 0 0 0 0 0.101961 0 0 0 0.2 0"/>
<feBlend mode="normal" in2="BackgroundImageFix" result="effect1_dropShadow_1724_47712"/>
<feBlend mode="normal" in="SourceGraphic" in2="effect1_dropShadow_1724_47712" result="shape"/>
</filter>
</defs>
</svg>
