<svg width="447" height="311" viewBox="0 0 447 311" fill="none" xmlns="http://www.w3.org/2000/svg">
<path d="M168.533 214.814L145.099 201.189V228.439L168.533 242.064V214.814Z" fill="#E2E2E2"/>
<path d="M145.099 201.189L168.533 187.564L192.24 201.189L168.533 214.814L145.099 201.189Z" fill="#F2F2F2"/>
<path d="M192.241 228.439V201.189L168.534 214.814V242.064L192.241 228.439Z" fill="#AAAAAA"/>
<path d="M191.603 228.591L168.168 214.966V242.215L191.603 255.84V228.591Z" fill="#E2E2E2"/>
<path d="M168.168 214.967L191.603 201.342L215.31 214.967L191.603 228.591L168.168 214.967Z" fill="#F2F2F2"/>
<path d="M215.311 242.215V214.966L191.604 228.591V255.84L215.311 242.215Z" fill="#AAAAAA"/>
<path d="M214.672 242.161L191.237 228.536V255.786L214.672 269.41V242.161Z" fill="#E2E2E2"/>
<path d="M191.237 228.536L214.672 214.911L238.379 228.536L214.672 242.161L191.237 228.536Z" fill="#126DFF"/>
<path d="M238.38 255.786V228.536L214.673 242.161V269.41L238.38 255.786Z" fill="#AAAAAA"/>
<path d="M237.741 255.937L214.307 242.312V269.562L237.741 283.187V255.937Z" fill="#E2E2E2"/>
<path d="M214.307 242.312L237.741 228.688L261.448 242.312L237.741 255.937L214.307 242.312Z" fill="#F2F2F2"/>
<path d="M261.449 269.562V242.312L237.742 255.937V283.187L261.449 269.562Z" fill="#AAAAAA"/>
<path d="M214.672 215.817L191.237 202.192V229.442L214.672 243.067V215.817Z" fill="#E2E2E2"/>
<path d="M191.237 202.192L214.672 188.567L238.379 202.192L214.672 215.817L191.237 202.192Z" fill="#F2F2F2"/>
<path d="M238.38 229.442V202.192L214.673 215.817V243.067L238.38 229.442Z" fill="#AAAAAA"/>
<path d="M191.603 81.4128L168.168 67.7881V95.0376L191.603 108.662V81.4128Z" fill="#E2E2E2"/>
<path d="M168.168 67.7878L191.603 54.1631L215.31 67.7878L191.603 81.4126L168.168 67.7878Z" fill="#126DFF"/>
<path d="M215.311 95.0376V67.7881L191.604 81.4128V108.662L215.311 95.0376Z" fill="#AAAAAA"/>
<path d="M191.603 54.3308L168.168 40.7061V67.9556L191.603 81.5803V54.3308Z" fill="#E2E2E2"/>
<path d="M168.168 40.7068L191.603 27.082L215.31 40.7068L191.603 54.3315L168.168 40.7068Z" fill="#126DFF"/>
<path d="M215.311 67.9556V40.7061L191.604 54.3308V81.5803L215.311 67.9556Z" fill="#0B4199"/>
<path d="M214.673 67.3699L191.238 53.7451V80.9946L214.673 94.6194V67.3699Z" fill="#E2E2E2"/>
<path d="M191.238 53.7449L214.673 40.1201L238.38 53.7449L214.673 67.3696L191.238 53.7449Z" fill="#F2F2F2"/>
<path d="M238.381 80.9946V53.7451L214.674 67.3699V94.6194L238.381 80.9946Z" fill="#AAAAAA"/>
<path d="M191.603 27.2498L168.168 13.625V40.8745L191.603 54.4993V27.2498Z" fill="#E2E2E2"/>
<path d="M168.168 13.6248L191.603 0L215.31 13.6248L191.603 27.2495L168.168 13.6248Z" fill="#F2F2F2"/>
<path d="M215.311 40.8745V13.625L191.604 27.2498V54.4993L215.311 40.8745Z" fill="#AAAAAA"/>
<path d="M168.533 162.923L145.099 149.298V176.547L168.533 190.172V162.923Z" fill="#E2E2E2"/>
<path d="M145.099 149.298L168.533 135.673L192.24 149.298L168.533 162.922L145.099 149.298Z" fill="#126DFF"/>
<path d="M192.241 176.547V149.298L168.534 162.923V190.172L192.241 176.547Z" fill="#AAAAAA"/>
<path d="M191.603 176.699L168.168 163.074V190.324L191.603 203.948V176.699Z" fill="#E2E2E2"/>
<path d="M168.168 163.074L191.603 149.449L215.31 163.074L191.603 176.699L168.168 163.074Z" fill="#F2F2F2"/>
<path d="M215.311 190.324V163.074L191.604 176.699V203.948L215.311 190.324Z" fill="#AAAAAA"/>
<path d="M168.533 136.579L145.099 122.954V150.204L168.533 163.828V136.579Z" fill="#E2E2E2"/>
<path d="M145.099 122.954L168.533 109.329L192.24 122.954L168.533 136.579L145.099 122.954Z" fill="#F2F2F2"/>
<path d="M192.241 150.204V122.954L168.534 136.579V163.828L192.241 150.204Z" fill="#AAAAAA"/>
<path d="M260.812 242.442L237.377 228.817V256.067L260.812 269.692V242.442Z" fill="#E2E2E2"/>
<path d="M237.377 228.817L260.812 215.192L284.519 228.817L260.812 242.442L237.377 228.817Z" fill="#F2F2F2"/>
<path d="M284.52 256.067V228.817L260.812 242.442V269.692L284.52 256.067Z" fill="#AAAAAA"/>
<path d="M283.881 256.219L260.446 242.594V269.843L283.881 283.468V256.219Z" fill="#E2E2E2"/>
<path d="M260.446 242.594L283.881 228.969L307.588 242.594L283.881 256.218L260.446 242.594Z" fill="#F2F2F2"/>
<path d="M307.589 269.843V242.594L283.882 256.219V283.468L307.589 269.843Z" fill="#AAAAAA"/>
<path d="M306.95 269.789L283.516 256.164V283.414L306.95 297.038V269.789Z" fill="#E2E2E2"/>
<path d="M283.516 256.164L306.95 242.539L330.657 256.164L306.95 269.789L283.516 256.164Z" fill="#126DFF"/>
<path d="M330.658 283.414V256.164L306.951 269.789V297.038L330.658 283.414Z" fill="#AAAAAA"/>
<path d="M330.019 283.565L306.584 269.94V297.19L330.019 310.815V283.565Z" fill="#E2E2E2"/>
<path d="M306.584 269.94L330.019 256.315L353.726 269.94L330.019 283.565L306.584 269.94Z" fill="#F2F2F2"/>
<path d="M353.727 297.19V269.94L330.02 283.565V310.815L353.727 297.19Z" fill="#AAAAAA"/>
<path d="M306.95 243.445L283.516 229.82V257.07L306.95 270.695V243.445Z" fill="#E2E2E2"/>
<path d="M283.516 229.82L306.95 216.195L330.657 229.82L306.95 243.445L283.516 229.82Z" fill="#F2F2F2"/>
<path d="M330.658 257.07V229.82L306.951 243.445V270.695L330.658 257.07Z" fill="#AAAAAA"/>
<path d="M215.675 162.112L192.24 148.487V175.737L215.675 189.362V162.112Z" fill="#E2E2E2"/>
<path d="M192.24 148.487L215.675 134.862L239.382 148.487L215.675 162.112L192.24 148.487Z" fill="#F2F2F2"/>
<path d="M239.383 175.737V148.487L215.676 162.112V189.362L239.383 175.737Z" fill="#0B4199"/>
<path d="M238.744 175.152L215.31 161.527V188.777L238.744 202.402V175.152Z" fill="#E2E2E2"/>
<path d="M215.31 161.527L238.744 147.902L262.451 161.527L238.744 175.152L215.31 161.527Z" fill="#F2F2F2"/>
<path d="M262.452 188.777V161.527L238.745 175.152V202.402L262.452 188.777Z" fill="#0B4199"/>
<path d="M261.814 188.191L238.38 174.566V201.816L261.814 215.441V188.191Z" fill="#E2E2E2"/>
<path d="M238.38 174.566L261.814 160.941L285.522 174.566L261.814 188.191L238.38 174.566Z" fill="#126DFF"/>
<path d="M285.522 201.816V174.566L261.815 188.191V215.441L285.522 201.816Z" fill="#AAAAAA"/>
<path d="M261.814 162.112L238.38 148.487V175.737L261.814 189.362V162.112Z" fill="#E2E2E2"/>
<path d="M238.38 148.487L261.814 134.862L285.522 148.487L261.814 162.112L238.38 148.487Z" fill="#F2F2F2"/>
<path d="M285.522 175.737V148.487L261.815 162.112V189.362L285.522 175.737Z" fill="#0B4199"/>
<path d="M284.883 175.152L261.448 161.527V188.777L284.883 202.402V175.152Z" fill="#E2E2E2"/>
<path d="M261.448 161.527L284.883 147.902L308.59 161.527L284.883 175.152L261.448 161.527Z" fill="#F2F2F2"/>
<path d="M308.591 188.777V161.527L284.884 175.152V202.402L308.591 188.777Z" fill="#AAAAAA"/>
<path d="M98.3223 249.182L74.8877 235.558V262.807L98.3223 276.432V249.182Z" fill="black"/>
<path d="M74.8877 235.557L98.3223 221.933L122.029 235.557L98.3223 249.182L74.8877 235.557Z" fill="black"/>
<path d="M122.03 262.807V235.558L98.3232 249.182V276.432L122.03 262.807Z" fill="black"/>
<path d="M74.249 262.96L50.8145 249.335V276.584L74.249 290.209V262.96Z" fill="black"/>
<path d="M50.8145 249.335L74.249 235.71L97.9561 249.335L74.249 262.959L50.8145 249.335Z" fill="#126DFF"/>
<path d="M97.9571 276.584V249.335L74.25 262.96V290.209L97.9571 276.584Z" fill="#0B4199"/>
<path d="M51.1797 275.999L27.7451 262.374V289.624L51.1797 303.248V275.999Z" fill="#0454D3"/>
<path d="M27.7451 262.374L51.1797 248.749L74.8868 262.374L51.1797 275.999L27.7451 262.374Z" fill="#126DFF"/>
<path d="M74.8877 289.624V262.374L51.1807 275.999V303.248L74.8877 289.624Z" fill="#0B4199"/>
<path d="M121.391 262.96L97.9561 249.335V276.584L121.391 290.209V262.96Z" fill="#0454D3"/>
<path d="M97.9561 249.335L121.391 235.71L145.098 249.335L121.391 262.959L97.9561 249.335Z" fill="#126DFF"/>
<path d="M145.099 276.584V249.335L121.392 262.96V290.209L145.099 276.584Z" fill="#0B4199"/>
<path d="M98.3223 222.84L74.8877 209.215V236.464L98.3223 250.089V222.84Z" fill="#0454D3"/>
<path d="M74.8877 209.215L98.3223 195.59L122.029 209.215L98.3223 222.839L74.8877 209.215Z" fill="black"/>
<path d="M122.03 236.464V209.215L98.3232 222.84V250.089L122.03 236.464Z" fill="#0B4199"/>
<path d="M98.3223 195.758L74.8877 182.133V209.382L98.3223 223.007V195.758Z" fill="#0454D3"/>
<path d="M74.8877 182.133L98.3223 168.508L122.029 182.133L98.3223 195.757L74.8877 182.133Z" fill="#126DFF"/>
<path d="M122.03 209.382V182.133L98.3232 195.758V223.007L122.03 209.382Z" fill="#0B4199"/>
<rect x="95.9531" y="35.96" width="69" height="36" rx="18" fill="black"/>
<path d="M119.265 58.104C118.753 58.104 118.241 58.008 117.729 57.816C117.225 57.624 116.773 57.344 116.373 56.976L117.381 55.764C117.661 56.004 117.973 56.2 118.317 56.352C118.661 56.504 118.993 56.58 119.313 56.58C119.681 56.58 119.953 56.512 120.129 56.376C120.313 56.24 120.405 56.056 120.405 55.824C120.405 55.576 120.301 55.396 120.093 55.284C119.893 55.164 119.621 55.032 119.277 54.888L118.257 54.456C117.993 54.344 117.741 54.196 117.501 54.012C117.261 53.82 117.065 53.584 116.913 53.304C116.761 53.024 116.685 52.696 116.685 52.32C116.685 51.888 116.801 51.496 117.033 51.144C117.273 50.792 117.601 50.512 118.017 50.304C118.441 50.096 118.925 49.992 119.469 49.992C119.917 49.992 120.365 50.08 120.813 50.256C121.261 50.432 121.653 50.688 121.989 51.024L121.089 52.14C120.833 51.94 120.577 51.788 120.321 51.684C120.065 51.572 119.781 51.516 119.469 51.516C119.165 51.516 118.921 51.58 118.737 51.708C118.561 51.828 118.473 52 118.473 52.224C118.473 52.464 118.585 52.644 118.809 52.764C119.041 52.884 119.325 53.012 119.661 53.148L120.669 53.556C121.141 53.748 121.517 54.012 121.797 54.348C122.077 54.684 122.217 55.128 122.217 55.68C122.217 56.112 122.101 56.512 121.869 56.88C121.637 57.248 121.301 57.544 120.861 57.768C120.421 57.992 119.889 58.104 119.265 58.104ZM118.485 49.536L117.405 48.216L118.173 47.736L119.421 48.744H119.469L120.717 47.736L121.485 48.216L120.405 49.536H118.485ZM125.753 58.104C125.017 58.104 124.489 57.892 124.169 57.468C123.857 57.044 123.701 56.488 123.701 55.8V53.388H122.885V52.08L123.797 52.008L124.001 50.424H125.465V52.008H126.893V53.388H125.465V55.776C125.465 56.112 125.533 56.356 125.669 56.508C125.813 56.652 126.001 56.724 126.233 56.724C126.329 56.724 126.425 56.712 126.521 56.688C126.625 56.664 126.717 56.636 126.797 56.604L127.073 57.888C126.921 57.936 126.733 57.984 126.509 58.032C126.293 58.08 126.041 58.104 125.753 58.104ZM129.115 60.288C128.939 60.288 128.783 60.276 128.647 60.252C128.519 60.228 128.395 60.2 128.275 60.168L128.587 58.824C128.643 58.832 128.707 58.844 128.779 58.86C128.851 58.884 128.919 58.896 128.983 58.896C129.279 58.896 129.507 58.824 129.667 58.68C129.827 58.536 129.947 58.348 130.027 58.116L130.111 57.804L127.819 52.008H129.595L130.447 54.564C130.535 54.836 130.615 55.112 130.687 55.392C130.759 55.672 130.835 55.96 130.915 56.256H130.963C131.027 55.976 131.091 55.696 131.155 55.416C131.227 55.128 131.299 54.844 131.371 54.564L132.091 52.008H133.783L131.719 58.02C131.535 58.516 131.331 58.932 131.107 59.268C130.883 59.612 130.611 59.868 130.291 60.036C129.979 60.204 129.587 60.288 129.115 60.288ZM130.999 51.096L130.135 50.232L131.983 48.048L133.171 49.212L130.999 51.096ZM136.733 58.104C136.125 58.104 135.701 57.924 135.461 57.564C135.229 57.196 135.113 56.712 135.113 56.112V49.548H136.877V56.184C136.877 56.368 136.909 56.496 136.973 56.568C137.045 56.64 137.117 56.676 137.189 56.676C137.229 56.676 137.261 56.676 137.285 56.676C137.317 56.668 137.357 56.66 137.405 56.652L137.621 57.96C137.525 58 137.401 58.032 137.249 58.056C137.105 58.088 136.933 58.104 136.733 58.104ZM139.606 60.288C139.43 60.288 139.274 60.276 139.138 60.252C139.01 60.228 138.886 60.2 138.766 60.168L139.078 58.824C139.134 58.832 139.198 58.844 139.27 58.86C139.342 58.884 139.41 58.896 139.474 58.896C139.77 58.896 139.998 58.824 140.158 58.68C140.318 58.536 140.438 58.348 140.518 58.116L140.602 57.804L138.31 52.008H140.086L140.938 54.564C141.026 54.836 141.106 55.112 141.178 55.392C141.25 55.672 141.326 55.96 141.406 56.256H141.454C141.518 55.976 141.582 55.696 141.646 55.416C141.718 55.128 141.79 54.844 141.862 54.564L142.582 52.008H144.274L142.21 58.02C142.026 58.516 141.822 58.932 141.598 59.268C141.374 59.612 141.102 59.868 140.782 60.036C140.47 60.204 140.078 60.288 139.606 60.288Z" fill="white"/>
<path d="M187.286 53.96C187.286 55.4327 188.48 56.6266 189.953 56.6266C191.426 56.6266 192.62 55.4327 192.62 53.96C192.62 52.4872 191.426 51.2933 189.953 51.2933C188.48 51.2933 187.286 52.4872 187.286 53.96ZM166.953 54.46H189.953V53.46H166.953V54.46Z" fill="black"/>
<rect x="0.588867" y="196.524" width="72" height="36" rx="18" fill="black"/>
<path d="M22.8689 218.524L20.5049 210.7H22.3769L23.3129 214.348C23.4329 214.772 23.5369 215.188 23.6249 215.596C23.7209 216.004 23.8289 216.424 23.9489 216.856H23.9969C24.1089 216.424 24.2129 216.004 24.3089 215.596C24.4049 215.188 24.5089 214.772 24.6209 214.348L25.5449 210.7H27.3449L24.9929 218.524H22.8689ZM27.855 218.524V217.576L30.351 213.952H28.131V212.572H32.547V213.508L30.051 217.144H32.631V218.524H27.855ZM36.5374 218.668C36.0334 218.668 35.5574 218.548 35.1094 218.308C34.6694 218.06 34.3134 217.704 34.0414 217.24C33.7694 216.768 33.6334 216.204 33.6334 215.548C33.6334 214.884 33.7694 214.32 34.0414 213.856C34.3134 213.392 34.6694 213.04 35.1094 212.8C35.5574 212.552 36.0334 212.428 36.5374 212.428C37.0414 212.428 37.5134 212.552 37.9534 212.8C38.3934 213.04 38.7494 213.392 39.0214 213.856C39.2934 214.32 39.4294 214.884 39.4294 215.548C39.4294 216.204 39.2934 216.768 39.0214 217.24C38.7494 217.704 38.3934 218.06 37.9534 218.308C37.5134 218.548 37.0414 218.668 36.5374 218.668ZM36.5374 217.24C36.8974 217.24 37.1694 217.088 37.3534 216.784C37.5374 216.472 37.6294 216.06 37.6294 215.548C37.6294 215.028 37.5374 214.616 37.3534 214.312C37.1694 214.008 36.8974 213.856 36.5374 213.856C36.1694 213.856 35.8934 214.008 35.7094 214.312C35.5334 214.616 35.4454 215.028 35.4454 215.548C35.4454 216.06 35.5334 216.472 35.7094 216.784C35.8934 217.088 36.1694 217.24 36.5374 217.24ZM41.0376 218.524V212.572H42.4776L42.5976 213.616H42.6456C42.8616 213.216 43.1216 212.92 43.4256 212.728C43.7296 212.528 44.0336 212.428 44.3376 212.428C44.5056 212.428 44.6456 212.44 44.7576 212.464C44.8696 212.48 44.9656 212.508 45.0456 212.548L44.7576 214.072C44.6536 214.04 44.5496 214.016 44.4456 214C44.3496 213.984 44.2376 213.976 44.1096 213.976C43.8856 213.976 43.6496 214.06 43.4016 214.228C43.1616 214.388 42.9616 214.668 42.8016 215.068V218.524H41.0376ZM46.9609 220.852C46.7849 220.852 46.6289 220.84 46.4929 220.816C46.3649 220.792 46.2409 220.764 46.1209 220.732L46.4329 219.388C46.4889 219.396 46.5529 219.408 46.6249 219.424C46.6969 219.448 46.7649 219.46 46.8289 219.46C47.1249 219.46 47.3529 219.388 47.5129 219.244C47.6729 219.1 47.7929 218.912 47.8729 218.68L47.9569 218.368L45.6649 212.572H47.4409L48.2929 215.128C48.3809 215.4 48.4609 215.676 48.5329 215.956C48.6049 216.236 48.6809 216.524 48.7609 216.82H48.8089C48.8729 216.54 48.9369 216.26 49.0009 215.98C49.0729 215.692 49.1449 215.408 49.2169 215.128L49.9369 212.572H51.6289L49.5649 218.584C49.3809 219.08 49.1769 219.496 48.9529 219.832C48.7289 220.176 48.4569 220.432 48.1369 220.6C47.8249 220.768 47.4329 220.852 46.9609 220.852Z" fill="white"/>
<path d="M94.9222 214.524C94.9222 215.997 96.1161 217.191 97.5889 217.191C99.0616 217.191 100.256 215.997 100.256 214.524C100.256 213.052 99.0616 211.858 97.5889 211.858C96.1161 211.858 94.9222 213.052 94.9222 214.524ZM74.5889 215.024H97.5889V214.024H74.5889V215.024Z" fill="black"/>
<path d="M305.962 176.333C305.962 177.806 307.156 179 308.629 179C310.102 179 311.296 177.806 311.296 176.333C311.296 174.86 310.102 173.666 308.629 173.666C307.156 173.666 305.962 174.86 305.962 176.333ZM308.629 176.833H331.629V175.833H308.629V176.833Z" fill="black"/>
<rect x="333.629" y="158.333" width="113" height="36" rx="18" fill="black"/>
<path d="M354.553 180.333V172.509H356.317V175.713H356.365L358.693 172.509H360.637L358.273 175.629L361.069 180.333H359.137L357.229 177.033L356.317 178.233V180.333H354.553ZM364.549 180.477C364.045 180.477 363.569 180.357 363.121 180.117C362.681 179.869 362.325 179.513 362.053 179.049C361.781 178.577 361.645 178.013 361.645 177.357C361.645 176.693 361.781 176.129 362.053 175.665C362.325 175.201 362.681 174.849 363.121 174.609C363.569 174.361 364.045 174.237 364.549 174.237C365.053 174.237 365.525 174.361 365.965 174.609C366.405 174.849 366.761 175.201 367.033 175.665C367.305 176.129 367.441 176.693 367.441 177.357C367.441 178.013 367.305 178.577 367.033 179.049C366.761 179.513 366.405 179.869 365.965 180.117C365.525 180.357 365.053 180.477 364.549 180.477ZM364.549 179.049C364.909 179.049 365.181 178.897 365.365 178.593C365.549 178.281 365.641 177.869 365.641 177.357C365.641 176.837 365.549 176.425 365.365 176.121C365.181 175.817 364.909 175.665 364.549 175.665C364.181 175.665 363.905 175.817 363.721 176.121C363.545 176.425 363.457 176.837 363.457 177.357C363.457 177.869 363.545 178.281 363.721 178.593C363.905 178.897 364.181 179.049 364.549 179.049ZM369.049 180.333V174.381H370.489L370.609 175.149H370.657C370.905 174.901 371.169 174.689 371.449 174.513C371.729 174.329 372.065 174.237 372.457 174.237C372.881 174.237 373.221 174.325 373.477 174.501C373.741 174.669 373.949 174.913 374.101 175.233C374.365 174.961 374.645 174.729 374.941 174.537C375.237 174.337 375.581 174.237 375.973 174.237C376.613 174.237 377.081 174.453 377.377 174.885C377.681 175.309 377.833 175.893 377.833 176.637V180.333H376.069V176.865C376.069 176.433 376.009 176.137 375.889 175.977C375.777 175.817 375.593 175.737 375.337 175.737C375.041 175.737 374.701 175.929 374.317 176.313V180.333H372.553V176.865C372.553 176.433 372.493 176.137 372.373 175.977C372.261 175.817 372.077 175.737 371.821 175.737C371.525 175.737 371.189 175.929 370.813 176.313V180.333H369.049ZM379.738 182.541V174.381H381.178L381.298 174.969H381.346C381.578 174.761 381.838 174.589 382.126 174.453C382.422 174.309 382.726 174.237 383.038 174.237C383.758 174.237 384.326 174.513 384.742 175.065C385.158 175.609 385.366 176.341 385.366 177.261C385.366 177.941 385.246 178.521 385.006 179.001C384.766 179.481 384.454 179.849 384.07 180.105C383.694 180.353 383.29 180.477 382.858 180.477C382.602 180.477 382.354 180.425 382.114 180.321C381.874 180.209 381.65 180.053 381.442 179.853L381.502 180.801V182.541H379.738ZM382.45 179.037C382.754 179.037 383.014 178.897 383.23 178.617C383.446 178.337 383.554 177.893 383.554 177.285C383.554 176.213 383.21 175.677 382.522 175.677C382.178 175.677 381.838 175.857 381.502 176.217V178.653C381.662 178.797 381.822 178.897 381.982 178.953C382.142 179.009 382.298 179.037 382.45 179.037ZM389.573 180.477C389.069 180.477 388.593 180.357 388.145 180.117C387.705 179.869 387.349 179.513 387.077 179.049C386.805 178.577 386.669 178.013 386.669 177.357C386.669 176.693 386.805 176.129 387.077 175.665C387.349 175.201 387.705 174.849 388.145 174.609C388.593 174.361 389.069 174.237 389.573 174.237C390.077 174.237 390.549 174.361 390.989 174.609C391.429 174.849 391.785 175.201 392.057 175.665C392.329 176.129 392.465 176.693 392.465 177.357C392.465 178.013 392.329 178.577 392.057 179.049C391.785 179.513 391.429 179.869 390.989 180.117C390.549 180.357 390.077 180.477 389.573 180.477ZM389.573 179.049C389.933 179.049 390.205 178.897 390.389 178.593C390.573 178.281 390.665 177.869 390.665 177.357C390.665 176.837 390.573 176.425 390.389 176.121C390.205 175.817 389.933 175.665 389.573 175.665C389.205 175.665 388.929 175.817 388.745 176.121C388.569 176.425 388.481 176.837 388.481 177.357C388.481 177.869 388.569 178.281 388.745 178.593C388.929 178.897 389.205 179.049 389.573 179.049ZM394.073 180.333V174.381H395.513L395.633 175.137H395.681C395.937 174.897 396.217 174.689 396.521 174.513C396.833 174.329 397.189 174.237 397.589 174.237C398.237 174.237 398.705 174.453 398.993 174.885C399.289 175.309 399.437 175.893 399.437 176.637V180.333H397.673V176.865C397.673 176.433 397.613 176.137 397.493 175.977C397.381 175.817 397.197 175.737 396.941 175.737C396.717 175.737 396.525 175.789 396.365 175.893C396.205 175.989 396.029 176.129 395.837 176.313V180.333H394.073ZM404.004 180.477C403.436 180.477 402.924 180.353 402.468 180.105C402.012 179.857 401.652 179.501 401.388 179.037C401.124 178.573 400.992 178.013 400.992 177.357C400.992 176.709 401.124 176.153 401.388 175.689C401.66 175.225 402.012 174.869 402.444 174.621C402.876 174.365 403.328 174.237 403.8 174.237C404.368 174.237 404.836 174.365 405.204 174.621C405.58 174.869 405.86 175.209 406.044 175.641C406.236 176.065 406.332 176.549 406.332 177.093C406.332 177.245 406.324 177.397 406.308 177.549C406.292 177.693 406.276 177.801 406.26 177.873H402.696C402.776 178.305 402.956 178.625 403.236 178.833C403.516 179.033 403.852 179.133 404.244 179.133C404.668 179.133 405.096 179.001 405.528 178.737L406.116 179.805C405.812 180.013 405.472 180.177 405.096 180.297C404.72 180.417 404.356 180.477 404.004 180.477ZM402.684 176.709H404.832C404.832 176.381 404.752 176.113 404.592 175.905C404.44 175.689 404.188 175.581 403.836 175.581C403.564 175.581 403.32 175.677 403.104 175.869C402.888 176.053 402.748 176.333 402.684 176.709ZM407.951 180.333V174.381H409.391L409.511 175.137H409.559C409.815 174.897 410.095 174.689 410.399 174.513C410.711 174.329 411.067 174.237 411.467 174.237C412.115 174.237 412.583 174.453 412.871 174.885C413.167 175.309 413.315 175.893 413.315 176.637V180.333H411.551V176.865C411.551 176.433 411.491 176.137 411.371 175.977C411.259 175.817 411.075 175.737 410.819 175.737C410.595 175.737 410.403 175.789 410.243 175.893C410.083 175.989 409.907 176.129 409.715 176.313V180.333H407.951ZM417.51 180.477C416.774 180.477 416.246 180.265 415.926 179.841C415.614 179.417 415.458 178.861 415.458 178.173V175.761H414.642V174.453L415.554 174.381L415.758 172.797H417.222V174.381H418.65V175.761H417.222V178.149C417.222 178.485 417.29 178.729 417.426 178.881C417.57 179.025 417.758 179.097 417.99 179.097C418.086 179.097 418.182 179.085 418.278 179.061C418.382 179.037 418.474 179.009 418.554 178.977L418.83 180.261C418.678 180.309 418.49 180.357 418.266 180.405C418.05 180.453 417.798 180.477 417.51 180.477ZM420.872 182.661C420.696 182.661 420.54 182.649 420.404 182.625C420.276 182.601 420.152 182.573 420.032 182.541L420.344 181.197C420.4 181.205 420.464 181.217 420.536 181.233C420.608 181.257 420.676 181.269 420.74 181.269C421.036 181.269 421.264 181.197 421.424 181.053C421.584 180.909 421.704 180.721 421.784 180.489L421.868 180.177L419.576 174.381H421.352L422.204 176.937C422.292 177.209 422.372 177.485 422.444 177.765C422.516 178.045 422.592 178.333 422.672 178.629H422.72C422.784 178.349 422.848 178.069 422.912 177.789C422.984 177.501 423.056 177.217 423.128 176.937L423.848 174.381H425.54L423.476 180.393C423.292 180.889 423.088 181.305 422.864 181.641C422.64 181.985 422.368 182.241 422.048 182.409C421.736 182.577 421.344 182.661 420.872 182.661Z" fill="white"/>
</svg>
